ISO-10303-21;
HEADER;
FILE_DESCRIPTION(('FreeCAD Model'),'2;1');
FILE_NAME('Open CASCADE Shape Model','2026-10-07T19:50:51',('FreeCAD'),(
    'FreeCAD'),'Open CASCADE STEP processor 8.0','FreeCAD','Unknown');
FILE_SCHEMA(('AUTOMOTIVE_DESIGN { 1 0 10303 214 1 1 1 1 }'));
ENDSEC;
DATA;
#1 = APPLICATION_PROTOCOL_DEFINITION('international standard',
  'automotive_design',2000,#2);
#2 = APPLICATION_CONTEXT(
  'core data for automotive mechanical design processes');
#3 = SHAPE_DEFINITION_REPRESENTATION(#4,#10);
#4 = PRODUCT_DEFINITION_SHAPE('','',#5);
#5 = PRODUCT_DEFINITION('design','',#6,#9);
#6 = PRODUCT_DEFINITION_FORMATION('','',#7);
#7 = PRODUCT('Open CASCADE STEP translator 8.0 27',
  'Open CASCADE STEP translator 8.0 27','',(#8));
#8 = PRODUCT_CONTEXT('',#2,'mechanical');
#9 = PRODUCT_DEFINITION_CONTEXT('part definition',#2,'design');
#10 = ADVANCED_BREP_SHAPE_REPRESENTATION('',(#11,#15),#1293);
#11 = AXIS2_PLACEMENT_3D('',#12,#13,#14);
#12 = CARTESIAN_POINT('',(0.,0.,0.));
#13 = DIRECTION('',(0.,0.,1.));
#14 = DIRECTION('',(1.,0.,-0.));
#15 = MANIFOLD_SOLID_BREP('',#16);
#16 = CLOSED_SHELL('',(#17,#59,#90,#121,#217,#469,#486,#503,#520,#537,
    #549,#574,#599,#624,#649,#680,#704,#728,#752,#776,#793,#824,#848,
    #872,#896,#920,#937,#968,#992,#1016,#1040,#1064,#1081,#1112,#1136,
    #1160,#1184,#1208,#1225,#1242,#1259,#1276));
#17 = ADVANCED_FACE('',(#18),#54,.T.);
#18 = FACE_BOUND('',#19,.F.);
#19 = EDGE_LOOP('',(#20,#30,#39,#47));
#20 = ORIENTED_EDGE('',*,*,#21,.T.);
#21 = EDGE_CURVE('',#22,#24,#26,.T.);
#22 = VERTEX_POINT('',#23);
#23 = CARTESIAN_POINT('',(8.388379930141,71.,0.));
#24 = VERTEX_POINT('',#25);
#25 = CARTESIAN_POINT('',(8.388379930141,71.,8.));
#26 = LINE('',#27,#28);
#27 = CARTESIAN_POINT('',(8.388379930141,71.,8.881895219304E-15));
#28 = VECTOR('',#29,1.);
#29 = DIRECTION('',(0.,0.,1.));
#30 = ORIENTED_EDGE('',*,*,#31,.T.);
#31 = EDGE_CURVE('',#24,#32,#34,.T.);
#32 = VERTEX_POINT('',#33);
#33 = CARTESIAN_POINT('',(3.388379930141,76.,8.));
#34 = CIRCLE('',#35,5.);
#35 = AXIS2_PLACEMENT_3D('',#36,#37,#38);
#36 = CARTESIAN_POINT('',(3.388379930141,71.,8.));
#37 = DIRECTION('',(0.,0.,1.));
#38 = DIRECTION('',(1.,0.,0.));
#39 = ORIENTED_EDGE('',*,*,#40,.F.);
#40 = EDGE_CURVE('',#41,#32,#43,.T.);
#41 = VERTEX_POINT('',#42);
#42 = CARTESIAN_POINT('',(3.388379930141,76.,7.105427357601E-15));
#43 = LINE('',#44,#45);
#44 = CARTESIAN_POINT('',(3.388379930141,76.,8.881895219304E-15));
#45 = VECTOR('',#46,1.);
#46 = DIRECTION('',(0.,0.,1.));
#47 = ORIENTED_EDGE('',*,*,#48,.F.);
#48 = EDGE_CURVE('',#22,#41,#49,.T.);
#49 = CIRCLE('',#50,5.);
#50 = AXIS2_PLACEMENT_3D('',#51,#52,#53);
#51 = CARTESIAN_POINT('',(3.388379930141,71.,8.881895219304E-15));
#52 = DIRECTION('',(0.,0.,1.));
#53 = DIRECTION('',(1.,0.,0.));
#54 = CYLINDRICAL_SURFACE('',#55,5.);
#55 = AXIS2_PLACEMENT_3D('',#56,#57,#58);
#56 = CARTESIAN_POINT('',(3.388379930141,71.,8.881895219304E-15));
#57 = DIRECTION('',(-0.,-0.,-1.));
#58 = DIRECTION('',(1.,0.,0.));
#59 = ADVANCED_FACE('',(#60),#85,.F.);
#60 = FACE_BOUND('',#61,.F.);
#61 = EDGE_LOOP('',(#62,#72,#78,#79));
#62 = ORIENTED_EDGE('',*,*,#63,.T.);
#63 = EDGE_CURVE('',#64,#66,#68,.T.);
#64 = VERTEX_POINT('',#65);
#65 = CARTESIAN_POINT('',(8.388379930141,-71.,-7.105427357601E-15));
#66 = VERTEX_POINT('',#67);
#67 = CARTESIAN_POINT('',(8.388379930141,-71.,8.));
#68 = LINE('',#69,#70);
#69 = CARTESIAN_POINT('',(8.388379930141,-71.,8.881895219304E-15));
#70 = VECTOR('',#71,1.);
#71 = DIRECTION('',(0.,0.,1.));
#72 = ORIENTED_EDGE('',*,*,#73,.T.);
#73 = EDGE_CURVE('',#66,#24,#74,.T.);
#74 = LINE('',#75,#76);
#75 = CARTESIAN_POINT('',(8.388379930141,-71.,8.));
#76 = VECTOR('',#77,1.);
#77 = DIRECTION('',(0.,1.,0.));
#78 = ORIENTED_EDGE('',*,*,#21,.F.);
#79 = ORIENTED_EDGE('',*,*,#80,.F.);
#80 = EDGE_CURVE('',#64,#22,#81,.T.);
#81 = LINE('',#82,#83);
#82 = CARTESIAN_POINT('',(8.388379930141,-71.,8.881895219304E-15));
#83 = VECTOR('',#84,1.);
#84 = DIRECTION('',(0.,1.,0.));
#85 = PLANE('',#86);
#86 = AXIS2_PLACEMENT_3D('',#87,#88,#89);
#87 = CARTESIAN_POINT('',(8.388379930141,-71.,8.881895219304E-15));
#88 = DIRECTION('',(-1.,0.,0.));
#89 = DIRECTION('',(0.,1.,0.));
#90 = ADVANCED_FACE('',(#91),#116,.F.);
#91 = FACE_BOUND('',#92,.F.);
#92 = EDGE_LOOP('',(#93,#94,#102,#110));
#93 = ORIENTED_EDGE('',*,*,#40,.T.);
#94 = ORIENTED_EDGE('',*,*,#95,.T.);
#95 = EDGE_CURVE('',#32,#96,#98,.T.);
#96 = VERTEX_POINT('',#97);
#97 = CARTESIAN_POINT('',(-3.388379930141,76.,8.));
#98 = LINE('',#99,#100);
#99 = CARTESIAN_POINT('',(3.388379930141,76.,8.));
#100 = VECTOR('',#101,1.);
#101 = DIRECTION('',(-1.,0.,0.));
#102 = ORIENTED_EDGE('',*,*,#103,.F.);
#103 = EDGE_CURVE('',#104,#96,#106,.T.);
#104 = VERTEX_POINT('',#105);
#105 = CARTESIAN_POINT('',(-3.388379930141,76.,7.105427357601E-15));
#106 = LINE('',#107,#108);
#107 = CARTESIAN_POINT('',(-3.388379930141,76.,8.881895219304E-15));
#108 = VECTOR('',#109,1.);
#109 = DIRECTION('',(0.,0.,1.));
#110 = ORIENTED_EDGE('',*,*,#111,.F.);
#111 = EDGE_CURVE('',#41,#104,#112,.T.);
#112 = LINE('',#113,#114);
#113 = CARTESIAN_POINT('',(3.388379930141,76.,8.881895219304E-15));
#114 = VECTOR('',#115,1.);
#115 = DIRECTION('',(-1.,0.,0.));
#116 = PLANE('',#117);
#117 = AXIS2_PLACEMENT_3D('',#118,#119,#120);
#118 = CARTESIAN_POINT('',(3.388379930141,76.,8.881895219304E-15));
#119 = DIRECTION('',(0.,-1.,0.));
#120 = DIRECTION('',(-1.,0.,0.));
#121 = ADVANCED_FACE('',(#122,#168,#179,#190,#201),#212,.F.);
#122 = FACE_BOUND('',#123,.F.);
#123 = EDGE_LOOP('',(#124,#125,#126,#135,#143,#152,#160,#167));
#124 = ORIENTED_EDGE('',*,*,#48,.T.);
#125 = ORIENTED_EDGE('',*,*,#111,.T.);
#126 = ORIENTED_EDGE('',*,*,#127,.T.);
#127 = EDGE_CURVE('',#104,#128,#130,.T.);
#128 = VERTEX_POINT('',#129);
#129 = CARTESIAN_POINT('',(-8.388379930141,71.,0.));
#130 = CIRCLE('',#131,5.);
#131 = AXIS2_PLACEMENT_3D('',#132,#133,#134);
#132 = CARTESIAN_POINT('',(-3.388379930141,71.,8.881895219304E-15));
#133 = DIRECTION('',(0.,0.,1.));
#134 = DIRECTION('',(1.,0.,0.));
#135 = ORIENTED_EDGE('',*,*,#136,.T.);
#136 = EDGE_CURVE('',#128,#137,#139,.T.);
#137 = VERTEX_POINT('',#138);
#138 = CARTESIAN_POINT('',(-8.388379930141,-71.,0.));
#139 = LINE('',#140,#141);
#140 = CARTESIAN_POINT('',(-8.388379930141,71.,8.881895219304E-15));
#141 = VECTOR('',#142,1.);
#142 = DIRECTION('',(0.,-1.,0.));
#143 = ORIENTED_EDGE('',*,*,#144,.T.);
#144 = EDGE_CURVE('',#137,#145,#147,.T.);
#145 = VERTEX_POINT('',#146);
#146 = CARTESIAN_POINT('',(-3.388379930141,-76.,0.));
#147 = CIRCLE('',#148,5.);
#148 = AXIS2_PLACEMENT_3D('',#149,#150,#151);
#149 = CARTESIAN_POINT('',(-3.388379930141,-71.,8.881895219304E-15));
#150 = DIRECTION('',(0.,0.,1.));
#151 = DIRECTION('',(1.,0.,0.));
#152 = ORIENTED_EDGE('',*,*,#153,.T.);
#153 = EDGE_CURVE('',#145,#154,#156,.T.);
#154 = VERTEX_POINT('',#155);
#155 = CARTESIAN_POINT('',(3.388379930141,-76.,0.));
#156 = LINE('',#157,#158);
#157 = CARTESIAN_POINT('',(-3.388379930141,-76.,8.881895219304E-15));
#158 = VECTOR('',#159,1.);
#159 = DIRECTION('',(1.,0.,0.));
#160 = ORIENTED_EDGE('',*,*,#161,.T.);
#161 = EDGE_CURVE('',#154,#64,#162,.T.);
#162 = CIRCLE('',#163,5.);
#163 = AXIS2_PLACEMENT_3D('',#164,#165,#166);
#164 = CARTESIAN_POINT('',(3.388379930141,-71.,8.881895219304E-15));
#165 = DIRECTION('',(0.,0.,1.));
#166 = DIRECTION('',(1.,0.,0.));
#167 = ORIENTED_EDGE('',*,*,#80,.T.);
#168 = FACE_BOUND('',#169,.F.);
#169 = EDGE_LOOP('',(#170));
#170 = ORIENTED_EDGE('',*,*,#171,.F.);
#171 = EDGE_CURVE('',#172,#172,#174,.T.);
#172 = VERTEX_POINT('',#173);
#173 = CARTESIAN_POINT('',(3.648548047644,-66.,0.));
#174 = CIRCLE('',#175,2.2);
#175 = AXIS2_PLACEMENT_3D('',#176,#177,#178);
#176 = CARTESIAN_POINT('',(1.448548047644,-66.,8.881895219304E-15));
#177 = DIRECTION('',(0.,0.,1.));
#178 = DIRECTION('',(1.,0.,0.));
#179 = FACE_BOUND('',#180,.F.);
#180 = EDGE_LOOP('',(#181));
#181 = ORIENTED_EDGE('',*,*,#182,.F.);
#182 = EDGE_CURVE('',#183,#183,#185,.T.);
#183 = VERTEX_POINT('',#184);
#184 = CARTESIAN_POINT('',(3.648548047644,-14.,-7.105427357601E-15));
#185 = CIRCLE('',#186,2.2);
#186 = AXIS2_PLACEMENT_3D('',#187,#188,#189);
#187 = CARTESIAN_POINT('',(1.448548047644,-14.,8.881895219304E-15));
#188 = DIRECTION('',(0.,0.,1.));
#189 = DIRECTION('',(1.,0.,0.));
#190 = FACE_BOUND('',#191,.F.);
#191 = EDGE_LOOP('',(#192));
#192 = ORIENTED_EDGE('',*,*,#193,.F.);
#193 = EDGE_CURVE('',#194,#194,#196,.T.);
#194 = VERTEX_POINT('',#195);
#195 = CARTESIAN_POINT('',(3.648548047644,14.001,-7.105427357601E-15));
#196 = CIRCLE('',#197,2.2);
#197 = AXIS2_PLACEMENT_3D('',#198,#199,#200);
#198 = CARTESIAN_POINT('',(1.448548047644,14.001,0.));
#199 = DIRECTION('',(0.,0.,1.));
#200 = DIRECTION('',(1.,0.,0.));
#201 = FACE_BOUND('',#202,.F.);
#202 = EDGE_LOOP('',(#203));
#203 = ORIENTED_EDGE('',*,*,#204,.F.);
#204 = EDGE_CURVE('',#205,#205,#207,.T.);
#205 = VERTEX_POINT('',#206);
#206 = CARTESIAN_POINT('',(3.648548047644,66.001,0.));
#207 = CIRCLE('',#208,2.2);
#208 = AXIS2_PLACEMENT_3D('',#209,#210,#211);
#209 = CARTESIAN_POINT('',(1.448548047644,66.001,0.));
#210 = DIRECTION('',(0.,0.,1.));
#211 = DIRECTION('',(1.,0.,0.));
#212 = PLANE('',#213);
#213 = AXIS2_PLACEMENT_3D('',#214,#215,#216);
#214 = CARTESIAN_POINT('',(-6.661338147751E-16,0.,8.881895219304E-15));
#215 = DIRECTION('',(0.,0.,1.));
#216 = DIRECTION('',(1.,0.,0.));
#217 = ADVANCED_FACE('',(#218,#264,#314,#364,#414),#464,.T.);
#218 = FACE_BOUND('',#219,.T.);
#219 = EDGE_LOOP('',(#220,#221,#222,#231,#239,#248,#256,#263));
#220 = ORIENTED_EDGE('',*,*,#31,.T.);
#221 = ORIENTED_EDGE('',*,*,#95,.T.);
#222 = ORIENTED_EDGE('',*,*,#223,.T.);
#223 = EDGE_CURVE('',#96,#224,#226,.T.);
#224 = VERTEX_POINT('',#225);
#225 = CARTESIAN_POINT('',(-8.388379930141,71.,8.));
#226 = CIRCLE('',#227,5.);
#227 = AXIS2_PLACEMENT_3D('',#228,#229,#230);
#228 = CARTESIAN_POINT('',(-3.388379930141,71.,8.));
#229 = DIRECTION('',(0.,0.,1.));
#230 = DIRECTION('',(1.,0.,0.));
#231 = ORIENTED_EDGE('',*,*,#232,.T.);
#232 = EDGE_CURVE('',#224,#233,#235,.T.);
#233 = VERTEX_POINT('',#234);
#234 = CARTESIAN_POINT('',(-8.388379930141,-71.,8.));
#235 = LINE('',#236,#237);
#236 = CARTESIAN_POINT('',(-8.388379930141,71.,8.));
#237 = VECTOR('',#238,1.);
#238 = DIRECTION('',(0.,-1.,0.));
#239 = ORIENTED_EDGE('',*,*,#240,.T.);
#240 = EDGE_CURVE('',#233,#241,#243,.T.);
#241 = VERTEX_POINT('',#242);
#242 = CARTESIAN_POINT('',(-3.388379930141,-76.,8.));
#243 = CIRCLE('',#244,5.);
#244 = AXIS2_PLACEMENT_3D('',#245,#246,#247);
#245 = CARTESIAN_POINT('',(-3.388379930141,-71.,8.));
#246 = DIRECTION('',(0.,0.,1.));
#247 = DIRECTION('',(1.,0.,0.));
#248 = ORIENTED_EDGE('',*,*,#249,.T.);
#249 = EDGE_CURVE('',#241,#250,#252,.T.);
#250 = VERTEX_POINT('',#251);
#251 = CARTESIAN_POINT('',(3.388379930141,-76.,8.));
#252 = LINE('',#253,#254);
#253 = CARTESIAN_POINT('',(-3.388379930141,-76.,8.));
#254 = VECTOR('',#255,1.);
#255 = DIRECTION('',(1.,0.,0.));
#256 = ORIENTED_EDGE('',*,*,#257,.T.);
#257 = EDGE_CURVE('',#250,#66,#258,.T.);
#258 = CIRCLE('',#259,5.);
#259 = AXIS2_PLACEMENT_3D('',#260,#261,#262);
#260 = CARTESIAN_POINT('',(3.388379930141,-71.,8.));
#261 = DIRECTION('',(0.,0.,1.));
#262 = DIRECTION('',(1.,0.,0.));
#263 = ORIENTED_EDGE('',*,*,#73,.T.);
#264 = FACE_BOUND('',#265,.T.);
#265 = EDGE_LOOP('',(#266,#276,#284,#292,#300,#308));
#266 = ORIENTED_EDGE('',*,*,#267,.F.);
#267 = EDGE_CURVE('',#268,#270,#272,.T.);
#268 = VERTEX_POINT('',#269);
#269 = CARTESIAN_POINT('',(5.663205012729,-66.,8.));
#270 = VERTEX_POINT('',#271);
#271 = CARTESIAN_POINT('',(3.555876530186,-62.35,8.));
#272 = LINE('',#273,#274);
#273 = CARTESIAN_POINT('',(5.663205012729,-66.,8.));
#274 = VECTOR('',#275,1.);
#275 = DIRECTION('',(-0.5,0.866025403784,0.));
#276 = ORIENTED_EDGE('',*,*,#277,.F.);
#277 = EDGE_CURVE('',#278,#268,#280,.T.);
#278 = VERTEX_POINT('',#279);
#279 = CARTESIAN_POINT('',(3.555876530186,-69.65,8.));
#280 = LINE('',#281,#282);
#281 = CARTESIAN_POINT('',(3.555876530186,-69.65,8.));
#282 = VECTOR('',#283,1.);
#283 = DIRECTION('',(0.5,0.866025403784,0.));
#284 = ORIENTED_EDGE('',*,*,#285,.F.);
#285 = EDGE_CURVE('',#286,#278,#288,.T.);
#286 = VERTEX_POINT('',#287);
#287 = CARTESIAN_POINT('',(-0.658780434898,-69.65,8.));
#288 = LINE('',#289,#290);
#289 = CARTESIAN_POINT('',(-0.658780434898,-69.65,8.));
#290 = VECTOR('',#291,1.);
#291 = DIRECTION('',(1.,0.,0.));
#292 = ORIENTED_EDGE('',*,*,#293,.F.);
#293 = EDGE_CURVE('',#294,#286,#296,.T.);
#294 = VERTEX_POINT('',#295);
#295 = CARTESIAN_POINT('',(-2.76610891744,-66.,8.));
#296 = LINE('',#297,#298);
#297 = CARTESIAN_POINT('',(-2.76610891744,-66.,8.));
#298 = VECTOR('',#299,1.);
#299 = DIRECTION('',(0.5,-0.866025403784,0.));
#300 = ORIENTED_EDGE('',*,*,#301,.F.);
#301 = EDGE_CURVE('',#302,#294,#304,.T.);
#302 = VERTEX_POINT('',#303);
#303 = CARTESIAN_POINT('',(-0.658780434898,-62.35,8.));
#304 = LINE('',#305,#306);
#305 = CARTESIAN_POINT('',(-0.658780434898,-62.35,8.));
#306 = VECTOR('',#307,1.);
#307 = DIRECTION('',(-0.5,-0.866025403784,0.));
#308 = ORIENTED_EDGE('',*,*,#309,.F.);
#309 = EDGE_CURVE('',#270,#302,#310,.T.);
#310 = LINE('',#311,#312);
#311 = CARTESIAN_POINT('',(3.555876530186,-62.35,8.));
#312 = VECTOR('',#313,1.);
#313 = DIRECTION('',(-1.,0.,0.));
#314 = FACE_BOUND('',#315,.T.);
#315 = EDGE_LOOP('',(#316,#326,#334,#342,#350,#358));
#316 = ORIENTED_EDGE('',*,*,#317,.F.);
#317 = EDGE_CURVE('',#318,#320,#322,.T.);
#318 = VERTEX_POINT('',#319);
#319 = CARTESIAN_POINT('',(5.663205012729,-14.,8.));
#320 = VERTEX_POINT('',#321);
#321 = CARTESIAN_POINT('',(3.555876530186,-10.35,8.));
#322 = LINE('',#323,#324);
#323 = CARTESIAN_POINT('',(5.663205012729,-14.,8.));
#324 = VECTOR('',#325,1.);
#325 = DIRECTION('',(-0.5,0.866025403784,0.));
#326 = ORIENTED_EDGE('',*,*,#327,.F.);
#327 = EDGE_CURVE('',#328,#318,#330,.T.);
#328 = VERTEX_POINT('',#329);
#329 = CARTESIAN_POINT('',(3.555876530186,-17.65,8.));
#330 = LINE('',#331,#332);
#331 = CARTESIAN_POINT('',(3.555876530186,-17.65,8.));
#332 = VECTOR('',#333,1.);
#333 = DIRECTION('',(0.5,0.866025403784,0.));
#334 = ORIENTED_EDGE('',*,*,#335,.F.);
#335 = EDGE_CURVE('',#336,#328,#338,.T.);
#336 = VERTEX_POINT('',#337);
#337 = CARTESIAN_POINT('',(-0.658780434898,-17.65,8.));
#338 = LINE('',#339,#340);
#339 = CARTESIAN_POINT('',(-0.658780434898,-17.65,8.));
#340 = VECTOR('',#341,1.);
#341 = DIRECTION('',(1.,0.,0.));
#342 = ORIENTED_EDGE('',*,*,#343,.F.);
#343 = EDGE_CURVE('',#344,#336,#346,.T.);
#344 = VERTEX_POINT('',#345);
#345 = CARTESIAN_POINT('',(-2.76610891744,-14.,8.));
#346 = LINE('',#347,#348);
#347 = CARTESIAN_POINT('',(-2.76610891744,-14.,8.));
#348 = VECTOR('',#349,1.);
#349 = DIRECTION('',(0.5,-0.866025403784,0.));
#350 = ORIENTED_EDGE('',*,*,#351,.F.);
#351 = EDGE_CURVE('',#352,#344,#354,.T.);
#352 = VERTEX_POINT('',#353);
#353 = CARTESIAN_POINT('',(-0.658780434898,-10.35,8.));
#354 = LINE('',#355,#356);
#355 = CARTESIAN_POINT('',(-0.658780434898,-10.35,8.));
#356 = VECTOR('',#357,1.);
#357 = DIRECTION('',(-0.5,-0.866025403784,0.));
#358 = ORIENTED_EDGE('',*,*,#359,.F.);
#359 = EDGE_CURVE('',#320,#352,#360,.T.);
#360 = LINE('',#361,#362);
#361 = CARTESIAN_POINT('',(3.555876530186,-10.35,8.));
#362 = VECTOR('',#363,1.);
#363 = DIRECTION('',(-1.,0.,0.));
#364 = FACE_BOUND('',#365,.T.);
#365 = EDGE_LOOP('',(#366,#376,#384,#392,#400,#408));
#366 = ORIENTED_EDGE('',*,*,#367,.F.);
#367 = EDGE_CURVE('',#368,#370,#372,.T.);
#368 = VERTEX_POINT('',#369);
#369 = CARTESIAN_POINT('',(5.663205012729,14.001,8.));
#370 = VERTEX_POINT('',#371);
#371 = CARTESIAN_POINT('',(3.555876530186,17.651,8.));
#372 = LINE('',#373,#374);
#373 = CARTESIAN_POINT('',(5.663205012729,14.001,8.));
#374 = VECTOR('',#375,1.);
#375 = DIRECTION('',(-0.5,0.866025403784,0.));
#376 = ORIENTED_EDGE('',*,*,#377,.F.);
#377 = EDGE_CURVE('',#378,#368,#380,.T.);
#378 = VERTEX_POINT('',#379);
#379 = CARTESIAN_POINT('',(3.555876530186,10.351,8.));
#380 = LINE('',#381,#382);
#381 = CARTESIAN_POINT('',(3.555876530186,10.351,8.));
#382 = VECTOR('',#383,1.);
#383 = DIRECTION('',(0.5,0.866025403784,0.));
#384 = ORIENTED_EDGE('',*,*,#385,.F.);
#385 = EDGE_CURVE('',#386,#378,#388,.T.);
#386 = VERTEX_POINT('',#387);
#387 = CARTESIAN_POINT('',(-0.658780434898,10.351,8.));
#388 = LINE('',#389,#390);
#389 = CARTESIAN_POINT('',(-0.658780434898,10.351,8.));
#390 = VECTOR('',#391,1.);
#391 = DIRECTION('',(1.,0.,0.));
#392 = ORIENTED_EDGE('',*,*,#393,.F.);
#393 = EDGE_CURVE('',#394,#386,#396,.T.);
#394 = VERTEX_POINT('',#395);
#395 = CARTESIAN_POINT('',(-2.76610891744,14.001,8.));
#396 = LINE('',#397,#398);
#397 = CARTESIAN_POINT('',(-2.76610891744,14.001,8.));
#398 = VECTOR('',#399,1.);
#399 = DIRECTION('',(0.5,-0.866025403784,0.));
#400 = ORIENTED_EDGE('',*,*,#401,.F.);
#401 = EDGE_CURVE('',#402,#394,#404,.T.);
#402 = VERTEX_POINT('',#403);
#403 = CARTESIAN_POINT('',(-0.658780434898,17.651,8.));
#404 = LINE('',#405,#406);
#405 = CARTESIAN_POINT('',(-0.658780434898,17.651,8.));
#406 = VECTOR('',#407,1.);
#407 = DIRECTION('',(-0.5,-0.866025403784,0.));
#408 = ORIENTED_EDGE('',*,*,#409,.F.);
#409 = EDGE_CURVE('',#370,#402,#410,.T.);
#410 = LINE('',#411,#412);
#411 = CARTESIAN_POINT('',(3.555876530186,17.651,8.));
#412 = VECTOR('',#413,1.);
#413 = DIRECTION('',(-1.,0.,0.));
#414 = FACE_BOUND('',#415,.T.);
#415 = EDGE_LOOP('',(#416,#426,#434,#442,#450,#458));
#416 = ORIENTED_EDGE('',*,*,#417,.F.);
#417 = EDGE_CURVE('',#418,#420,#422,.T.);
#418 = VERTEX_POINT('',#419);
#419 = CARTESIAN_POINT('',(5.663205012729,66.001,8.));
#420 = VERTEX_POINT('',#421);
#421 = CARTESIAN_POINT('',(3.555876530186,69.651,8.));
#422 = LINE('',#423,#424);
#423 = CARTESIAN_POINT('',(5.663205012729,66.001,8.));
#424 = VECTOR('',#425,1.);
#425 = DIRECTION('',(-0.5,0.866025403784,0.));
#426 = ORIENTED_EDGE('',*,*,#427,.F.);
#427 = EDGE_CURVE('',#428,#418,#430,.T.);
#428 = VERTEX_POINT('',#429);
#429 = CARTESIAN_POINT('',(3.555876530186,62.351,8.));
#430 = LINE('',#431,#432);
#431 = CARTESIAN_POINT('',(3.555876530186,62.351,8.));
#432 = VECTOR('',#433,1.);
#433 = DIRECTION('',(0.5,0.866025403784,0.));
#434 = ORIENTED_EDGE('',*,*,#435,.F.);
#435 = EDGE_CURVE('',#436,#428,#438,.T.);
#436 = VERTEX_POINT('',#437);
#437 = CARTESIAN_POINT('',(-0.658780434898,62.351,8.));
#438 = LINE('',#439,#440);
#439 = CARTESIAN_POINT('',(-0.658780434898,62.351,8.));
#440 = VECTOR('',#441,1.);
#441 = DIRECTION('',(1.,0.,0.));
#442 = ORIENTED_EDGE('',*,*,#443,.F.);
#443 = EDGE_CURVE('',#444,#436,#446,.T.);
#444 = VERTEX_POINT('',#445);
#445 = CARTESIAN_POINT('',(-2.76610891744,66.001,8.));
#446 = LINE('',#447,#448);
#447 = CARTESIAN_POINT('',(-2.76610891744,66.001,8.));
#448 = VECTOR('',#449,1.);
#449 = DIRECTION('',(0.5,-0.866025403784,0.));
#450 = ORIENTED_EDGE('',*,*,#451,.F.);
#451 = EDGE_CURVE('',#452,#444,#454,.T.);
#452 = VERTEX_POINT('',#453);
#453 = CARTESIAN_POINT('',(-0.658780434898,69.651,8.));
#454 = LINE('',#455,#456);
#455 = CARTESIAN_POINT('',(-0.658780434898,69.651,8.));
#456 = VECTOR('',#457,1.);
#457 = DIRECTION('',(-0.5,-0.866025403784,0.));
#458 = ORIENTED_EDGE('',*,*,#459,.F.);
#459 = EDGE_CURVE('',#420,#452,#460,.T.);
#460 = LINE('',#461,#462);
#461 = CARTESIAN_POINT('',(3.555876530186,69.651,8.));
#462 = VECTOR('',#463,1.);
#463 = DIRECTION('',(-1.,0.,0.));
#464 = PLANE('',#465);
#465 = AXIS2_PLACEMENT_3D('',#466,#467,#468);
#466 = CARTESIAN_POINT('',(-6.661338147751E-16,0.,8.));
#467 = DIRECTION('',(0.,0.,1.));
#468 = DIRECTION('',(1.,0.,0.));
#469 = ADVANCED_FACE('',(#470),#481,.T.);
#470 = FACE_BOUND('',#471,.F.);
#471 = EDGE_LOOP('',(#472,#478,#479,#480));
#472 = ORIENTED_EDGE('',*,*,#473,.T.);
#473 = EDGE_CURVE('',#154,#250,#474,.T.);
#474 = LINE('',#475,#476);
#475 = CARTESIAN_POINT('',(3.388379930141,-76.,8.881895219304E-15));
#476 = VECTOR('',#477,1.);
#477 = DIRECTION('',(0.,0.,1.));
#478 = ORIENTED_EDGE('',*,*,#257,.T.);
#479 = ORIENTED_EDGE('',*,*,#63,.F.);
#480 = ORIENTED_EDGE('',*,*,#161,.F.);
#481 = CYLINDRICAL_SURFACE('',#482,5.);
#482 = AXIS2_PLACEMENT_3D('',#483,#484,#485);
#483 = CARTESIAN_POINT('',(3.388379930141,-71.,8.881895219304E-15));
#484 = DIRECTION('',(-0.,-0.,-1.));
#485 = DIRECTION('',(1.,0.,0.));
#486 = ADVANCED_FACE('',(#487),#498,.T.);
#487 = FACE_BOUND('',#488,.F.);
#488 = EDGE_LOOP('',(#489,#490,#491,#497));
#489 = ORIENTED_EDGE('',*,*,#103,.T.);
#490 = ORIENTED_EDGE('',*,*,#223,.T.);
#491 = ORIENTED_EDGE('',*,*,#492,.F.);
#492 = EDGE_CURVE('',#128,#224,#493,.T.);
#493 = LINE('',#494,#495);
#494 = CARTESIAN_POINT('',(-8.388379930141,71.,8.881895219304E-15));
#495 = VECTOR('',#496,1.);
#496 = DIRECTION('',(0.,0.,1.));
#497 = ORIENTED_EDGE('',*,*,#127,.F.);
#498 = CYLINDRICAL_SURFACE('',#499,5.);
#499 = AXIS2_PLACEMENT_3D('',#500,#501,#502);
#500 = CARTESIAN_POINT('',(-3.388379930141,71.,8.881895219304E-15));
#501 = DIRECTION('',(-0.,-0.,-1.));
#502 = DIRECTION('',(1.,0.,0.));
#503 = ADVANCED_FACE('',(#504),#515,.F.);
#504 = FACE_BOUND('',#505,.F.);
#505 = EDGE_LOOP('',(#506,#512,#513,#514));
#506 = ORIENTED_EDGE('',*,*,#507,.T.);
#507 = EDGE_CURVE('',#145,#241,#508,.T.);
#508 = LINE('',#509,#510);
#509 = CARTESIAN_POINT('',(-3.388379930141,-76.,8.881895219304E-15));
#510 = VECTOR('',#511,1.);
#511 = DIRECTION('',(0.,0.,1.));
#512 = ORIENTED_EDGE('',*,*,#249,.T.);
#513 = ORIENTED_EDGE('',*,*,#473,.F.);
#514 = ORIENTED_EDGE('',*,*,#153,.F.);
#515 = PLANE('',#516);
#516 = AXIS2_PLACEMENT_3D('',#517,#518,#519);
#517 = CARTESIAN_POINT('',(-3.388379930141,-76.,8.881895219304E-15));
#518 = DIRECTION('',(0.,1.,0.));
#519 = DIRECTION('',(1.,0.,0.));
#520 = ADVANCED_FACE('',(#521),#532,.F.);
#521 = FACE_BOUND('',#522,.F.);
#522 = EDGE_LOOP('',(#523,#524,#525,#531));
#523 = ORIENTED_EDGE('',*,*,#492,.T.);
#524 = ORIENTED_EDGE('',*,*,#232,.T.);
#525 = ORIENTED_EDGE('',*,*,#526,.F.);
#526 = EDGE_CURVE('',#137,#233,#527,.T.);
#527 = LINE('',#528,#529);
#528 = CARTESIAN_POINT('',(-8.388379930141,-71.,8.881895219304E-15));
#529 = VECTOR('',#530,1.);
#530 = DIRECTION('',(0.,0.,1.));
#531 = ORIENTED_EDGE('',*,*,#136,.F.);
#532 = PLANE('',#533);
#533 = AXIS2_PLACEMENT_3D('',#534,#535,#536);
#534 = CARTESIAN_POINT('',(-8.388379930141,71.,8.881895219304E-15));
#535 = DIRECTION('',(1.,0.,0.));
#536 = DIRECTION('',(0.,-1.,0.));
#537 = ADVANCED_FACE('',(#538),#544,.T.);
#538 = FACE_BOUND('',#539,.F.);
#539 = EDGE_LOOP('',(#540,#541,#542,#543));
#540 = ORIENTED_EDGE('',*,*,#526,.T.);
#541 = ORIENTED_EDGE('',*,*,#240,.T.);
#542 = ORIENTED_EDGE('',*,*,#507,.F.);
#543 = ORIENTED_EDGE('',*,*,#144,.F.);
#544 = CYLINDRICAL_SURFACE('',#545,5.);
#545 = AXIS2_PLACEMENT_3D('',#546,#547,#548);
#546 = CARTESIAN_POINT('',(-3.388379930141,-71.,8.881895219304E-15));
#547 = DIRECTION('',(-0.,-0.,-1.));
#548 = DIRECTION('',(1.,0.,0.));
#549 = ADVANCED_FACE('',(#550),#569,.F.);
#550 = FACE_BOUND('',#551,.T.);
#551 = EDGE_LOOP('',(#552,#560,#561,#562));
#552 = ORIENTED_EDGE('',*,*,#553,.F.);
#553 = EDGE_CURVE('',#172,#554,#556,.T.);
#554 = VERTEX_POINT('',#555);
#555 = CARTESIAN_POINT('',(3.648548047644,-66.,4.3));
#556 = LINE('',#557,#558);
#557 = CARTESIAN_POINT('',(3.648548047644,-66.,8.881895219304E-15));
#558 = VECTOR('',#559,1.);
#559 = DIRECTION('',(0.,0.,1.));
#560 = ORIENTED_EDGE('',*,*,#171,.F.);
#561 = ORIENTED_EDGE('',*,*,#553,.T.);
#562 = ORIENTED_EDGE('',*,*,#563,.F.);
#563 = EDGE_CURVE('',#554,#554,#564,.T.);
#564 = CIRCLE('',#565,2.2);
#565 = AXIS2_PLACEMENT_3D('',#566,#567,#568);
#566 = CARTESIAN_POINT('',(1.448548047644,-66.,4.3));
#567 = DIRECTION('',(0.,0.,-1.));
#568 = DIRECTION('',(1.,0.,0.));
#569 = CYLINDRICAL_SURFACE('',#570,2.2);
#570 = AXIS2_PLACEMENT_3D('',#571,#572,#573);
#571 = CARTESIAN_POINT('',(1.448548047644,-66.,8.881895219304E-15));
#572 = DIRECTION('',(-0.,-0.,-1.));
#573 = DIRECTION('',(1.,0.,0.));
#574 = ADVANCED_FACE('',(#575),#594,.F.);
#575 = FACE_BOUND('',#576,.T.);
#576 = EDGE_LOOP('',(#577,#585,#586,#587));
#577 = ORIENTED_EDGE('',*,*,#578,.F.);
#578 = EDGE_CURVE('',#183,#579,#581,.T.);
#579 = VERTEX_POINT('',#580);
#580 = CARTESIAN_POINT('',(3.648548047644,-14.,4.3));
#581 = LINE('',#582,#583);
#582 = CARTESIAN_POINT('',(3.648548047644,-14.,8.881895219304E-15));
#583 = VECTOR('',#584,1.);
#584 = DIRECTION('',(0.,0.,1.));
#585 = ORIENTED_EDGE('',*,*,#182,.F.);
#586 = ORIENTED_EDGE('',*,*,#578,.T.);
#587 = ORIENTED_EDGE('',*,*,#588,.F.);
#588 = EDGE_CURVE('',#579,#579,#589,.T.);
#589 = CIRCLE('',#590,2.2);
#590 = AXIS2_PLACEMENT_3D('',#591,#592,#593);
#591 = CARTESIAN_POINT('',(1.448548047644,-14.,4.3));
#592 = DIRECTION('',(0.,0.,-1.));
#593 = DIRECTION('',(1.,0.,0.));
#594 = CYLINDRICAL_SURFACE('',#595,2.2);
#595 = AXIS2_PLACEMENT_3D('',#596,#597,#598);
#596 = CARTESIAN_POINT('',(1.448548047644,-14.,8.881895219304E-15));
#597 = DIRECTION('',(-0.,-0.,-1.));
#598 = DIRECTION('',(1.,0.,0.));
#599 = ADVANCED_FACE('',(#600),#619,.F.);
#600 = FACE_BOUND('',#601,.T.);
#601 = EDGE_LOOP('',(#602,#610,#611,#612));
#602 = ORIENTED_EDGE('',*,*,#603,.F.);
#603 = EDGE_CURVE('',#194,#604,#606,.T.);
#604 = VERTEX_POINT('',#605);
#605 = CARTESIAN_POINT('',(3.648548047644,14.001,4.3));
#606 = LINE('',#607,#608);
#607 = CARTESIAN_POINT('',(3.648548047644,14.001,0.));
#608 = VECTOR('',#609,1.);
#609 = DIRECTION('',(0.,0.,1.));
#610 = ORIENTED_EDGE('',*,*,#193,.F.);
#611 = ORIENTED_EDGE('',*,*,#603,.T.);
#612 = ORIENTED_EDGE('',*,*,#613,.F.);
#613 = EDGE_CURVE('',#604,#604,#614,.T.);
#614 = CIRCLE('',#615,2.2);
#615 = AXIS2_PLACEMENT_3D('',#616,#617,#618);
#616 = CARTESIAN_POINT('',(1.448548047644,14.001,4.3));
#617 = DIRECTION('',(0.,0.,-1.));
#618 = DIRECTION('',(1.,0.,0.));
#619 = CYLINDRICAL_SURFACE('',#620,2.2);
#620 = AXIS2_PLACEMENT_3D('',#621,#622,#623);
#621 = CARTESIAN_POINT('',(1.448548047644,14.001,0.));
#622 = DIRECTION('',(-0.,-0.,-1.));
#623 = DIRECTION('',(1.,0.,0.));
#624 = ADVANCED_FACE('',(#625),#644,.F.);
#625 = FACE_BOUND('',#626,.T.);
#626 = EDGE_LOOP('',(#627,#635,#636,#637));
#627 = ORIENTED_EDGE('',*,*,#628,.F.);
#628 = EDGE_CURVE('',#205,#629,#631,.T.);
#629 = VERTEX_POINT('',#630);
#630 = CARTESIAN_POINT('',(3.648548047644,66.001,4.3));
#631 = LINE('',#632,#633);
#632 = CARTESIAN_POINT('',(3.648548047644,66.001,0.));
#633 = VECTOR('',#634,1.);
#634 = DIRECTION('',(0.,0.,1.));
#635 = ORIENTED_EDGE('',*,*,#204,.F.);
#636 = ORIENTED_EDGE('',*,*,#628,.T.);
#637 = ORIENTED_EDGE('',*,*,#638,.F.);
#638 = EDGE_CURVE('',#629,#629,#639,.T.);
#639 = CIRCLE('',#640,2.2);
#640 = AXIS2_PLACEMENT_3D('',#641,#642,#643);
#641 = CARTESIAN_POINT('',(1.448548047644,66.001,4.3));
#642 = DIRECTION('',(0.,0.,-1.));
#643 = DIRECTION('',(1.,0.,0.));
#644 = CYLINDRICAL_SURFACE('',#645,2.2);
#645 = AXIS2_PLACEMENT_3D('',#646,#647,#648);
#646 = CARTESIAN_POINT('',(1.448548047644,66.001,0.));
#647 = DIRECTION('',(-0.,-0.,-1.));
#648 = DIRECTION('',(1.,0.,0.));
#649 = ADVANCED_FACE('',(#650),#675,.F.);
#650 = FACE_BOUND('',#651,.F.);
#651 = EDGE_LOOP('',(#652,#660,#668,#674));
#652 = ORIENTED_EDGE('',*,*,#653,.T.);
#653 = EDGE_CURVE('',#268,#654,#656,.T.);
#654 = VERTEX_POINT('',#655);
#655 = CARTESIAN_POINT('',(5.663205012729,-66.,4.3));
#656 = LINE('',#657,#658);
#657 = CARTESIAN_POINT('',(5.663205012729,-66.,8.));
#658 = VECTOR('',#659,1.);
#659 = DIRECTION('',(-0.,-0.,-1.));
#660 = ORIENTED_EDGE('',*,*,#661,.T.);
#661 = EDGE_CURVE('',#654,#662,#664,.T.);
#662 = VERTEX_POINT('',#663);
#663 = CARTESIAN_POINT('',(3.555876530186,-62.35,4.3));
#664 = LINE('',#665,#666);
#665 = CARTESIAN_POINT('',(5.663205012729,-66.,4.3));
#666 = VECTOR('',#667,1.);
#667 = DIRECTION('',(-0.5,0.866025403784,0.));
#668 = ORIENTED_EDGE('',*,*,#669,.F.);
#669 = EDGE_CURVE('',#270,#662,#670,.T.);
#670 = LINE('',#671,#672);
#671 = CARTESIAN_POINT('',(3.555876530186,-62.35,8.));
#672 = VECTOR('',#673,1.);
#673 = DIRECTION('',(-0.,-0.,-1.));
#674 = ORIENTED_EDGE('',*,*,#267,.F.);
#675 = PLANE('',#676);
#676 = AXIS2_PLACEMENT_3D('',#677,#678,#679);
#677 = CARTESIAN_POINT('',(5.663205012729,-66.,8.));
#678 = DIRECTION('',(0.866025403784,0.5,0.));
#679 = DIRECTION('',(-0.5,0.866025403784,0.));
#680 = ADVANCED_FACE('',(#681),#699,.F.);
#681 = FACE_BOUND('',#682,.F.);
#682 = EDGE_LOOP('',(#683,#691,#697,#698));
#683 = ORIENTED_EDGE('',*,*,#684,.T.);
#684 = EDGE_CURVE('',#278,#685,#687,.T.);
#685 = VERTEX_POINT('',#686);
#686 = CARTESIAN_POINT('',(3.555876530186,-69.65,4.3));
#687 = LINE('',#688,#689);
#688 = CARTESIAN_POINT('',(3.555876530186,-69.65,8.));
#689 = VECTOR('',#690,1.);
#690 = DIRECTION('',(-0.,-0.,-1.));
#691 = ORIENTED_EDGE('',*,*,#692,.T.);
#692 = EDGE_CURVE('',#685,#654,#693,.T.);
#693 = LINE('',#694,#695);
#694 = CARTESIAN_POINT('',(3.555876530186,-69.65,4.3));
#695 = VECTOR('',#696,1.);
#696 = DIRECTION('',(0.5,0.866025403784,0.));
#697 = ORIENTED_EDGE('',*,*,#653,.F.);
#698 = ORIENTED_EDGE('',*,*,#277,.F.);
#699 = PLANE('',#700);
#700 = AXIS2_PLACEMENT_3D('',#701,#702,#703);
#701 = CARTESIAN_POINT('',(3.555876530186,-69.65,8.));
#702 = DIRECTION('',(0.866025403784,-0.5,0.));
#703 = DIRECTION('',(0.5,0.866025403784,0.));
#704 = ADVANCED_FACE('',(#705),#723,.F.);
#705 = FACE_BOUND('',#706,.F.);
#706 = EDGE_LOOP('',(#707,#708,#716,#722));
#707 = ORIENTED_EDGE('',*,*,#669,.T.);
#708 = ORIENTED_EDGE('',*,*,#709,.T.);
#709 = EDGE_CURVE('',#662,#710,#712,.T.);
#710 = VERTEX_POINT('',#711);
#711 = CARTESIAN_POINT('',(-0.658780434898,-62.35,4.3));
#712 = LINE('',#713,#714);
#713 = CARTESIAN_POINT('',(3.555876530186,-62.35,4.3));
#714 = VECTOR('',#715,1.);
#715 = DIRECTION('',(-1.,0.,0.));
#716 = ORIENTED_EDGE('',*,*,#717,.F.);
#717 = EDGE_CURVE('',#302,#710,#718,.T.);
#718 = LINE('',#719,#720);
#719 = CARTESIAN_POINT('',(-0.658780434898,-62.35,8.));
#720 = VECTOR('',#721,1.);
#721 = DIRECTION('',(-0.,-0.,-1.));
#722 = ORIENTED_EDGE('',*,*,#309,.F.);
#723 = PLANE('',#724);
#724 = AXIS2_PLACEMENT_3D('',#725,#726,#727);
#725 = CARTESIAN_POINT('',(3.555876530186,-62.35,8.));
#726 = DIRECTION('',(0.,1.,0.));
#727 = DIRECTION('',(-1.,0.,0.));
#728 = ADVANCED_FACE('',(#729),#747,.F.);
#729 = FACE_BOUND('',#730,.F.);
#730 = EDGE_LOOP('',(#731,#739,#745,#746));
#731 = ORIENTED_EDGE('',*,*,#732,.T.);
#732 = EDGE_CURVE('',#286,#733,#735,.T.);
#733 = VERTEX_POINT('',#734);
#734 = CARTESIAN_POINT('',(-0.658780434898,-69.65,4.3));
#735 = LINE('',#736,#737);
#736 = CARTESIAN_POINT('',(-0.658780434898,-69.65,8.));
#737 = VECTOR('',#738,1.);
#738 = DIRECTION('',(-0.,-0.,-1.));
#739 = ORIENTED_EDGE('',*,*,#740,.T.);
#740 = EDGE_CURVE('',#733,#685,#741,.T.);
#741 = LINE('',#742,#743);
#742 = CARTESIAN_POINT('',(-0.658780434898,-69.65,4.3));
#743 = VECTOR('',#744,1.);
#744 = DIRECTION('',(1.,0.,0.));
#745 = ORIENTED_EDGE('',*,*,#684,.F.);
#746 = ORIENTED_EDGE('',*,*,#285,.F.);
#747 = PLANE('',#748);
#748 = AXIS2_PLACEMENT_3D('',#749,#750,#751);
#749 = CARTESIAN_POINT('',(-0.658780434898,-69.65,8.));
#750 = DIRECTION('',(0.,-1.,0.));
#751 = DIRECTION('',(1.,0.,0.));
#752 = ADVANCED_FACE('',(#753),#771,.F.);
#753 = FACE_BOUND('',#754,.F.);
#754 = EDGE_LOOP('',(#755,#756,#764,#770));
#755 = ORIENTED_EDGE('',*,*,#717,.T.);
#756 = ORIENTED_EDGE('',*,*,#757,.T.);
#757 = EDGE_CURVE('',#710,#758,#760,.T.);
#758 = VERTEX_POINT('',#759);
#759 = CARTESIAN_POINT('',(-2.76610891744,-66.,4.3));
#760 = LINE('',#761,#762);
#761 = CARTESIAN_POINT('',(-0.658780434898,-62.35,4.3));
#762 = VECTOR('',#763,1.);
#763 = DIRECTION('',(-0.5,-0.866025403784,0.));
#764 = ORIENTED_EDGE('',*,*,#765,.F.);
#765 = EDGE_CURVE('',#294,#758,#766,.T.);
#766 = LINE('',#767,#768);
#767 = CARTESIAN_POINT('',(-2.76610891744,-66.,8.));
#768 = VECTOR('',#769,1.);
#769 = DIRECTION('',(-0.,-0.,-1.));
#770 = ORIENTED_EDGE('',*,*,#301,.F.);
#771 = PLANE('',#772);
#772 = AXIS2_PLACEMENT_3D('',#773,#774,#775);
#773 = CARTESIAN_POINT('',(-0.658780434898,-62.35,8.));
#774 = DIRECTION('',(-0.866025403784,0.5,0.));
#775 = DIRECTION('',(-0.5,-0.866025403784,0.));
#776 = ADVANCED_FACE('',(#777),#788,.F.);
#777 = FACE_BOUND('',#778,.F.);
#778 = EDGE_LOOP('',(#779,#780,#786,#787));
#779 = ORIENTED_EDGE('',*,*,#765,.T.);
#780 = ORIENTED_EDGE('',*,*,#781,.T.);
#781 = EDGE_CURVE('',#758,#733,#782,.T.);
#782 = LINE('',#783,#784);
#783 = CARTESIAN_POINT('',(-2.76610891744,-66.,4.3));
#784 = VECTOR('',#785,1.);
#785 = DIRECTION('',(0.5,-0.866025403784,0.));
#786 = ORIENTED_EDGE('',*,*,#732,.F.);
#787 = ORIENTED_EDGE('',*,*,#293,.F.);
#788 = PLANE('',#789);
#789 = AXIS2_PLACEMENT_3D('',#790,#791,#792);
#790 = CARTESIAN_POINT('',(-2.76610891744,-66.,8.));
#791 = DIRECTION('',(-0.866025403784,-0.5,0.));
#792 = DIRECTION('',(0.5,-0.866025403784,0.));
#793 = ADVANCED_FACE('',(#794),#819,.F.);
#794 = FACE_BOUND('',#795,.F.);
#795 = EDGE_LOOP('',(#796,#804,#812,#818));
#796 = ORIENTED_EDGE('',*,*,#797,.T.);
#797 = EDGE_CURVE('',#318,#798,#800,.T.);
#798 = VERTEX_POINT('',#799);
#799 = CARTESIAN_POINT('',(5.663205012729,-14.,4.3));
#800 = LINE('',#801,#802);
#801 = CARTESIAN_POINT('',(5.663205012729,-14.,8.));
#802 = VECTOR('',#803,1.);
#803 = DIRECTION('',(-0.,-0.,-1.));
#804 = ORIENTED_EDGE('',*,*,#805,.T.);
#805 = EDGE_CURVE('',#798,#806,#808,.T.);
#806 = VERTEX_POINT('',#807);
#807 = CARTESIAN_POINT('',(3.555876530186,-10.35,4.3));
#808 = LINE('',#809,#810);
#809 = CARTESIAN_POINT('',(5.663205012729,-14.,4.3));
#810 = VECTOR('',#811,1.);
#811 = DIRECTION('',(-0.5,0.866025403784,0.));
#812 = ORIENTED_EDGE('',*,*,#813,.F.);
#813 = EDGE_CURVE('',#320,#806,#814,.T.);
#814 = LINE('',#815,#816);
#815 = CARTESIAN_POINT('',(3.555876530186,-10.35,8.));
#816 = VECTOR('',#817,1.);
#817 = DIRECTION('',(-0.,-0.,-1.));
#818 = ORIENTED_EDGE('',*,*,#317,.F.);
#819 = PLANE('',#820);
#820 = AXIS2_PLACEMENT_3D('',#821,#822,#823);
#821 = CARTESIAN_POINT('',(5.663205012729,-14.,8.));
#822 = DIRECTION('',(0.866025403784,0.5,0.));
#823 = DIRECTION('',(-0.5,0.866025403784,0.));
#824 = ADVANCED_FACE('',(#825),#843,.F.);
#825 = FACE_BOUND('',#826,.F.);
#826 = EDGE_LOOP('',(#827,#835,#841,#842));
#827 = ORIENTED_EDGE('',*,*,#828,.T.);
#828 = EDGE_CURVE('',#328,#829,#831,.T.);
#829 = VERTEX_POINT('',#830);
#830 = CARTESIAN_POINT('',(3.555876530186,-17.65,4.3));
#831 = LINE('',#832,#833);
#832 = CARTESIAN_POINT('',(3.555876530186,-17.65,8.));
#833 = VECTOR('',#834,1.);
#834 = DIRECTION('',(-0.,-0.,-1.));
#835 = ORIENTED_EDGE('',*,*,#836,.T.);
#836 = EDGE_CURVE('',#829,#798,#837,.T.);
#837 = LINE('',#838,#839);
#838 = CARTESIAN_POINT('',(3.555876530186,-17.65,4.3));
#839 = VECTOR('',#840,1.);
#840 = DIRECTION('',(0.5,0.866025403784,0.));
#841 = ORIENTED_EDGE('',*,*,#797,.F.);
#842 = ORIENTED_EDGE('',*,*,#327,.F.);
#843 = PLANE('',#844);
#844 = AXIS2_PLACEMENT_3D('',#845,#846,#847);
#845 = CARTESIAN_POINT('',(3.555876530186,-17.65,8.));
#846 = DIRECTION('',(0.866025403784,-0.5,0.));
#847 = DIRECTION('',(0.5,0.866025403784,0.));
#848 = ADVANCED_FACE('',(#849),#867,.F.);
#849 = FACE_BOUND('',#850,.F.);
#850 = EDGE_LOOP('',(#851,#852,#860,#866));
#851 = ORIENTED_EDGE('',*,*,#813,.T.);
#852 = ORIENTED_EDGE('',*,*,#853,.T.);
#853 = EDGE_CURVE('',#806,#854,#856,.T.);
#854 = VERTEX_POINT('',#855);
#855 = CARTESIAN_POINT('',(-0.658780434898,-10.35,4.3));
#856 = LINE('',#857,#858);
#857 = CARTESIAN_POINT('',(3.555876530186,-10.35,4.3));
#858 = VECTOR('',#859,1.);
#859 = DIRECTION('',(-1.,0.,0.));
#860 = ORIENTED_EDGE('',*,*,#861,.F.);
#861 = EDGE_CURVE('',#352,#854,#862,.T.);
#862 = LINE('',#863,#864);
#863 = CARTESIAN_POINT('',(-0.658780434898,-10.35,8.));
#864 = VECTOR('',#865,1.);
#865 = DIRECTION('',(-0.,-0.,-1.));
#866 = ORIENTED_EDGE('',*,*,#359,.F.);
#867 = PLANE('',#868);
#868 = AXIS2_PLACEMENT_3D('',#869,#870,#871);
#869 = CARTESIAN_POINT('',(3.555876530186,-10.35,8.));
#870 = DIRECTION('',(0.,1.,0.));
#871 = DIRECTION('',(-1.,0.,0.));
#872 = ADVANCED_FACE('',(#873),#891,.F.);
#873 = FACE_BOUND('',#874,.F.);
#874 = EDGE_LOOP('',(#875,#883,#889,#890));
#875 = ORIENTED_EDGE('',*,*,#876,.T.);
#876 = EDGE_CURVE('',#336,#877,#879,.T.);
#877 = VERTEX_POINT('',#878);
#878 = CARTESIAN_POINT('',(-0.658780434898,-17.65,4.3));
#879 = LINE('',#880,#881);
#880 = CARTESIAN_POINT('',(-0.658780434898,-17.65,8.));
#881 = VECTOR('',#882,1.);
#882 = DIRECTION('',(-0.,-0.,-1.));
#883 = ORIENTED_EDGE('',*,*,#884,.T.);
#884 = EDGE_CURVE('',#877,#829,#885,.T.);
#885 = LINE('',#886,#887);
#886 = CARTESIAN_POINT('',(-0.658780434898,-17.65,4.3));
#887 = VECTOR('',#888,1.);
#888 = DIRECTION('',(1.,0.,0.));
#889 = ORIENTED_EDGE('',*,*,#828,.F.);
#890 = ORIENTED_EDGE('',*,*,#335,.F.);
#891 = PLANE('',#892);
#892 = AXIS2_PLACEMENT_3D('',#893,#894,#895);
#893 = CARTESIAN_POINT('',(-0.658780434898,-17.65,8.));
#894 = DIRECTION('',(0.,-1.,0.));
#895 = DIRECTION('',(1.,0.,0.));
#896 = ADVANCED_FACE('',(#897),#915,.F.);
#897 = FACE_BOUND('',#898,.F.);
#898 = EDGE_LOOP('',(#899,#900,#908,#914));
#899 = ORIENTED_EDGE('',*,*,#861,.T.);
#900 = ORIENTED_EDGE('',*,*,#901,.T.);
#901 = EDGE_CURVE('',#854,#902,#904,.T.);
#902 = VERTEX_POINT('',#903);
#903 = CARTESIAN_POINT('',(-2.76610891744,-14.,4.3));
#904 = LINE('',#905,#906);
#905 = CARTESIAN_POINT('',(-0.658780434898,-10.35,4.3));
#906 = VECTOR('',#907,1.);
#907 = DIRECTION('',(-0.5,-0.866025403784,0.));
#908 = ORIENTED_EDGE('',*,*,#909,.F.);
#909 = EDGE_CURVE('',#344,#902,#910,.T.);
#910 = LINE('',#911,#912);
#911 = CARTESIAN_POINT('',(-2.76610891744,-14.,8.));
#912 = VECTOR('',#913,1.);
#913 = DIRECTION('',(-0.,-0.,-1.));
#914 = ORIENTED_EDGE('',*,*,#351,.F.);
#915 = PLANE('',#916);
#916 = AXIS2_PLACEMENT_3D('',#917,#918,#919);
#917 = CARTESIAN_POINT('',(-0.658780434898,-10.35,8.));
#918 = DIRECTION('',(-0.866025403784,0.5,0.));
#919 = DIRECTION('',(-0.5,-0.866025403784,0.));
#920 = ADVANCED_FACE('',(#921),#932,.F.);
#921 = FACE_BOUND('',#922,.F.);
#922 = EDGE_LOOP('',(#923,#924,#930,#931));
#923 = ORIENTED_EDGE('',*,*,#909,.T.);
#924 = ORIENTED_EDGE('',*,*,#925,.T.);
#925 = EDGE_CURVE('',#902,#877,#926,.T.);
#926 = LINE('',#927,#928);
#927 = CARTESIAN_POINT('',(-2.76610891744,-14.,4.3));
#928 = VECTOR('',#929,1.);
#929 = DIRECTION('',(0.5,-0.866025403784,0.));
#930 = ORIENTED_EDGE('',*,*,#876,.F.);
#931 = ORIENTED_EDGE('',*,*,#343,.F.);
#932 = PLANE('',#933);
#933 = AXIS2_PLACEMENT_3D('',#934,#935,#936);
#934 = CARTESIAN_POINT('',(-2.76610891744,-14.,8.));
#935 = DIRECTION('',(-0.866025403784,-0.5,0.));
#936 = DIRECTION('',(0.5,-0.866025403784,0.));
#937 = ADVANCED_FACE('',(#938),#963,.F.);
#938 = FACE_BOUND('',#939,.F.);
#939 = EDGE_LOOP('',(#940,#948,#956,#962));
#940 = ORIENTED_EDGE('',*,*,#941,.T.);
#941 = EDGE_CURVE('',#368,#942,#944,.T.);
#942 = VERTEX_POINT('',#943);
#943 = CARTESIAN_POINT('',(5.663205012729,14.001,4.3));
#944 = LINE('',#945,#946);
#945 = CARTESIAN_POINT('',(5.663205012729,14.001,8.));
#946 = VECTOR('',#947,1.);
#947 = DIRECTION('',(-0.,-0.,-1.));
#948 = ORIENTED_EDGE('',*,*,#949,.T.);
#949 = EDGE_CURVE('',#942,#950,#952,.T.);
#950 = VERTEX_POINT('',#951);
#951 = CARTESIAN_POINT('',(3.555876530186,17.651,4.3));
#952 = LINE('',#953,#954);
#953 = CARTESIAN_POINT('',(5.663205012729,14.001,4.3));
#954 = VECTOR('',#955,1.);
#955 = DIRECTION('',(-0.5,0.866025403784,0.));
#956 = ORIENTED_EDGE('',*,*,#957,.F.);
#957 = EDGE_CURVE('',#370,#950,#958,.T.);
#958 = LINE('',#959,#960);
#959 = CARTESIAN_POINT('',(3.555876530186,17.651,8.));
#960 = VECTOR('',#961,1.);
#961 = DIRECTION('',(-0.,-0.,-1.));
#962 = ORIENTED_EDGE('',*,*,#367,.F.);
#963 = PLANE('',#964);
#964 = AXIS2_PLACEMENT_3D('',#965,#966,#967);
#965 = CARTESIAN_POINT('',(5.663205012729,14.001,8.));
#966 = DIRECTION('',(0.866025403784,0.5,0.));
#967 = DIRECTION('',(-0.5,0.866025403784,0.));
#968 = ADVANCED_FACE('',(#969),#987,.F.);
#969 = FACE_BOUND('',#970,.F.);
#970 = EDGE_LOOP('',(#971,#972,#980,#986));
#971 = ORIENTED_EDGE('',*,*,#957,.T.);
#972 = ORIENTED_EDGE('',*,*,#973,.T.);
#973 = EDGE_CURVE('',#950,#974,#976,.T.);
#974 = VERTEX_POINT('',#975);
#975 = CARTESIAN_POINT('',(-0.658780434898,17.651,4.3));
#976 = LINE('',#977,#978);
#977 = CARTESIAN_POINT('',(3.555876530186,17.651,4.3));
#978 = VECTOR('',#979,1.);
#979 = DIRECTION('',(-1.,0.,0.));
#980 = ORIENTED_EDGE('',*,*,#981,.F.);
#981 = EDGE_CURVE('',#402,#974,#982,.T.);
#982 = LINE('',#983,#984);
#983 = CARTESIAN_POINT('',(-0.658780434898,17.651,8.));
#984 = VECTOR('',#985,1.);
#985 = DIRECTION('',(-0.,-0.,-1.));
#986 = ORIENTED_EDGE('',*,*,#409,.F.);
#987 = PLANE('',#988);
#988 = AXIS2_PLACEMENT_3D('',#989,#990,#991);
#989 = CARTESIAN_POINT('',(3.555876530186,17.651,8.));
#990 = DIRECTION('',(0.,1.,0.));
#991 = DIRECTION('',(-1.,0.,0.));
#992 = ADVANCED_FACE('',(#993),#1011,.F.);
#993 = FACE_BOUND('',#994,.F.);
#994 = EDGE_LOOP('',(#995,#996,#1004,#1010));
#995 = ORIENTED_EDGE('',*,*,#981,.T.);
#996 = ORIENTED_EDGE('',*,*,#997,.T.);
#997 = EDGE_CURVE('',#974,#998,#1000,.T.);
#998 = VERTEX_POINT('',#999);
#999 = CARTESIAN_POINT('',(-2.76610891744,14.001,4.3));
#1000 = LINE('',#1001,#1002);
#1001 = CARTESIAN_POINT('',(-0.658780434898,17.651,4.3));
#1002 = VECTOR('',#1003,1.);
#1003 = DIRECTION('',(-0.5,-0.866025403784,0.));
#1004 = ORIENTED_EDGE('',*,*,#1005,.F.);
#1005 = EDGE_CURVE('',#394,#998,#1006,.T.);
#1006 = LINE('',#1007,#1008);
#1007 = CARTESIAN_POINT('',(-2.76610891744,14.001,8.));
#1008 = VECTOR('',#1009,1.);
#1009 = DIRECTION('',(-0.,-0.,-1.));
#1010 = ORIENTED_EDGE('',*,*,#401,.F.);
#1011 = PLANE('',#1012);
#1012 = AXIS2_PLACEMENT_3D('',#1013,#1014,#1015);
#1013 = CARTESIAN_POINT('',(-0.658780434898,17.651,8.));
#1014 = DIRECTION('',(-0.866025403784,0.5,0.));
#1015 = DIRECTION('',(-0.5,-0.866025403784,0.));
#1016 = ADVANCED_FACE('',(#1017),#1035,.F.);
#1017 = FACE_BOUND('',#1018,.F.);
#1018 = EDGE_LOOP('',(#1019,#1020,#1028,#1034));
#1019 = ORIENTED_EDGE('',*,*,#1005,.T.);
#1020 = ORIENTED_EDGE('',*,*,#1021,.T.);
#1021 = EDGE_CURVE('',#998,#1022,#1024,.T.);
#1022 = VERTEX_POINT('',#1023);
#1023 = CARTESIAN_POINT('',(-0.658780434898,10.351,4.3));
#1024 = LINE('',#1025,#1026);
#1025 = CARTESIAN_POINT('',(-2.76610891744,14.001,4.3));
#1026 = VECTOR('',#1027,1.);
#1027 = DIRECTION('',(0.5,-0.866025403784,0.));
#1028 = ORIENTED_EDGE('',*,*,#1029,.F.);
#1029 = EDGE_CURVE('',#386,#1022,#1030,.T.);
#1030 = LINE('',#1031,#1032);
#1031 = CARTESIAN_POINT('',(-0.658780434898,10.351,8.));
#1032 = VECTOR('',#1033,1.);
#1033 = DIRECTION('',(-0.,-0.,-1.));
#1034 = ORIENTED_EDGE('',*,*,#393,.F.);
#1035 = PLANE('',#1036);
#1036 = AXIS2_PLACEMENT_3D('',#1037,#1038,#1039);
#1037 = CARTESIAN_POINT('',(-2.76610891744,14.001,8.));
#1038 = DIRECTION('',(-0.866025403784,-0.5,0.));
#1039 = DIRECTION('',(0.5,-0.866025403784,0.));
#1040 = ADVANCED_FACE('',(#1041),#1059,.F.);
#1041 = FACE_BOUND('',#1042,.F.);
#1042 = EDGE_LOOP('',(#1043,#1044,#1052,#1058));
#1043 = ORIENTED_EDGE('',*,*,#1029,.T.);
#1044 = ORIENTED_EDGE('',*,*,#1045,.T.);
#1045 = EDGE_CURVE('',#1022,#1046,#1048,.T.);
#1046 = VERTEX_POINT('',#1047);
#1047 = CARTESIAN_POINT('',(3.555876530186,10.351,4.3));
#1048 = LINE('',#1049,#1050);
#1049 = CARTESIAN_POINT('',(-0.658780434898,10.351,4.3));
#1050 = VECTOR('',#1051,1.);
#1051 = DIRECTION('',(1.,0.,0.));
#1052 = ORIENTED_EDGE('',*,*,#1053,.F.);
#1053 = EDGE_CURVE('',#378,#1046,#1054,.T.);
#1054 = LINE('',#1055,#1056);
#1055 = CARTESIAN_POINT('',(3.555876530186,10.351,8.));
#1056 = VECTOR('',#1057,1.);
#1057 = DIRECTION('',(-0.,-0.,-1.));
#1058 = ORIENTED_EDGE('',*,*,#385,.F.);
#1059 = PLANE('',#1060);
#1060 = AXIS2_PLACEMENT_3D('',#1061,#1062,#1063);
#1061 = CARTESIAN_POINT('',(-0.658780434898,10.351,8.));
#1062 = DIRECTION('',(0.,-1.,0.));
#1063 = DIRECTION('',(1.,0.,0.));
#1064 = ADVANCED_FACE('',(#1065),#1076,.F.);
#1065 = FACE_BOUND('',#1066,.F.);
#1066 = EDGE_LOOP('',(#1067,#1068,#1074,#1075));
#1067 = ORIENTED_EDGE('',*,*,#1053,.T.);
#1068 = ORIENTED_EDGE('',*,*,#1069,.T.);
#1069 = EDGE_CURVE('',#1046,#942,#1070,.T.);
#1070 = LINE('',#1071,#1072);
#1071 = CARTESIAN_POINT('',(3.555876530186,10.351,4.3));
#1072 = VECTOR('',#1073,1.);
#1073 = DIRECTION('',(0.5,0.866025403784,0.));
#1074 = ORIENTED_EDGE('',*,*,#941,.F.);
#1075 = ORIENTED_EDGE('',*,*,#377,.F.);
#1076 = PLANE('',#1077);
#1077 = AXIS2_PLACEMENT_3D('',#1078,#1079,#1080);
#1078 = CARTESIAN_POINT('',(3.555876530186,10.351,8.));
#1079 = DIRECTION('',(0.866025403784,-0.5,0.));
#1080 = DIRECTION('',(0.5,0.866025403784,0.));
#1081 = ADVANCED_FACE('',(#1082),#1107,.F.);
#1082 = FACE_BOUND('',#1083,.F.);
#1083 = EDGE_LOOP('',(#1084,#1092,#1100,#1106));
#1084 = ORIENTED_EDGE('',*,*,#1085,.T.);
#1085 = EDGE_CURVE('',#418,#1086,#1088,.T.);
#1086 = VERTEX_POINT('',#1087);
#1087 = CARTESIAN_POINT('',(5.663205012729,66.001,4.3));
#1088 = LINE('',#1089,#1090);
#1089 = CARTESIAN_POINT('',(5.663205012729,66.001,8.));
#1090 = VECTOR('',#1091,1.);
#1091 = DIRECTION('',(-0.,-0.,-1.));
#1092 = ORIENTED_EDGE('',*,*,#1093,.T.);
#1093 = EDGE_CURVE('',#1086,#1094,#1096,.T.);
#1094 = VERTEX_POINT('',#1095);
#1095 = CARTESIAN_POINT('',(3.555876530186,69.651,4.3));
#1096 = LINE('',#1097,#1098);
#1097 = CARTESIAN_POINT('',(5.663205012729,66.001,4.3));
#1098 = VECTOR('',#1099,1.);
#1099 = DIRECTION('',(-0.5,0.866025403784,0.));
#1100 = ORIENTED_EDGE('',*,*,#1101,.F.);
#1101 = EDGE_CURVE('',#420,#1094,#1102,.T.);
#1102 = LINE('',#1103,#1104);
#1103 = CARTESIAN_POINT('',(3.555876530186,69.651,8.));
#1104 = VECTOR('',#1105,1.);
#1105 = DIRECTION('',(-0.,-0.,-1.));
#1106 = ORIENTED_EDGE('',*,*,#417,.F.);
#1107 = PLANE('',#1108);
#1108 = AXIS2_PLACEMENT_3D('',#1109,#1110,#1111);
#1109 = CARTESIAN_POINT('',(5.663205012729,66.001,8.));
#1110 = DIRECTION('',(0.866025403784,0.5,0.));
#1111 = DIRECTION('',(-0.5,0.866025403784,0.));
#1112 = ADVANCED_FACE('',(#1113),#1131,.F.);
#1113 = FACE_BOUND('',#1114,.F.);
#1114 = EDGE_LOOP('',(#1115,#1116,#1124,#1130));
#1115 = ORIENTED_EDGE('',*,*,#1101,.T.);
#1116 = ORIENTED_EDGE('',*,*,#1117,.T.);
#1117 = EDGE_CURVE('',#1094,#1118,#1120,.T.);
#1118 = VERTEX_POINT('',#1119);
#1119 = CARTESIAN_POINT('',(-0.658780434898,69.651,4.3));
#1120 = LINE('',#1121,#1122);
#1121 = CARTESIAN_POINT('',(3.555876530186,69.651,4.3));
#1122 = VECTOR('',#1123,1.);
#1123 = DIRECTION('',(-1.,0.,0.));
#1124 = ORIENTED_EDGE('',*,*,#1125,.F.);
#1125 = EDGE_CURVE('',#452,#1118,#1126,.T.);
#1126 = LINE('',#1127,#1128);
#1127 = CARTESIAN_POINT('',(-0.658780434898,69.651,8.));
#1128 = VECTOR('',#1129,1.);
#1129 = DIRECTION('',(-0.,-0.,-1.));
#1130 = ORIENTED_EDGE('',*,*,#459,.F.);
#1131 = PLANE('',#1132);
#1132 = AXIS2_PLACEMENT_3D('',#1133,#1134,#1135);
#1133 = CARTESIAN_POINT('',(3.555876530186,69.651,8.));
#1134 = DIRECTION('',(0.,1.,0.));
#1135 = DIRECTION('',(-1.,0.,0.));
#1136 = ADVANCED_FACE('',(#1137),#1155,.F.);
#1137 = FACE_BOUND('',#1138,.F.);
#1138 = EDGE_LOOP('',(#1139,#1140,#1148,#1154));
#1139 = ORIENTED_EDGE('',*,*,#1125,.T.);
#1140 = ORIENTED_EDGE('',*,*,#1141,.T.);
#1141 = EDGE_CURVE('',#1118,#1142,#1144,.T.);
#1142 = VERTEX_POINT('',#1143);
#1143 = CARTESIAN_POINT('',(-2.76610891744,66.001,4.3));
#1144 = LINE('',#1145,#1146);
#1145 = CARTESIAN_POINT('',(-0.658780434898,69.651,4.3));
#1146 = VECTOR('',#1147,1.);
#1147 = DIRECTION('',(-0.5,-0.866025403784,0.));
#1148 = ORIENTED_EDGE('',*,*,#1149,.F.);
#1149 = EDGE_CURVE('',#444,#1142,#1150,.T.);
#1150 = LINE('',#1151,#1152);
#1151 = CARTESIAN_POINT('',(-2.76610891744,66.001,8.));
#1152 = VECTOR('',#1153,1.);
#1153 = DIRECTION('',(-0.,-0.,-1.));
#1154 = ORIENTED_EDGE('',*,*,#451,.F.);
#1155 = PLANE('',#1156);
#1156 = AXIS2_PLACEMENT_3D('',#1157,#1158,#1159);
#1157 = CARTESIAN_POINT('',(-0.658780434898,69.651,8.));
#1158 = DIRECTION('',(-0.866025403784,0.5,0.));
#1159 = DIRECTION('',(-0.5,-0.866025403784,0.));
#1160 = ADVANCED_FACE('',(#1161),#1179,.F.);
#1161 = FACE_BOUND('',#1162,.F.);
#1162 = EDGE_LOOP('',(#1163,#1164,#1172,#1178));
#1163 = ORIENTED_EDGE('',*,*,#1149,.T.);
#1164 = ORIENTED_EDGE('',*,*,#1165,.T.);
#1165 = EDGE_CURVE('',#1142,#1166,#1168,.T.);
#1166 = VERTEX_POINT('',#1167);
#1167 = CARTESIAN_POINT('',(-0.658780434898,62.351,4.3));
#1168 = LINE('',#1169,#1170);
#1169 = CARTESIAN_POINT('',(-2.76610891744,66.001,4.3));
#1170 = VECTOR('',#1171,1.);
#1171 = DIRECTION('',(0.5,-0.866025403784,0.));
#1172 = ORIENTED_EDGE('',*,*,#1173,.F.);
#1173 = EDGE_CURVE('',#436,#1166,#1174,.T.);
#1174 = LINE('',#1175,#1176);
#1175 = CARTESIAN_POINT('',(-0.658780434898,62.351,8.));
#1176 = VECTOR('',#1177,1.);
#1177 = DIRECTION('',(-0.,-0.,-1.));
#1178 = ORIENTED_EDGE('',*,*,#443,.F.);
#1179 = PLANE('',#1180);
#1180 = AXIS2_PLACEMENT_3D('',#1181,#1182,#1183);
#1181 = CARTESIAN_POINT('',(-2.76610891744,66.001,8.));
#1182 = DIRECTION('',(-0.866025403784,-0.5,0.));
#1183 = DIRECTION('',(0.5,-0.866025403784,0.));
#1184 = ADVANCED_FACE('',(#1185),#1203,.F.);
#1185 = FACE_BOUND('',#1186,.F.);
#1186 = EDGE_LOOP('',(#1187,#1188,#1196,#1202));
#1187 = ORIENTED_EDGE('',*,*,#1173,.T.);
#1188 = ORIENTED_EDGE('',*,*,#1189,.T.);
#1189 = EDGE_CURVE('',#1166,#1190,#1192,.T.);
#1190 = VERTEX_POINT('',#1191);
#1191 = CARTESIAN_POINT('',(3.555876530186,62.351,4.3));
#1192 = LINE('',#1193,#1194);
#1193 = CARTESIAN_POINT('',(-0.658780434898,62.351,4.3));
#1194 = VECTOR('',#1195,1.);
#1195 = DIRECTION('',(1.,0.,0.));
#1196 = ORIENTED_EDGE('',*,*,#1197,.F.);
#1197 = EDGE_CURVE('',#428,#1190,#1198,.T.);
#1198 = LINE('',#1199,#1200);
#1199 = CARTESIAN_POINT('',(3.555876530186,62.351,8.));
#1200 = VECTOR('',#1201,1.);
#1201 = DIRECTION('',(-0.,-0.,-1.));
#1202 = ORIENTED_EDGE('',*,*,#435,.F.);
#1203 = PLANE('',#1204);
#1204 = AXIS2_PLACEMENT_3D('',#1205,#1206,#1207);
#1205 = CARTESIAN_POINT('',(-0.658780434898,62.351,8.));
#1206 = DIRECTION('',(0.,-1.,0.));
#1207 = DIRECTION('',(1.,0.,0.));
#1208 = ADVANCED_FACE('',(#1209),#1220,.F.);
#1209 = FACE_BOUND('',#1210,.F.);
#1210 = EDGE_LOOP('',(#1211,#1212,#1218,#1219));
#1211 = ORIENTED_EDGE('',*,*,#1197,.T.);
#1212 = ORIENTED_EDGE('',*,*,#1213,.T.);
#1213 = EDGE_CURVE('',#1190,#1086,#1214,.T.);
#1214 = LINE('',#1215,#1216);
#1215 = CARTESIAN_POINT('',(3.555876530186,62.351,4.3));
#1216 = VECTOR('',#1217,1.);
#1217 = DIRECTION('',(0.5,0.866025403784,0.));
#1218 = ORIENTED_EDGE('',*,*,#1085,.F.);
#1219 = ORIENTED_EDGE('',*,*,#427,.F.);
#1220 = PLANE('',#1221);
#1221 = AXIS2_PLACEMENT_3D('',#1222,#1223,#1224);
#1222 = CARTESIAN_POINT('',(3.555876530186,62.351,8.));
#1223 = DIRECTION('',(0.866025403784,-0.5,0.));
#1224 = DIRECTION('',(0.5,0.866025403784,0.));
#1225 = ADVANCED_FACE('',(#1226,#1234),#1237,.T.);
#1226 = FACE_BOUND('',#1227,.T.);
#1227 = EDGE_LOOP('',(#1228,#1229,#1230,#1231,#1232,#1233));
#1228 = ORIENTED_EDGE('',*,*,#661,.T.);
#1229 = ORIENTED_EDGE('',*,*,#709,.T.);
#1230 = ORIENTED_EDGE('',*,*,#757,.T.);
#1231 = ORIENTED_EDGE('',*,*,#781,.T.);
#1232 = ORIENTED_EDGE('',*,*,#740,.T.);
#1233 = ORIENTED_EDGE('',*,*,#692,.T.);
#1234 = FACE_BOUND('',#1235,.T.);
#1235 = EDGE_LOOP('',(#1236));
#1236 = ORIENTED_EDGE('',*,*,#563,.T.);
#1237 = PLANE('',#1238);
#1238 = AXIS2_PLACEMENT_3D('',#1239,#1240,#1241);
#1239 = CARTESIAN_POINT('',(1.448548047644,-40.,4.3));
#1240 = DIRECTION('',(0.,0.,1.));
#1241 = DIRECTION('',(1.,0.,0.));
#1242 = ADVANCED_FACE('',(#1243,#1251),#1254,.T.);
#1243 = FACE_BOUND('',#1244,.T.);
#1244 = EDGE_LOOP('',(#1245,#1246,#1247,#1248,#1249,#1250));
#1245 = ORIENTED_EDGE('',*,*,#805,.T.);
#1246 = ORIENTED_EDGE('',*,*,#853,.T.);
#1247 = ORIENTED_EDGE('',*,*,#901,.T.);
#1248 = ORIENTED_EDGE('',*,*,#925,.T.);
#1249 = ORIENTED_EDGE('',*,*,#884,.T.);
#1250 = ORIENTED_EDGE('',*,*,#836,.T.);
#1251 = FACE_BOUND('',#1252,.T.);
#1252 = EDGE_LOOP('',(#1253));
#1253 = ORIENTED_EDGE('',*,*,#588,.T.);
#1254 = PLANE('',#1255);
#1255 = AXIS2_PLACEMENT_3D('',#1256,#1257,#1258);
#1256 = CARTESIAN_POINT('',(1.448548047644,-40.,4.3));
#1257 = DIRECTION('',(0.,0.,1.));
#1258 = DIRECTION('',(1.,0.,0.));
#1259 = ADVANCED_FACE('',(#1260,#1268),#1271,.T.);
#1260 = FACE_BOUND('',#1261,.T.);
#1261 = EDGE_LOOP('',(#1262,#1263,#1264,#1265,#1266,#1267));
#1262 = ORIENTED_EDGE('',*,*,#949,.T.);
#1263 = ORIENTED_EDGE('',*,*,#973,.T.);
#1264 = ORIENTED_EDGE('',*,*,#997,.T.);
#1265 = ORIENTED_EDGE('',*,*,#1021,.T.);
#1266 = ORIENTED_EDGE('',*,*,#1045,.T.);
#1267 = ORIENTED_EDGE('',*,*,#1069,.T.);
#1268 = FACE_BOUND('',#1269,.T.);
#1269 = EDGE_LOOP('',(#1270));
#1270 = ORIENTED_EDGE('',*,*,#613,.T.);
#1271 = PLANE('',#1272);
#1272 = AXIS2_PLACEMENT_3D('',#1273,#1274,#1275);
#1273 = CARTESIAN_POINT('',(1.448548047644,40.001,4.3));
#1274 = DIRECTION('',(0.,0.,1.));
#1275 = DIRECTION('',(1.,0.,0.));
#1276 = ADVANCED_FACE('',(#1277,#1285),#1288,.T.);
#1277 = FACE_BOUND('',#1278,.T.);
#1278 = EDGE_LOOP('',(#1279,#1280,#1281,#1282,#1283,#1284));
#1279 = ORIENTED_EDGE('',*,*,#1093,.T.);
#1280 = ORIENTED_EDGE('',*,*,#1117,.T.);
#1281 = ORIENTED_EDGE('',*,*,#1141,.T.);
#1282 = ORIENTED_EDGE('',*,*,#1165,.T.);
#1283 = ORIENTED_EDGE('',*,*,#1189,.T.);
#1284 = ORIENTED_EDGE('',*,*,#1213,.T.);
#1285 = FACE_BOUND('',#1286,.T.);
#1286 = EDGE_LOOP('',(#1287));
#1287 = ORIENTED_EDGE('',*,*,#638,.T.);
#1288 = PLANE('',#1289);
#1289 = AXIS2_PLACEMENT_3D('',#1290,#1291,#1292);
#1290 = CARTESIAN_POINT('',(1.448548047644,40.001,4.3));
#1291 = DIRECTION('',(0.,0.,1.));
#1292 = DIRECTION('',(1.,0.,0.));
#1293 = ( GEOMETRIC_REPRESENTATION_CONTEXT(3) 
GLOBAL_UNCERTAINTY_ASSIGNED_CONTEXT((#1297)) 
GLOBAL_UNIT_ASSIGNED_CONTEXT((#1294,#1295,#1296)) REPRESENTATION_CONTEXT
('Context #1','3D Context with UNIT and UNCERTAINTY') );
#1294 = ( LENGTH_UNIT() NAMED_UNIT(*) SI_UNIT(.MILLI.,.METRE.) );
#1295 = ( NAMED_UNIT(*) PLANE_ANGLE_UNIT() SI_UNIT($,.RADIAN.) );
#1296 = ( NAMED_UNIT(*) SI_UNIT($,.STERADIAN.) SOLID_ANGLE_UNIT() );
#1297 = UNCERTAINTY_MEASURE_WITH_UNIT(LENGTH_MEASURE(1.E-07),#1294,
  'distance_accuracy_value','confusion accuracy');
#1298 = PRODUCT_RELATED_PRODUCT_CATEGORY('part',$,(#7));
ENDSEC;
END-ISO-10303-21;
