ISO-10303-21;
HEADER;
FILE_DESCRIPTION(('FreeCAD Model'),'2;1');
FILE_NAME('Open CASCADE Shape Model','2026-10-07T16:48:02',('FreeCAD'),(
    'FreeCAD'),'Open CASCADE STEP processor 8.0','FreeCAD','Unknown');
FILE_SCHEMA(('AUTOMOTIVE_DESIGN { 1 0 10303 214 1 1 1 1 }'));
ENDSEC;
DATA;
#1 = APPLICATION_PROTOCOL_DEFINITION('international standard',
  'automotive_design',2000,#2);
#2 = APPLICATION_CONTEXT(
  'core data for automotive mechanical design processes');
#3 = SHAPE_DEFINITION_REPRESENTATION(#4,#10);
#4 = PRODUCT_DEFINITION_SHAPE('','',#5);
#5 = PRODUCT_DEFINITION('design','',#6,#9);
#6 = PRODUCT_DEFINITION_FORMATION('','',#7);
#7 = PRODUCT('Open CASCADE STEP translator 8.0 9',
  'Open CASCADE STEP translator 8.0 9','',(#8));
#8 = PRODUCT_CONTEXT('',#2,'mechanical');
#9 = PRODUCT_DEFINITION_CONTEXT('part definition',#2,'design');
#10 = ADVANCED_BREP_SHAPE_REPRESENTATION('',(#11,#15),#157);
#11 = AXIS2_PLACEMENT_3D('',#12,#13,#14);
#12 = CARTESIAN_POINT('',(0.,0.,0.));
#13 = DIRECTION('',(0.,0.,1.));
#14 = DIRECTION('',(1.,0.,-0.));
#15 = MANIFOLD_SOLID_BREP('',#16);
#16 = CLOSED_SHELL('',(#17,#34,#59,#79,#103,#123,#148));
#17 = ADVANCED_FACE('',(#18),#29,.T.);
#18 = FACE_BOUND('',#19,.F.);
#19 = EDGE_LOOP('',(#20));
#20 = ORIENTED_EDGE('',*,*,#21,.F.);
#21 = EDGE_CURVE('',#22,#22,#24,.T.);
#22 = VERTEX_POINT('',#23);
#23 = CARTESIAN_POINT('',(13.5,2.4,10.));
#24 = CIRCLE('',#25,2.4);
#25 = AXIS2_PLACEMENT_3D('',#26,#27,#28);
#26 = CARTESIAN_POINT('',(13.5,-8.881784197001E-16,10.));
#27 = DIRECTION('',(1.,0.,0.));
#28 = DIRECTION('',(0.,1.,0.));
#29 = PLANE('',#30);
#30 = AXIS2_PLACEMENT_3D('',#31,#32,#33);
#31 = CARTESIAN_POINT('',(13.5,-8.881784197001E-16,10.));
#32 = DIRECTION('',(1.,0.,0.));
#33 = DIRECTION('',(0.,1.,0.));
#34 = ADVANCED_FACE('',(#35),#54,.T.);
#35 = FACE_BOUND('',#36,.F.);
#36 = EDGE_LOOP('',(#37,#38,#46,#53));
#37 = ORIENTED_EDGE('',*,*,#21,.T.);
#38 = ORIENTED_EDGE('',*,*,#39,.T.);
#39 = EDGE_CURVE('',#22,#40,#42,.T.);
#40 = VERTEX_POINT('',#41);
#41 = CARTESIAN_POINT('',(10.,2.4,10.));
#42 = LINE('',#43,#44);
#43 = CARTESIAN_POINT('',(13.5,2.4,10.));
#44 = VECTOR('',#45,1.);
#45 = DIRECTION('',(-1.,0.,0.));
#46 = ORIENTED_EDGE('',*,*,#47,.F.);
#47 = EDGE_CURVE('',#40,#40,#48,.T.);
#48 = CIRCLE('',#49,2.4);
#49 = AXIS2_PLACEMENT_3D('',#50,#51,#52);
#50 = CARTESIAN_POINT('',(10.,-8.881784197001E-16,10.));
#51 = DIRECTION('',(1.,0.,0.));
#52 = DIRECTION('',(0.,1.,0.));
#53 = ORIENTED_EDGE('',*,*,#39,.F.);
#54 = CYLINDRICAL_SURFACE('',#55,2.4);
#55 = AXIS2_PLACEMENT_3D('',#56,#57,#58);
#56 = CARTESIAN_POINT('',(13.5,-8.881784197001E-16,10.));
#57 = DIRECTION('',(-1.,-0.,-0.));
#58 = DIRECTION('',(0.,1.,0.));
#59 = ADVANCED_FACE('',(#60,#63),#74,.T.);
#60 = FACE_BOUND('',#61,.F.);
#61 = EDGE_LOOP('',(#62));
#62 = ORIENTED_EDGE('',*,*,#47,.T.);
#63 = FACE_BOUND('',#64,.F.);
#64 = EDGE_LOOP('',(#65));
#65 = ORIENTED_EDGE('',*,*,#66,.F.);
#66 = EDGE_CURVE('',#67,#67,#69,.T.);
#67 = VERTEX_POINT('',#68);
#68 = CARTESIAN_POINT('',(10.,10.,10.));
#69 = CIRCLE('',#70,10.);
#70 = AXIS2_PLACEMENT_3D('',#71,#72,#73);
#71 = CARTESIAN_POINT('',(10.,-8.881784197001E-16,10.));
#72 = DIRECTION('',(1.,0.,0.));
#73 = DIRECTION('',(0.,1.,0.));
#74 = PLANE('',#75);
#75 = AXIS2_PLACEMENT_3D('',#76,#77,#78);
#76 = CARTESIAN_POINT('',(10.,-8.881784197001E-16,10.));
#77 = DIRECTION('',(1.,0.,0.));
#78 = DIRECTION('',(0.,1.,0.));
#79 = ADVANCED_FACE('',(#80),#98,.T.);
#80 = FACE_BOUND('',#81,.F.);
#81 = EDGE_LOOP('',(#82,#83,#90,#97));
#82 = ORIENTED_EDGE('',*,*,#66,.T.);
#83 = ORIENTED_EDGE('',*,*,#84,.T.);
#84 = EDGE_CURVE('',#67,#85,#87,.T.);
#85 = VERTEX_POINT('',#86);
#86 = CARTESIAN_POINT('',(-10.,10.,10.));
#87 = B_SPLINE_CURVE_WITH_KNOTS('',1,(#88,#89),.UNSPECIFIED.,.F.,.F.,(2,
    2),(0.,20.),.PIECEWISE_BEZIER_KNOTS.);
#88 = CARTESIAN_POINT('',(10.,10.,10.));
#89 = CARTESIAN_POINT('',(-10.,10.,10.));
#90 = ORIENTED_EDGE('',*,*,#91,.F.);
#91 = EDGE_CURVE('',#85,#85,#92,.T.);
#92 = CIRCLE('',#93,10.);
#93 = AXIS2_PLACEMENT_3D('',#94,#95,#96);
#94 = CARTESIAN_POINT('',(-10.,1.33226762955E-15,10.));
#95 = DIRECTION('',(1.,-2.22044604925E-16,2.22044604925E-16));
#96 = DIRECTION('',(2.22044604925E-16,1.,2.465190328816E-32));
#97 = ORIENTED_EDGE('',*,*,#84,.F.);
#98 = CYLINDRICAL_SURFACE('',#99,10.);
#99 = AXIS2_PLACEMENT_3D('',#100,#101,#102);
#100 = CARTESIAN_POINT('',(10.,-8.881784197001E-16,10.));
#101 = DIRECTION('',(-1.,-0.,-0.));
#102 = DIRECTION('',(0.,1.,0.));
#103 = ADVANCED_FACE('',(#104,#115),#118,.T.);
#104 = FACE_BOUND('',#105,.T.);
#105 = EDGE_LOOP('',(#106));
#106 = ORIENTED_EDGE('',*,*,#107,.T.);
#107 = EDGE_CURVE('',#108,#108,#110,.T.);
#108 = VERTEX_POINT('',#109);
#109 = CARTESIAN_POINT('',(-10.,2.4,10.));
#110 = CIRCLE('',#111,2.4);
#111 = AXIS2_PLACEMENT_3D('',#112,#113,#114);
#112 = CARTESIAN_POINT('',(-10.,1.33226762955E-15,10.));
#113 = DIRECTION('',(1.,-2.22044604925E-16,2.22044604925E-16));
#114 = DIRECTION('',(2.22044604925E-16,1.,2.465190328816E-32));
#115 = FACE_BOUND('',#116,.T.);
#116 = EDGE_LOOP('',(#117));
#117 = ORIENTED_EDGE('',*,*,#91,.F.);
#118 = PLANE('',#119);
#119 = AXIS2_PLACEMENT_3D('',#120,#121,#122);
#120 = CARTESIAN_POINT('',(-10.,1.33226762955E-15,10.));
#121 = DIRECTION('',(-1.,2.22044604925E-16,-2.22044604925E-16));
#122 = DIRECTION('',(-2.22044604925E-16,-1.,-2.465190328816E-32));
#123 = ADVANCED_FACE('',(#124),#143,.T.);
#124 = FACE_BOUND('',#125,.T.);
#125 = EDGE_LOOP('',(#126,#135,#141,#142));
#126 = ORIENTED_EDGE('',*,*,#127,.T.);
#127 = EDGE_CURVE('',#128,#128,#130,.T.);
#128 = VERTEX_POINT('',#129);
#129 = CARTESIAN_POINT('',(-13.5,2.4,10.));
#130 = CIRCLE('',#131,2.4);
#131 = AXIS2_PLACEMENT_3D('',#132,#133,#134);
#132 = CARTESIAN_POINT('',(-13.5,2.109423746788E-15,10.));
#133 = DIRECTION('',(1.,-2.22044604925E-16,2.22044604925E-16));
#134 = DIRECTION('',(2.22044604925E-16,1.,2.465190328816E-32));
#135 = ORIENTED_EDGE('',*,*,#136,.T.);
#136 = EDGE_CURVE('',#128,#108,#137,.T.);
#137 = LINE('',#138,#139);
#138 = CARTESIAN_POINT('',(-13.5,2.4,10.));
#139 = VECTOR('',#140,1.);
#140 = DIRECTION('',(1.,-2.22044604925E-16,2.22044604925E-16));
#141 = ORIENTED_EDGE('',*,*,#107,.F.);
#142 = ORIENTED_EDGE('',*,*,#136,.F.);
#143 = CYLINDRICAL_SURFACE('',#144,2.4);
#144 = AXIS2_PLACEMENT_3D('',#145,#146,#147);
#145 = CARTESIAN_POINT('',(-13.5,2.109423746788E-15,10.));
#146 = DIRECTION('',(1.,-2.22044604925E-16,2.22044604925E-16));
#147 = DIRECTION('',(2.22044604925E-16,1.,2.465190328816E-32));
#148 = ADVANCED_FACE('',(#149),#152,.T.);
#149 = FACE_BOUND('',#150,.T.);
#150 = EDGE_LOOP('',(#151));
#151 = ORIENTED_EDGE('',*,*,#127,.F.);
#152 = PLANE('',#153);
#153 = AXIS2_PLACEMENT_3D('',#154,#155,#156);
#154 = CARTESIAN_POINT('',(-13.5,2.109423746788E-15,10.));
#155 = DIRECTION('',(-1.,2.22044604925E-16,-2.22044604925E-16));
#156 = DIRECTION('',(-2.22044604925E-16,-1.,-2.465190328816E-32));
#157 = ( GEOMETRIC_REPRESENTATION_CONTEXT(3) 
GLOBAL_UNCERTAINTY_ASSIGNED_CONTEXT((#161)) GLOBAL_UNIT_ASSIGNED_CONTEXT
((#158,#159,#160)) REPRESENTATION_CONTEXT('Context #1',
  '3D Context with UNIT and UNCERTAINTY') );
#158 = ( LENGTH_UNIT() NAMED_UNIT(*) SI_UNIT(.MILLI.,.METRE.) );
#159 = ( NAMED_UNIT(*) PLANE_ANGLE_UNIT() SI_UNIT($,.RADIAN.) );
#160 = ( NAMED_UNIT(*) SI_UNIT($,.STERADIAN.) SOLID_ANGLE_UNIT() );
#161 = UNCERTAINTY_MEASURE_WITH_UNIT(LENGTH_MEASURE(2.E-06),#158,
  'distance_accuracy_value','confusion accuracy');
#162 = PRODUCT_RELATED_PRODUCT_CATEGORY('part',$,(#7));
ENDSEC;
END-ISO-10303-21;
