0
SECTION
2
HEADER
9
$ACADVER
1
AC1009
9
$INSUNITS
70
4
9
$MEASUREMENT
70
1
0
ENDSEC
0
SECTION
2
TABLES
0
TABLE
2
LAYER
70
3
0
LAYER
2
ENGRAVE
70
0
62
1
6
CONTINUOUS
0
LAYER
2
OUTLINE
70
0
62
5
6
CONTINUOUS
0
LAYER
2
CENTER
70
0
62
3
6
CONTINUOUS
0
ENDTAB
0
ENDSEC
0
SECTION
2
ENTITIES
0
POLYLINE
8
ENGRAVE
66
1
70
1
10
0.0
20
0.0
30
0.0
0
VERTEX
8
ENGRAVE
10
1.5
20
11.0
30
0.0
0
VERTEX
8
ENGRAVE
10
1.4819
20
11.2326
30
0.0
0
VERTEX
8
ENGRAVE
10
1.4279
20
11.4596
30
0.0
0
VERTEX
8
ENGRAVE
10
1.3393
20
11.6754
30
0.0
0
VERTEX
8
ENGRAVE
10
1.2184
20
11.875
30
0.0
0
VERTEX
8
ENGRAVE
10
1.068
20
12.0533
30
0.0
0
VERTEX
8
ENGRAVE
10
0.8917
20
12.2062
30
0.0
0
VERTEX
8
ENGRAVE
10
0.6939
20
12.3299
30
0.0
0
VERTEX
8
ENGRAVE
10
0.4792
20
12.4214
30
0.0
0
VERTEX
8
ENGRAVE
10
0.253
20
12.4785
30
0.0
0
VERTEX
8
ENGRAVE
10
0.0207
20
12.4999
30
0.0
0
VERTEX
8
ENGRAVE
10
-0.2121
20
12.4849
30
0.0
0
VERTEX
8
ENGRAVE
10
-0.4398
20
12.4341
30
0.0
0
VERTEX
8
ENGRAVE
10
-0.6569
20
12.3485
30
0.0
0
VERTEX
8
ENGRAVE
10
-0.8581
20
12.2303
30
0.0
0
VERTEX
8
ENGRAVE
10
-1.0385
20
12.0824
30
0.0
0
VERTEX
8
ENGRAVE
10
-1.1938
20
11.9083
30
0.0
0
VERTEX
8
ENGRAVE
10
-1.3202
20
11.7121
30
0.0
0
VERTEX
8
ENGRAVE
10
-1.4146
20
11.4988
30
0.0
0
VERTEX
8
ENGRAVE
10
-1.4749
20
11.2734
30
0.0
0
VERTEX
8
ENGRAVE
10
-1.4994
20
11.0414
30
0.0
0
VERTEX
8
ENGRAVE
10
-1.4877
20
10.8084
30
0.0
0
VERTEX
8
ENGRAVE
10
-1.44
20
10.58
30
0.0
0
VERTEX
8
ENGRAVE
10
-1.3574
20
10.3618
30
0.0
0
VERTEX
8
ENGRAVE
10
-1.2421
20
10.159
30
0.0
0
VERTEX
8
ENGRAVE
10
-1.0966
20
9.9766
30
0.0
0
VERTEX
8
ENGRAVE
10
-0.9246
20
9.8189
30
0.0
0
VERTEX
8
ENGRAVE
10
-0.7303
20
9.6898
30
0.0
0
VERTEX
8
ENGRAVE
10
-0.5183
20
9.5924
30
0.0
0
VERTEX
8
ENGRAVE
10
-0.2937
20
9.529
30
0.0
0
VERTEX
8
ENGRAVE
10
-0.0621
20
9.5013
30
0.0
0
VERTEX
8
ENGRAVE
10
0.1711
20
9.5098
30
0.0
0
VERTEX
8
ENGRAVE
10
0.4001
20
9.5543
30
0.0
0
VERTEX
8
ENGRAVE
10
0.6194
20
9.6339
30
0.0
0
VERTEX
8
ENGRAVE
10
0.8238
20
9.7465
30
0.0
0
VERTEX
8
ENGRAVE
10
1.0082
20
9.8894
30
0.0
0
VERTEX
8
ENGRAVE
10
1.1682
20
10.0592
30
0.0
0
VERTEX
8
ENGRAVE
10
1.3
20
10.2517
30
0.0
0
VERTEX
8
ENGRAVE
10
1.4003
20
10.4623
30
0.0
0
VERTEX
8
ENGRAVE
10
1.4668
20
10.686
30
0.0
0
VERTEX
8
ENGRAVE
10
1.4917
20
10.8421
30
0.0
0
SEQEND
8
ENGRAVE
0
POLYLINE
8
ENGRAVE
66
1
70
1
10
0.0
20
0.0
30
0.0
0
VERTEX
8
ENGRAVE
10
-4.3841
20
2.687
30
0.0
0
VERTEX
8
ENGRAVE
10
-4.2243
20
2.5529
30
0.0
0
VERTEX
8
ENGRAVE
10
-4.0437
20
2.4484
30
0.0
0
VERTEX
8
ENGRAVE
10
-3.8477
20
2.3768
30
0.0
0
VERTEX
8
ENGRAVE
10
-3.6423
20
2.3403
30
0.0
0
VERTEX
8
ENGRAVE
10
-3.4337
20
2.3399
30
0.0
0
VERTEX
8
ENGRAVE
10
-3.2281
20
2.3756
30
0.0
0
VERTEX
8
ENGRAVE
10
-3.0319
20
2.4464
30
0.0
0
VERTEX
8
ENGRAVE
10
-2.8508
20
2.5501
30
0.0
0
VERTEX
8
ENGRAVE
10
-2.6905
20
2.6835
30
0.0
0
VERTEX
8
ENGRAVE
10
-2.5557
20
2.8428
30
0.0
0
VERTEX
8
ENGRAVE
10
-2.4505
20
3.023
30
0.0
0
VERTEX
8
ENGRAVE
10
-2.3781
20
3.2186
30
0.0
0
VERTEX
8
ENGRAVE
10
-2.3407
20
3.4239
30
0.0
0
VERTEX
8
ENGRAVE
10
-2.3395
20
3.6325
30
0.0
0
VERTEX
8
ENGRAVE
10
-2.3743
20
3.8382
30
0.0
0
VERTEX
8
ENGRAVE
10
-2.4443
20
4.0347
30
0.0
0
VERTEX
8
ENGRAVE
10
-2.5473
20
4.2162
30
0.0
0
VERTEX
8
ENGRAVE
10
-2.6798
20
4.3768
30
0.0
0
VERTEX
8
ENGRAVE
10
-2.687
20
4.3841
30
0.0
0
VERTEX
8
ENGRAVE
10
-6.9296
20
8.6267
30
0.0
0
VERTEX
8
ENGRAVE
10
-7.0894
20
8.7608
30
0.0
0
VERTEX
8
ENGRAVE
10
-7.27
20
8.8653
30
0.0
0
VERTEX
8
ENGRAVE
10
-7.466
20
8.9369
30
0.0
0
VERTEX
8
ENGRAVE
10
-7.6714
20
8.9734
30
0.0
0
VERTEX
8
ENGRAVE
10
-7.88
20
8.9738
30
0.0
0
VERTEX
8
ENGRAVE
10
-8.0856
20
8.9381
30
0.0
0
VERTEX
8
ENGRAVE
10
-8.2818
20
8.8674
30
0.0
0
VERTEX
8
ENGRAVE
10
-8.4629
20
8.7637
30
0.0
0
VERTEX
8
ENGRAVE
10
-8.6232
20
8.6302
30
0.0
0
VERTEX
8
ENGRAVE
10
-8.758
20
8.4709
30
0.0
0
VERTEX
8
ENGRAVE
10
-8.8632
20
8.2908
30
0.0
0
VERTEX
8
ENGRAVE
10
-8.9356
20
8.0951
30
0.0
0
VERTEX
8
ENGRAVE
10
-8.973
20
7.8898
30
0.0
0
VERTEX
8
ENGRAVE
10
-8.9743
20
7.6812
30
0.0
0
VERTEX
8
ENGRAVE
10
-8.9394
20
7.4755
30
0.0
0
VERTEX
8
ENGRAVE
10
-8.8694
20
7.279
30
0.0
0
VERTEX
8
ENGRAVE
10
-8.7665
20
7.0975
30
0.0
0
VERTEX
8
ENGRAVE
10
-8.6339
20
6.9369
30
0.0
0
VERTEX
8
ENGRAVE
10
-8.6267
20
6.9296
30
0.0
0
SEQEND
8
ENGRAVE
0
POLYLINE
8
OUTLINE
66
1
70
1
10
0.0
20
0.0
30
0.0
0
VERTEX
8
OUTLINE
10
1.9654
20
15.8196
30
0.0
0
VERTEX
8
OUTLINE
10
1.8358
20
15.5721
30
0.0
0
VERTEX
8
OUTLINE
10
1.6751
20
15.3435
30
0.0
0
VERTEX
8
OUTLINE
10
1.4862
20
15.1376
30
0.0
0
VERTEX
8
OUTLINE
10
1.2722
20
14.958
30
0.0
0
VERTEX
8
OUTLINE
10
1.0366
20
14.8077
30
0.0
0
VERTEX
8
OUTLINE
10
0.7836
20
14.6892
30
0.0
0
VERTEX
8
OUTLINE
10
0.5174
20
14.6044
30
0.0
0
VERTEX
8
OUTLINE
10
0.2424
20
14.555
30
0.0
0
VERTEX
8
OUTLINE
10
-0.0367
20
14.5416
30
0.0
0
VERTEX
8
OUTLINE
10
-0.3152
20
14.5645
30
0.0
0
VERTEX
8
OUTLINE
10
-0.5884
20
14.6233
30
0.0
0
VERTEX
8
OUTLINE
10
-0.8516
20
14.7171
30
0.0
0
VERTEX
8
OUTLINE
10
-1.1004
20
14.8442
30
0.0
0
VERTEX
8
OUTLINE
10
-1.3306
20
15.0025
30
0.0
0
VERTEX
8
OUTLINE
10
-1.5384
20
15.1893
30
0.0
0
VERTEX
8
OUTLINE
10
-1.7202
20
15.4015
30
0.0
0
VERTEX
8
OUTLINE
10
-1.8729
20
15.6355
30
0.0
0
VERTEX
8
OUTLINE
10
-1.9615
20
15.8109
30
0.0
0
VERTEX
8
OUTLINE
10
-1.9654
20
15.8196
30
0.0
0
VERTEX
8
OUTLINE
10
-2.1014
20
15.8022
30
0.0
0
VERTEX
8
OUTLINE
10
-2.8535
20
15.6838
30
0.0
0
VERTEX
8
OUTLINE
10
-3.599
20
15.5297
30
0.0
0
VERTEX
8
OUTLINE
10
-4.2381
20
15.3676
30
0.0
0
VERTEX
8
OUTLINE
10
-4.2632
20
15.0893
30
0.0
0
VERTEX
8
OUTLINE
10
-4.3241
20
14.8166
30
0.0
0
VERTEX
8
OUTLINE
10
-4.4199
20
14.5541
30
0.0
0
VERTEX
8
OUTLINE
10
-4.5489
20
14.3063
30
0.0
0
VERTEX
8
OUTLINE
10
-4.7089
20
14.0772
30
0.0
0
VERTEX
8
OUTLINE
10
-4.8973
20
13.8709
30
0.0
0
VERTEX
8
OUTLINE
10
-5.1109
20
13.6907
30
0.0
0
VERTEX
8
OUTLINE
10
-5.346
20
13.5398
30
0.0
0
VERTEX
8
OUTLINE
10
-5.5988
20
13.4206
30
0.0
0
VERTEX
8
OUTLINE
10
-5.8648
20
13.3352
30
0.0
0
VERTEX
8
OUTLINE
10
-6.1397
20
13.285
30
0.0
0
VERTEX
8
OUTLINE
10
-6.4187
20
13.2709
30
0.0
0
VERTEX
8
OUTLINE
10
-6.6973
20
13.2932
30
0.0
0
VERTEX
8
OUTLINE
10
-6.9706
20
13.3513
30
0.0
0
VERTEX
8
OUTLINE
10
-7.234
20
13.4444
30
0.0
0
VERTEX
8
OUTLINE
10
-7.4832
20
13.5709
30
0.0
0
VERTEX
8
OUTLINE
10
-7.7138
20
13.7286
30
0.0
0
VERTEX
8
OUTLINE
10
-7.8627
20
13.8567
30
0.0
0
VERTEX
8
OUTLINE
10
-7.8697
20
13.8633
30
0.0
0
VERTEX
8
OUTLINE
10
-8.5226
20
13.4718
30
0.0
0
VERTEX
8
OUTLINE
10
-9.1561
20
13.0495
30
0.0
0
VERTEX
8
OUTLINE
10
-9.7672
20
12.5987
30
0.0
0
VERTEX
8
OUTLINE
10
-9.7964
20
12.5759
30
0.0
0
VERTEX
8
OUTLINE
10
-9.7131
20
12.3092
30
0.0
0
VERTEX
8
OUTLINE
10
-9.665
20
12.034
30
0.0
0
VERTEX
8
OUTLINE
10
-9.653
20
11.7548
30
0.0
0
VERTEX
8
OUTLINE
10
-9.6774
20
11.4765
30
0.0
0
VERTEX
8
OUTLINE
10
-9.7376
20
11.2036
30
0.0
0
VERTEX
8
OUTLINE
10
-9.8327
20
10.9409
30
0.0
0
VERTEX
8
OUTLINE
10
-9.9611
20
10.6927
30
0.0
0
VERTEX
8
OUTLINE
10
-10.1205
20
10.4633
30
0.0
0
VERTEX
8
OUTLINE
10
-10.3084
20
10.2565
30
0.0
0
VERTEX
8
OUTLINE
10
-10.5215
20
10.0758
30
0.0
0
VERTEX
8
OUTLINE
10
-10.7563
20
9.9242
30
0.0
0
VERTEX
8
OUTLINE
10
-11.0087
20
9.8044
30
0.0
0
VERTEX
8
OUTLINE
10
-11.2745
20
9.7183
30
0.0
0
VERTEX
8
OUTLINE
10
-11.5493
20
9.6675
30
0.0
0
VERTEX
8
OUTLINE
10
-11.8283
20
9.6527
30
0.0
0
VERTEX
8
OUTLINE
10
-12.1069
20
9.6742
30
0.0
0
VERTEX
8
OUTLINE
10
-12.3803
20
9.7316
30
0.0
0
VERTEX
8
OUTLINE
10
-12.567
20
9.793
30
0.0
0
VERTEX
8
OUTLINE
10
-12.5759
20
9.7964
30
0.0
0
VERTEX
8
OUTLINE
10
-13.0293
20
9.1849
30
0.0
0
VERTEX
8
OUTLINE
10
-13.4529
20
8.5523
30
0.0
0
VERTEX
8
OUTLINE
10
-13.845
20
7.9019
30
0.0
0
VERTEX
8
OUTLINE
10
-13.8633
20
7.8697
30
0.0
0
VERTEX
8
OUTLINE
10
-13.6843
20
7.6552
30
0.0
0
VERTEX
8
OUTLINE
10
-13.5345
20
7.4193
30
0.0
0
VERTEX
8
OUTLINE
10
-13.4166
20
7.166
30
0.0
0
VERTEX
8
OUTLINE
10
-13.3326
20
6.8995
30
0.0
0
VERTEX
8
OUTLINE
10
-13.2838
20
6.6244
30
0.0
0
VERTEX
8
OUTLINE
10
-13.2711
20
6.3453
30
0.0
0
VERTEX
8
OUTLINE
10
-13.2948
20
6.0669
30
0.0
0
VERTEX
8
OUTLINE
10
-13.3543
20
5.7939
30
0.0
0
VERTEX
8
OUTLINE
10
-13.4487
20
5.5309
30
0.0
0
VERTEX
8
OUTLINE
10
-13.5765
20
5.2824
30
0.0
0
VERTEX
8
OUTLINE
10
-13.7354
20
5.0525
30
0.0
0
VERTEX
8
OUTLINE
10
-13.9227
20
4.8452
30
0.0
0
VERTEX
8
OUTLINE
10
-14.1354
20
4.664
30
0.0
0
VERTEX
8
OUTLINE
10
-14.3697
20
4.5119
30
0.0
0
VERTEX
8
OUTLINE
10
-14.6218
20
4.3914
30
0.0
0
VERTEX
8
OUTLINE
10
-14.8874
20
4.3047
30
0.0
0
VERTEX
8
OUTLINE
10
-15.1621
20
4.2531
30
0.0
0
VERTEX
8
OUTLINE
10
-15.358
20
4.2384
30
0.0
0
VERTEX
8
OUTLINE
10
-15.3676
20
4.2381
30
0.0
0
VERTEX
8
OUTLINE
10
-15.5524
20
3.4996
30
0.0
0
VERTEX
8
OUTLINE
10
-15.7017
20
2.7531
30
0.0
0
VERTEX
8
OUTLINE
10
-15.815
20
2.0022
30
0.0
0
VERTEX
8
OUTLINE
10
-15.8196
20
1.9654
30
0.0
0
VERTEX
8
OUTLINE
10
-15.5721
20
1.8358
30
0.0
0
VERTEX
8
OUTLINE
10
-15.3435
20
1.6751
30
0.0
0
VERTEX
8
OUTLINE
10
-15.1376
20
1.4862
30
0.0
0
VERTEX
8
OUTLINE
10
-14.958
20
1.2722
30
0.0
0
VERTEX
8
OUTLINE
10
-14.8077
20
1.0366
30
0.0
0
VERTEX
8
OUTLINE
10
-14.6892
20
0.7836
30
0.0
0
VERTEX
8
OUTLINE
10
-14.6044
20
0.5174
30
0.0
0
VERTEX
8
OUTLINE
10
-14.555
20
0.2424
30
0.0
0
VERTEX
8
OUTLINE
10
-14.5416
20
-0.0367
30
0.0
0
VERTEX
8
OUTLINE
10
-14.5645
20
-0.3152
30
0.0
0
VERTEX
8
OUTLINE
10
-14.6233
20
-0.5884
30
0.0
0
VERTEX
8
OUTLINE
10
-14.7171
20
-0.8516
30
0.0
0
VERTEX
8
OUTLINE
10
-14.8442
20
-1.1004
30
0.0
0
VERTEX
8
OUTLINE
10
-15.0025
20
-1.3306
30
0.0
0
VERTEX
8
OUTLINE
10
-15.1893
20
-1.5384
30
0.0
0
VERTEX
8
OUTLINE
10
-15.4015
20
-1.7202
30
0.0
0
VERTEX
8
OUTLINE
10
-15.6355
20
-1.8729
30
0.0
0
VERTEX
8
OUTLINE
10
-15.8109
20
-1.9615
30
0.0
0
VERTEX
8
OUTLINE
10
-15.8196
20
-1.9654
30
0.0
0
VERTEX
8
OUTLINE
10
-15.7078
20
-2.7184
30
0.0
0
VERTEX
8
OUTLINE
10
-15.5601
20
-3.4653
30
0.0
0
VERTEX
8
OUTLINE
10
-15.3774
20
-4.2024
30
0.0
0
VERTEX
8
OUTLINE
10
-15.3676
20
-4.2381
30
0.0
0
VERTEX
8
OUTLINE
10
-15.0893
20
-4.2632
30
0.0
0
VERTEX
8
OUTLINE
10
-14.8166
20
-4.3241
30
0.0
0
VERTEX
8
OUTLINE
10
-14.5541
20
-4.4199
30
0.0
0
VERTEX
8
OUTLINE
10
-14.3063
20
-4.5489
30
0.0
0
VERTEX
8
OUTLINE
10
-14.0772
20
-4.7089
30
0.0
0
VERTEX
8
OUTLINE
10
-13.8709
20
-4.8973
30
0.0
0
VERTEX
8
OUTLINE
10
-13.6907
20
-5.1109
30
0.0
0
VERTEX
8
OUTLINE
10
-13.5398
20
-5.346
30
0.0
0
VERTEX
8
OUTLINE
10
-13.4206
20
-5.5988
30
0.0
0
VERTEX
8
OUTLINE
10
-13.3352
20
-5.8648
30
0.0
0
VERTEX
8
OUTLINE
10
-13.285
20
-6.1397
30
0.0
0
VERTEX
8
OUTLINE
10
-13.2709
20
-6.4187
30
0.0
0
VERTEX
8
OUTLINE
10
-13.2932
20
-6.6973
30
0.0
0
VERTEX
8
OUTLINE
10
-13.3513
20
-6.9706
30
0.0
0
VERTEX
8
OUTLINE
10
-13.4444
20
-7.234
30
0.0
0
VERTEX
8
OUTLINE
10
-13.5709
20
-7.4832
30
0.0
0
VERTEX
8
OUTLINE
10
-13.7286
20
-7.7138
30
0.0
0
VERTEX
8
OUTLINE
10
-13.8567
20
-7.8627
30
0.0
0
VERTEX
8
OUTLINE
10
-13.8633
20
-7.8697
30
0.0
0
VERTEX
8
OUTLINE
10
-13.4718
20
-8.5226
30
0.0
0
VERTEX
8
OUTLINE
10
-13.0495
20
-9.1561
30
0.0
0
VERTEX
8
OUTLINE
10
-12.5987
20
-9.7672
30
0.0
0
VERTEX
8
OUTLINE
10
-12.5759
20
-9.7964
30
0.0
0
VERTEX
8
OUTLINE
10
-12.3092
20
-9.7131
30
0.0
0
VERTEX
8
OUTLINE
10
-12.034
20
-9.665
30
0.0
0
VERTEX
8
OUTLINE
10
-11.7548
20
-9.653
30
0.0
0
VERTEX
8
OUTLINE
10
-11.4765
20
-9.6774
30
0.0
0
VERTEX
8
OUTLINE
10
-11.2036
20
-9.7376
30
0.0
0
VERTEX
8
OUTLINE
10
-10.9409
20
-9.8327
30
0.0
0
VERTEX
8
OUTLINE
10
-10.6927
20
-9.9611
30
0.0
0
VERTEX
8
OUTLINE
10
-10.4633
20
-10.1205
30
0.0
0
VERTEX
8
OUTLINE
10
-10.2565
20
-10.3084
30
0.0
0
VERTEX
8
OUTLINE
10
-10.0758
20
-10.5215
30
0.0
0
VERTEX
8
OUTLINE
10
-9.9242
20
-10.7563
30
0.0
0
VERTEX
8
OUTLINE
10
-9.8044
20
-11.0087
30
0.0
0
VERTEX
8
OUTLINE
10
-9.7183
20
-11.2745
30
0.0
0
VERTEX
8
OUTLINE
10
-9.6675
20
-11.5493
30
0.0
0
VERTEX
8
OUTLINE
10
-9.6527
20
-11.8283
30
0.0
0
VERTEX
8
OUTLINE
10
-9.6742
20
-12.1069
30
0.0
0
VERTEX
8
OUTLINE
10
-9.7316
20
-12.3803
30
0.0
0
VERTEX
8
OUTLINE
10
-9.793
20
-12.567
30
0.0
0
VERTEX
8
OUTLINE
10
-9.7964
20
-12.5759
30
0.0
0
VERTEX
8
OUTLINE
10
-9.1849
20
-13.0293
30
0.0
0
VERTEX
8
OUTLINE
10
-8.5523
20
-13.4529
30
0.0
0
VERTEX
8
OUTLINE
10
-7.9019
20
-13.845
30
0.0
0
VERTEX
8
OUTLINE
10
-7.8697
20
-13.8633
30
0.0
0
VERTEX
8
OUTLINE
10
-7.6552
20
-13.6843
30
0.0
0
VERTEX
8
OUTLINE
10
-7.4193
20
-13.5345
30
0.0
0
VERTEX
8
OUTLINE
10
-7.166
20
-13.4166
30
0.0
0
VERTEX
8
OUTLINE
10
-6.8995
20
-13.3326
30
0.0
0
VERTEX
8
OUTLINE
10
-6.6244
20
-13.2838
30
0.0
0
VERTEX
8
OUTLINE
10
-6.3453
20
-13.2711
30
0.0
0
VERTEX
8
OUTLINE
10
-6.0669
20
-13.2948
30
0.0
0
VERTEX
8
OUTLINE
10
-5.7939
20
-13.3543
30
0.0
0
VERTEX
8
OUTLINE
10
-5.5309
20
-13.4487
30
0.0
0
VERTEX
8
OUTLINE
10
-5.2824
20
-13.5765
30
0.0
0
VERTEX
8
OUTLINE
10
-5.0525
20
-13.7354
30
0.0
0
VERTEX
8
OUTLINE
10
-4.8452
20
-13.9227
30
0.0
0
VERTEX
8
OUTLINE
10
-4.664
20
-14.1354
30
0.0
0
VERTEX
8
OUTLINE
10
-4.5119
20
-14.3697
30
0.0
0
VERTEX
8
OUTLINE
10
-4.3914
20
-14.6218
30
0.0
0
VERTEX
8
OUTLINE
10
-4.3047
20
-14.8874
30
0.0
0
VERTEX
8
OUTLINE
10
-4.2531
20
-15.1621
30
0.0
0
VERTEX
8
OUTLINE
10
-4.2384
20
-15.358
30
0.0
0
VERTEX
8
OUTLINE
10
-4.2381
20
-15.3676
30
0.0
0
VERTEX
8
OUTLINE
10
-3.4996
20
-15.5524
30
0.0
0
VERTEX
8
OUTLINE
10
-2.7531
20
-15.7017
30
0.0
0
VERTEX
8
OUTLINE
10
-2.0022
20
-15.815
30
0.0
0
VERTEX
8
OUTLINE
10
-1.9654
20
-15.8196
30
0.0
0
VERTEX
8
OUTLINE
10
-1.8358
20
-15.5721
30
0.0
0
VERTEX
8
OUTLINE
10
-1.6751
20
-15.3435
30
0.0
0
VERTEX
8
OUTLINE
10
-1.4862
20
-15.1376
30
0.0
0
VERTEX
8
OUTLINE
10
-1.2722
20
-14.958
30
0.0
0
VERTEX
8
OUTLINE
10
-1.0366
20
-14.8077
30
0.0
0
VERTEX
8
OUTLINE
10
-0.7836
20
-14.6892
30
0.0
0
VERTEX
8
OUTLINE
10
-0.5174
20
-14.6044
30
0.0
0
VERTEX
8
OUTLINE
10
-0.2424
20
-14.555
30
0.0
0
VERTEX
8
OUTLINE
10
0.0367
20
-14.5416
30
0.0
0
VERTEX
8
OUTLINE
10
0.3152
20
-14.5645
30
0.0
0
VERTEX
8
OUTLINE
10
0.5884
20
-14.6233
30
0.0
0
VERTEX
8
OUTLINE
10
0.8516
20
-14.7171
30
0.0
0
VERTEX
8
OUTLINE
10
1.1004
20
-14.8442
30
0.0
0
VERTEX
8
OUTLINE
10
1.3306
20
-15.0025
30
0.0
0
VERTEX
8
OUTLINE
10
1.5384
20
-15.1893
30
0.0
0
VERTEX
8
OUTLINE
10
1.7202
20
-15.4015
30
0.0
0
VERTEX
8
OUTLINE
10
1.8729
20
-15.6355
30
0.0
0
VERTEX
8
OUTLINE
10
1.9615
20
-15.8109
30
0.0
0
VERTEX
8
OUTLINE
10
1.9654
20
-15.8196
30
0.0
0
VERTEX
8
OUTLINE
10
2.7184
20
-15.7078
30
0.0
0
VERTEX
8
OUTLINE
10
3.4653
20
-15.5601
30
0.0
0
VERTEX
8
OUTLINE
10
4.2024
20
-15.3774
30
0.0
0
VERTEX
8
OUTLINE
10
4.2381
20
-15.3676
30
0.0
0
VERTEX
8
OUTLINE
10
4.2632
20
-15.0893
30
0.0
0
VERTEX
8
OUTLINE
10
4.3241
20
-14.8166
30
0.0
0
VERTEX
8
OUTLINE
10
4.4199
20
-14.5541
30
0.0
0
VERTEX
8
OUTLINE
10
4.5489
20
-14.3063
30
0.0
0
VERTEX
8
OUTLINE
10
4.7089
20
-14.0772
30
0.0
0
VERTEX
8
OUTLINE
10
4.8973
20
-13.8709
30
0.0
0
VERTEX
8
OUTLINE
10
5.1109
20
-13.6907
30
0.0
0
VERTEX
8
OUTLINE
10
5.346
20
-13.5398
30
0.0
0
VERTEX
8
OUTLINE
10
5.5988
20
-13.4206
30
0.0
0
VERTEX
8
OUTLINE
10
5.8648
20
-13.3352
30
0.0
0
VERTEX
8
OUTLINE
10
6.1397
20
-13.285
30
0.0
0
VERTEX
8
OUTLINE
10
6.4187
20
-13.2709
30
0.0
0
VERTEX
8
OUTLINE
10
6.6973
20
-13.2932
30
0.0
0
VERTEX
8
OUTLINE
10
6.9706
20
-13.3513
30
0.0
0
VERTEX
8
OUTLINE
10
7.234
20
-13.4444
30
0.0
0
VERTEX
8
OUTLINE
10
7.4832
20
-13.5709
30
0.0
0
VERTEX
8
OUTLINE
10
7.7138
20
-13.7286
30
0.0
0
VERTEX
8
OUTLINE
10
7.8627
20
-13.8567
30
0.0
0
VERTEX
8
OUTLINE
10
7.8697
20
-13.8633
30
0.0
0
VERTEX
8
OUTLINE
10
8.5226
20
-13.4718
30
0.0
0
VERTEX
8
OUTLINE
10
9.1561
20
-13.0495
30
0.0
0
VERTEX
8
OUTLINE
10
9.7672
20
-12.5987
30
0.0
0
VERTEX
8
OUTLINE
10
9.7964
20
-12.5759
30
0.0
0
VERTEX
8
OUTLINE
10
9.7131
20
-12.3092
30
0.0
0
VERTEX
8
OUTLINE
10
9.665
20
-12.034
30
0.0
0
VERTEX
8
OUTLINE
10
9.653
20
-11.7548
30
0.0
0
VERTEX
8
OUTLINE
10
9.6774
20
-11.4765
30
0.0
0
VERTEX
8
OUTLINE
10
9.7376
20
-11.2036
30
0.0
0
VERTEX
8
OUTLINE
10
9.8327
20
-10.9409
30
0.0
0
VERTEX
8
OUTLINE
10
9.9611
20
-10.6927
30
0.0
0
VERTEX
8
OUTLINE
10
10.1205
20
-10.4633
30
0.0
0
VERTEX
8
OUTLINE
10
10.3084
20
-10.2565
30
0.0
0
VERTEX
8
OUTLINE
10
10.5215
20
-10.0758
30
0.0
0
VERTEX
8
OUTLINE
10
10.7563
20
-9.9242
30
0.0
0
VERTEX
8
OUTLINE
10
11.0087
20
-9.8044
30
0.0
0
VERTEX
8
OUTLINE
10
11.2745
20
-9.7183
30
0.0
0
VERTEX
8
OUTLINE
10
11.5493
20
-9.6675
30
0.0
0
VERTEX
8
OUTLINE
10
11.8283
20
-9.6527
30
0.0
0
VERTEX
8
OUTLINE
10
12.1069
20
-9.6742
30
0.0
0
VERTEX
8
OUTLINE
10
12.3803
20
-9.7316
30
0.0
0
VERTEX
8
OUTLINE
10
12.567
20
-9.793
30
0.0
0
VERTEX
8
OUTLINE
10
12.5759
20
-9.7964
30
0.0
0
VERTEX
8
OUTLINE
10
13.0293
20
-9.1849
30
0.0
0
VERTEX
8
OUTLINE
10
13.4529
20
-8.5523
30
0.0
0
VERTEX
8
OUTLINE
10
13.845
20
-7.9019
30
0.0
0
VERTEX
8
OUTLINE
10
13.8633
20
-7.8697
30
0.0
0
VERTEX
8
OUTLINE
10
13.6843
20
-7.6552
30
0.0
0
VERTEX
8
OUTLINE
10
13.5345
20
-7.4193
30
0.0
0
VERTEX
8
OUTLINE
10
13.4166
20
-7.166
30
0.0
0
VERTEX
8
OUTLINE
10
13.3326
20
-6.8995
30
0.0
0
VERTEX
8
OUTLINE
10
13.2838
20
-6.6244
30
0.0
0
VERTEX
8
OUTLINE
10
13.2711
20
-6.3453
30
0.0
0
VERTEX
8
OUTLINE
10
13.2948
20
-6.0669
30
0.0
0
VERTEX
8
OUTLINE
10
13.3543
20
-5.7939
30
0.0
0
VERTEX
8
OUTLINE
10
13.4487
20
-5.5309
30
0.0
0
VERTEX
8
OUTLINE
10
13.5765
20
-5.2824
30
0.0
0
VERTEX
8
OUTLINE
10
13.7354
20
-5.0525
30
0.0
0
VERTEX
8
OUTLINE
10
13.9227
20
-4.8452
30
0.0
0
VERTEX
8
OUTLINE
10
14.1354
20
-4.664
30
0.0
0
VERTEX
8
OUTLINE
10
14.3697
20
-4.5119
30
0.0
0
VERTEX
8
OUTLINE
10
14.6218
20
-4.3914
30
0.0
0
VERTEX
8
OUTLINE
10
14.8874
20
-4.3047
30
0.0
0
VERTEX
8
OUTLINE
10
15.1621
20
-4.2531
30
0.0
0
VERTEX
8
OUTLINE
10
15.358
20
-4.2384
30
0.0
0
VERTEX
8
OUTLINE
10
15.3676
20
-4.2381
30
0.0
0
VERTEX
8
OUTLINE
10
15.5524
20
-3.4996
30
0.0
0
VERTEX
8
OUTLINE
10
15.7017
20
-2.7531
30
0.0
0
VERTEX
8
OUTLINE
10
15.815
20
-2.0022
30
0.0
0
VERTEX
8
OUTLINE
10
15.8196
20
-1.9654
30
0.0
0
VERTEX
8
OUTLINE
10
15.5721
20
-1.8358
30
0.0
0
VERTEX
8
OUTLINE
10
15.3435
20
-1.6751
30
0.0
0
VERTEX
8
OUTLINE
10
15.1376
20
-1.4862
30
0.0
0
VERTEX
8
OUTLINE
10
14.958
20
-1.2722
30
0.0
0
VERTEX
8
OUTLINE
10
14.8077
20
-1.0366
30
0.0
0
VERTEX
8
OUTLINE
10
14.6892
20
-0.7836
30
0.0
0
VERTEX
8
OUTLINE
10
14.6044
20
-0.5174
30
0.0
0
VERTEX
8
OUTLINE
10
14.555
20
-0.2424
30
0.0
0
VERTEX
8
OUTLINE
10
14.5416
20
0.0367
30
0.0
0
VERTEX
8
OUTLINE
10
14.5645
20
0.3152
30
0.0
0
VERTEX
8
OUTLINE
10
14.6233
20
0.5884
30
0.0
0
VERTEX
8
OUTLINE
10
14.7171
20
0.8516
30
0.0
0
VERTEX
8
OUTLINE
10
14.8442
20
1.1004
30
0.0
0
VERTEX
8
OUTLINE
10
15.0025
20
1.3306
30
0.0
0
VERTEX
8
OUTLINE
10
15.1893
20
1.5384
30
0.0
0
VERTEX
8
OUTLINE
10
15.4015
20
1.7202
30
0.0
0
VERTEX
8
OUTLINE
10
15.6355
20
1.8729
30
0.0
0
VERTEX
8
OUTLINE
10
15.8109
20
1.9615
30
0.0
0
VERTEX
8
OUTLINE
10
15.8196
20
1.9654
30
0.0
0
VERTEX
8
OUTLINE
10
15.7078
20
2.7184
30
0.0
0
VERTEX
8
OUTLINE
10
15.5601
20
3.4653
30
0.0
0
VERTEX
8
OUTLINE
10
15.3774
20
4.2024
30
0.0
0
VERTEX
8
OUTLINE
10
15.3676
20
4.2381
30
0.0
0
VERTEX
8
OUTLINE
10
15.0893
20
4.2632
30
0.0
0
VERTEX
8
OUTLINE
10
14.8166
20
4.3241
30
0.0
0
VERTEX
8
OUTLINE
10
14.5541
20
4.4199
30
0.0
0
VERTEX
8
OUTLINE
10
14.3063
20
4.5489
30
0.0
0
VERTEX
8
OUTLINE
10
14.0772
20
4.7089
30
0.0
0
VERTEX
8
OUTLINE
10
13.8709
20
4.8973
30
0.0
0
VERTEX
8
OUTLINE
10
13.6907
20
5.1109
30
0.0
0
VERTEX
8
OUTLINE
10
13.5398
20
5.346
30
0.0
0
VERTEX
8
OUTLINE
10
13.4206
20
5.5988
30
0.0
0
VERTEX
8
OUTLINE
10
13.3352
20
5.8648
30
0.0
0
VERTEX
8
OUTLINE
10
13.285
20
6.1397
30
0.0
0
VERTEX
8
OUTLINE
10
13.2709
20
6.4187
30
0.0
0
VERTEX
8
OUTLINE
10
13.2932
20
6.6973
30
0.0
0
VERTEX
8
OUTLINE
10
13.3513
20
6.9706
30
0.0
0
VERTEX
8
OUTLINE
10
13.4444
20
7.234
30
0.0
0
VERTEX
8
OUTLINE
10
13.5709
20
7.4832
30
0.0
0
VERTEX
8
OUTLINE
10
13.7286
20
7.7138
30
0.0
0
VERTEX
8
OUTLINE
10
13.8567
20
7.8627
30
0.0
0
VERTEX
8
OUTLINE
10
13.8633
20
7.8697
30
0.0
0
VERTEX
8
OUTLINE
10
13.4718
20
8.5226
30
0.0
0
VERTEX
8
OUTLINE
10
13.0495
20
9.1561
30
0.0
0
VERTEX
8
OUTLINE
10
12.5987
20
9.7672
30
0.0
0
VERTEX
8
OUTLINE
10
12.5759
20
9.7964
30
0.0
0
VERTEX
8
OUTLINE
10
12.3092
20
9.7131
30
0.0
0
VERTEX
8
OUTLINE
10
12.034
20
9.665
30
0.0
0
VERTEX
8
OUTLINE
10
11.7548
20
9.653
30
0.0
0
VERTEX
8
OUTLINE
10
11.4765
20
9.6774
30
0.0
0
VERTEX
8
OUTLINE
10
11.2036
20
9.7376
30
0.0
0
VERTEX
8
OUTLINE
10
10.9409
20
9.8327
30
0.0
0
VERTEX
8
OUTLINE
10
10.6927
20
9.9611
30
0.0
0
VERTEX
8
OUTLINE
10
10.4633
20
10.1205
30
0.0
0
VERTEX
8
OUTLINE
10
10.2565
20
10.3084
30
0.0
0
VERTEX
8
OUTLINE
10
10.0758
20
10.5215
30
0.0
0
VERTEX
8
OUTLINE
10
9.9242
20
10.7563
30
0.0
0
VERTEX
8
OUTLINE
10
9.8044
20
11.0087
30
0.0
0
VERTEX
8
OUTLINE
10
9.7183
20
11.2745
30
0.0
0
VERTEX
8
OUTLINE
10
9.6675
20
11.5493
30
0.0
0
VERTEX
8
OUTLINE
10
9.6527
20
11.8283
30
0.0
0
VERTEX
8
OUTLINE
10
9.6742
20
12.1069
30
0.0
0
VERTEX
8
OUTLINE
10
9.7316
20
12.3803
30
0.0
0
VERTEX
8
OUTLINE
10
9.793
20
12.567
30
0.0
0
VERTEX
8
OUTLINE
10
9.7964
20
12.5759
30
0.0
0
VERTEX
8
OUTLINE
10
9.1849
20
13.0293
30
0.0
0
VERTEX
8
OUTLINE
10
8.5523
20
13.4529
30
0.0
0
VERTEX
8
OUTLINE
10
7.9019
20
13.845
30
0.0
0
VERTEX
8
OUTLINE
10
7.8697
20
13.8633
30
0.0
0
VERTEX
8
OUTLINE
10
7.6552
20
13.6843
30
0.0
0
VERTEX
8
OUTLINE
10
7.4193
20
13.5345
30
0.0
0
VERTEX
8
OUTLINE
10
7.166
20
13.4166
30
0.0
0
VERTEX
8
OUTLINE
10
6.8995
20
13.3326
30
0.0
0
VERTEX
8
OUTLINE
10
6.6244
20
13.2838
30
0.0
0
VERTEX
8
OUTLINE
10
6.3453
20
13.2711
30
0.0
0
VERTEX
8
OUTLINE
10
6.0669
20
13.2948
30
0.0
0
VERTEX
8
OUTLINE
10
5.7939
20
13.3543
30
0.0
0
VERTEX
8
OUTLINE
10
5.5309
20
13.4487
30
0.0
0
VERTEX
8
OUTLINE
10
5.2824
20
13.5765
30
0.0
0
VERTEX
8
OUTLINE
10
5.0525
20
13.7354
30
0.0
0
VERTEX
8
OUTLINE
10
4.8452
20
13.9227
30
0.0
0
VERTEX
8
OUTLINE
10
4.664
20
14.1354
30
0.0
0
VERTEX
8
OUTLINE
10
4.5119
20
14.3697
30
0.0
0
VERTEX
8
OUTLINE
10
4.3914
20
14.6218
30
0.0
0
VERTEX
8
OUTLINE
10
4.3047
20
14.8874
30
0.0
0
VERTEX
8
OUTLINE
10
4.2531
20
15.1621
30
0.0
0
VERTEX
8
OUTLINE
10
4.2384
20
15.358
30
0.0
0
VERTEX
8
OUTLINE
10
4.2381
20
15.3676
30
0.0
0
VERTEX
8
OUTLINE
10
3.4996
20
15.5524
30
0.0
0
VERTEX
8
OUTLINE
10
2.7531
20
15.7017
30
0.0
0
VERTEX
8
OUTLINE
10
2.36
20
15.7656
30
0.0
0
SEQEND
8
OUTLINE
0
LINE
8
CENTER
10
-2.0
20
0
30
0.0
11
2.0
21
0
31
0.0
0
LINE
8
CENTER
10
0
20
-2.0
30
0.0
11
0
21
2.0
31
0.0
0
ENDSEC
0
EOF
