0
SECTION
2
HEADER
9
$ACADVER
1
AC1009
9
$INSUNITS
70
4
9
$MEASUREMENT
70
1
0
ENDSEC
0
SECTION
2
TABLES
0
TABLE
2
LAYER
70
3
0
LAYER
2
ENGRAVE
70
0
62
1
6
CONTINUOUS
0
LAYER
2
OUTLINE
70
0
62
5
6
CONTINUOUS
0
LAYER
2
CENTER
70
0
62
3
6
CONTINUOUS
0
ENDTAB
0
ENDSEC
0
SECTION
2
ENTITIES
0
POLYLINE
8
ENGRAVE
66
1
70
1
10
0.0
20
0.0
30
0.0
0
VERTEX
8
ENGRAVE
10
1.5
20
11.0
30
0.0
0
VERTEX
8
ENGRAVE
10
1.4819
20
11.2326
30
0.0
0
VERTEX
8
ENGRAVE
10
1.4279
20
11.4596
30
0.0
0
VERTEX
8
ENGRAVE
10
1.3393
20
11.6754
30
0.0
0
VERTEX
8
ENGRAVE
10
1.2184
20
11.875
30
0.0
0
VERTEX
8
ENGRAVE
10
1.068
20
12.0533
30
0.0
0
VERTEX
8
ENGRAVE
10
0.8917
20
12.2062
30
0.0
0
VERTEX
8
ENGRAVE
10
0.6939
20
12.3299
30
0.0
0
VERTEX
8
ENGRAVE
10
0.4792
20
12.4214
30
0.0
0
VERTEX
8
ENGRAVE
10
0.253
20
12.4785
30
0.0
0
VERTEX
8
ENGRAVE
10
0.0207
20
12.4999
30
0.0
0
VERTEX
8
ENGRAVE
10
-0.2121
20
12.4849
30
0.0
0
VERTEX
8
ENGRAVE
10
-0.4398
20
12.4341
30
0.0
0
VERTEX
8
ENGRAVE
10
-0.6569
20
12.3485
30
0.0
0
VERTEX
8
ENGRAVE
10
-0.8581
20
12.2303
30
0.0
0
VERTEX
8
ENGRAVE
10
-1.0385
20
12.0824
30
0.0
0
VERTEX
8
ENGRAVE
10
-1.1938
20
11.9083
30
0.0
0
VERTEX
8
ENGRAVE
10
-1.3202
20
11.7121
30
0.0
0
VERTEX
8
ENGRAVE
10
-1.4146
20
11.4988
30
0.0
0
VERTEX
8
ENGRAVE
10
-1.4749
20
11.2734
30
0.0
0
VERTEX
8
ENGRAVE
10
-1.4994
20
11.0414
30
0.0
0
VERTEX
8
ENGRAVE
10
-1.4877
20
10.8084
30
0.0
0
VERTEX
8
ENGRAVE
10
-1.44
20
10.58
30
0.0
0
VERTEX
8
ENGRAVE
10
-1.3574
20
10.3618
30
0.0
0
VERTEX
8
ENGRAVE
10
-1.2421
20
10.159
30
0.0
0
VERTEX
8
ENGRAVE
10
-1.0966
20
9.9766
30
0.0
0
VERTEX
8
ENGRAVE
10
-0.9246
20
9.8189
30
0.0
0
VERTEX
8
ENGRAVE
10
-0.7303
20
9.6898
30
0.0
0
VERTEX
8
ENGRAVE
10
-0.5183
20
9.5924
30
0.0
0
VERTEX
8
ENGRAVE
10
-0.2937
20
9.529
30
0.0
0
VERTEX
8
ENGRAVE
10
-0.0621
20
9.5013
30
0.0
0
VERTEX
8
ENGRAVE
10
0.1711
20
9.5098
30
0.0
0
VERTEX
8
ENGRAVE
10
0.4001
20
9.5543
30
0.0
0
VERTEX
8
ENGRAVE
10
0.6194
20
9.6339
30
0.0
0
VERTEX
8
ENGRAVE
10
0.8238
20
9.7465
30
0.0
0
VERTEX
8
ENGRAVE
10
1.0082
20
9.8894
30
0.0
0
VERTEX
8
ENGRAVE
10
1.1682
20
10.0592
30
0.0
0
VERTEX
8
ENGRAVE
10
1.3
20
10.2517
30
0.0
0
VERTEX
8
ENGRAVE
10
1.4003
20
10.4623
30
0.0
0
VERTEX
8
ENGRAVE
10
1.4668
20
10.686
30
0.0
0
VERTEX
8
ENGRAVE
10
1.4917
20
10.8421
30
0.0
0
SEQEND
8
ENGRAVE
0
POLYLINE
8
ENGRAVE
66
1
70
1
10
0.0
20
0.0
30
0.0
0
VERTEX
8
ENGRAVE
10
12.2892
20
-3.3207
30
0.0
0
VERTEX
8
ENGRAVE
10
11.1757
20
-2.8734
30
0.0
0
VERTEX
8
ENGRAVE
10
10.8402
20
-3.7085
30
0.0
0
VERTEX
8
ENGRAVE
10
10.0051
20
-3.373
30
0.0
0
VERTEX
8
ENGRAVE
10
9.5577
20
-4.4865
30
0.0
0
VERTEX
8
ENGRAVE
10
10.3928
20
-4.822
30
0.0
0
VERTEX
8
ENGRAVE
10
10.0573
20
-5.6571
30
0.0
0
VERTEX
8
ENGRAVE
10
11.1708
20
-6.1045
30
0.0
0
VERTEX
8
ENGRAVE
10
11.5063
20
-5.2694
30
0.0
0
VERTEX
8
ENGRAVE
10
12.3414
20
-5.6049
30
0.0
0
VERTEX
8
ENGRAVE
10
12.7888
20
-4.4914
30
0.0
0
VERTEX
8
ENGRAVE
10
11.9537
20
-4.1559
30
0.0
0
SEQEND
8
ENGRAVE
0
POLYLINE
8
ENGRAVE
66
1
70
1
10
0.0
20
0.0
30
0.0
0
VERTEX
8
ENGRAVE
10
3.7093
20
10.5228
30
0.0
0
VERTEX
8
ENGRAVE
10
3.67
20
10.3808
30
0.0
0
VERTEX
8
ENGRAVE
10
3.6666
20
10.2335
30
0.0
0
VERTEX
8
ENGRAVE
10
3.6991
20
10.0898
30
0.0
0
VERTEX
8
ENGRAVE
10
3.7657
20
9.9584
30
0.0
0
VERTEX
8
ENGRAVE
10
3.8623
20
9.8471
30
0.0
0
VERTEX
8
ENGRAVE
10
3.9831
20
9.7628
30
0.0
0
VERTEX
8
ENGRAVE
10
4.1208
20
9.7104
30
0.0
0
VERTEX
8
ENGRAVE
10
4.2672
20
9.6932
30
0.0
0
VERTEX
8
ENGRAVE
10
4.4133
20
9.7122
30
0.0
0
VERTEX
8
ENGRAVE
10
4.5504
20
9.7662
30
0.0
0
VERTEX
8
ENGRAVE
10
4.6701
20
9.8519
30
0.0
0
VERTEX
8
ENGRAVE
10
4.7654
20
9.9643
30
0.0
0
VERTEX
8
ENGRAVE
10
4.8179
20
10.0636
30
0.0
0
VERTEX
8
ENGRAVE
10
5.5067
20
11.7266
30
0.0
0
VERTEX
8
ENGRAVE
10
5.546
20
11.8686
30
0.0
0
VERTEX
8
ENGRAVE
10
5.5494
20
12.0159
30
0.0
0
VERTEX
8
ENGRAVE
10
5.5169
20
12.1596
30
0.0
0
VERTEX
8
ENGRAVE
10
5.4503
20
12.291
30
0.0
0
VERTEX
8
ENGRAVE
10
5.3537
20
12.4022
30
0.0
0
VERTEX
8
ENGRAVE
10
5.2329
20
12.4866
30
0.0
0
VERTEX
8
ENGRAVE
10
5.0952
20
12.5389
30
0.0
0
VERTEX
8
ENGRAVE
10
4.9488
20
12.5562
30
0.0
0
VERTEX
8
ENGRAVE
10
4.8027
20
12.5372
30
0.0
0
VERTEX
8
ENGRAVE
10
4.6656
20
12.4832
30
0.0
0
VERTEX
8
ENGRAVE
10
4.5458
20
12.3974
30
0.0
0
VERTEX
8
ENGRAVE
10
4.4506
20
12.285
30
0.0
0
VERTEX
8
ENGRAVE
10
4.3981
20
12.1858
30
0.0
0
SEQEND
8
ENGRAVE
0
POLYLINE
8
ENGRAVE
66
1
70
1
10
0.0
20
0.0
30
0.0
0
VERTEX
8
ENGRAVE
10
-4.8179
20
10.0636
30
0.0
0
VERTEX
8
ENGRAVE
10
-4.7452
20
9.9354
30
0.0
0
VERTEX
8
ENGRAVE
10
-4.6435
20
9.8288
30
0.0
0
VERTEX
8
ENGRAVE
10
-4.5189
20
9.7502
30
0.0
0
VERTEX
8
ENGRAVE
10
-4.3789
20
9.7044
30
0.0
0
VERTEX
8
ENGRAVE
10
-4.2319
20
9.694
30
0.0
0
VERTEX
8
ENGRAVE
10
-4.0868
20
9.7198
30
0.0
0
VERTEX
8
ENGRAVE
10
-3.9524
20
9.7802
30
0.0
0
VERTEX
8
ENGRAVE
10
-3.8368
20
9.8715
30
0.0
0
VERTEX
8
ENGRAVE
10
-3.7469
20
9.9882
30
0.0
0
VERTEX
8
ENGRAVE
10
-3.6881
20
10.1233
30
0.0
0
VERTEX
8
ENGRAVE
10
-3.6641
20
10.2687
30
0.0
0
VERTEX
8
ENGRAVE
10
-3.6762
20
10.4155
30
0.0
0
VERTEX
8
ENGRAVE
10
-3.7093
20
10.5228
30
0.0
0
VERTEX
8
ENGRAVE
10
-4.3981
20
12.1858
30
0.0
0
VERTEX
8
ENGRAVE
10
-4.4708
20
12.314
30
0.0
0
VERTEX
8
ENGRAVE
10
-4.5725
20
12.4205
30
0.0
0
VERTEX
8
ENGRAVE
10
-4.6971
20
12.4991
30
0.0
0
VERTEX
8
ENGRAVE
10
-4.8371
20
12.545
30
0.0
0
VERTEX
8
ENGRAVE
10
-4.9841
20
12.5553
30
0.0
0
VERTEX
8
ENGRAVE
10
-5.1291
20
12.5296
30
0.0
0
VERTEX
8
ENGRAVE
10
-5.2636
20
12.4692
30
0.0
0
VERTEX
8
ENGRAVE
10
-5.3792
20
12.3779
30
0.0
0
VERTEX
8
ENGRAVE
10
-5.4691
20
12.2612
30
0.0
0
VERTEX
8
ENGRAVE
10
-5.5279
20
12.1261
30
0.0
0
VERTEX
8
ENGRAVE
10
-5.5519
20
11.9807
30
0.0
0
VERTEX
8
ENGRAVE
10
-5.5398
20
11.8339
30
0.0
0
VERTEX
8
ENGRAVE
10
-5.5067
20
11.7266
30
0.0
0
SEQEND
8
ENGRAVE
0
POLYLINE
8
ENGRAVE
66
1
70
1
10
0.0
20
0.0
30
0.0
0
VERTEX
8
ENGRAVE
10
6.4687
20
10.761
30
0.0
0
VERTEX
8
ENGRAVE
10
6.4025
20
10.6294
30
0.0
0
VERTEX
8
ENGRAVE
10
6.3704
20
10.4856
30
0.0
0
VERTEX
8
ENGRAVE
10
6.3742
20
10.3383
30
0.0
0
VERTEX
8
ENGRAVE
10
6.4139
20
10.1964
30
0.0
0
VERTEX
8
ENGRAVE
10
6.487
20
10.0685
30
0.0
0
VERTEX
8
ENGRAVE
10
6.589
20
9.9622
30
0.0
0
VERTEX
8
ENGRAVE
10
6.7139
20
9.884
30
0.0
0
VERTEX
8
ENGRAVE
10
6.854
20
9.8385
30
0.0
0
VERTEX
8
ENGRAVE
10
7.001
20
9.8286
30
0.0
0
VERTEX
8
ENGRAVE
10
7.146
20
9.8548
30
0.0
0
VERTEX
8
ENGRAVE
10
7.2802
20
9.9156
30
0.0
0
VERTEX
8
ENGRAVE
10
7.3956
20
10.0072
30
0.0
0
VERTEX
8
ENGRAVE
10
7.4664
20
10.0943
30
0.0
0
VERTEX
8
ENGRAVE
10
7.6887
20
10.4269
30
0.0
0
VERTEX
8
ENGRAVE
10
7.7549
20
10.5586
30
0.0
0
VERTEX
8
ENGRAVE
10
7.787
20
10.7024
30
0.0
0
VERTEX
8
ENGRAVE
10
7.7831
20
10.8496
30
0.0
0
VERTEX
8
ENGRAVE
10
7.7434
20
10.9915
30
0.0
0
VERTEX
8
ENGRAVE
10
7.6704
20
11.1195
30
0.0
0
VERTEX
8
ENGRAVE
10
7.5683
20
11.2258
30
0.0
0
VERTEX
8
ENGRAVE
10
7.4435
20
11.304
30
0.0
0
VERTEX
8
ENGRAVE
10
7.3033
20
11.3494
30
0.0
0
VERTEX
8
ENGRAVE
10
7.1563
20
11.3593
30
0.0
0
VERTEX
8
ENGRAVE
10
7.0113
20
11.3331
30
0.0
0
VERTEX
8
ENGRAVE
10
6.8771
20
11.2724
30
0.0
0
VERTEX
8
ENGRAVE
10
6.7617
20
11.1807
30
0.0
0
VERTEX
8
ENGRAVE
10
6.6909
20
11.0936
30
0.0
0
SEQEND
8
ENGRAVE
0
POLYLINE
8
ENGRAVE
66
1
70
1
10
0.0
20
0.0
30
0.0
0
VERTEX
8
ENGRAVE
10
-7.4664
20
10.0943
30
0.0
0
VERTEX
8
ENGRAVE
10
-7.3702
20
9.9828
30
0.0
0
VERTEX
8
ENGRAVE
10
-7.2496
20
9.8981
30
0.0
0
VERTEX
8
ENGRAVE
10
-7.112
20
9.8453
30
0.0
0
VERTEX
8
ENGRAVE
10
-6.9658
20
9.8277
30
0.0
0
VERTEX
8
ENGRAVE
10
-6.8196
20
9.8462
30
0.0
0
VERTEX
8
ENGRAVE
10
-6.6824
20
9.8998
30
0.0
0
VERTEX
8
ENGRAVE
10
-6.5623
20
9.9852
30
0.0
0
VERTEX
8
ENGRAVE
10
-6.4667
20
10.0973
30
0.0
0
VERTEX
8
ENGRAVE
10
-6.4013
20
10.2293
30
0.0
0
VERTEX
8
ENGRAVE
10
-6.37
20
10.3733
30
0.0
0
VERTEX
8
ENGRAVE
10
-6.3748
20
10.5206
30
0.0
0
VERTEX
8
ENGRAVE
10
-6.4153
20
10.6622
30
0.0
0
VERTEX
8
ENGRAVE
10
-6.4687
20
10.761
30
0.0
0
VERTEX
8
ENGRAVE
10
-6.6909
20
11.0936
30
0.0
0
VERTEX
8
ENGRAVE
10
-6.7872
20
11.2051
30
0.0
0
VERTEX
8
ENGRAVE
10
-6.9077
20
11.2898
30
0.0
0
VERTEX
8
ENGRAVE
10
-7.0453
20
11.3426
30
0.0
0
VERTEX
8
ENGRAVE
10
-7.1916
20
11.3603
30
0.0
0
VERTEX
8
ENGRAVE
10
-7.3377
20
11.3417
30
0.0
0
VERTEX
8
ENGRAVE
10
-7.475
20
11.2882
30
0.0
0
VERTEX
8
ENGRAVE
10
-7.595
20
11.2027
30
0.0
0
VERTEX
8
ENGRAVE
10
-7.6906
20
11.0906
30
0.0
0
VERTEX
8
ENGRAVE
10
-7.7561
20
10.9586
30
0.0
0
VERTEX
8
ENGRAVE
10
-7.7873
20
10.8146
30
0.0
0
VERTEX
8
ENGRAVE
10
-7.7825
20
10.6674
30
0.0
0
VERTEX
8
ENGRAVE
10
-7.742
20
10.5257
30
0.0
0
VERTEX
8
ENGRAVE
10
-7.6887
20
10.4269
30
0.0
0
SEQEND
8
ENGRAVE
0
POLYLINE
8
ENGRAVE
66
1
70
1
10
0.0
20
0.0
30
0.0
0
VERTEX
8
ENGRAVE
10
-10.0573
20
-5.6571
30
0.0
0
VERTEX
8
ENGRAVE
10
-11.1757
20
-2.8734
30
0.0
0
VERTEX
8
ENGRAVE
10
-12.2892
20
-3.3207
30
0.0
0
VERTEX
8
ENGRAVE
10
-11.1708
20
-6.1045
30
0.0
0
SEQEND
8
ENGRAVE
0
POLYLINE
8
ENGRAVE
66
1
70
1
10
0.0
20
0.0
30
0.0
0
VERTEX
8
ENGRAVE
10
-10.761
20
6.4687
30
0.0
0
VERTEX
8
ENGRAVE
10
-10.6294
20
6.4025
30
0.0
0
VERTEX
8
ENGRAVE
10
-10.4856
20
6.3704
30
0.0
0
VERTEX
8
ENGRAVE
10
-10.3383
20
6.3742
30
0.0
0
VERTEX
8
ENGRAVE
10
-10.1964
20
6.4139
30
0.0
0
VERTEX
8
ENGRAVE
10
-10.0685
20
6.487
30
0.0
0
VERTEX
8
ENGRAVE
10
-9.9622
20
6.589
30
0.0
0
VERTEX
8
ENGRAVE
10
-9.884
20
6.7139
30
0.0
0
VERTEX
8
ENGRAVE
10
-9.8385
20
6.854
30
0.0
0
VERTEX
8
ENGRAVE
10
-9.8286
20
7.001
30
0.0
0
VERTEX
8
ENGRAVE
10
-9.8548
20
7.146
30
0.0
0
VERTEX
8
ENGRAVE
10
-9.9156
20
7.2802
30
0.0
0
VERTEX
8
ENGRAVE
10
-10.0072
20
7.3956
30
0.0
0
VERTEX
8
ENGRAVE
10
-10.0943
20
7.4664
30
0.0
0
VERTEX
8
ENGRAVE
10
-10.4269
20
7.6887
30
0.0
0
VERTEX
8
ENGRAVE
10
-10.5586
20
7.7549
30
0.0
0
VERTEX
8
ENGRAVE
10
-10.7024
20
7.787
30
0.0
0
VERTEX
8
ENGRAVE
10
-10.8496
20
7.7831
30
0.0
0
VERTEX
8
ENGRAVE
10
-10.9915
20
7.7434
30
0.0
0
VERTEX
8
ENGRAVE
10
-11.1195
20
7.6704
30
0.0
0
VERTEX
8
ENGRAVE
10
-11.2258
20
7.5683
30
0.0
0
VERTEX
8
ENGRAVE
10
-11.304
20
7.4435
30
0.0
0
VERTEX
8
ENGRAVE
10
-11.3494
20
7.3033
30
0.0
0
VERTEX
8
ENGRAVE
10
-11.3593
20
7.1563
30
0.0
0
VERTEX
8
ENGRAVE
10
-11.3331
20
7.0113
30
0.0
0
VERTEX
8
ENGRAVE
10
-11.2724
20
6.8771
30
0.0
0
VERTEX
8
ENGRAVE
10
-11.1807
20
6.7617
30
0.0
0
VERTEX
8
ENGRAVE
10
-11.0936
20
6.6909
30
0.0
0
SEQEND
8
ENGRAVE
0
POLYLINE
8
ENGRAVE
66
1
70
1
10
0.0
20
0.0
30
0.0
0
VERTEX
8
ENGRAVE
10
-12.4173
20
1.8582
30
0.0
0
VERTEX
8
ENGRAVE
10
-12.2704
20
1.8474
30
0.0
0
VERTEX
8
ENGRAVE
10
-12.1253
20
1.8728
30
0.0
0
VERTEX
8
ENGRAVE
10
-11.9907
20
1.9327
30
0.0
0
VERTEX
8
ENGRAVE
10
-11.8748
20
2.0237
30
0.0
0
VERTEX
8
ENGRAVE
10
-11.7845
20
2.1401
30
0.0
0
VERTEX
8
ENGRAVE
10
-11.7254
20
2.2751
30
0.0
0
VERTEX
8
ENGRAVE
10
-11.7009
20
2.4204
30
0.0
0
VERTEX
8
ENGRAVE
10
-11.7125
20
2.5672
30
0.0
0
VERTEX
8
ENGRAVE
10
-11.7596
20
2.7068
30
0.0
0
VERTEX
8
ENGRAVE
10
-11.8393
20
2.8308
30
0.0
0
VERTEX
8
ENGRAVE
10
-11.9468
20
2.9315
30
0.0
0
VERTEX
8
ENGRAVE
10
-12.0757
20
3.003
30
0.0
0
VERTEX
8
ENGRAVE
10
-12.1832
20
3.0352
30
0.0
0
VERTEX
8
ENGRAVE
10
-12.5756
20
3.1132
30
0.0
0
VERTEX
8
ENGRAVE
10
-12.7225
20
3.124
30
0.0
0
VERTEX
8
ENGRAVE
10
-12.8676
20
3.0986
30
0.0
0
VERTEX
8
ENGRAVE
10
-13.0022
20
3.0387
30
0.0
0
VERTEX
8
ENGRAVE
10
-13.1181
20
2.9477
30
0.0
0
VERTEX
8
ENGRAVE
10
-13.2084
20
2.8313
30
0.0
0
VERTEX
8
ENGRAVE
10
-13.2675
20
2.6963
30
0.0
0
VERTEX
8
ENGRAVE
10
-13.292
20
2.551
30
0.0
0
VERTEX
8
ENGRAVE
10
-13.2804
20
2.4042
30
0.0
0
VERTEX
8
ENGRAVE
10
-13.2333
20
2.2645
30
0.0
0
VERTEX
8
ENGRAVE
10
-13.1536
20
2.1406
30
0.0
0
VERTEX
8
ENGRAVE
10
-13.0461
20
2.0399
30
0.0
0
VERTEX
8
ENGRAVE
10
-12.9172
20
1.9684
30
0.0
0
VERTEX
8
ENGRAVE
10
-12.8097
20
1.9362
30
0.0
0
SEQEND
8
ENGRAVE
0
POLYLINE
8
ENGRAVE
66
1
70
1
10
0.0
20
0.0
30
0.0
0
VERTEX
8
ENGRAVE
10
10.0943
20
7.4664
30
0.0
0
VERTEX
8
ENGRAVE
10
9.9828
20
7.3702
30
0.0
0
VERTEX
8
ENGRAVE
10
9.8981
20
7.2496
30
0.0
0
VERTEX
8
ENGRAVE
10
9.8453
20
7.112
30
0.0
0
VERTEX
8
ENGRAVE
10
9.8277
20
6.9658
30
0.0
0
VERTEX
8
ENGRAVE
10
9.8462
20
6.8196
30
0.0
0
VERTEX
8
ENGRAVE
10
9.8998
20
6.6824
30
0.0
0
VERTEX
8
ENGRAVE
10
9.9852
20
6.5623
30
0.0
0
VERTEX
8
ENGRAVE
10
10.0973
20
6.4667
30
0.0
0
VERTEX
8
ENGRAVE
10
10.2293
20
6.4013
30
0.0
0
VERTEX
8
ENGRAVE
10
10.3733
20
6.37
30
0.0
0
VERTEX
8
ENGRAVE
10
10.5206
20
6.3748
30
0.0
0
VERTEX
8
ENGRAVE
10
10.6622
20
6.4153
30
0.0
0
VERTEX
8
ENGRAVE
10
10.761
20
6.4687
30
0.0
0
VERTEX
8
ENGRAVE
10
11.0936
20
6.6909
30
0.0
0
VERTEX
8
ENGRAVE
10
11.2051
20
6.7872
30
0.0
0
VERTEX
8
ENGRAVE
10
11.2898
20
6.9077
30
0.0
0
VERTEX
8
ENGRAVE
10
11.3426
20
7.0453
30
0.0
0
VERTEX
8
ENGRAVE
10
11.3603
20
7.1916
30
0.0
0
VERTEX
8
ENGRAVE
10
11.3417
20
7.3377
30
0.0
0
VERTEX
8
ENGRAVE
10
11.2882
20
7.475
30
0.0
0
VERTEX
8
ENGRAVE
10
11.2027
20
7.595
30
0.0
0
VERTEX
8
ENGRAVE
10
11.0906
20
7.6906
30
0.0
0
VERTEX
8
ENGRAVE
10
10.9586
20
7.7561
30
0.0
0
VERTEX
8
ENGRAVE
10
10.8146
20
7.7873
30
0.0
0
VERTEX
8
ENGRAVE
10
10.6674
20
7.7825
30
0.0
0
VERTEX
8
ENGRAVE
10
10.5257
20
7.742
30
0.0
0
VERTEX
8
ENGRAVE
10
10.4269
20
7.6887
30
0.0
0
SEQEND
8
ENGRAVE
0
POLYLINE
8
ENGRAVE
66
1
70
1
10
0.0
20
0.0
30
0.0
0
VERTEX
8
ENGRAVE
10
12.1832
20
3.0352
30
0.0
0
VERTEX
8
ENGRAVE
10
12.0434
20
2.9889
30
0.0
0
VERTEX
8
ENGRAVE
10
11.919
20
2.9099
30
0.0
0
VERTEX
8
ENGRAVE
10
11.8176
20
2.803
30
0.0
0
VERTEX
8
ENGRAVE
10
11.7453
20
2.6746
30
0.0
0
VERTEX
8
ENGRAVE
10
11.7065
20
2.5325
30
0.0
0
VERTEX
8
ENGRAVE
10
11.7034
20
2.3852
30
0.0
0
VERTEX
8
ENGRAVE
10
11.7364
20
2.2416
30
0.0
0
VERTEX
8
ENGRAVE
10
11.8034
20
2.1104
30
0.0
0
VERTEX
8
ENGRAVE
10
11.9003
20
1.9994
30
0.0
0
VERTEX
8
ENGRAVE
10
12.0214
20
1.9154
30
0.0
0
VERTEX
8
ENGRAVE
10
12.1593
20
1.8635
30
0.0
0
VERTEX
8
ENGRAVE
10
12.3057
20
1.8467
30
0.0
0
VERTEX
8
ENGRAVE
10
12.4173
20
1.8582
30
0.0
0
VERTEX
8
ENGRAVE
10
12.8097
20
1.9362
30
0.0
0
VERTEX
8
ENGRAVE
10
12.9495
20
1.9825
30
0.0
0
VERTEX
8
ENGRAVE
10
13.0739
20
2.0615
30
0.0
0
VERTEX
8
ENGRAVE
10
13.1753
20
2.1684
30
0.0
0
VERTEX
8
ENGRAVE
10
13.2476
20
2.2968
30
0.0
0
VERTEX
8
ENGRAVE
10
13.2864
20
2.4389
30
0.0
0
VERTEX
8
ENGRAVE
10
13.2894
20
2.5862
30
0.0
0
VERTEX
8
ENGRAVE
10
13.2565
20
2.7298
30
0.0
0
VERTEX
8
ENGRAVE
10
13.1895
20
2.861
30
0.0
0
VERTEX
8
ENGRAVE
10
13.0925
20
2.972
30
0.0
0
VERTEX
8
ENGRAVE
10
12.9715
20
3.056
30
0.0
0
VERTEX
8
ENGRAVE
10
12.8336
20
3.1079
30
0.0
0
VERTEX
8
ENGRAVE
10
12.6872
20
3.1247
30
0.0
0
VERTEX
8
ENGRAVE
10
12.5756
20
3.1132
30
0.0
0
SEQEND
8
ENGRAVE
0
POLYLINE
8
ENGRAVE
66
1
70
1
10
0.0
20
0.0
30
0.0
0
VERTEX
8
ENGRAVE
10
-8.3023
20
7.4538
30
0.0
0
VERTEX
8
ENGRAVE
10
-8.1861
20
7.3632
30
0.0
0
VERTEX
8
ENGRAVE
10
-8.0514
20
7.3036
30
0.0
0
VERTEX
8
ENGRAVE
10
-7.9062
20
7.2787
30
0.0
0
VERTEX
8
ENGRAVE
10
-7.7593
20
7.2899
30
0.0
0
VERTEX
8
ENGRAVE
10
-7.6195
20
7.3366
30
0.0
0
VERTEX
8
ENGRAVE
10
-7.4954
20
7.416
30
0.0
0
VERTEX
8
ENGRAVE
10
-7.3943
20
7.5232
30
0.0
0
VERTEX
8
ENGRAVE
10
-7.3224
20
7.6518
30
0.0
0
VERTEX
8
ENGRAVE
10
-7.284
20
7.794
30
0.0
0
VERTEX
8
ENGRAVE
10
-7.2814
20
7.9413
30
0.0
0
VERTEX
8
ENGRAVE
10
-7.3148
20
8.0848
30
0.0
0
VERTEX
8
ENGRAVE
10
-7.3822
20
8.2159
30
0.0
0
VERTEX
8
ENGRAVE
10
-7.4538
20
8.3023
30
0.0
0
VERTEX
8
ENGRAVE
10
-8.7266
20
9.5751
30
0.0
0
VERTEX
8
ENGRAVE
10
-8.8428
20
9.6657
30
0.0
0
VERTEX
8
ENGRAVE
10
-8.9775
20
9.7253
30
0.0
0
VERTEX
8
ENGRAVE
10
-9.1228
20
9.7502
30
0.0
0
VERTEX
8
ENGRAVE
10
-9.2697
20
9.739
30
0.0
0
VERTEX
8
ENGRAVE
10
-9.4094
20
9.6923
30
0.0
0
VERTEX
8
ENGRAVE
10
-9.5336
20
9.613
30
0.0
0
VERTEX
8
ENGRAVE
10
-9.6346
20
9.5058
30
0.0
0
VERTEX
8
ENGRAVE
10
-9.7065
20
9.3772
30
0.0
0
VERTEX
8
ENGRAVE
10
-9.7449
20
9.2349
30
0.0
0
VERTEX
8
ENGRAVE
10
-9.7475
20
9.0876
30
0.0
0
VERTEX
8
ENGRAVE
10
-9.7141
20
8.9441
30
0.0
0
VERTEX
8
ENGRAVE
10
-9.6467
20
8.8131
30
0.0
0
VERTEX
8
ENGRAVE
10
-9.5751
20
8.7266
30
0.0
0
SEQEND
8
ENGRAVE
0
POLYLINE
8
ENGRAVE
66
1
70
1
10
0.0
20
0.0
30
0.0
0
VERTEX
8
ENGRAVE
10
-10.5228
20
3.7093
30
0.0
0
VERTEX
8
ENGRAVE
10
-10.3808
20
3.67
30
0.0
0
VERTEX
8
ENGRAVE
10
-10.2335
20
3.6666
30
0.0
0
VERTEX
8
ENGRAVE
10
-10.0898
20
3.6991
30
0.0
0
VERTEX
8
ENGRAVE
10
-9.9584
20
3.7657
30
0.0
0
VERTEX
8
ENGRAVE
10
-9.8471
20
3.8623
30
0.0
0
VERTEX
8
ENGRAVE
10
-9.7628
20
3.9831
30
0.0
0
VERTEX
8
ENGRAVE
10
-9.7104
20
4.1208
30
0.0
0
VERTEX
8
ENGRAVE
10
-9.6932
20
4.2672
30
0.0
0
VERTEX
8
ENGRAVE
10
-9.7122
20
4.4133
30
0.0
0
VERTEX
8
ENGRAVE
10
-9.7662
20
4.5504
30
0.0
0
VERTEX
8
ENGRAVE
10
-9.8519
20
4.6701
30
0.0
0
VERTEX
8
ENGRAVE
10
-9.9643
20
4.7654
30
0.0
0
VERTEX
8
ENGRAVE
10
-10.0636
20
4.8179
30
0.0
0
VERTEX
8
ENGRAVE
10
-11.7266
20
5.5067
30
0.0
0
VERTEX
8
ENGRAVE
10
-11.8686
20
5.546
30
0.0
0
VERTEX
8
ENGRAVE
10
-12.0159
20
5.5494
30
0.0
0
VERTEX
8
ENGRAVE
10
-12.1596
20
5.5169
30
0.0
0
VERTEX
8
ENGRAVE
10
-12.291
20
5.4503
30
0.0
0
VERTEX
8
ENGRAVE
10
-12.4022
20
5.3537
30
0.0
0
VERTEX
8
ENGRAVE
10
-12.4866
20
5.2329
30
0.0
0
VERTEX
8
ENGRAVE
10
-12.5389
20
5.0952
30
0.0
0
VERTEX
8
ENGRAVE
10
-12.5562
20
4.9488
30
0.0
0
VERTEX
8
ENGRAVE
10
-12.5372
20
4.8027
30
0.0
0
VERTEX
8
ENGRAVE
10
-12.4832
20
4.6656
30
0.0
0
VERTEX
8
ENGRAVE
10
-12.3974
20
4.5458
30
0.0
0
VERTEX
8
ENGRAVE
10
-12.285
20
4.4506
30
0.0
0
VERTEX
8
ENGRAVE
10
-12.1858
20
4.3981
30
0.0
0
SEQEND
8
ENGRAVE
0
POLYLINE
8
ENGRAVE
66
1
70
1
10
0.0
20
0.0
30
0.0
0
VERTEX
8
ENGRAVE
10
-11.1413
20
-0.6
30
0.0
0
VERTEX
8
ENGRAVE
10
-10.995
20
-0.5819
30
0.0
0
VERTEX
8
ENGRAVE
10
-10.8576
20
-0.5287
30
0.0
0
VERTEX
8
ENGRAVE
10
-10.7373
20
-0.4437
30
0.0
0
VERTEX
8
ENGRAVE
10
-10.6414
20
-0.3319
30
0.0
0
VERTEX
8
ENGRAVE
10
-10.5756
20
-0.2
30
0.0
0
VERTEX
8
ENGRAVE
10
-10.5439
20
-0.0561
30
0.0
0
VERTEX
8
ENGRAVE
10
-10.5482
20
0.0911
30
0.0
0
VERTEX
8
ENGRAVE
10
-10.5883
20
0.2329
30
0.0
0
VERTEX
8
ENGRAVE
10
-10.6618
20
0.3606
30
0.0
0
VERTEX
8
ENGRAVE
10
-10.7641
20
0.4666
30
0.0
0
VERTEX
8
ENGRAVE
10
-10.8892
20
0.5445
30
0.0
0
VERTEX
8
ENGRAVE
10
-11.0295
20
0.5895
30
0.0
0
VERTEX
8
ENGRAVE
10
-11.1413
20
0.6
30
0.0
0
VERTEX
8
ENGRAVE
10
-12.9413
20
0.6
30
0.0
0
VERTEX
8
ENGRAVE
10
-13.0875
20
0.5819
30
0.0
0
VERTEX
8
ENGRAVE
10
-13.2249
20
0.5287
30
0.0
0
VERTEX
8
ENGRAVE
10
-13.3452
20
0.4437
30
0.0
0
VERTEX
8
ENGRAVE
10
-13.4411
20
0.3319
30
0.0
0
VERTEX
8
ENGRAVE
10
-13.5069
20
0.2
30
0.0
0
VERTEX
8
ENGRAVE
10
-13.5386
20
0.0561
30
0.0
0
VERTEX
8
ENGRAVE
10
-13.5343
20
-0.0911
30
0.0
0
VERTEX
8
ENGRAVE
10
-13.4942
20
-0.2329
30
0.0
0
VERTEX
8
ENGRAVE
10
-13.4208
20
-0.3606
30
0.0
0
VERTEX
8
ENGRAVE
10
-13.3184
20
-0.4666
30
0.0
0
VERTEX
8
ENGRAVE
10
-13.1933
20
-0.5445
30
0.0
0
VERTEX
8
ENGRAVE
10
-13.053
20
-0.5895
30
0.0
0
VERTEX
8
ENGRAVE
10
-12.9413
20
-0.6
30
0.0
0
SEQEND
8
ENGRAVE
0
POLYLINE
8
ENGRAVE
66
1
70
1
10
0.0
20
0.0
30
0.0
0
VERTEX
8
ENGRAVE
10
7.4538
20
8.3023
30
0.0
0
VERTEX
8
ENGRAVE
10
7.3632
20
8.1861
30
0.0
0
VERTEX
8
ENGRAVE
10
7.3036
20
8.0514
30
0.0
0
VERTEX
8
ENGRAVE
10
7.2787
20
7.9062
30
0.0
0
VERTEX
8
ENGRAVE
10
7.2899
20
7.7593
30
0.0
0
VERTEX
8
ENGRAVE
10
7.3366
20
7.6195
30
0.0
0
VERTEX
8
ENGRAVE
10
7.416
20
7.4954
30
0.0
0
VERTEX
8
ENGRAVE
10
7.5232
20
7.3943
30
0.0
0
VERTEX
8
ENGRAVE
10
7.6518
20
7.3224
30
0.0
0
VERTEX
8
ENGRAVE
10
7.794
20
7.284
30
0.0
0
VERTEX
8
ENGRAVE
10
7.9413
20
7.2814
30
0.0
0
VERTEX
8
ENGRAVE
10
8.0848
20
7.3148
30
0.0
0
VERTEX
8
ENGRAVE
10
8.2159
20
7.3822
30
0.0
0
VERTEX
8
ENGRAVE
10
8.3023
20
7.4538
30
0.0
0
VERTEX
8
ENGRAVE
10
9.5751
20
8.7266
30
0.0
0
VERTEX
8
ENGRAVE
10
9.6657
20
8.8428
30
0.0
0
VERTEX
8
ENGRAVE
10
9.7253
20
8.9775
30
0.0
0
VERTEX
8
ENGRAVE
10
9.7502
20
9.1228
30
0.0
0
VERTEX
8
ENGRAVE
10
9.739
20
9.2697
30
0.0
0
VERTEX
8
ENGRAVE
10
9.6923
20
9.4094
30
0.0
0
VERTEX
8
ENGRAVE
10
9.613
20
9.5336
30
0.0
0
VERTEX
8
ENGRAVE
10
9.5058
20
9.6346
30
0.0
0
VERTEX
8
ENGRAVE
10
9.3772
20
9.7065
30
0.0
0
VERTEX
8
ENGRAVE
10
9.2349
20
9.7449
30
0.0
0
VERTEX
8
ENGRAVE
10
9.0876
20
9.7475
30
0.0
0
VERTEX
8
ENGRAVE
10
8.9441
20
9.7141
30
0.0
0
VERTEX
8
ENGRAVE
10
8.8131
20
9.6467
30
0.0
0
VERTEX
8
ENGRAVE
10
8.7266
20
9.5751
30
0.0
0
SEQEND
8
ENGRAVE
0
POLYLINE
8
ENGRAVE
66
1
70
1
10
0.0
20
0.0
30
0.0
0
VERTEX
8
ENGRAVE
10
10.0636
20
4.8179
30
0.0
0
VERTEX
8
ENGRAVE
10
9.9354
20
4.7452
30
0.0
0
VERTEX
8
ENGRAVE
10
9.8288
20
4.6435
30
0.0
0
VERTEX
8
ENGRAVE
10
9.7502
20
4.5189
30
0.0
0
VERTEX
8
ENGRAVE
10
9.7044
20
4.3789
30
0.0
0
VERTEX
8
ENGRAVE
10
9.694
20
4.2319
30
0.0
0
VERTEX
8
ENGRAVE
10
9.7198
20
4.0868
30
0.0
0
VERTEX
8
ENGRAVE
10
9.7802
20
3.9524
30
0.0
0
VERTEX
8
ENGRAVE
10
9.8715
20
3.8368
30
0.0
0
VERTEX
8
ENGRAVE
10
9.9882
20
3.7469
30
0.0
0
VERTEX
8
ENGRAVE
10
10.1233
20
3.6881
30
0.0
0
VERTEX
8
ENGRAVE
10
10.2687
20
3.6641
30
0.0
0
VERTEX
8
ENGRAVE
10
10.4155
20
3.6762
30
0.0
0
VERTEX
8
ENGRAVE
10
10.5228
20
3.7093
30
0.0
0
VERTEX
8
ENGRAVE
10
12.1858
20
4.3981
30
0.0
0
VERTEX
8
ENGRAVE
10
12.314
20
4.4708
30
0.0
0
VERTEX
8
ENGRAVE
10
12.4205
20
4.5725
30
0.0
0
VERTEX
8
ENGRAVE
10
12.4991
20
4.6971
30
0.0
0
VERTEX
8
ENGRAVE
10
12.545
20
4.8371
30
0.0
0
VERTEX
8
ENGRAVE
10
12.5553
20
4.9841
30
0.0
0
VERTEX
8
ENGRAVE
10
12.5296
20
5.1291
30
0.0
0
VERTEX
8
ENGRAVE
10
12.4692
20
5.2636
30
0.0
0
VERTEX
8
ENGRAVE
10
12.3779
20
5.3792
30
0.0
0
VERTEX
8
ENGRAVE
10
12.2612
20
5.4691
30
0.0
0
VERTEX
8
ENGRAVE
10
12.1261
20
5.5279
30
0.0
0
VERTEX
8
ENGRAVE
10
11.9807
20
5.5519
30
0.0
0
VERTEX
8
ENGRAVE
10
11.8339
20
5.5398
30
0.0
0
VERTEX
8
ENGRAVE
10
11.7266
20
5.5067
30
0.0
0
SEQEND
8
ENGRAVE
0
POLYLINE
8
ENGRAVE
66
1
70
1
10
0.0
20
0.0
30
0.0
0
VERTEX
8
ENGRAVE
10
11.1413
20
0.6
30
0.0
0
VERTEX
8
ENGRAVE
10
10.995
20
0.5819
30
0.0
0
VERTEX
8
ENGRAVE
10
10.8576
20
0.5287
30
0.0
0
VERTEX
8
ENGRAVE
10
10.7373
20
0.4437
30
0.0
0
VERTEX
8
ENGRAVE
10
10.6414
20
0.3319
30
0.0
0
VERTEX
8
ENGRAVE
10
10.5756
20
0.2
30
0.0
0
VERTEX
8
ENGRAVE
10
10.5439
20
0.0561
30
0.0
0
VERTEX
8
ENGRAVE
10
10.5482
20
-0.0911
30
0.0
0
VERTEX
8
ENGRAVE
10
10.5883
20
-0.2329
30
0.0
0
VERTEX
8
ENGRAVE
10
10.6618
20
-0.3606
30
0.0
0
VERTEX
8
ENGRAVE
10
10.7641
20
-0.4666
30
0.0
0
VERTEX
8
ENGRAVE
10
10.8892
20
-0.5445
30
0.0
0
VERTEX
8
ENGRAVE
10
11.0295
20
-0.5895
30
0.0
0
VERTEX
8
ENGRAVE
10
11.1413
20
-0.6
30
0.0
0
VERTEX
8
ENGRAVE
10
12.9413
20
-0.6
30
0.0
0
VERTEX
8
ENGRAVE
10
13.0875
20
-0.5819
30
0.0
0
VERTEX
8
ENGRAVE
10
13.2249
20
-0.5287
30
0.0
0
VERTEX
8
ENGRAVE
10
13.3452
20
-0.4437
30
0.0
0
VERTEX
8
ENGRAVE
10
13.4411
20
-0.3319
30
0.0
0
VERTEX
8
ENGRAVE
10
13.5069
20
-0.2
30
0.0
0
VERTEX
8
ENGRAVE
10
13.5386
20
-0.0561
30
0.0
0
VERTEX
8
ENGRAVE
10
13.5343
20
0.0911
30
0.0
0
VERTEX
8
ENGRAVE
10
13.4942
20
0.2329
30
0.0
0
VERTEX
8
ENGRAVE
10
13.4208
20
0.3606
30
0.0
0
VERTEX
8
ENGRAVE
10
13.3184
20
0.4666
30
0.0
0
VERTEX
8
ENGRAVE
10
13.1933
20
0.5445
30
0.0
0
VERTEX
8
ENGRAVE
10
13.053
20
0.5895
30
0.0
0
VERTEX
8
ENGRAVE
10
12.9413
20
0.6
30
0.0
0
SEQEND
8
ENGRAVE
0
POLYLINE
8
OUTLINE
66
1
70
1
10
0.0
20
0.0
30
0.0
0
VERTEX
8
OUTLINE
10
1.9654
20
15.8196
30
0.0
0
VERTEX
8
OUTLINE
10
1.8358
20
15.5721
30
0.0
0
VERTEX
8
OUTLINE
10
1.6751
20
15.3435
30
0.0
0
VERTEX
8
OUTLINE
10
1.4862
20
15.1376
30
0.0
0
VERTEX
8
OUTLINE
10
1.2722
20
14.958
30
0.0
0
VERTEX
8
OUTLINE
10
1.0366
20
14.8077
30
0.0
0
VERTEX
8
OUTLINE
10
0.7836
20
14.6892
30
0.0
0
VERTEX
8
OUTLINE
10
0.5174
20
14.6044
30
0.0
0
VERTEX
8
OUTLINE
10
0.2424
20
14.555
30
0.0
0
VERTEX
8
OUTLINE
10
-0.0367
20
14.5416
30
0.0
0
VERTEX
8
OUTLINE
10
-0.3152
20
14.5645
30
0.0
0
VERTEX
8
OUTLINE
10
-0.5884
20
14.6233
30
0.0
0
VERTEX
8
OUTLINE
10
-0.8516
20
14.7171
30
0.0
0
VERTEX
8
OUTLINE
10
-1.1004
20
14.8442
30
0.0
0
VERTEX
8
OUTLINE
10
-1.3306
20
15.0025
30
0.0
0
VERTEX
8
OUTLINE
10
-1.5384
20
15.1893
30
0.0
0
VERTEX
8
OUTLINE
10
-1.7202
20
15.4015
30
0.0
0
VERTEX
8
OUTLINE
10
-1.8729
20
15.6355
30
0.0
0
VERTEX
8
OUTLINE
10
-1.9615
20
15.8109
30
0.0
0
VERTEX
8
OUTLINE
10
-1.9654
20
15.8196
30
0.0
0
VERTEX
8
OUTLINE
10
-2.1014
20
15.8022
30
0.0
0
VERTEX
8
OUTLINE
10
-2.8535
20
15.6838
30
0.0
0
VERTEX
8
OUTLINE
10
-3.599
20
15.5297
30
0.0
0
VERTEX
8
OUTLINE
10
-4.2381
20
15.3676
30
0.0
0
VERTEX
8
OUTLINE
10
-4.2632
20
15.0893
30
0.0
0
VERTEX
8
OUTLINE
10
-4.3241
20
14.8166
30
0.0
0
VERTEX
8
OUTLINE
10
-4.4199
20
14.5541
30
0.0
0
VERTEX
8
OUTLINE
10
-4.5489
20
14.3063
30
0.0
0
VERTEX
8
OUTLINE
10
-4.7089
20
14.0772
30
0.0
0
VERTEX
8
OUTLINE
10
-4.8973
20
13.8709
30
0.0
0
VERTEX
8
OUTLINE
10
-5.1109
20
13.6907
30
0.0
0
VERTEX
8
OUTLINE
10
-5.346
20
13.5398
30
0.0
0
VERTEX
8
OUTLINE
10
-5.5988
20
13.4206
30
0.0
0
VERTEX
8
OUTLINE
10
-5.8648
20
13.3352
30
0.0
0
VERTEX
8
OUTLINE
10
-6.1397
20
13.285
30
0.0
0
VERTEX
8
OUTLINE
10
-6.4187
20
13.2709
30
0.0
0
VERTEX
8
OUTLINE
10
-6.6973
20
13.2932
30
0.0
0
VERTEX
8
OUTLINE
10
-6.9706
20
13.3513
30
0.0
0
VERTEX
8
OUTLINE
10
-7.234
20
13.4444
30
0.0
0
VERTEX
8
OUTLINE
10
-7.4832
20
13.5709
30
0.0
0
VERTEX
8
OUTLINE
10
-7.7138
20
13.7286
30
0.0
0
VERTEX
8
OUTLINE
10
-7.8627
20
13.8567
30
0.0
0
VERTEX
8
OUTLINE
10
-7.8697
20
13.8633
30
0.0
0
VERTEX
8
OUTLINE
10
-8.5226
20
13.4718
30
0.0
0
VERTEX
8
OUTLINE
10
-9.1561
20
13.0495
30
0.0
0
VERTEX
8
OUTLINE
10
-9.7672
20
12.5987
30
0.0
0
VERTEX
8
OUTLINE
10
-9.7964
20
12.5759
30
0.0
0
VERTEX
8
OUTLINE
10
-9.7131
20
12.3092
30
0.0
0
VERTEX
8
OUTLINE
10
-9.665
20
12.034
30
0.0
0
VERTEX
8
OUTLINE
10
-9.653
20
11.7548
30
0.0
0
VERTEX
8
OUTLINE
10
-9.6774
20
11.4765
30
0.0
0
VERTEX
8
OUTLINE
10
-9.7376
20
11.2036
30
0.0
0
VERTEX
8
OUTLINE
10
-9.8327
20
10.9409
30
0.0
0
VERTEX
8
OUTLINE
10
-9.9611
20
10.6927
30
0.0
0
VERTEX
8
OUTLINE
10
-10.1205
20
10.4633
30
0.0
0
VERTEX
8
OUTLINE
10
-10.3084
20
10.2565
30
0.0
0
VERTEX
8
OUTLINE
10
-10.5215
20
10.0758
30
0.0
0
VERTEX
8
OUTLINE
10
-10.7563
20
9.9242
30
0.0
0
VERTEX
8
OUTLINE
10
-11.0087
20
9.8044
30
0.0
0
VERTEX
8
OUTLINE
10
-11.2745
20
9.7183
30
0.0
0
VERTEX
8
OUTLINE
10
-11.5493
20
9.6675
30
0.0
0
VERTEX
8
OUTLINE
10
-11.8283
20
9.6527
30
0.0
0
VERTEX
8
OUTLINE
10
-12.1069
20
9.6742
30
0.0
0
VERTEX
8
OUTLINE
10
-12.3803
20
9.7316
30
0.0
0
VERTEX
8
OUTLINE
10
-12.567
20
9.793
30
0.0
0
VERTEX
8
OUTLINE
10
-12.5759
20
9.7964
30
0.0
0
VERTEX
8
OUTLINE
10
-13.0293
20
9.1849
30
0.0
0
VERTEX
8
OUTLINE
10
-13.4529
20
8.5523
30
0.0
0
VERTEX
8
OUTLINE
10
-13.845
20
7.9019
30
0.0
0
VERTEX
8
OUTLINE
10
-13.8633
20
7.8697
30
0.0
0
VERTEX
8
OUTLINE
10
-13.6843
20
7.6552
30
0.0
0
VERTEX
8
OUTLINE
10
-13.5345
20
7.4193
30
0.0
0
VERTEX
8
OUTLINE
10
-13.4166
20
7.166
30
0.0
0
VERTEX
8
OUTLINE
10
-13.3326
20
6.8995
30
0.0
0
VERTEX
8
OUTLINE
10
-13.2838
20
6.6244
30
0.0
0
VERTEX
8
OUTLINE
10
-13.2711
20
6.3453
30
0.0
0
VERTEX
8
OUTLINE
10
-13.2948
20
6.0669
30
0.0
0
VERTEX
8
OUTLINE
10
-13.3543
20
5.7939
30
0.0
0
VERTEX
8
OUTLINE
10
-13.4487
20
5.5309
30
0.0
0
VERTEX
8
OUTLINE
10
-13.5765
20
5.2824
30
0.0
0
VERTEX
8
OUTLINE
10
-13.7354
20
5.0525
30
0.0
0
VERTEX
8
OUTLINE
10
-13.9227
20
4.8452
30
0.0
0
VERTEX
8
OUTLINE
10
-14.1354
20
4.664
30
0.0
0
VERTEX
8
OUTLINE
10
-14.3697
20
4.5119
30
0.0
0
VERTEX
8
OUTLINE
10
-14.6218
20
4.3914
30
0.0
0
VERTEX
8
OUTLINE
10
-14.8874
20
4.3047
30
0.0
0
VERTEX
8
OUTLINE
10
-15.1621
20
4.2531
30
0.0
0
VERTEX
8
OUTLINE
10
-15.358
20
4.2384
30
0.0
0
VERTEX
8
OUTLINE
10
-15.3676
20
4.2381
30
0.0
0
VERTEX
8
OUTLINE
10
-15.5524
20
3.4996
30
0.0
0
VERTEX
8
OUTLINE
10
-15.7017
20
2.7531
30
0.0
0
VERTEX
8
OUTLINE
10
-15.815
20
2.0022
30
0.0
0
VERTEX
8
OUTLINE
10
-15.8196
20
1.9654
30
0.0
0
VERTEX
8
OUTLINE
10
-15.5721
20
1.8358
30
0.0
0
VERTEX
8
OUTLINE
10
-15.3435
20
1.6751
30
0.0
0
VERTEX
8
OUTLINE
10
-15.1376
20
1.4862
30
0.0
0
VERTEX
8
OUTLINE
10
-14.958
20
1.2722
30
0.0
0
VERTEX
8
OUTLINE
10
-14.8077
20
1.0366
30
0.0
0
VERTEX
8
OUTLINE
10
-14.6892
20
0.7836
30
0.0
0
VERTEX
8
OUTLINE
10
-14.6044
20
0.5174
30
0.0
0
VERTEX
8
OUTLINE
10
-14.555
20
0.2424
30
0.0
0
VERTEX
8
OUTLINE
10
-14.5416
20
-0.0367
30
0.0
0
VERTEX
8
OUTLINE
10
-14.5645
20
-0.3152
30
0.0
0
VERTEX
8
OUTLINE
10
-14.6233
20
-0.5884
30
0.0
0
VERTEX
8
OUTLINE
10
-14.7171
20
-0.8516
30
0.0
0
VERTEX
8
OUTLINE
10
-14.8442
20
-1.1004
30
0.0
0
VERTEX
8
OUTLINE
10
-15.0025
20
-1.3306
30
0.0
0
VERTEX
8
OUTLINE
10
-15.1893
20
-1.5384
30
0.0
0
VERTEX
8
OUTLINE
10
-15.4015
20
-1.7202
30
0.0
0
VERTEX
8
OUTLINE
10
-15.6355
20
-1.8729
30
0.0
0
VERTEX
8
OUTLINE
10
-15.8109
20
-1.9615
30
0.0
0
VERTEX
8
OUTLINE
10
-15.8196
20
-1.9654
30
0.0
0
VERTEX
8
OUTLINE
10
-15.7078
20
-2.7184
30
0.0
0
VERTEX
8
OUTLINE
10
-15.5601
20
-3.4653
30
0.0
0
VERTEX
8
OUTLINE
10
-15.3774
20
-4.2024
30
0.0
0
VERTEX
8
OUTLINE
10
-15.3676
20
-4.2381
30
0.0
0
VERTEX
8
OUTLINE
10
-15.0893
20
-4.2632
30
0.0
0
VERTEX
8
OUTLINE
10
-14.8166
20
-4.3241
30
0.0
0
VERTEX
8
OUTLINE
10
-14.5541
20
-4.4199
30
0.0
0
VERTEX
8
OUTLINE
10
-14.3063
20
-4.5489
30
0.0
0
VERTEX
8
OUTLINE
10
-14.0772
20
-4.7089
30
0.0
0
VERTEX
8
OUTLINE
10
-13.8709
20
-4.8973
30
0.0
0
VERTEX
8
OUTLINE
10
-13.6907
20
-5.1109
30
0.0
0
VERTEX
8
OUTLINE
10
-13.5398
20
-5.346
30
0.0
0
VERTEX
8
OUTLINE
10
-13.4206
20
-5.5988
30
0.0
0
VERTEX
8
OUTLINE
10
-13.3352
20
-5.8648
30
0.0
0
VERTEX
8
OUTLINE
10
-13.285
20
-6.1397
30
0.0
0
VERTEX
8
OUTLINE
10
-13.2709
20
-6.4187
30
0.0
0
VERTEX
8
OUTLINE
10
-13.2932
20
-6.6973
30
0.0
0
VERTEX
8
OUTLINE
10
-13.3513
20
-6.9706
30
0.0
0
VERTEX
8
OUTLINE
10
-13.4444
20
-7.234
30
0.0
0
VERTEX
8
OUTLINE
10
-13.5709
20
-7.4832
30
0.0
0
VERTEX
8
OUTLINE
10
-13.7286
20
-7.7138
30
0.0
0
VERTEX
8
OUTLINE
10
-13.8567
20
-7.8627
30
0.0
0
VERTEX
8
OUTLINE
10
-13.8633
20
-7.8697
30
0.0
0
VERTEX
8
OUTLINE
10
-13.4718
20
-8.5226
30
0.0
0
VERTEX
8
OUTLINE
10
-13.0495
20
-9.1561
30
0.0
0
VERTEX
8
OUTLINE
10
-12.5987
20
-9.7672
30
0.0
0
VERTEX
8
OUTLINE
10
-12.5759
20
-9.7964
30
0.0
0
VERTEX
8
OUTLINE
10
-12.3092
20
-9.7131
30
0.0
0
VERTEX
8
OUTLINE
10
-12.034
20
-9.665
30
0.0
0
VERTEX
8
OUTLINE
10
-11.7548
20
-9.653
30
0.0
0
VERTEX
8
OUTLINE
10
-11.4765
20
-9.6774
30
0.0
0
VERTEX
8
OUTLINE
10
-11.2036
20
-9.7376
30
0.0
0
VERTEX
8
OUTLINE
10
-10.9409
20
-9.8327
30
0.0
0
VERTEX
8
OUTLINE
10
-10.6927
20
-9.9611
30
0.0
0
VERTEX
8
OUTLINE
10
-10.4633
20
-10.1205
30
0.0
0
VERTEX
8
OUTLINE
10
-10.2565
20
-10.3084
30
0.0
0
VERTEX
8
OUTLINE
10
-10.0758
20
-10.5215
30
0.0
0
VERTEX
8
OUTLINE
10
-9.9242
20
-10.7563
30
0.0
0
VERTEX
8
OUTLINE
10
-9.8044
20
-11.0087
30
0.0
0
VERTEX
8
OUTLINE
10
-9.7183
20
-11.2745
30
0.0
0
VERTEX
8
OUTLINE
10
-9.6675
20
-11.5493
30
0.0
0
VERTEX
8
OUTLINE
10
-9.6527
20
-11.8283
30
0.0
0
VERTEX
8
OUTLINE
10
-9.6742
20
-12.1069
30
0.0
0
VERTEX
8
OUTLINE
10
-9.7316
20
-12.3803
30
0.0
0
VERTEX
8
OUTLINE
10
-9.793
20
-12.567
30
0.0
0
VERTEX
8
OUTLINE
10
-9.7964
20
-12.5759
30
0.0
0
VERTEX
8
OUTLINE
10
-9.1849
20
-13.0293
30
0.0
0
VERTEX
8
OUTLINE
10
-8.5523
20
-13.4529
30
0.0
0
VERTEX
8
OUTLINE
10
-7.9019
20
-13.845
30
0.0
0
VERTEX
8
OUTLINE
10
-7.8697
20
-13.8633
30
0.0
0
VERTEX
8
OUTLINE
10
-7.6552
20
-13.6843
30
0.0
0
VERTEX
8
OUTLINE
10
-7.4193
20
-13.5345
30
0.0
0
VERTEX
8
OUTLINE
10
-7.166
20
-13.4166
30
0.0
0
VERTEX
8
OUTLINE
10
-6.8995
20
-13.3326
30
0.0
0
VERTEX
8
OUTLINE
10
-6.6244
20
-13.2838
30
0.0
0
VERTEX
8
OUTLINE
10
-6.3453
20
-13.2711
30
0.0
0
VERTEX
8
OUTLINE
10
-6.0669
20
-13.2948
30
0.0
0
VERTEX
8
OUTLINE
10
-5.7939
20
-13.3543
30
0.0
0
VERTEX
8
OUTLINE
10
-5.5309
20
-13.4487
30
0.0
0
VERTEX
8
OUTLINE
10
-5.2824
20
-13.5765
30
0.0
0
VERTEX
8
OUTLINE
10
-5.0525
20
-13.7354
30
0.0
0
VERTEX
8
OUTLINE
10
-4.8452
20
-13.9227
30
0.0
0
VERTEX
8
OUTLINE
10
-4.664
20
-14.1354
30
0.0
0
VERTEX
8
OUTLINE
10
-4.5119
20
-14.3697
30
0.0
0
VERTEX
8
OUTLINE
10
-4.3914
20
-14.6218
30
0.0
0
VERTEX
8
OUTLINE
10
-4.3047
20
-14.8874
30
0.0
0
VERTEX
8
OUTLINE
10
-4.2531
20
-15.1621
30
0.0
0
VERTEX
8
OUTLINE
10
-4.2384
20
-15.358
30
0.0
0
VERTEX
8
OUTLINE
10
-4.2381
20
-15.3676
30
0.0
0
VERTEX
8
OUTLINE
10
-3.4996
20
-15.5524
30
0.0
0
VERTEX
8
OUTLINE
10
-2.7531
20
-15.7017
30
0.0
0
VERTEX
8
OUTLINE
10
-2.0022
20
-15.815
30
0.0
0
VERTEX
8
OUTLINE
10
-1.9654
20
-15.8196
30
0.0
0
VERTEX
8
OUTLINE
10
-1.8358
20
-15.5721
30
0.0
0
VERTEX
8
OUTLINE
10
-1.6751
20
-15.3435
30
0.0
0
VERTEX
8
OUTLINE
10
-1.4862
20
-15.1376
30
0.0
0
VERTEX
8
OUTLINE
10
-1.2722
20
-14.958
30
0.0
0
VERTEX
8
OUTLINE
10
-1.0366
20
-14.8077
30
0.0
0
VERTEX
8
OUTLINE
10
-0.7836
20
-14.6892
30
0.0
0
VERTEX
8
OUTLINE
10
-0.5174
20
-14.6044
30
0.0
0
VERTEX
8
OUTLINE
10
-0.2424
20
-14.555
30
0.0
0
VERTEX
8
OUTLINE
10
0.0367
20
-14.5416
30
0.0
0
VERTEX
8
OUTLINE
10
0.3152
20
-14.5645
30
0.0
0
VERTEX
8
OUTLINE
10
0.5884
20
-14.6233
30
0.0
0
VERTEX
8
OUTLINE
10
0.8516
20
-14.7171
30
0.0
0
VERTEX
8
OUTLINE
10
1.1004
20
-14.8442
30
0.0
0
VERTEX
8
OUTLINE
10
1.3306
20
-15.0025
30
0.0
0
VERTEX
8
OUTLINE
10
1.5384
20
-15.1893
30
0.0
0
VERTEX
8
OUTLINE
10
1.7202
20
-15.4015
30
0.0
0
VERTEX
8
OUTLINE
10
1.8729
20
-15.6355
30
0.0
0
VERTEX
8
OUTLINE
10
1.9615
20
-15.8109
30
0.0
0
VERTEX
8
OUTLINE
10
1.9654
20
-15.8196
30
0.0
0
VERTEX
8
OUTLINE
10
2.7184
20
-15.7078
30
0.0
0
VERTEX
8
OUTLINE
10
3.4653
20
-15.5601
30
0.0
0
VERTEX
8
OUTLINE
10
4.2024
20
-15.3774
30
0.0
0
VERTEX
8
OUTLINE
10
4.2381
20
-15.3676
30
0.0
0
VERTEX
8
OUTLINE
10
4.2632
20
-15.0893
30
0.0
0
VERTEX
8
OUTLINE
10
4.3241
20
-14.8166
30
0.0
0
VERTEX
8
OUTLINE
10
4.4199
20
-14.5541
30
0.0
0
VERTEX
8
OUTLINE
10
4.5489
20
-14.3063
30
0.0
0
VERTEX
8
OUTLINE
10
4.7089
20
-14.0772
30
0.0
0
VERTEX
8
OUTLINE
10
4.8973
20
-13.8709
30
0.0
0
VERTEX
8
OUTLINE
10
5.1109
20
-13.6907
30
0.0
0
VERTEX
8
OUTLINE
10
5.346
20
-13.5398
30
0.0
0
VERTEX
8
OUTLINE
10
5.5988
20
-13.4206
30
0.0
0
VERTEX
8
OUTLINE
10
5.8648
20
-13.3352
30
0.0
0
VERTEX
8
OUTLINE
10
6.1397
20
-13.285
30
0.0
0
VERTEX
8
OUTLINE
10
6.4187
20
-13.2709
30
0.0
0
VERTEX
8
OUTLINE
10
6.6973
20
-13.2932
30
0.0
0
VERTEX
8
OUTLINE
10
6.9706
20
-13.3513
30
0.0
0
VERTEX
8
OUTLINE
10
7.234
20
-13.4444
30
0.0
0
VERTEX
8
OUTLINE
10
7.4832
20
-13.5709
30
0.0
0
VERTEX
8
OUTLINE
10
7.7138
20
-13.7286
30
0.0
0
VERTEX
8
OUTLINE
10
7.8627
20
-13.8567
30
0.0
0
VERTEX
8
OUTLINE
10
7.8697
20
-13.8633
30
0.0
0
VERTEX
8
OUTLINE
10
8.5226
20
-13.4718
30
0.0
0
VERTEX
8
OUTLINE
10
9.1561
20
-13.0495
30
0.0
0
VERTEX
8
OUTLINE
10
9.7672
20
-12.5987
30
0.0
0
VERTEX
8
OUTLINE
10
9.7964
20
-12.5759
30
0.0
0
VERTEX
8
OUTLINE
10
9.7131
20
-12.3092
30
0.0
0
VERTEX
8
OUTLINE
10
9.665
20
-12.034
30
0.0
0
VERTEX
8
OUTLINE
10
9.653
20
-11.7548
30
0.0
0
VERTEX
8
OUTLINE
10
9.6774
20
-11.4765
30
0.0
0
VERTEX
8
OUTLINE
10
9.7376
20
-11.2036
30
0.0
0
VERTEX
8
OUTLINE
10
9.8327
20
-10.9409
30
0.0
0
VERTEX
8
OUTLINE
10
9.9611
20
-10.6927
30
0.0
0
VERTEX
8
OUTLINE
10
10.1205
20
-10.4633
30
0.0
0
VERTEX
8
OUTLINE
10
10.3084
20
-10.2565
30
0.0
0
VERTEX
8
OUTLINE
10
10.5215
20
-10.0758
30
0.0
0
VERTEX
8
OUTLINE
10
10.7563
20
-9.9242
30
0.0
0
VERTEX
8
OUTLINE
10
11.0087
20
-9.8044
30
0.0
0
VERTEX
8
OUTLINE
10
11.2745
20
-9.7183
30
0.0
0
VERTEX
8
OUTLINE
10
11.5493
20
-9.6675
30
0.0
0
VERTEX
8
OUTLINE
10
11.8283
20
-9.6527
30
0.0
0
VERTEX
8
OUTLINE
10
12.1069
20
-9.6742
30
0.0
0
VERTEX
8
OUTLINE
10
12.3803
20
-9.7316
30
0.0
0
VERTEX
8
OUTLINE
10
12.567
20
-9.793
30
0.0
0
VERTEX
8
OUTLINE
10
12.5759
20
-9.7964
30
0.0
0
VERTEX
8
OUTLINE
10
13.0293
20
-9.1849
30
0.0
0
VERTEX
8
OUTLINE
10
13.4529
20
-8.5523
30
0.0
0
VERTEX
8
OUTLINE
10
13.845
20
-7.9019
30
0.0
0
VERTEX
8
OUTLINE
10
13.8633
20
-7.8697
30
0.0
0
VERTEX
8
OUTLINE
10
13.6843
20
-7.6552
30
0.0
0
VERTEX
8
OUTLINE
10
13.5345
20
-7.4193
30
0.0
0
VERTEX
8
OUTLINE
10
13.4166
20
-7.166
30
0.0
0
VERTEX
8
OUTLINE
10
13.3326
20
-6.8995
30
0.0
0
VERTEX
8
OUTLINE
10
13.2838
20
-6.6244
30
0.0
0
VERTEX
8
OUTLINE
10
13.2711
20
-6.3453
30
0.0
0
VERTEX
8
OUTLINE
10
13.2948
20
-6.0669
30
0.0
0
VERTEX
8
OUTLINE
10
13.3543
20
-5.7939
30
0.0
0
VERTEX
8
OUTLINE
10
13.4487
20
-5.5309
30
0.0
0
VERTEX
8
OUTLINE
10
13.5765
20
-5.2824
30
0.0
0
VERTEX
8
OUTLINE
10
13.7354
20
-5.0525
30
0.0
0
VERTEX
8
OUTLINE
10
13.9227
20
-4.8452
30
0.0
0
VERTEX
8
OUTLINE
10
14.1354
20
-4.664
30
0.0
0
VERTEX
8
OUTLINE
10
14.3697
20
-4.5119
30
0.0
0
VERTEX
8
OUTLINE
10
14.6218
20
-4.3914
30
0.0
0
VERTEX
8
OUTLINE
10
14.8874
20
-4.3047
30
0.0
0
VERTEX
8
OUTLINE
10
15.1621
20
-4.2531
30
0.0
0
VERTEX
8
OUTLINE
10
15.358
20
-4.2384
30
0.0
0
VERTEX
8
OUTLINE
10
15.3676
20
-4.2381
30
0.0
0
VERTEX
8
OUTLINE
10
15.5524
20
-3.4996
30
0.0
0
VERTEX
8
OUTLINE
10
15.7017
20
-2.7531
30
0.0
0
VERTEX
8
OUTLINE
10
15.815
20
-2.0022
30
0.0
0
VERTEX
8
OUTLINE
10
15.8196
20
-1.9654
30
0.0
0
VERTEX
8
OUTLINE
10
15.5721
20
-1.8358
30
0.0
0
VERTEX
8
OUTLINE
10
15.3435
20
-1.6751
30
0.0
0
VERTEX
8
OUTLINE
10
15.1376
20
-1.4862
30
0.0
0
VERTEX
8
OUTLINE
10
14.958
20
-1.2722
30
0.0
0
VERTEX
8
OUTLINE
10
14.8077
20
-1.0366
30
0.0
0
VERTEX
8
OUTLINE
10
14.6892
20
-0.7836
30
0.0
0
VERTEX
8
OUTLINE
10
14.6044
20
-0.5174
30
0.0
0
VERTEX
8
OUTLINE
10
14.555
20
-0.2424
30
0.0
0
VERTEX
8
OUTLINE
10
14.5416
20
0.0367
30
0.0
0
VERTEX
8
OUTLINE
10
14.5645
20
0.3152
30
0.0
0
VERTEX
8
OUTLINE
10
14.6233
20
0.5884
30
0.0
0
VERTEX
8
OUTLINE
10
14.7171
20
0.8516
30
0.0
0
VERTEX
8
OUTLINE
10
14.8442
20
1.1004
30
0.0
0
VERTEX
8
OUTLINE
10
15.0025
20
1.3306
30
0.0
0
VERTEX
8
OUTLINE
10
15.1893
20
1.5384
30
0.0
0
VERTEX
8
OUTLINE
10
15.4015
20
1.7202
30
0.0
0
VERTEX
8
OUTLINE
10
15.6355
20
1.8729
30
0.0
0
VERTEX
8
OUTLINE
10
15.8109
20
1.9615
30
0.0
0
VERTEX
8
OUTLINE
10
15.8196
20
1.9654
30
0.0
0
VERTEX
8
OUTLINE
10
15.7078
20
2.7184
30
0.0
0
VERTEX
8
OUTLINE
10
15.5601
20
3.4653
30
0.0
0
VERTEX
8
OUTLINE
10
15.3774
20
4.2024
30
0.0
0
VERTEX
8
OUTLINE
10
15.3676
20
4.2381
30
0.0
0
VERTEX
8
OUTLINE
10
15.0893
20
4.2632
30
0.0
0
VERTEX
8
OUTLINE
10
14.8166
20
4.3241
30
0.0
0
VERTEX
8
OUTLINE
10
14.5541
20
4.4199
30
0.0
0
VERTEX
8
OUTLINE
10
14.3063
20
4.5489
30
0.0
0
VERTEX
8
OUTLINE
10
14.0772
20
4.7089
30
0.0
0
VERTEX
8
OUTLINE
10
13.8709
20
4.8973
30
0.0
0
VERTEX
8
OUTLINE
10
13.6907
20
5.1109
30
0.0
0
VERTEX
8
OUTLINE
10
13.5398
20
5.346
30
0.0
0
VERTEX
8
OUTLINE
10
13.4206
20
5.5988
30
0.0
0
VERTEX
8
OUTLINE
10
13.3352
20
5.8648
30
0.0
0
VERTEX
8
OUTLINE
10
13.285
20
6.1397
30
0.0
0
VERTEX
8
OUTLINE
10
13.2709
20
6.4187
30
0.0
0
VERTEX
8
OUTLINE
10
13.2932
20
6.6973
30
0.0
0
VERTEX
8
OUTLINE
10
13.3513
20
6.9706
30
0.0
0
VERTEX
8
OUTLINE
10
13.4444
20
7.234
30
0.0
0
VERTEX
8
OUTLINE
10
13.5709
20
7.4832
30
0.0
0
VERTEX
8
OUTLINE
10
13.7286
20
7.7138
30
0.0
0
VERTEX
8
OUTLINE
10
13.8567
20
7.8627
30
0.0
0
VERTEX
8
OUTLINE
10
13.8633
20
7.8697
30
0.0
0
VERTEX
8
OUTLINE
10
13.4718
20
8.5226
30
0.0
0
VERTEX
8
OUTLINE
10
13.0495
20
9.1561
30
0.0
0
VERTEX
8
OUTLINE
10
12.5987
20
9.7672
30
0.0
0
VERTEX
8
OUTLINE
10
12.5759
20
9.7964
30
0.0
0
VERTEX
8
OUTLINE
10
12.3092
20
9.7131
30
0.0
0
VERTEX
8
OUTLINE
10
12.034
20
9.665
30
0.0
0
VERTEX
8
OUTLINE
10
11.7548
20
9.653
30
0.0
0
VERTEX
8
OUTLINE
10
11.4765
20
9.6774
30
0.0
0
VERTEX
8
OUTLINE
10
11.2036
20
9.7376
30
0.0
0
VERTEX
8
OUTLINE
10
10.9409
20
9.8327
30
0.0
0
VERTEX
8
OUTLINE
10
10.6927
20
9.9611
30
0.0
0
VERTEX
8
OUTLINE
10
10.4633
20
10.1205
30
0.0
0
VERTEX
8
OUTLINE
10
10.2565
20
10.3084
30
0.0
0
VERTEX
8
OUTLINE
10
10.0758
20
10.5215
30
0.0
0
VERTEX
8
OUTLINE
10
9.9242
20
10.7563
30
0.0
0
VERTEX
8
OUTLINE
10
9.8044
20
11.0087
30
0.0
0
VERTEX
8
OUTLINE
10
9.7183
20
11.2745
30
0.0
0
VERTEX
8
OUTLINE
10
9.6675
20
11.5493
30
0.0
0
VERTEX
8
OUTLINE
10
9.6527
20
11.8283
30
0.0
0
VERTEX
8
OUTLINE
10
9.6742
20
12.1069
30
0.0
0
VERTEX
8
OUTLINE
10
9.7316
20
12.3803
30
0.0
0
VERTEX
8
OUTLINE
10
9.793
20
12.567
30
0.0
0
VERTEX
8
OUTLINE
10
9.7964
20
12.5759
30
0.0
0
VERTEX
8
OUTLINE
10
9.1849
20
13.0293
30
0.0
0
VERTEX
8
OUTLINE
10
8.5523
20
13.4529
30
0.0
0
VERTEX
8
OUTLINE
10
7.9019
20
13.845
30
0.0
0
VERTEX
8
OUTLINE
10
7.8697
20
13.8633
30
0.0
0
VERTEX
8
OUTLINE
10
7.6552
20
13.6843
30
0.0
0
VERTEX
8
OUTLINE
10
7.4193
20
13.5345
30
0.0
0
VERTEX
8
OUTLINE
10
7.166
20
13.4166
30
0.0
0
VERTEX
8
OUTLINE
10
6.8995
20
13.3326
30
0.0
0
VERTEX
8
OUTLINE
10
6.6244
20
13.2838
30
0.0
0
VERTEX
8
OUTLINE
10
6.3453
20
13.2711
30
0.0
0
VERTEX
8
OUTLINE
10
6.0669
20
13.2948
30
0.0
0
VERTEX
8
OUTLINE
10
5.7939
20
13.3543
30
0.0
0
VERTEX
8
OUTLINE
10
5.5309
20
13.4487
30
0.0
0
VERTEX
8
OUTLINE
10
5.2824
20
13.5765
30
0.0
0
VERTEX
8
OUTLINE
10
5.0525
20
13.7354
30
0.0
0
VERTEX
8
OUTLINE
10
4.8452
20
13.9227
30
0.0
0
VERTEX
8
OUTLINE
10
4.664
20
14.1354
30
0.0
0
VERTEX
8
OUTLINE
10
4.5119
20
14.3697
30
0.0
0
VERTEX
8
OUTLINE
10
4.3914
20
14.6218
30
0.0
0
VERTEX
8
OUTLINE
10
4.3047
20
14.8874
30
0.0
0
VERTEX
8
OUTLINE
10
4.2531
20
15.1621
30
0.0
0
VERTEX
8
OUTLINE
10
4.2384
20
15.358
30
0.0
0
VERTEX
8
OUTLINE
10
4.2381
20
15.3676
30
0.0
0
VERTEX
8
OUTLINE
10
3.4996
20
15.5524
30
0.0
0
VERTEX
8
OUTLINE
10
2.7531
20
15.7017
30
0.0
0
VERTEX
8
OUTLINE
10
2.36
20
15.7656
30
0.0
0
SEQEND
8
OUTLINE
0
LINE
8
CENTER
10
-2.0
20
0
30
0.0
11
2.0
21
0
31
0.0
0
LINE
8
CENTER
10
0
20
-2.0
30
0.0
11
0
21
2.0
31
0.0
0
ENDSEC
0
EOF
