ISO-10303-21;
HEADER;
FILE_DESCRIPTION(('FreeCAD Model'),'2;1');
FILE_NAME('Open CASCADE Shape Model','2026-10-04T00:14:01',('FreeCAD'),(
    'FreeCAD'),'Open CASCADE STEP processor 8.0','FreeCAD','Unknown');
FILE_SCHEMA(('AUTOMOTIVE_DESIGN { 1 0 10303 214 1 1 1 1 }'));
ENDSEC;
DATA;
#1 = APPLICATION_PROTOCOL_DEFINITION('international standard',
  'automotive_design',2000,#2);
#2 = APPLICATION_CONTEXT(
  'core data for automotive mechanical design processes');
#3 = SHAPE_DEFINITION_REPRESENTATION(#4,#10);
#4 = PRODUCT_DEFINITION_SHAPE('','',#5);
#5 = PRODUCT_DEFINITION('design','',#6,#9);
#6 = PRODUCT_DEFINITION_FORMATION('','',#7);
#7 = PRODUCT('Open CASCADE STEP translator 8.0 62',
  'Open CASCADE STEP translator 8.0 62','',(#8));
#8 = PRODUCT_CONTEXT('',#2,'mechanical');
#9 = PRODUCT_DEFINITION_CONTEXT('part definition',#2,'design');
#10 = ADVANCED_BREP_SHAPE_REPRESENTATION('',(#11,#15),#1293);
#11 = AXIS2_PLACEMENT_3D('',#12,#13,#14);
#12 = CARTESIAN_POINT('',(0.,0.,0.));
#13 = DIRECTION('',(0.,0.,1.));
#14 = DIRECTION('',(1.,0.,-0.));
#15 = MANIFOLD_SOLID_BREP('',#16);
#16 = CLOSED_SHELL('',(#17,#57,#90,#123,#218,#469,#486,#503,#520,#537,
    #549,#574,#599,#624,#649,#680,#704,#728,#752,#776,#793,#824,#848,
    #872,#896,#920,#937,#968,#992,#1016,#1040,#1064,#1081,#1112,#1136,
    #1160,#1184,#1208,#1225,#1242,#1259,#1276));
#17 = ADVANCED_FACE('',(#18),#52,.F.);
#18 = FACE_BOUND('',#19,.F.);
#19 = EDGE_LOOP('',(#20,#30,#38,#46));
#20 = ORIENTED_EDGE('',*,*,#21,.T.);
#21 = EDGE_CURVE('',#22,#24,#26,.T.);
#22 = VERTEX_POINT('',#23);
#23 = CARTESIAN_POINT('',(71.551451953047,-39.75,0.));
#24 = VERTEX_POINT('',#25);
#25 = CARTESIAN_POINT('',(71.551451953047,-39.75,5.6));
#26 = LINE('',#27,#28);
#27 = CARTESIAN_POINT('',(71.551451953047,-39.75,0.));
#28 = VECTOR('',#29,1.);
#29 = DIRECTION('',(0.,0.,1.));
#30 = ORIENTED_EDGE('',*,*,#31,.T.);
#31 = EDGE_CURVE('',#24,#32,#34,.T.);
#32 = VERTEX_POINT('',#33);
#33 = CARTESIAN_POINT('',(83.328211814711,-39.75,5.6));
#34 = LINE('',#35,#36);
#35 = CARTESIAN_POINT('',(71.551451953047,-39.75,5.6));
#36 = VECTOR('',#37,1.);
#37 = DIRECTION('',(1.,0.,0.));
#38 = ORIENTED_EDGE('',*,*,#39,.F.);
#39 = EDGE_CURVE('',#40,#32,#42,.T.);
#40 = VERTEX_POINT('',#41);
#41 = CARTESIAN_POINT('',(83.328211814711,-39.75,0.));
#42 = LINE('',#43,#44);
#43 = CARTESIAN_POINT('',(83.328211814711,-39.75,0.));
#44 = VECTOR('',#45,1.);
#45 = DIRECTION('',(0.,0.,1.));
#46 = ORIENTED_EDGE('',*,*,#47,.F.);
#47 = EDGE_CURVE('',#22,#40,#48,.T.);
#48 = LINE('',#49,#50);
#49 = CARTESIAN_POINT('',(71.551451953047,-39.75,0.));
#50 = VECTOR('',#51,1.);
#51 = DIRECTION('',(1.,0.,0.));
#52 = PLANE('',#53);
#53 = AXIS2_PLACEMENT_3D('',#54,#55,#56);
#54 = CARTESIAN_POINT('',(71.551451953047,-39.75,0.));
#55 = DIRECTION('',(0.,1.,0.));
#56 = DIRECTION('',(1.,0.,0.));
#57 = ADVANCED_FACE('',(#58),#85,.T.);
#58 = FACE_BOUND('',#59,.F.);
#59 = EDGE_LOOP('',(#60,#70,#77,#78));
#60 = ORIENTED_EDGE('',*,*,#61,.T.);
#61 = EDGE_CURVE('',#62,#64,#66,.T.);
#62 = VERTEX_POINT('',#63);
#63 = CARTESIAN_POINT('',(68.551451953047,-36.75,0.));
#64 = VERTEX_POINT('',#65);
#65 = CARTESIAN_POINT('',(68.551451953047,-36.75,5.6));
#66 = LINE('',#67,#68);
#67 = CARTESIAN_POINT('',(68.551451953047,-36.75,0.));
#68 = VECTOR('',#69,1.);
#69 = DIRECTION('',(0.,0.,1.));
#70 = ORIENTED_EDGE('',*,*,#71,.T.);
#71 = EDGE_CURVE('',#64,#24,#72,.T.);
#72 = CIRCLE('',#73,3.);
#73 = AXIS2_PLACEMENT_3D('',#74,#75,#76);
#74 = CARTESIAN_POINT('',(71.551451953047,-36.75,5.6));
#75 = DIRECTION('',(0.,0.,1.));
#76 = DIRECTION('',(1.,0.,0.));
#77 = ORIENTED_EDGE('',*,*,#21,.F.);
#78 = ORIENTED_EDGE('',*,*,#79,.F.);
#79 = EDGE_CURVE('',#62,#22,#80,.T.);
#80 = CIRCLE('',#81,3.);
#81 = AXIS2_PLACEMENT_3D('',#82,#83,#84);
#82 = CARTESIAN_POINT('',(71.551451953047,-36.75,0.));
#83 = DIRECTION('',(0.,0.,1.));
#84 = DIRECTION('',(1.,0.,0.));
#85 = CYLINDRICAL_SURFACE('',#86,3.);
#86 = AXIS2_PLACEMENT_3D('',#87,#88,#89);
#87 = CARTESIAN_POINT('',(71.551451953047,-36.75,0.));
#88 = DIRECTION('',(-0.,-0.,-1.));
#89 = DIRECTION('',(1.,0.,0.));
#90 = ADVANCED_FACE('',(#91),#118,.T.);
#91 = FACE_BOUND('',#92,.F.);
#92 = EDGE_LOOP('',(#93,#94,#103,#111));
#93 = ORIENTED_EDGE('',*,*,#39,.T.);
#94 = ORIENTED_EDGE('',*,*,#95,.T.);
#95 = EDGE_CURVE('',#32,#96,#98,.T.);
#96 = VERTEX_POINT('',#97);
#97 = CARTESIAN_POINT('',(86.328211814711,-36.75,5.6));
#98 = CIRCLE('',#99,3.);
#99 = AXIS2_PLACEMENT_3D('',#100,#101,#102);
#100 = CARTESIAN_POINT('',(83.328211814711,-36.75,5.6));
#101 = DIRECTION('',(0.,0.,1.));
#102 = DIRECTION('',(1.,0.,0.));
#103 = ORIENTED_EDGE('',*,*,#104,.F.);
#104 = EDGE_CURVE('',#105,#96,#107,.T.);
#105 = VERTEX_POINT('',#106);
#106 = CARTESIAN_POINT('',(86.328211814711,-36.75,0.));
#107 = LINE('',#108,#109);
#108 = CARTESIAN_POINT('',(86.328211814711,-36.75,0.));
#109 = VECTOR('',#110,1.);
#110 = DIRECTION('',(0.,0.,1.));
#111 = ORIENTED_EDGE('',*,*,#112,.F.);
#112 = EDGE_CURVE('',#40,#105,#113,.T.);
#113 = CIRCLE('',#114,3.);
#114 = AXIS2_PLACEMENT_3D('',#115,#116,#117);
#115 = CARTESIAN_POINT('',(83.328211814711,-36.75,0.));
#116 = DIRECTION('',(0.,0.,1.));
#117 = DIRECTION('',(1.,0.,0.));
#118 = CYLINDRICAL_SURFACE('',#119,3.);
#119 = AXIS2_PLACEMENT_3D('',#120,#121,#122);
#120 = CARTESIAN_POINT('',(83.328211814711,-36.75,0.));
#121 = DIRECTION('',(-0.,-0.,-1.));
#122 = DIRECTION('',(1.,0.,0.));
#123 = ADVANCED_FACE('',(#124,#169,#180,#191,#202),#213,.F.);
#124 = FACE_BOUND('',#125,.F.);
#125 = EDGE_LOOP('',(#126,#127,#128,#136,#145,#153,#162,#168));
#126 = ORIENTED_EDGE('',*,*,#47,.T.);
#127 = ORIENTED_EDGE('',*,*,#112,.T.);
#128 = ORIENTED_EDGE('',*,*,#129,.T.);
#129 = EDGE_CURVE('',#105,#130,#132,.T.);
#130 = VERTEX_POINT('',#131);
#131 = CARTESIAN_POINT('',(86.328211814711,196.75,0.));
#132 = LINE('',#133,#134);
#133 = CARTESIAN_POINT('',(86.328211814711,-36.75,0.));
#134 = VECTOR('',#135,1.);
#135 = DIRECTION('',(0.,1.,0.));
#136 = ORIENTED_EDGE('',*,*,#137,.T.);
#137 = EDGE_CURVE('',#130,#138,#140,.T.);
#138 = VERTEX_POINT('',#139);
#139 = CARTESIAN_POINT('',(83.328211814711,199.75,0.));
#140 = CIRCLE('',#141,3.);
#141 = AXIS2_PLACEMENT_3D('',#142,#143,#144);
#142 = CARTESIAN_POINT('',(83.328211814711,196.75,0.));
#143 = DIRECTION('',(0.,0.,1.));
#144 = DIRECTION('',(1.,0.,0.));
#145 = ORIENTED_EDGE('',*,*,#146,.T.);
#146 = EDGE_CURVE('',#138,#147,#149,.T.);
#147 = VERTEX_POINT('',#148);
#148 = CARTESIAN_POINT('',(71.551451953047,199.75,0.));
#149 = LINE('',#150,#151);
#150 = CARTESIAN_POINT('',(83.328211814711,199.75,0.));
#151 = VECTOR('',#152,1.);
#152 = DIRECTION('',(-1.,0.,0.));
#153 = ORIENTED_EDGE('',*,*,#154,.T.);
#154 = EDGE_CURVE('',#147,#155,#157,.T.);
#155 = VERTEX_POINT('',#156);
#156 = CARTESIAN_POINT('',(68.551451953047,196.75,0.));
#157 = CIRCLE('',#158,3.);
#158 = AXIS2_PLACEMENT_3D('',#159,#160,#161);
#159 = CARTESIAN_POINT('',(71.551451953047,196.75,0.));
#160 = DIRECTION('',(0.,0.,1.));
#161 = DIRECTION('',(1.,0.,0.));
#162 = ORIENTED_EDGE('',*,*,#163,.T.);
#163 = EDGE_CURVE('',#155,#62,#164,.T.);
#164 = LINE('',#165,#166);
#165 = CARTESIAN_POINT('',(68.551451953047,196.75,0.));
#166 = VECTOR('',#167,1.);
#167 = DIRECTION('',(0.,-1.,0.));
#168 = ORIENTED_EDGE('',*,*,#79,.T.);
#169 = FACE_BOUND('',#170,.F.);
#170 = EDGE_LOOP('',(#171));
#171 = ORIENTED_EDGE('',*,*,#172,.F.);
#172 = EDGE_CURVE('',#173,#173,#175,.T.);
#173 = VERTEX_POINT('',#174);
#174 = CARTESIAN_POINT('',(79.639831883879,-26.,0.));
#175 = CIRCLE('',#176,2.2);
#176 = AXIS2_PLACEMENT_3D('',#177,#178,#179);
#177 = CARTESIAN_POINT('',(77.439831883879,-26.,0.));
#178 = DIRECTION('',(0.,0.,1.));
#179 = DIRECTION('',(1.,0.,0.));
#180 = FACE_BOUND('',#181,.F.);
#181 = EDGE_LOOP('',(#182));
#182 = ORIENTED_EDGE('',*,*,#183,.F.);
#183 = EDGE_CURVE('',#184,#184,#186,.T.);
#184 = VERTEX_POINT('',#185);
#185 = CARTESIAN_POINT('',(79.639831883879,54.,0.));
#186 = CIRCLE('',#187,2.2);
#187 = AXIS2_PLACEMENT_3D('',#188,#189,#190);
#188 = CARTESIAN_POINT('',(77.439831883879,54.,0.));
#189 = DIRECTION('',(0.,0.,1.));
#190 = DIRECTION('',(1.,0.,0.));
#191 = FACE_BOUND('',#192,.F.);
#192 = EDGE_LOOP('',(#193));
#193 = ORIENTED_EDGE('',*,*,#194,.F.);
#194 = EDGE_CURVE('',#195,#195,#197,.T.);
#195 = VERTEX_POINT('',#196);
#196 = CARTESIAN_POINT('',(79.639831883879,186.,0.));
#197 = CIRCLE('',#198,2.2);
#198 = AXIS2_PLACEMENT_3D('',#199,#200,#201);
#199 = CARTESIAN_POINT('',(77.439831883879,186.,0.));
#200 = DIRECTION('',(0.,0.,1.));
#201 = DIRECTION('',(1.,0.,0.));
#202 = FACE_BOUND('',#203,.F.);
#203 = EDGE_LOOP('',(#204));
#204 = ORIENTED_EDGE('',*,*,#205,.F.);
#205 = EDGE_CURVE('',#206,#206,#208,.T.);
#206 = VERTEX_POINT('',#207);
#207 = CARTESIAN_POINT('',(79.639831883879,106.,0.));
#208 = CIRCLE('',#209,2.2);
#209 = AXIS2_PLACEMENT_3D('',#210,#211,#212);
#210 = CARTESIAN_POINT('',(77.439831883879,106.,0.));
#211 = DIRECTION('',(0.,0.,1.));
#212 = DIRECTION('',(1.,0.,0.));
#213 = PLANE('',#214);
#214 = AXIS2_PLACEMENT_3D('',#215,#216,#217);
#215 = CARTESIAN_POINT('',(77.439831883879,80.,0.));
#216 = DIRECTION('',(0.,0.,1.));
#217 = DIRECTION('',(1.,0.,0.));
#218 = ADVANCED_FACE('',(#219,#264,#314,#364,#414),#464,.T.);
#219 = FACE_BOUND('',#220,.T.);
#220 = EDGE_LOOP('',(#221,#222,#223,#231,#240,#248,#257,#263));
#221 = ORIENTED_EDGE('',*,*,#31,.T.);
#222 = ORIENTED_EDGE('',*,*,#95,.T.);
#223 = ORIENTED_EDGE('',*,*,#224,.T.);
#224 = EDGE_CURVE('',#96,#225,#227,.T.);
#225 = VERTEX_POINT('',#226);
#226 = CARTESIAN_POINT('',(86.328211814711,196.75,5.6));
#227 = LINE('',#228,#229);
#228 = CARTESIAN_POINT('',(86.328211814711,-36.75,5.6));
#229 = VECTOR('',#230,1.);
#230 = DIRECTION('',(0.,1.,0.));
#231 = ORIENTED_EDGE('',*,*,#232,.T.);
#232 = EDGE_CURVE('',#225,#233,#235,.T.);
#233 = VERTEX_POINT('',#234);
#234 = CARTESIAN_POINT('',(83.328211814711,199.75,5.6));
#235 = CIRCLE('',#236,3.);
#236 = AXIS2_PLACEMENT_3D('',#237,#238,#239);
#237 = CARTESIAN_POINT('',(83.328211814711,196.75,5.6));
#238 = DIRECTION('',(0.,0.,1.));
#239 = DIRECTION('',(1.,0.,0.));
#240 = ORIENTED_EDGE('',*,*,#241,.T.);
#241 = EDGE_CURVE('',#233,#242,#244,.T.);
#242 = VERTEX_POINT('',#243);
#243 = CARTESIAN_POINT('',(71.551451953047,199.75,5.6));
#244 = LINE('',#245,#246);
#245 = CARTESIAN_POINT('',(83.328211814711,199.75,5.6));
#246 = VECTOR('',#247,1.);
#247 = DIRECTION('',(-1.,0.,0.));
#248 = ORIENTED_EDGE('',*,*,#249,.T.);
#249 = EDGE_CURVE('',#242,#250,#252,.T.);
#250 = VERTEX_POINT('',#251);
#251 = CARTESIAN_POINT('',(68.551451953047,196.75,5.6));
#252 = CIRCLE('',#253,3.);
#253 = AXIS2_PLACEMENT_3D('',#254,#255,#256);
#254 = CARTESIAN_POINT('',(71.551451953047,196.75,5.6));
#255 = DIRECTION('',(0.,0.,1.));
#256 = DIRECTION('',(1.,0.,0.));
#257 = ORIENTED_EDGE('',*,*,#258,.T.);
#258 = EDGE_CURVE('',#250,#64,#259,.T.);
#259 = LINE('',#260,#261);
#260 = CARTESIAN_POINT('',(68.551451953047,196.75,5.6));
#261 = VECTOR('',#262,1.);
#262 = DIRECTION('',(0.,-1.,0.));
#263 = ORIENTED_EDGE('',*,*,#71,.T.);
#264 = FACE_BOUND('',#265,.T.);
#265 = EDGE_LOOP('',(#266,#276,#284,#292,#300,#308));
#266 = ORIENTED_EDGE('',*,*,#267,.F.);
#267 = EDGE_CURVE('',#268,#270,#272,.T.);
#268 = VERTEX_POINT('',#269);
#269 = CARTESIAN_POINT('',(81.089831883879,-23.89267151745,5.6));
#270 = VERTEX_POINT('',#271);
#271 = CARTESIAN_POINT('',(77.439831883879,-21.78534303491,5.6));
#272 = LINE('',#273,#274);
#273 = CARTESIAN_POINT('',(81.089831883879,-23.89267151745,5.6));
#274 = VECTOR('',#275,1.);
#275 = DIRECTION('',(-0.866025403784,0.5,0.));
#276 = ORIENTED_EDGE('',*,*,#277,.F.);
#277 = EDGE_CURVE('',#278,#268,#280,.T.);
#278 = VERTEX_POINT('',#279);
#279 = CARTESIAN_POINT('',(81.089831883879,-28.10732848254,5.6));
#280 = LINE('',#281,#282);
#281 = CARTESIAN_POINT('',(81.089831883879,-28.10732848254,5.6));
#282 = VECTOR('',#283,1.);
#283 = DIRECTION('',(4.214712737279E-16,1.,0.));
#284 = ORIENTED_EDGE('',*,*,#285,.F.);
#285 = EDGE_CURVE('',#286,#278,#288,.T.);
#286 = VERTEX_POINT('',#287);
#287 = CARTESIAN_POINT('',(77.439831883879,-30.21465696508,5.6));
#288 = LINE('',#289,#290);
#289 = CARTESIAN_POINT('',(77.439831883879,-30.21465696508,5.6));
#290 = VECTOR('',#291,1.);
#291 = DIRECTION('',(0.866025403784,0.5,0.));
#292 = ORIENTED_EDGE('',*,*,#293,.F.);
#293 = EDGE_CURVE('',#294,#286,#296,.T.);
#294 = VERTEX_POINT('',#295);
#295 = CARTESIAN_POINT('',(73.789831883879,-28.10732848254,5.6));
#296 = LINE('',#297,#298);
#297 = CARTESIAN_POINT('',(73.789831883879,-28.10732848254,5.6));
#298 = VECTOR('',#299,1.);
#299 = DIRECTION('',(0.866025403784,-0.5,0.));
#300 = ORIENTED_EDGE('',*,*,#301,.F.);
#301 = EDGE_CURVE('',#302,#294,#304,.T.);
#302 = VERTEX_POINT('',#303);
#303 = CARTESIAN_POINT('',(73.789831883879,-23.89267151745,5.6));
#304 = LINE('',#305,#306);
#305 = CARTESIAN_POINT('',(73.789831883879,-23.89267151745,5.6));
#306 = VECTOR('',#307,1.);
#307 = DIRECTION('',(1.05367818432E-16,-1.,0.));
#308 = ORIENTED_EDGE('',*,*,#309,.F.);
#309 = EDGE_CURVE('',#270,#302,#310,.T.);
#310 = LINE('',#311,#312);
#311 = CARTESIAN_POINT('',(77.439831883879,-21.78534303491,5.6));
#312 = VECTOR('',#313,1.);
#313 = DIRECTION('',(-0.866025403784,-0.5,0.));
#314 = FACE_BOUND('',#315,.T.);
#315 = EDGE_LOOP('',(#316,#326,#334,#342,#350,#358));
#316 = ORIENTED_EDGE('',*,*,#317,.F.);
#317 = EDGE_CURVE('',#318,#320,#322,.T.);
#318 = VERTEX_POINT('',#319);
#319 = CARTESIAN_POINT('',(81.089831883879,56.107328482542,5.6));
#320 = VERTEX_POINT('',#321);
#321 = CARTESIAN_POINT('',(77.439831883879,58.214656965084,5.6));
#322 = LINE('',#323,#324);
#323 = CARTESIAN_POINT('',(81.089831883879,56.107328482542,5.6));
#324 = VECTOR('',#325,1.);
#325 = DIRECTION('',(-0.866025403784,0.5,0.));
#326 = ORIENTED_EDGE('',*,*,#327,.F.);
#327 = EDGE_CURVE('',#328,#318,#330,.T.);
#328 = VERTEX_POINT('',#329);
#329 = CARTESIAN_POINT('',(81.089831883879,51.892671517458,5.6));
#330 = LINE('',#331,#332);
#331 = CARTESIAN_POINT('',(81.089831883879,51.892671517458,5.6));
#332 = VECTOR('',#333,1.);
#333 = DIRECTION('',(4.214712737279E-16,1.,0.));
#334 = ORIENTED_EDGE('',*,*,#335,.F.);
#335 = EDGE_CURVE('',#336,#328,#338,.T.);
#336 = VERTEX_POINT('',#337);
#337 = CARTESIAN_POINT('',(77.439831883879,49.785343034916,5.6));
#338 = LINE('',#339,#340);
#339 = CARTESIAN_POINT('',(77.439831883879,49.785343034916,5.6));
#340 = VECTOR('',#341,1.);
#341 = DIRECTION('',(0.866025403784,0.5,0.));
#342 = ORIENTED_EDGE('',*,*,#343,.F.);
#343 = EDGE_CURVE('',#344,#336,#346,.T.);
#344 = VERTEX_POINT('',#345);
#345 = CARTESIAN_POINT('',(73.789831883879,51.892671517458,5.6));
#346 = LINE('',#347,#348);
#347 = CARTESIAN_POINT('',(73.789831883879,51.892671517458,5.6));
#348 = VECTOR('',#349,1.);
#349 = DIRECTION('',(0.866025403784,-0.5,0.));
#350 = ORIENTED_EDGE('',*,*,#351,.F.);
#351 = EDGE_CURVE('',#352,#344,#354,.T.);
#352 = VERTEX_POINT('',#353);
#353 = CARTESIAN_POINT('',(73.789831883879,56.107328482542,5.6));
#354 = LINE('',#355,#356);
#355 = CARTESIAN_POINT('',(73.789831883879,56.107328482542,5.6));
#356 = VECTOR('',#357,1.);
#357 = DIRECTION('',(1.05367818432E-16,-1.,0.));
#358 = ORIENTED_EDGE('',*,*,#359,.F.);
#359 = EDGE_CURVE('',#320,#352,#360,.T.);
#360 = LINE('',#361,#362);
#361 = CARTESIAN_POINT('',(77.439831883879,58.214656965084,5.6));
#362 = VECTOR('',#363,1.);
#363 = DIRECTION('',(-0.866025403784,-0.5,0.));
#364 = FACE_BOUND('',#365,.T.);
#365 = EDGE_LOOP('',(#366,#376,#384,#392,#400,#408));
#366 = ORIENTED_EDGE('',*,*,#367,.F.);
#367 = EDGE_CURVE('',#368,#370,#372,.T.);
#368 = VERTEX_POINT('',#369);
#369 = CARTESIAN_POINT('',(81.089831883879,188.10732848254,5.6));
#370 = VERTEX_POINT('',#371);
#371 = CARTESIAN_POINT('',(77.439831883879,190.21465696508,5.6));
#372 = LINE('',#373,#374);
#373 = CARTESIAN_POINT('',(81.089831883879,188.10732848254,5.6));
#374 = VECTOR('',#375,1.);
#375 = DIRECTION('',(-0.866025403784,0.5,0.));
#376 = ORIENTED_EDGE('',*,*,#377,.F.);
#377 = EDGE_CURVE('',#378,#368,#380,.T.);
#378 = VERTEX_POINT('',#379);
#379 = CARTESIAN_POINT('',(81.089831883879,183.89267151745,5.6));
#380 = LINE('',#381,#382);
#381 = CARTESIAN_POINT('',(81.089831883879,183.89267151745,5.6));
#382 = VECTOR('',#383,1.);
#383 = DIRECTION('',(4.214712737279E-16,1.,0.));
#384 = ORIENTED_EDGE('',*,*,#385,.F.);
#385 = EDGE_CURVE('',#386,#378,#388,.T.);
#386 = VERTEX_POINT('',#387);
#387 = CARTESIAN_POINT('',(77.439831883879,181.78534303491,5.6));
#388 = LINE('',#389,#390);
#389 = CARTESIAN_POINT('',(77.439831883879,181.78534303491,5.6));
#390 = VECTOR('',#391,1.);
#391 = DIRECTION('',(0.866025403784,0.5,0.));
#392 = ORIENTED_EDGE('',*,*,#393,.F.);
#393 = EDGE_CURVE('',#394,#386,#396,.T.);
#394 = VERTEX_POINT('',#395);
#395 = CARTESIAN_POINT('',(73.789831883879,183.89267151745,5.6));
#396 = LINE('',#397,#398);
#397 = CARTESIAN_POINT('',(73.789831883879,183.89267151745,5.6));
#398 = VECTOR('',#399,1.);
#399 = DIRECTION('',(0.866025403784,-0.5,0.));
#400 = ORIENTED_EDGE('',*,*,#401,.F.);
#401 = EDGE_CURVE('',#402,#394,#404,.T.);
#402 = VERTEX_POINT('',#403);
#403 = CARTESIAN_POINT('',(73.789831883879,188.10732848254,5.6));
#404 = LINE('',#405,#406);
#405 = CARTESIAN_POINT('',(73.789831883879,188.10732848254,5.6));
#406 = VECTOR('',#407,1.);
#407 = DIRECTION('',(1.05367818432E-16,-1.,0.));
#408 = ORIENTED_EDGE('',*,*,#409,.F.);
#409 = EDGE_CURVE('',#370,#402,#410,.T.);
#410 = LINE('',#411,#412);
#411 = CARTESIAN_POINT('',(77.439831883879,190.21465696508,5.6));
#412 = VECTOR('',#413,1.);
#413 = DIRECTION('',(-0.866025403784,-0.5,0.));
#414 = FACE_BOUND('',#415,.T.);
#415 = EDGE_LOOP('',(#416,#426,#434,#442,#450,#458));
#416 = ORIENTED_EDGE('',*,*,#417,.F.);
#417 = EDGE_CURVE('',#418,#420,#422,.T.);
#418 = VERTEX_POINT('',#419);
#419 = CARTESIAN_POINT('',(81.089831883879,108.10732848254,5.6));
#420 = VERTEX_POINT('',#421);
#421 = CARTESIAN_POINT('',(77.439831883879,110.21465696508,5.6));
#422 = LINE('',#423,#424);
#423 = CARTESIAN_POINT('',(81.089831883879,108.10732848254,5.6));
#424 = VECTOR('',#425,1.);
#425 = DIRECTION('',(-0.866025403784,0.5,0.));
#426 = ORIENTED_EDGE('',*,*,#427,.F.);
#427 = EDGE_CURVE('',#428,#418,#430,.T.);
#428 = VERTEX_POINT('',#429);
#429 = CARTESIAN_POINT('',(81.089831883879,103.89267151745,5.6));
#430 = LINE('',#431,#432);
#431 = CARTESIAN_POINT('',(81.089831883879,103.89267151745,5.6));
#432 = VECTOR('',#433,1.);
#433 = DIRECTION('',(4.214712737279E-16,1.,0.));
#434 = ORIENTED_EDGE('',*,*,#435,.F.);
#435 = EDGE_CURVE('',#436,#428,#438,.T.);
#436 = VERTEX_POINT('',#437);
#437 = CARTESIAN_POINT('',(77.439831883879,101.78534303491,5.6));
#438 = LINE('',#439,#440);
#439 = CARTESIAN_POINT('',(77.439831883879,101.78534303491,5.6));
#440 = VECTOR('',#441,1.);
#441 = DIRECTION('',(0.866025403784,0.5,0.));
#442 = ORIENTED_EDGE('',*,*,#443,.F.);
#443 = EDGE_CURVE('',#444,#436,#446,.T.);
#444 = VERTEX_POINT('',#445);
#445 = CARTESIAN_POINT('',(73.789831883879,103.89267151745,5.6));
#446 = LINE('',#447,#448);
#447 = CARTESIAN_POINT('',(73.789831883879,103.89267151745,5.6));
#448 = VECTOR('',#449,1.);
#449 = DIRECTION('',(0.866025403784,-0.5,0.));
#450 = ORIENTED_EDGE('',*,*,#451,.F.);
#451 = EDGE_CURVE('',#452,#444,#454,.T.);
#452 = VERTEX_POINT('',#453);
#453 = CARTESIAN_POINT('',(73.789831883879,108.10732848254,5.6));
#454 = LINE('',#455,#456);
#455 = CARTESIAN_POINT('',(73.789831883879,108.10732848254,5.6));
#456 = VECTOR('',#457,1.);
#457 = DIRECTION('',(1.05367818432E-16,-1.,0.));
#458 = ORIENTED_EDGE('',*,*,#459,.F.);
#459 = EDGE_CURVE('',#420,#452,#460,.T.);
#460 = LINE('',#461,#462);
#461 = CARTESIAN_POINT('',(77.439831883879,110.21465696508,5.6));
#462 = VECTOR('',#463,1.);
#463 = DIRECTION('',(-0.866025403784,-0.5,0.));
#464 = PLANE('',#465);
#465 = AXIS2_PLACEMENT_3D('',#466,#467,#468);
#466 = CARTESIAN_POINT('',(77.439831883879,80.,5.6));
#467 = DIRECTION('',(0.,0.,1.));
#468 = DIRECTION('',(1.,0.,0.));
#469 = ADVANCED_FACE('',(#470),#481,.F.);
#470 = FACE_BOUND('',#471,.F.);
#471 = EDGE_LOOP('',(#472,#478,#479,#480));
#472 = ORIENTED_EDGE('',*,*,#473,.T.);
#473 = EDGE_CURVE('',#155,#250,#474,.T.);
#474 = LINE('',#475,#476);
#475 = CARTESIAN_POINT('',(68.551451953047,196.75,0.));
#476 = VECTOR('',#477,1.);
#477 = DIRECTION('',(0.,0.,1.));
#478 = ORIENTED_EDGE('',*,*,#258,.T.);
#479 = ORIENTED_EDGE('',*,*,#61,.F.);
#480 = ORIENTED_EDGE('',*,*,#163,.F.);
#481 = PLANE('',#482);
#482 = AXIS2_PLACEMENT_3D('',#483,#484,#485);
#483 = CARTESIAN_POINT('',(68.551451953047,196.75,0.));
#484 = DIRECTION('',(1.,0.,0.));
#485 = DIRECTION('',(0.,-1.,0.));
#486 = ADVANCED_FACE('',(#487),#498,.F.);
#487 = FACE_BOUND('',#488,.F.);
#488 = EDGE_LOOP('',(#489,#490,#491,#497));
#489 = ORIENTED_EDGE('',*,*,#104,.T.);
#490 = ORIENTED_EDGE('',*,*,#224,.T.);
#491 = ORIENTED_EDGE('',*,*,#492,.F.);
#492 = EDGE_CURVE('',#130,#225,#493,.T.);
#493 = LINE('',#494,#495);
#494 = CARTESIAN_POINT('',(86.328211814711,196.75,0.));
#495 = VECTOR('',#496,1.);
#496 = DIRECTION('',(0.,0.,1.));
#497 = ORIENTED_EDGE('',*,*,#129,.F.);
#498 = PLANE('',#499);
#499 = AXIS2_PLACEMENT_3D('',#500,#501,#502);
#500 = CARTESIAN_POINT('',(86.328211814711,-36.75,0.));
#501 = DIRECTION('',(-1.,0.,0.));
#502 = DIRECTION('',(0.,1.,0.));
#503 = ADVANCED_FACE('',(#504),#515,.T.);
#504 = FACE_BOUND('',#505,.F.);
#505 = EDGE_LOOP('',(#506,#512,#513,#514));
#506 = ORIENTED_EDGE('',*,*,#507,.T.);
#507 = EDGE_CURVE('',#147,#242,#508,.T.);
#508 = LINE('',#509,#510);
#509 = CARTESIAN_POINT('',(71.551451953047,199.75,0.));
#510 = VECTOR('',#511,1.);
#511 = DIRECTION('',(0.,0.,1.));
#512 = ORIENTED_EDGE('',*,*,#249,.T.);
#513 = ORIENTED_EDGE('',*,*,#473,.F.);
#514 = ORIENTED_EDGE('',*,*,#154,.F.);
#515 = CYLINDRICAL_SURFACE('',#516,3.);
#516 = AXIS2_PLACEMENT_3D('',#517,#518,#519);
#517 = CARTESIAN_POINT('',(71.551451953047,196.75,0.));
#518 = DIRECTION('',(-0.,-0.,-1.));
#519 = DIRECTION('',(1.,0.,0.));
#520 = ADVANCED_FACE('',(#521),#532,.T.);
#521 = FACE_BOUND('',#522,.F.);
#522 = EDGE_LOOP('',(#523,#524,#525,#531));
#523 = ORIENTED_EDGE('',*,*,#492,.T.);
#524 = ORIENTED_EDGE('',*,*,#232,.T.);
#525 = ORIENTED_EDGE('',*,*,#526,.F.);
#526 = EDGE_CURVE('',#138,#233,#527,.T.);
#527 = LINE('',#528,#529);
#528 = CARTESIAN_POINT('',(83.328211814711,199.75,0.));
#529 = VECTOR('',#530,1.);
#530 = DIRECTION('',(0.,0.,1.));
#531 = ORIENTED_EDGE('',*,*,#137,.F.);
#532 = CYLINDRICAL_SURFACE('',#533,3.);
#533 = AXIS2_PLACEMENT_3D('',#534,#535,#536);
#534 = CARTESIAN_POINT('',(83.328211814711,196.75,0.));
#535 = DIRECTION('',(-0.,-0.,-1.));
#536 = DIRECTION('',(1.,0.,0.));
#537 = ADVANCED_FACE('',(#538),#544,.F.);
#538 = FACE_BOUND('',#539,.F.);
#539 = EDGE_LOOP('',(#540,#541,#542,#543));
#540 = ORIENTED_EDGE('',*,*,#526,.T.);
#541 = ORIENTED_EDGE('',*,*,#241,.T.);
#542 = ORIENTED_EDGE('',*,*,#507,.F.);
#543 = ORIENTED_EDGE('',*,*,#146,.F.);
#544 = PLANE('',#545);
#545 = AXIS2_PLACEMENT_3D('',#546,#547,#548);
#546 = CARTESIAN_POINT('',(83.328211814711,199.75,0.));
#547 = DIRECTION('',(0.,-1.,0.));
#548 = DIRECTION('',(-1.,0.,0.));
#549 = ADVANCED_FACE('',(#550),#569,.F.);
#550 = FACE_BOUND('',#551,.F.);
#551 = EDGE_LOOP('',(#552,#561,#567,#568));
#552 = ORIENTED_EDGE('',*,*,#553,.F.);
#553 = EDGE_CURVE('',#554,#554,#556,.T.);
#554 = VERTEX_POINT('',#555);
#555 = CARTESIAN_POINT('',(79.639831883879,-26.,2.1));
#556 = CIRCLE('',#557,2.2);
#557 = AXIS2_PLACEMENT_3D('',#558,#559,#560);
#558 = CARTESIAN_POINT('',(77.439831883879,-26.,2.1));
#559 = DIRECTION('',(0.,0.,1.));
#560 = DIRECTION('',(1.,0.,0.));
#561 = ORIENTED_EDGE('',*,*,#562,.T.);
#562 = EDGE_CURVE('',#554,#173,#563,.T.);
#563 = LINE('',#564,#565);
#564 = CARTESIAN_POINT('',(79.639831883879,-26.,3.));
#565 = VECTOR('',#566,1.);
#566 = DIRECTION('',(-0.,-0.,-1.));
#567 = ORIENTED_EDGE('',*,*,#172,.T.);
#568 = ORIENTED_EDGE('',*,*,#562,.F.);
#569 = CYLINDRICAL_SURFACE('',#570,2.2);
#570 = AXIS2_PLACEMENT_3D('',#571,#572,#573);
#571 = CARTESIAN_POINT('',(77.439831883879,-26.,3.));
#572 = DIRECTION('',(0.,0.,1.));
#573 = DIRECTION('',(1.,0.,0.));
#574 = ADVANCED_FACE('',(#575),#594,.F.);
#575 = FACE_BOUND('',#576,.F.);
#576 = EDGE_LOOP('',(#577,#586,#592,#593));
#577 = ORIENTED_EDGE('',*,*,#578,.F.);
#578 = EDGE_CURVE('',#579,#579,#581,.T.);
#579 = VERTEX_POINT('',#580);
#580 = CARTESIAN_POINT('',(79.639831883879,54.,2.1));
#581 = CIRCLE('',#582,2.2);
#582 = AXIS2_PLACEMENT_3D('',#583,#584,#585);
#583 = CARTESIAN_POINT('',(77.439831883879,54.,2.1));
#584 = DIRECTION('',(0.,0.,1.));
#585 = DIRECTION('',(1.,0.,0.));
#586 = ORIENTED_EDGE('',*,*,#587,.T.);
#587 = EDGE_CURVE('',#579,#184,#588,.T.);
#588 = LINE('',#589,#590);
#589 = CARTESIAN_POINT('',(79.639831883879,54.,3.));
#590 = VECTOR('',#591,1.);
#591 = DIRECTION('',(-0.,-0.,-1.));
#592 = ORIENTED_EDGE('',*,*,#183,.T.);
#593 = ORIENTED_EDGE('',*,*,#587,.F.);
#594 = CYLINDRICAL_SURFACE('',#595,2.2);
#595 = AXIS2_PLACEMENT_3D('',#596,#597,#598);
#596 = CARTESIAN_POINT('',(77.439831883879,54.,3.));
#597 = DIRECTION('',(0.,0.,1.));
#598 = DIRECTION('',(1.,0.,0.));
#599 = ADVANCED_FACE('',(#600),#619,.F.);
#600 = FACE_BOUND('',#601,.F.);
#601 = EDGE_LOOP('',(#602,#611,#617,#618));
#602 = ORIENTED_EDGE('',*,*,#603,.F.);
#603 = EDGE_CURVE('',#604,#604,#606,.T.);
#604 = VERTEX_POINT('',#605);
#605 = CARTESIAN_POINT('',(79.639831883879,186.,2.1));
#606 = CIRCLE('',#607,2.2);
#607 = AXIS2_PLACEMENT_3D('',#608,#609,#610);
#608 = CARTESIAN_POINT('',(77.439831883879,186.,2.1));
#609 = DIRECTION('',(0.,0.,1.));
#610 = DIRECTION('',(1.,0.,0.));
#611 = ORIENTED_EDGE('',*,*,#612,.T.);
#612 = EDGE_CURVE('',#604,#195,#613,.T.);
#613 = LINE('',#614,#615);
#614 = CARTESIAN_POINT('',(79.639831883879,186.,3.));
#615 = VECTOR('',#616,1.);
#616 = DIRECTION('',(-0.,-0.,-1.));
#617 = ORIENTED_EDGE('',*,*,#194,.T.);
#618 = ORIENTED_EDGE('',*,*,#612,.F.);
#619 = CYLINDRICAL_SURFACE('',#620,2.2);
#620 = AXIS2_PLACEMENT_3D('',#621,#622,#623);
#621 = CARTESIAN_POINT('',(77.439831883879,186.,3.));
#622 = DIRECTION('',(0.,0.,1.));
#623 = DIRECTION('',(1.,0.,0.));
#624 = ADVANCED_FACE('',(#625),#644,.F.);
#625 = FACE_BOUND('',#626,.F.);
#626 = EDGE_LOOP('',(#627,#636,#642,#643));
#627 = ORIENTED_EDGE('',*,*,#628,.F.);
#628 = EDGE_CURVE('',#629,#629,#631,.T.);
#629 = VERTEX_POINT('',#630);
#630 = CARTESIAN_POINT('',(79.639831883879,106.,2.1));
#631 = CIRCLE('',#632,2.2);
#632 = AXIS2_PLACEMENT_3D('',#633,#634,#635);
#633 = CARTESIAN_POINT('',(77.439831883879,106.,2.1));
#634 = DIRECTION('',(0.,0.,1.));
#635 = DIRECTION('',(1.,0.,0.));
#636 = ORIENTED_EDGE('',*,*,#637,.T.);
#637 = EDGE_CURVE('',#629,#206,#638,.T.);
#638 = LINE('',#639,#640);
#639 = CARTESIAN_POINT('',(79.639831883879,106.,3.));
#640 = VECTOR('',#641,1.);
#641 = DIRECTION('',(-0.,-0.,-1.));
#642 = ORIENTED_EDGE('',*,*,#205,.T.);
#643 = ORIENTED_EDGE('',*,*,#637,.F.);
#644 = CYLINDRICAL_SURFACE('',#645,2.2);
#645 = AXIS2_PLACEMENT_3D('',#646,#647,#648);
#646 = CARTESIAN_POINT('',(77.439831883879,106.,3.));
#647 = DIRECTION('',(0.,0.,1.));
#648 = DIRECTION('',(1.,0.,0.));
#649 = ADVANCED_FACE('',(#650),#675,.F.);
#650 = FACE_BOUND('',#651,.F.);
#651 = EDGE_LOOP('',(#652,#660,#668,#674));
#652 = ORIENTED_EDGE('',*,*,#653,.T.);
#653 = EDGE_CURVE('',#268,#654,#656,.T.);
#654 = VERTEX_POINT('',#655);
#655 = CARTESIAN_POINT('',(81.089831883879,-23.89267151745,2.1));
#656 = LINE('',#657,#658);
#657 = CARTESIAN_POINT('',(81.089831883879,-23.89267151745,5.6));
#658 = VECTOR('',#659,1.);
#659 = DIRECTION('',(-0.,-0.,-1.));
#660 = ORIENTED_EDGE('',*,*,#661,.T.);
#661 = EDGE_CURVE('',#654,#662,#664,.T.);
#662 = VERTEX_POINT('',#663);
#663 = CARTESIAN_POINT('',(77.439831883879,-21.78534303491,2.1));
#664 = LINE('',#665,#666);
#665 = CARTESIAN_POINT('',(81.089831883879,-23.89267151745,2.1));
#666 = VECTOR('',#667,1.);
#667 = DIRECTION('',(-0.866025403784,0.5,0.));
#668 = ORIENTED_EDGE('',*,*,#669,.F.);
#669 = EDGE_CURVE('',#270,#662,#670,.T.);
#670 = LINE('',#671,#672);
#671 = CARTESIAN_POINT('',(77.439831883879,-21.78534303491,5.6));
#672 = VECTOR('',#673,1.);
#673 = DIRECTION('',(-0.,-0.,-1.));
#674 = ORIENTED_EDGE('',*,*,#267,.F.);
#675 = PLANE('',#676);
#676 = AXIS2_PLACEMENT_3D('',#677,#678,#679);
#677 = CARTESIAN_POINT('',(81.089831883879,-23.89267151745,5.6));
#678 = DIRECTION('',(0.5,0.866025403784,0.));
#679 = DIRECTION('',(-0.866025403784,0.5,0.));
#680 = ADVANCED_FACE('',(#681),#699,.F.);
#681 = FACE_BOUND('',#682,.F.);
#682 = EDGE_LOOP('',(#683,#684,#692,#698));
#683 = ORIENTED_EDGE('',*,*,#669,.T.);
#684 = ORIENTED_EDGE('',*,*,#685,.T.);
#685 = EDGE_CURVE('',#662,#686,#688,.T.);
#686 = VERTEX_POINT('',#687);
#687 = CARTESIAN_POINT('',(73.789831883879,-23.89267151745,2.1));
#688 = LINE('',#689,#690);
#689 = CARTESIAN_POINT('',(77.439831883879,-21.78534303491,2.1));
#690 = VECTOR('',#691,1.);
#691 = DIRECTION('',(-0.866025403784,-0.5,0.));
#692 = ORIENTED_EDGE('',*,*,#693,.F.);
#693 = EDGE_CURVE('',#302,#686,#694,.T.);
#694 = LINE('',#695,#696);
#695 = CARTESIAN_POINT('',(73.789831883879,-23.89267151745,5.6));
#696 = VECTOR('',#697,1.);
#697 = DIRECTION('',(-0.,-0.,-1.));
#698 = ORIENTED_EDGE('',*,*,#309,.F.);
#699 = PLANE('',#700);
#700 = AXIS2_PLACEMENT_3D('',#701,#702,#703);
#701 = CARTESIAN_POINT('',(77.439831883879,-21.78534303491,5.6));
#702 = DIRECTION('',(-0.5,0.866025403784,0.));
#703 = DIRECTION('',(-0.866025403784,-0.5,0.));
#704 = ADVANCED_FACE('',(#705),#723,.F.);
#705 = FACE_BOUND('',#706,.F.);
#706 = EDGE_LOOP('',(#707,#708,#716,#722));
#707 = ORIENTED_EDGE('',*,*,#693,.T.);
#708 = ORIENTED_EDGE('',*,*,#709,.T.);
#709 = EDGE_CURVE('',#686,#710,#712,.T.);
#710 = VERTEX_POINT('',#711);
#711 = CARTESIAN_POINT('',(73.789831883879,-28.10732848254,2.1));
#712 = LINE('',#713,#714);
#713 = CARTESIAN_POINT('',(73.789831883879,-23.89267151745,2.1));
#714 = VECTOR('',#715,1.);
#715 = DIRECTION('',(1.05367818432E-16,-1.,0.));
#716 = ORIENTED_EDGE('',*,*,#717,.F.);
#717 = EDGE_CURVE('',#294,#710,#718,.T.);
#718 = LINE('',#719,#720);
#719 = CARTESIAN_POINT('',(73.789831883879,-28.10732848254,5.6));
#720 = VECTOR('',#721,1.);
#721 = DIRECTION('',(-0.,-0.,-1.));
#722 = ORIENTED_EDGE('',*,*,#301,.F.);
#723 = PLANE('',#724);
#724 = AXIS2_PLACEMENT_3D('',#725,#726,#727);
#725 = CARTESIAN_POINT('',(73.789831883879,-23.89267151745,5.6));
#726 = DIRECTION('',(-1.,-1.05367818432E-16,0.));
#727 = DIRECTION('',(1.05367818432E-16,-1.,0.));
#728 = ADVANCED_FACE('',(#729),#747,.F.);
#729 = FACE_BOUND('',#730,.F.);
#730 = EDGE_LOOP('',(#731,#732,#740,#746));
#731 = ORIENTED_EDGE('',*,*,#717,.T.);
#732 = ORIENTED_EDGE('',*,*,#733,.T.);
#733 = EDGE_CURVE('',#710,#734,#736,.T.);
#734 = VERTEX_POINT('',#735);
#735 = CARTESIAN_POINT('',(77.439831883879,-30.21465696508,2.1));
#736 = LINE('',#737,#738);
#737 = CARTESIAN_POINT('',(73.789831883879,-28.10732848254,2.1));
#738 = VECTOR('',#739,1.);
#739 = DIRECTION('',(0.866025403784,-0.5,0.));
#740 = ORIENTED_EDGE('',*,*,#741,.F.);
#741 = EDGE_CURVE('',#286,#734,#742,.T.);
#742 = LINE('',#743,#744);
#743 = CARTESIAN_POINT('',(77.439831883879,-30.21465696508,5.6));
#744 = VECTOR('',#745,1.);
#745 = DIRECTION('',(-0.,-0.,-1.));
#746 = ORIENTED_EDGE('',*,*,#293,.F.);
#747 = PLANE('',#748);
#748 = AXIS2_PLACEMENT_3D('',#749,#750,#751);
#749 = CARTESIAN_POINT('',(73.789831883879,-28.10732848254,5.6));
#750 = DIRECTION('',(-0.5,-0.866025403784,0.));
#751 = DIRECTION('',(0.866025403784,-0.5,0.));
#752 = ADVANCED_FACE('',(#753),#771,.F.);
#753 = FACE_BOUND('',#754,.F.);
#754 = EDGE_LOOP('',(#755,#756,#764,#770));
#755 = ORIENTED_EDGE('',*,*,#741,.T.);
#756 = ORIENTED_EDGE('',*,*,#757,.T.);
#757 = EDGE_CURVE('',#734,#758,#760,.T.);
#758 = VERTEX_POINT('',#759);
#759 = CARTESIAN_POINT('',(81.089831883879,-28.10732848254,2.1));
#760 = LINE('',#761,#762);
#761 = CARTESIAN_POINT('',(77.439831883879,-30.21465696508,2.1));
#762 = VECTOR('',#763,1.);
#763 = DIRECTION('',(0.866025403784,0.5,0.));
#764 = ORIENTED_EDGE('',*,*,#765,.F.);
#765 = EDGE_CURVE('',#278,#758,#766,.T.);
#766 = LINE('',#767,#768);
#767 = CARTESIAN_POINT('',(81.089831883879,-28.10732848254,5.6));
#768 = VECTOR('',#769,1.);
#769 = DIRECTION('',(-0.,-0.,-1.));
#770 = ORIENTED_EDGE('',*,*,#285,.F.);
#771 = PLANE('',#772);
#772 = AXIS2_PLACEMENT_3D('',#773,#774,#775);
#773 = CARTESIAN_POINT('',(77.439831883879,-30.21465696508,5.6));
#774 = DIRECTION('',(0.5,-0.866025403784,0.));
#775 = DIRECTION('',(0.866025403784,0.5,0.));
#776 = ADVANCED_FACE('',(#777),#788,.F.);
#777 = FACE_BOUND('',#778,.F.);
#778 = EDGE_LOOP('',(#779,#780,#786,#787));
#779 = ORIENTED_EDGE('',*,*,#765,.T.);
#780 = ORIENTED_EDGE('',*,*,#781,.T.);
#781 = EDGE_CURVE('',#758,#654,#782,.T.);
#782 = LINE('',#783,#784);
#783 = CARTESIAN_POINT('',(81.089831883879,-28.10732848254,2.1));
#784 = VECTOR('',#785,1.);
#785 = DIRECTION('',(4.214712737279E-16,1.,0.));
#786 = ORIENTED_EDGE('',*,*,#653,.F.);
#787 = ORIENTED_EDGE('',*,*,#277,.F.);
#788 = PLANE('',#789);
#789 = AXIS2_PLACEMENT_3D('',#790,#791,#792);
#790 = CARTESIAN_POINT('',(81.089831883879,-28.10732848254,5.6));
#791 = DIRECTION('',(1.,-4.214712737279E-16,0.));
#792 = DIRECTION('',(4.214712737279E-16,1.,0.));
#793 = ADVANCED_FACE('',(#794),#819,.F.);
#794 = FACE_BOUND('',#795,.F.);
#795 = EDGE_LOOP('',(#796,#804,#812,#818));
#796 = ORIENTED_EDGE('',*,*,#797,.T.);
#797 = EDGE_CURVE('',#318,#798,#800,.T.);
#798 = VERTEX_POINT('',#799);
#799 = CARTESIAN_POINT('',(81.089831883879,56.107328482542,2.1));
#800 = LINE('',#801,#802);
#801 = CARTESIAN_POINT('',(81.089831883879,56.107328482542,5.6));
#802 = VECTOR('',#803,1.);
#803 = DIRECTION('',(-0.,-0.,-1.));
#804 = ORIENTED_EDGE('',*,*,#805,.T.);
#805 = EDGE_CURVE('',#798,#806,#808,.T.);
#806 = VERTEX_POINT('',#807);
#807 = CARTESIAN_POINT('',(77.439831883879,58.214656965084,2.1));
#808 = LINE('',#809,#810);
#809 = CARTESIAN_POINT('',(81.089831883879,56.107328482542,2.1));
#810 = VECTOR('',#811,1.);
#811 = DIRECTION('',(-0.866025403784,0.5,0.));
#812 = ORIENTED_EDGE('',*,*,#813,.F.);
#813 = EDGE_CURVE('',#320,#806,#814,.T.);
#814 = LINE('',#815,#816);
#815 = CARTESIAN_POINT('',(77.439831883879,58.214656965084,5.6));
#816 = VECTOR('',#817,1.);
#817 = DIRECTION('',(-0.,-0.,-1.));
#818 = ORIENTED_EDGE('',*,*,#317,.F.);
#819 = PLANE('',#820);
#820 = AXIS2_PLACEMENT_3D('',#821,#822,#823);
#821 = CARTESIAN_POINT('',(81.089831883879,56.107328482542,5.6));
#822 = DIRECTION('',(0.5,0.866025403784,0.));
#823 = DIRECTION('',(-0.866025403784,0.5,0.));
#824 = ADVANCED_FACE('',(#825),#843,.F.);
#825 = FACE_BOUND('',#826,.F.);
#826 = EDGE_LOOP('',(#827,#828,#836,#842));
#827 = ORIENTED_EDGE('',*,*,#813,.T.);
#828 = ORIENTED_EDGE('',*,*,#829,.T.);
#829 = EDGE_CURVE('',#806,#830,#832,.T.);
#830 = VERTEX_POINT('',#831);
#831 = CARTESIAN_POINT('',(73.789831883879,56.107328482542,2.1));
#832 = LINE('',#833,#834);
#833 = CARTESIAN_POINT('',(77.439831883879,58.214656965084,2.1));
#834 = VECTOR('',#835,1.);
#835 = DIRECTION('',(-0.866025403784,-0.5,0.));
#836 = ORIENTED_EDGE('',*,*,#837,.F.);
#837 = EDGE_CURVE('',#352,#830,#838,.T.);
#838 = LINE('',#839,#840);
#839 = CARTESIAN_POINT('',(73.789831883879,56.107328482542,5.6));
#840 = VECTOR('',#841,1.);
#841 = DIRECTION('',(-0.,-0.,-1.));
#842 = ORIENTED_EDGE('',*,*,#359,.F.);
#843 = PLANE('',#844);
#844 = AXIS2_PLACEMENT_3D('',#845,#846,#847);
#845 = CARTESIAN_POINT('',(77.439831883879,58.214656965084,5.6));
#846 = DIRECTION('',(-0.5,0.866025403784,0.));
#847 = DIRECTION('',(-0.866025403784,-0.5,0.));
#848 = ADVANCED_FACE('',(#849),#867,.F.);
#849 = FACE_BOUND('',#850,.F.);
#850 = EDGE_LOOP('',(#851,#852,#860,#866));
#851 = ORIENTED_EDGE('',*,*,#837,.T.);
#852 = ORIENTED_EDGE('',*,*,#853,.T.);
#853 = EDGE_CURVE('',#830,#854,#856,.T.);
#854 = VERTEX_POINT('',#855);
#855 = CARTESIAN_POINT('',(73.789831883879,51.892671517458,2.1));
#856 = LINE('',#857,#858);
#857 = CARTESIAN_POINT('',(73.789831883879,56.107328482542,2.1));
#858 = VECTOR('',#859,1.);
#859 = DIRECTION('',(1.05367818432E-16,-1.,0.));
#860 = ORIENTED_EDGE('',*,*,#861,.F.);
#861 = EDGE_CURVE('',#344,#854,#862,.T.);
#862 = LINE('',#863,#864);
#863 = CARTESIAN_POINT('',(73.789831883879,51.892671517458,5.6));
#864 = VECTOR('',#865,1.);
#865 = DIRECTION('',(-0.,-0.,-1.));
#866 = ORIENTED_EDGE('',*,*,#351,.F.);
#867 = PLANE('',#868);
#868 = AXIS2_PLACEMENT_3D('',#869,#870,#871);
#869 = CARTESIAN_POINT('',(73.789831883879,56.107328482542,5.6));
#870 = DIRECTION('',(-1.,-1.05367818432E-16,0.));
#871 = DIRECTION('',(1.05367818432E-16,-1.,0.));
#872 = ADVANCED_FACE('',(#873),#891,.F.);
#873 = FACE_BOUND('',#874,.F.);
#874 = EDGE_LOOP('',(#875,#876,#884,#890));
#875 = ORIENTED_EDGE('',*,*,#861,.T.);
#876 = ORIENTED_EDGE('',*,*,#877,.T.);
#877 = EDGE_CURVE('',#854,#878,#880,.T.);
#878 = VERTEX_POINT('',#879);
#879 = CARTESIAN_POINT('',(77.439831883879,49.785343034916,2.1));
#880 = LINE('',#881,#882);
#881 = CARTESIAN_POINT('',(73.789831883879,51.892671517458,2.1));
#882 = VECTOR('',#883,1.);
#883 = DIRECTION('',(0.866025403784,-0.5,0.));
#884 = ORIENTED_EDGE('',*,*,#885,.F.);
#885 = EDGE_CURVE('',#336,#878,#886,.T.);
#886 = LINE('',#887,#888);
#887 = CARTESIAN_POINT('',(77.439831883879,49.785343034916,5.6));
#888 = VECTOR('',#889,1.);
#889 = DIRECTION('',(-0.,-0.,-1.));
#890 = ORIENTED_EDGE('',*,*,#343,.F.);
#891 = PLANE('',#892);
#892 = AXIS2_PLACEMENT_3D('',#893,#894,#895);
#893 = CARTESIAN_POINT('',(73.789831883879,51.892671517458,5.6));
#894 = DIRECTION('',(-0.5,-0.866025403784,0.));
#895 = DIRECTION('',(0.866025403784,-0.5,0.));
#896 = ADVANCED_FACE('',(#897),#915,.F.);
#897 = FACE_BOUND('',#898,.F.);
#898 = EDGE_LOOP('',(#899,#900,#908,#914));
#899 = ORIENTED_EDGE('',*,*,#885,.T.);
#900 = ORIENTED_EDGE('',*,*,#901,.T.);
#901 = EDGE_CURVE('',#878,#902,#904,.T.);
#902 = VERTEX_POINT('',#903);
#903 = CARTESIAN_POINT('',(81.089831883879,51.892671517458,2.1));
#904 = LINE('',#905,#906);
#905 = CARTESIAN_POINT('',(77.439831883879,49.785343034916,2.1));
#906 = VECTOR('',#907,1.);
#907 = DIRECTION('',(0.866025403784,0.5,0.));
#908 = ORIENTED_EDGE('',*,*,#909,.F.);
#909 = EDGE_CURVE('',#328,#902,#910,.T.);
#910 = LINE('',#911,#912);
#911 = CARTESIAN_POINT('',(81.089831883879,51.892671517458,5.6));
#912 = VECTOR('',#913,1.);
#913 = DIRECTION('',(-0.,-0.,-1.));
#914 = ORIENTED_EDGE('',*,*,#335,.F.);
#915 = PLANE('',#916);
#916 = AXIS2_PLACEMENT_3D('',#917,#918,#919);
#917 = CARTESIAN_POINT('',(77.439831883879,49.785343034916,5.6));
#918 = DIRECTION('',(0.5,-0.866025403784,0.));
#919 = DIRECTION('',(0.866025403784,0.5,0.));
#920 = ADVANCED_FACE('',(#921),#932,.F.);
#921 = FACE_BOUND('',#922,.F.);
#922 = EDGE_LOOP('',(#923,#924,#930,#931));
#923 = ORIENTED_EDGE('',*,*,#909,.T.);
#924 = ORIENTED_EDGE('',*,*,#925,.T.);
#925 = EDGE_CURVE('',#902,#798,#926,.T.);
#926 = LINE('',#927,#928);
#927 = CARTESIAN_POINT('',(81.089831883879,51.892671517458,2.1));
#928 = VECTOR('',#929,1.);
#929 = DIRECTION('',(4.214712737279E-16,1.,0.));
#930 = ORIENTED_EDGE('',*,*,#797,.F.);
#931 = ORIENTED_EDGE('',*,*,#327,.F.);
#932 = PLANE('',#933);
#933 = AXIS2_PLACEMENT_3D('',#934,#935,#936);
#934 = CARTESIAN_POINT('',(81.089831883879,51.892671517458,5.6));
#935 = DIRECTION('',(1.,-4.214712737279E-16,0.));
#936 = DIRECTION('',(4.214712737279E-16,1.,0.));
#937 = ADVANCED_FACE('',(#938),#963,.F.);
#938 = FACE_BOUND('',#939,.F.);
#939 = EDGE_LOOP('',(#940,#948,#956,#962));
#940 = ORIENTED_EDGE('',*,*,#941,.T.);
#941 = EDGE_CURVE('',#368,#942,#944,.T.);
#942 = VERTEX_POINT('',#943);
#943 = CARTESIAN_POINT('',(81.089831883879,188.10732848254,2.1));
#944 = LINE('',#945,#946);
#945 = CARTESIAN_POINT('',(81.089831883879,188.10732848254,5.6));
#946 = VECTOR('',#947,1.);
#947 = DIRECTION('',(-0.,-0.,-1.));
#948 = ORIENTED_EDGE('',*,*,#949,.T.);
#949 = EDGE_CURVE('',#942,#950,#952,.T.);
#950 = VERTEX_POINT('',#951);
#951 = CARTESIAN_POINT('',(77.439831883879,190.21465696508,2.1));
#952 = LINE('',#953,#954);
#953 = CARTESIAN_POINT('',(81.089831883879,188.10732848254,2.1));
#954 = VECTOR('',#955,1.);
#955 = DIRECTION('',(-0.866025403784,0.5,0.));
#956 = ORIENTED_EDGE('',*,*,#957,.F.);
#957 = EDGE_CURVE('',#370,#950,#958,.T.);
#958 = LINE('',#959,#960);
#959 = CARTESIAN_POINT('',(77.439831883879,190.21465696508,5.6));
#960 = VECTOR('',#961,1.);
#961 = DIRECTION('',(-0.,-0.,-1.));
#962 = ORIENTED_EDGE('',*,*,#367,.F.);
#963 = PLANE('',#964);
#964 = AXIS2_PLACEMENT_3D('',#965,#966,#967);
#965 = CARTESIAN_POINT('',(81.089831883879,188.10732848254,5.6));
#966 = DIRECTION('',(0.5,0.866025403784,0.));
#967 = DIRECTION('',(-0.866025403784,0.5,0.));
#968 = ADVANCED_FACE('',(#969),#987,.F.);
#969 = FACE_BOUND('',#970,.F.);
#970 = EDGE_LOOP('',(#971,#972,#980,#986));
#971 = ORIENTED_EDGE('',*,*,#957,.T.);
#972 = ORIENTED_EDGE('',*,*,#973,.T.);
#973 = EDGE_CURVE('',#950,#974,#976,.T.);
#974 = VERTEX_POINT('',#975);
#975 = CARTESIAN_POINT('',(73.789831883879,188.10732848254,2.1));
#976 = LINE('',#977,#978);
#977 = CARTESIAN_POINT('',(77.439831883879,190.21465696508,2.1));
#978 = VECTOR('',#979,1.);
#979 = DIRECTION('',(-0.866025403784,-0.5,0.));
#980 = ORIENTED_EDGE('',*,*,#981,.F.);
#981 = EDGE_CURVE('',#402,#974,#982,.T.);
#982 = LINE('',#983,#984);
#983 = CARTESIAN_POINT('',(73.789831883879,188.10732848254,5.6));
#984 = VECTOR('',#985,1.);
#985 = DIRECTION('',(-0.,-0.,-1.));
#986 = ORIENTED_EDGE('',*,*,#409,.F.);
#987 = PLANE('',#988);
#988 = AXIS2_PLACEMENT_3D('',#989,#990,#991);
#989 = CARTESIAN_POINT('',(77.439831883879,190.21465696508,5.6));
#990 = DIRECTION('',(-0.5,0.866025403784,0.));
#991 = DIRECTION('',(-0.866025403784,-0.5,0.));
#992 = ADVANCED_FACE('',(#993),#1011,.F.);
#993 = FACE_BOUND('',#994,.F.);
#994 = EDGE_LOOP('',(#995,#996,#1004,#1010));
#995 = ORIENTED_EDGE('',*,*,#981,.T.);
#996 = ORIENTED_EDGE('',*,*,#997,.T.);
#997 = EDGE_CURVE('',#974,#998,#1000,.T.);
#998 = VERTEX_POINT('',#999);
#999 = CARTESIAN_POINT('',(73.789831883879,183.89267151745,2.1));
#1000 = LINE('',#1001,#1002);
#1001 = CARTESIAN_POINT('',(73.789831883879,188.10732848254,2.1));
#1002 = VECTOR('',#1003,1.);
#1003 = DIRECTION('',(1.05367818432E-16,-1.,0.));
#1004 = ORIENTED_EDGE('',*,*,#1005,.F.);
#1005 = EDGE_CURVE('',#394,#998,#1006,.T.);
#1006 = LINE('',#1007,#1008);
#1007 = CARTESIAN_POINT('',(73.789831883879,183.89267151745,5.6));
#1008 = VECTOR('',#1009,1.);
#1009 = DIRECTION('',(-0.,-0.,-1.));
#1010 = ORIENTED_EDGE('',*,*,#401,.F.);
#1011 = PLANE('',#1012);
#1012 = AXIS2_PLACEMENT_3D('',#1013,#1014,#1015);
#1013 = CARTESIAN_POINT('',(73.789831883879,188.10732848254,5.6));
#1014 = DIRECTION('',(-1.,-1.05367818432E-16,0.));
#1015 = DIRECTION('',(1.05367818432E-16,-1.,0.));
#1016 = ADVANCED_FACE('',(#1017),#1035,.F.);
#1017 = FACE_BOUND('',#1018,.F.);
#1018 = EDGE_LOOP('',(#1019,#1020,#1028,#1034));
#1019 = ORIENTED_EDGE('',*,*,#1005,.T.);
#1020 = ORIENTED_EDGE('',*,*,#1021,.T.);
#1021 = EDGE_CURVE('',#998,#1022,#1024,.T.);
#1022 = VERTEX_POINT('',#1023);
#1023 = CARTESIAN_POINT('',(77.439831883879,181.78534303491,2.1));
#1024 = LINE('',#1025,#1026);
#1025 = CARTESIAN_POINT('',(73.789831883879,183.89267151745,2.1));
#1026 = VECTOR('',#1027,1.);
#1027 = DIRECTION('',(0.866025403784,-0.5,0.));
#1028 = ORIENTED_EDGE('',*,*,#1029,.F.);
#1029 = EDGE_CURVE('',#386,#1022,#1030,.T.);
#1030 = LINE('',#1031,#1032);
#1031 = CARTESIAN_POINT('',(77.439831883879,181.78534303491,5.6));
#1032 = VECTOR('',#1033,1.);
#1033 = DIRECTION('',(-0.,-0.,-1.));
#1034 = ORIENTED_EDGE('',*,*,#393,.F.);
#1035 = PLANE('',#1036);
#1036 = AXIS2_PLACEMENT_3D('',#1037,#1038,#1039);
#1037 = CARTESIAN_POINT('',(73.789831883879,183.89267151745,5.6));
#1038 = DIRECTION('',(-0.5,-0.866025403784,0.));
#1039 = DIRECTION('',(0.866025403784,-0.5,0.));
#1040 = ADVANCED_FACE('',(#1041),#1059,.F.);
#1041 = FACE_BOUND('',#1042,.F.);
#1042 = EDGE_LOOP('',(#1043,#1044,#1052,#1058));
#1043 = ORIENTED_EDGE('',*,*,#1029,.T.);
#1044 = ORIENTED_EDGE('',*,*,#1045,.T.);
#1045 = EDGE_CURVE('',#1022,#1046,#1048,.T.);
#1046 = VERTEX_POINT('',#1047);
#1047 = CARTESIAN_POINT('',(81.089831883879,183.89267151745,2.1));
#1048 = LINE('',#1049,#1050);
#1049 = CARTESIAN_POINT('',(77.439831883879,181.78534303491,2.1));
#1050 = VECTOR('',#1051,1.);
#1051 = DIRECTION('',(0.866025403784,0.5,0.));
#1052 = ORIENTED_EDGE('',*,*,#1053,.F.);
#1053 = EDGE_CURVE('',#378,#1046,#1054,.T.);
#1054 = LINE('',#1055,#1056);
#1055 = CARTESIAN_POINT('',(81.089831883879,183.89267151745,5.6));
#1056 = VECTOR('',#1057,1.);
#1057 = DIRECTION('',(-0.,-0.,-1.));
#1058 = ORIENTED_EDGE('',*,*,#385,.F.);
#1059 = PLANE('',#1060);
#1060 = AXIS2_PLACEMENT_3D('',#1061,#1062,#1063);
#1061 = CARTESIAN_POINT('',(77.439831883879,181.78534303491,5.6));
#1062 = DIRECTION('',(0.5,-0.866025403784,0.));
#1063 = DIRECTION('',(0.866025403784,0.5,0.));
#1064 = ADVANCED_FACE('',(#1065),#1076,.F.);
#1065 = FACE_BOUND('',#1066,.F.);
#1066 = EDGE_LOOP('',(#1067,#1068,#1074,#1075));
#1067 = ORIENTED_EDGE('',*,*,#1053,.T.);
#1068 = ORIENTED_EDGE('',*,*,#1069,.T.);
#1069 = EDGE_CURVE('',#1046,#942,#1070,.T.);
#1070 = LINE('',#1071,#1072);
#1071 = CARTESIAN_POINT('',(81.089831883879,183.89267151745,2.1));
#1072 = VECTOR('',#1073,1.);
#1073 = DIRECTION('',(4.214712737279E-16,1.,0.));
#1074 = ORIENTED_EDGE('',*,*,#941,.F.);
#1075 = ORIENTED_EDGE('',*,*,#377,.F.);
#1076 = PLANE('',#1077);
#1077 = AXIS2_PLACEMENT_3D('',#1078,#1079,#1080);
#1078 = CARTESIAN_POINT('',(81.089831883879,183.89267151745,5.6));
#1079 = DIRECTION('',(1.,-4.214712737279E-16,0.));
#1080 = DIRECTION('',(4.214712737279E-16,1.,0.));
#1081 = ADVANCED_FACE('',(#1082),#1107,.F.);
#1082 = FACE_BOUND('',#1083,.F.);
#1083 = EDGE_LOOP('',(#1084,#1092,#1100,#1106));
#1084 = ORIENTED_EDGE('',*,*,#1085,.T.);
#1085 = EDGE_CURVE('',#418,#1086,#1088,.T.);
#1086 = VERTEX_POINT('',#1087);
#1087 = CARTESIAN_POINT('',(81.089831883879,108.10732848254,2.1));
#1088 = LINE('',#1089,#1090);
#1089 = CARTESIAN_POINT('',(81.089831883879,108.10732848254,5.6));
#1090 = VECTOR('',#1091,1.);
#1091 = DIRECTION('',(-0.,-0.,-1.));
#1092 = ORIENTED_EDGE('',*,*,#1093,.T.);
#1093 = EDGE_CURVE('',#1086,#1094,#1096,.T.);
#1094 = VERTEX_POINT('',#1095);
#1095 = CARTESIAN_POINT('',(77.439831883879,110.21465696508,2.1));
#1096 = LINE('',#1097,#1098);
#1097 = CARTESIAN_POINT('',(81.089831883879,108.10732848254,2.1));
#1098 = VECTOR('',#1099,1.);
#1099 = DIRECTION('',(-0.866025403784,0.5,0.));
#1100 = ORIENTED_EDGE('',*,*,#1101,.F.);
#1101 = EDGE_CURVE('',#420,#1094,#1102,.T.);
#1102 = LINE('',#1103,#1104);
#1103 = CARTESIAN_POINT('',(77.439831883879,110.21465696508,5.6));
#1104 = VECTOR('',#1105,1.);
#1105 = DIRECTION('',(-0.,-0.,-1.));
#1106 = ORIENTED_EDGE('',*,*,#417,.F.);
#1107 = PLANE('',#1108);
#1108 = AXIS2_PLACEMENT_3D('',#1109,#1110,#1111);
#1109 = CARTESIAN_POINT('',(81.089831883879,108.10732848254,5.6));
#1110 = DIRECTION('',(0.5,0.866025403784,0.));
#1111 = DIRECTION('',(-0.866025403784,0.5,0.));
#1112 = ADVANCED_FACE('',(#1113),#1131,.F.);
#1113 = FACE_BOUND('',#1114,.F.);
#1114 = EDGE_LOOP('',(#1115,#1116,#1124,#1130));
#1115 = ORIENTED_EDGE('',*,*,#1101,.T.);
#1116 = ORIENTED_EDGE('',*,*,#1117,.T.);
#1117 = EDGE_CURVE('',#1094,#1118,#1120,.T.);
#1118 = VERTEX_POINT('',#1119);
#1119 = CARTESIAN_POINT('',(73.789831883879,108.10732848254,2.1));
#1120 = LINE('',#1121,#1122);
#1121 = CARTESIAN_POINT('',(77.439831883879,110.21465696508,2.1));
#1122 = VECTOR('',#1123,1.);
#1123 = DIRECTION('',(-0.866025403784,-0.5,0.));
#1124 = ORIENTED_EDGE('',*,*,#1125,.F.);
#1125 = EDGE_CURVE('',#452,#1118,#1126,.T.);
#1126 = LINE('',#1127,#1128);
#1127 = CARTESIAN_POINT('',(73.789831883879,108.10732848254,5.6));
#1128 = VECTOR('',#1129,1.);
#1129 = DIRECTION('',(-0.,-0.,-1.));
#1130 = ORIENTED_EDGE('',*,*,#459,.F.);
#1131 = PLANE('',#1132);
#1132 = AXIS2_PLACEMENT_3D('',#1133,#1134,#1135);
#1133 = CARTESIAN_POINT('',(77.439831883879,110.21465696508,5.6));
#1134 = DIRECTION('',(-0.5,0.866025403784,0.));
#1135 = DIRECTION('',(-0.866025403784,-0.5,0.));
#1136 = ADVANCED_FACE('',(#1137),#1155,.F.);
#1137 = FACE_BOUND('',#1138,.F.);
#1138 = EDGE_LOOP('',(#1139,#1140,#1148,#1154));
#1139 = ORIENTED_EDGE('',*,*,#1125,.T.);
#1140 = ORIENTED_EDGE('',*,*,#1141,.T.);
#1141 = EDGE_CURVE('',#1118,#1142,#1144,.T.);
#1142 = VERTEX_POINT('',#1143);
#1143 = CARTESIAN_POINT('',(73.789831883879,103.89267151745,2.1));
#1144 = LINE('',#1145,#1146);
#1145 = CARTESIAN_POINT('',(73.789831883879,108.10732848254,2.1));
#1146 = VECTOR('',#1147,1.);
#1147 = DIRECTION('',(1.05367818432E-16,-1.,0.));
#1148 = ORIENTED_EDGE('',*,*,#1149,.F.);
#1149 = EDGE_CURVE('',#444,#1142,#1150,.T.);
#1150 = LINE('',#1151,#1152);
#1151 = CARTESIAN_POINT('',(73.789831883879,103.89267151745,5.6));
#1152 = VECTOR('',#1153,1.);
#1153 = DIRECTION('',(-0.,-0.,-1.));
#1154 = ORIENTED_EDGE('',*,*,#451,.F.);
#1155 = PLANE('',#1156);
#1156 = AXIS2_PLACEMENT_3D('',#1157,#1158,#1159);
#1157 = CARTESIAN_POINT('',(73.789831883879,108.10732848254,5.6));
#1158 = DIRECTION('',(-1.,-1.05367818432E-16,0.));
#1159 = DIRECTION('',(1.05367818432E-16,-1.,0.));
#1160 = ADVANCED_FACE('',(#1161),#1179,.F.);
#1161 = FACE_BOUND('',#1162,.F.);
#1162 = EDGE_LOOP('',(#1163,#1164,#1172,#1178));
#1163 = ORIENTED_EDGE('',*,*,#1149,.T.);
#1164 = ORIENTED_EDGE('',*,*,#1165,.T.);
#1165 = EDGE_CURVE('',#1142,#1166,#1168,.T.);
#1166 = VERTEX_POINT('',#1167);
#1167 = CARTESIAN_POINT('',(77.439831883879,101.78534303491,2.1));
#1168 = LINE('',#1169,#1170);
#1169 = CARTESIAN_POINT('',(73.789831883879,103.89267151745,2.1));
#1170 = VECTOR('',#1171,1.);
#1171 = DIRECTION('',(0.866025403784,-0.5,0.));
#1172 = ORIENTED_EDGE('',*,*,#1173,.F.);
#1173 = EDGE_CURVE('',#436,#1166,#1174,.T.);
#1174 = LINE('',#1175,#1176);
#1175 = CARTESIAN_POINT('',(77.439831883879,101.78534303491,5.6));
#1176 = VECTOR('',#1177,1.);
#1177 = DIRECTION('',(-0.,-0.,-1.));
#1178 = ORIENTED_EDGE('',*,*,#443,.F.);
#1179 = PLANE('',#1180);
#1180 = AXIS2_PLACEMENT_3D('',#1181,#1182,#1183);
#1181 = CARTESIAN_POINT('',(73.789831883879,103.89267151745,5.6));
#1182 = DIRECTION('',(-0.5,-0.866025403784,0.));
#1183 = DIRECTION('',(0.866025403784,-0.5,0.));
#1184 = ADVANCED_FACE('',(#1185),#1203,.F.);
#1185 = FACE_BOUND('',#1186,.F.);
#1186 = EDGE_LOOP('',(#1187,#1188,#1196,#1202));
#1187 = ORIENTED_EDGE('',*,*,#1173,.T.);
#1188 = ORIENTED_EDGE('',*,*,#1189,.T.);
#1189 = EDGE_CURVE('',#1166,#1190,#1192,.T.);
#1190 = VERTEX_POINT('',#1191);
#1191 = CARTESIAN_POINT('',(81.089831883879,103.89267151745,2.1));
#1192 = LINE('',#1193,#1194);
#1193 = CARTESIAN_POINT('',(77.439831883879,101.78534303491,2.1));
#1194 = VECTOR('',#1195,1.);
#1195 = DIRECTION('',(0.866025403784,0.5,0.));
#1196 = ORIENTED_EDGE('',*,*,#1197,.F.);
#1197 = EDGE_CURVE('',#428,#1190,#1198,.T.);
#1198 = LINE('',#1199,#1200);
#1199 = CARTESIAN_POINT('',(81.089831883879,103.89267151745,5.6));
#1200 = VECTOR('',#1201,1.);
#1201 = DIRECTION('',(-0.,-0.,-1.));
#1202 = ORIENTED_EDGE('',*,*,#435,.F.);
#1203 = PLANE('',#1204);
#1204 = AXIS2_PLACEMENT_3D('',#1205,#1206,#1207);
#1205 = CARTESIAN_POINT('',(77.439831883879,101.78534303491,5.6));
#1206 = DIRECTION('',(0.5,-0.866025403784,0.));
#1207 = DIRECTION('',(0.866025403784,0.5,0.));
#1208 = ADVANCED_FACE('',(#1209),#1220,.F.);
#1209 = FACE_BOUND('',#1210,.F.);
#1210 = EDGE_LOOP('',(#1211,#1212,#1218,#1219));
#1211 = ORIENTED_EDGE('',*,*,#1197,.T.);
#1212 = ORIENTED_EDGE('',*,*,#1213,.T.);
#1213 = EDGE_CURVE('',#1190,#1086,#1214,.T.);
#1214 = LINE('',#1215,#1216);
#1215 = CARTESIAN_POINT('',(81.089831883879,103.89267151745,2.1));
#1216 = VECTOR('',#1217,1.);
#1217 = DIRECTION('',(4.214712737279E-16,1.,0.));
#1218 = ORIENTED_EDGE('',*,*,#1085,.F.);
#1219 = ORIENTED_EDGE('',*,*,#427,.F.);
#1220 = PLANE('',#1221);
#1221 = AXIS2_PLACEMENT_3D('',#1222,#1223,#1224);
#1222 = CARTESIAN_POINT('',(81.089831883879,103.89267151745,5.6));
#1223 = DIRECTION('',(1.,-4.214712737279E-16,0.));
#1224 = DIRECTION('',(4.214712737279E-16,1.,0.));
#1225 = ADVANCED_FACE('',(#1226,#1234),#1237,.T.);
#1226 = FACE_BOUND('',#1227,.T.);
#1227 = EDGE_LOOP('',(#1228,#1229,#1230,#1231,#1232,#1233));
#1228 = ORIENTED_EDGE('',*,*,#661,.T.);
#1229 = ORIENTED_EDGE('',*,*,#685,.T.);
#1230 = ORIENTED_EDGE('',*,*,#709,.T.);
#1231 = ORIENTED_EDGE('',*,*,#733,.T.);
#1232 = ORIENTED_EDGE('',*,*,#757,.T.);
#1233 = ORIENTED_EDGE('',*,*,#781,.T.);
#1234 = FACE_BOUND('',#1235,.T.);
#1235 = EDGE_LOOP('',(#1236));
#1236 = ORIENTED_EDGE('',*,*,#553,.F.);
#1237 = PLANE('',#1238);
#1238 = AXIS2_PLACEMENT_3D('',#1239,#1240,#1241);
#1239 = CARTESIAN_POINT('',(77.439831883879,80.,2.1));
#1240 = DIRECTION('',(0.,0.,1.));
#1241 = DIRECTION('',(1.,0.,0.));
#1242 = ADVANCED_FACE('',(#1243,#1251),#1254,.T.);
#1243 = FACE_BOUND('',#1244,.T.);
#1244 = EDGE_LOOP('',(#1245,#1246,#1247,#1248,#1249,#1250));
#1245 = ORIENTED_EDGE('',*,*,#805,.T.);
#1246 = ORIENTED_EDGE('',*,*,#829,.T.);
#1247 = ORIENTED_EDGE('',*,*,#853,.T.);
#1248 = ORIENTED_EDGE('',*,*,#877,.T.);
#1249 = ORIENTED_EDGE('',*,*,#901,.T.);
#1250 = ORIENTED_EDGE('',*,*,#925,.T.);
#1251 = FACE_BOUND('',#1252,.T.);
#1252 = EDGE_LOOP('',(#1253));
#1253 = ORIENTED_EDGE('',*,*,#578,.F.);
#1254 = PLANE('',#1255);
#1255 = AXIS2_PLACEMENT_3D('',#1256,#1257,#1258);
#1256 = CARTESIAN_POINT('',(77.439831883879,80.,2.1));
#1257 = DIRECTION('',(0.,0.,1.));
#1258 = DIRECTION('',(1.,0.,0.));
#1259 = ADVANCED_FACE('',(#1260,#1268),#1271,.T.);
#1260 = FACE_BOUND('',#1261,.T.);
#1261 = EDGE_LOOP('',(#1262,#1263,#1264,#1265,#1266,#1267));
#1262 = ORIENTED_EDGE('',*,*,#949,.T.);
#1263 = ORIENTED_EDGE('',*,*,#973,.T.);
#1264 = ORIENTED_EDGE('',*,*,#997,.T.);
#1265 = ORIENTED_EDGE('',*,*,#1021,.T.);
#1266 = ORIENTED_EDGE('',*,*,#1045,.T.);
#1267 = ORIENTED_EDGE('',*,*,#1069,.T.);
#1268 = FACE_BOUND('',#1269,.T.);
#1269 = EDGE_LOOP('',(#1270));
#1270 = ORIENTED_EDGE('',*,*,#603,.F.);
#1271 = PLANE('',#1272);
#1272 = AXIS2_PLACEMENT_3D('',#1273,#1274,#1275);
#1273 = CARTESIAN_POINT('',(77.439831883879,80.,2.1));
#1274 = DIRECTION('',(0.,0.,1.));
#1275 = DIRECTION('',(1.,0.,0.));
#1276 = ADVANCED_FACE('',(#1277,#1285),#1288,.T.);
#1277 = FACE_BOUND('',#1278,.T.);
#1278 = EDGE_LOOP('',(#1279,#1280,#1281,#1282,#1283,#1284));
#1279 = ORIENTED_EDGE('',*,*,#1093,.T.);
#1280 = ORIENTED_EDGE('',*,*,#1117,.T.);
#1281 = ORIENTED_EDGE('',*,*,#1141,.T.);
#1282 = ORIENTED_EDGE('',*,*,#1165,.T.);
#1283 = ORIENTED_EDGE('',*,*,#1189,.T.);
#1284 = ORIENTED_EDGE('',*,*,#1213,.T.);
#1285 = FACE_BOUND('',#1286,.T.);
#1286 = EDGE_LOOP('',(#1287));
#1287 = ORIENTED_EDGE('',*,*,#628,.F.);
#1288 = PLANE('',#1289);
#1289 = AXIS2_PLACEMENT_3D('',#1290,#1291,#1292);
#1290 = CARTESIAN_POINT('',(77.439831883879,80.,2.1));
#1291 = DIRECTION('',(0.,0.,1.));
#1292 = DIRECTION('',(1.,0.,0.));
#1293 = ( GEOMETRIC_REPRESENTATION_CONTEXT(3) 
GLOBAL_UNCERTAINTY_ASSIGNED_CONTEXT((#1297)) 
GLOBAL_UNIT_ASSIGNED_CONTEXT((#1294,#1295,#1296)) REPRESENTATION_CONTEXT
('Context #1','3D Context with UNIT and UNCERTAINTY') );
#1294 = ( LENGTH_UNIT() NAMED_UNIT(*) SI_UNIT(.MILLI.,.METRE.) );
#1295 = ( NAMED_UNIT(*) PLANE_ANGLE_UNIT() SI_UNIT($,.RADIAN.) );
#1296 = ( NAMED_UNIT(*) SI_UNIT($,.STERADIAN.) SOLID_ANGLE_UNIT() );
#1297 = UNCERTAINTY_MEASURE_WITH_UNIT(LENGTH_MEASURE(1.E-07),#1294,
  'distance_accuracy_value','confusion accuracy');
#1298 = PRODUCT_RELATED_PRODUCT_CATEGORY('part',$,(#7));
ENDSEC;
END-ISO-10303-21;
