ISO-10303-21;
HEADER;
FILE_DESCRIPTION(('FreeCAD Model'),'2;1');
FILE_NAME('Open CASCADE Shape Model','2026-10-04T00:14:01',('FreeCAD'),(
    'FreeCAD'),'Open CASCADE STEP processor 8.0','FreeCAD','Unknown');
FILE_SCHEMA(('AUTOMOTIVE_DESIGN { 1 0 10303 214 1 1 1 1 }'));
ENDSEC;
DATA;
#1 = APPLICATION_PROTOCOL_DEFINITION('international standard',
  'automotive_design',2000,#2);
#2 = APPLICATION_CONTEXT(
  'core data for automotive mechanical design processes');
#3 = SHAPE_DEFINITION_REPRESENTATION(#4,#10);
#4 = PRODUCT_DEFINITION_SHAPE('','',#5);
#5 = PRODUCT_DEFINITION('design','',#6,#9);
#6 = PRODUCT_DEFINITION_FORMATION('','',#7);
#7 = PRODUCT('Open CASCADE STEP translator 8.0 61',
  'Open CASCADE STEP translator 8.0 61','',(#8));
#8 = PRODUCT_CONTEXT('',#2,'mechanical');
#9 = PRODUCT_DEFINITION_CONTEXT('part definition',#2,'design');
#10 = ADVANCED_BREP_SHAPE_REPRESENTATION('',(#11,#15),#799);
#11 = AXIS2_PLACEMENT_3D('',#12,#13,#14);
#12 = CARTESIAN_POINT('',(0.,0.,0.));
#13 = DIRECTION('',(0.,0.,1.));
#14 = DIRECTION('',(1.,0.,-0.));
#15 = MANIFOLD_SOLID_BREP('',#16);
#16 = CLOSED_SHELL('',(#17,#57,#90,#123,#196,#347,#364,#381,#398,#415,
    #427,#452,#477,#508,#532,#556,#580,#604,#621,#652,#676,#700,#724,
    #748,#765,#782));
#17 = ADVANCED_FACE('',(#18),#52,.F.);
#18 = FACE_BOUND('',#19,.F.);
#19 = EDGE_LOOP('',(#20,#30,#38,#46));
#20 = ORIENTED_EDGE('',*,*,#21,.T.);
#21 = EDGE_CURVE('',#22,#24,#26,.T.);
#22 = VERTEX_POINT('',#23);
#23 = CARTESIAN_POINT('',(71.551451953047,-39.75,0.));
#24 = VERTEX_POINT('',#25);
#25 = CARTESIAN_POINT('',(71.551451953047,-39.75,5.6));
#26 = LINE('',#27,#28);
#27 = CARTESIAN_POINT('',(71.551451953047,-39.75,0.));
#28 = VECTOR('',#29,1.);
#29 = DIRECTION('',(0.,0.,1.));
#30 = ORIENTED_EDGE('',*,*,#31,.T.);
#31 = EDGE_CURVE('',#24,#32,#34,.T.);
#32 = VERTEX_POINT('',#33);
#33 = CARTESIAN_POINT('',(83.328211814711,-39.75,5.6));
#34 = LINE('',#35,#36);
#35 = CARTESIAN_POINT('',(71.551451953047,-39.75,5.6));
#36 = VECTOR('',#37,1.);
#37 = DIRECTION('',(1.,0.,0.));
#38 = ORIENTED_EDGE('',*,*,#39,.F.);
#39 = EDGE_CURVE('',#40,#32,#42,.T.);
#40 = VERTEX_POINT('',#41);
#41 = CARTESIAN_POINT('',(83.328211814711,-39.75,0.));
#42 = LINE('',#43,#44);
#43 = CARTESIAN_POINT('',(83.328211814711,-39.75,0.));
#44 = VECTOR('',#45,1.);
#45 = DIRECTION('',(0.,0.,1.));
#46 = ORIENTED_EDGE('',*,*,#47,.F.);
#47 = EDGE_CURVE('',#22,#40,#48,.T.);
#48 = LINE('',#49,#50);
#49 = CARTESIAN_POINT('',(71.551451953047,-39.75,0.));
#50 = VECTOR('',#51,1.);
#51 = DIRECTION('',(1.,0.,0.));
#52 = PLANE('',#53);
#53 = AXIS2_PLACEMENT_3D('',#54,#55,#56);
#54 = CARTESIAN_POINT('',(71.551451953047,-39.75,0.));
#55 = DIRECTION('',(0.,1.,0.));
#56 = DIRECTION('',(1.,0.,0.));
#57 = ADVANCED_FACE('',(#58),#85,.T.);
#58 = FACE_BOUND('',#59,.F.);
#59 = EDGE_LOOP('',(#60,#70,#77,#78));
#60 = ORIENTED_EDGE('',*,*,#61,.T.);
#61 = EDGE_CURVE('',#62,#64,#66,.T.);
#62 = VERTEX_POINT('',#63);
#63 = CARTESIAN_POINT('',(68.551451953047,-36.75,0.));
#64 = VERTEX_POINT('',#65);
#65 = CARTESIAN_POINT('',(68.551451953047,-36.75,5.6));
#66 = LINE('',#67,#68);
#67 = CARTESIAN_POINT('',(68.551451953047,-36.75,0.));
#68 = VECTOR('',#69,1.);
#69 = DIRECTION('',(0.,0.,1.));
#70 = ORIENTED_EDGE('',*,*,#71,.T.);
#71 = EDGE_CURVE('',#64,#24,#72,.T.);
#72 = CIRCLE('',#73,3.);
#73 = AXIS2_PLACEMENT_3D('',#74,#75,#76);
#74 = CARTESIAN_POINT('',(71.551451953047,-36.75,5.6));
#75 = DIRECTION('',(0.,0.,1.));
#76 = DIRECTION('',(1.,0.,0.));
#77 = ORIENTED_EDGE('',*,*,#21,.F.);
#78 = ORIENTED_EDGE('',*,*,#79,.F.);
#79 = EDGE_CURVE('',#62,#22,#80,.T.);
#80 = CIRCLE('',#81,3.);
#81 = AXIS2_PLACEMENT_3D('',#82,#83,#84);
#82 = CARTESIAN_POINT('',(71.551451953047,-36.75,0.));
#83 = DIRECTION('',(0.,0.,1.));
#84 = DIRECTION('',(1.,0.,0.));
#85 = CYLINDRICAL_SURFACE('',#86,3.);
#86 = AXIS2_PLACEMENT_3D('',#87,#88,#89);
#87 = CARTESIAN_POINT('',(71.551451953047,-36.75,0.));
#88 = DIRECTION('',(-0.,-0.,-1.));
#89 = DIRECTION('',(1.,0.,0.));
#90 = ADVANCED_FACE('',(#91),#118,.T.);
#91 = FACE_BOUND('',#92,.F.);
#92 = EDGE_LOOP('',(#93,#94,#103,#111));
#93 = ORIENTED_EDGE('',*,*,#39,.T.);
#94 = ORIENTED_EDGE('',*,*,#95,.T.);
#95 = EDGE_CURVE('',#32,#96,#98,.T.);
#96 = VERTEX_POINT('',#97);
#97 = CARTESIAN_POINT('',(86.328211814711,-36.75,5.6));
#98 = CIRCLE('',#99,3.);
#99 = AXIS2_PLACEMENT_3D('',#100,#101,#102);
#100 = CARTESIAN_POINT('',(83.328211814711,-36.75,5.6));
#101 = DIRECTION('',(0.,0.,1.));
#102 = DIRECTION('',(1.,0.,0.));
#103 = ORIENTED_EDGE('',*,*,#104,.F.);
#104 = EDGE_CURVE('',#105,#96,#107,.T.);
#105 = VERTEX_POINT('',#106);
#106 = CARTESIAN_POINT('',(86.328211814711,-36.75,0.));
#107 = LINE('',#108,#109);
#108 = CARTESIAN_POINT('',(86.328211814711,-36.75,0.));
#109 = VECTOR('',#110,1.);
#110 = DIRECTION('',(0.,0.,1.));
#111 = ORIENTED_EDGE('',*,*,#112,.F.);
#112 = EDGE_CURVE('',#40,#105,#113,.T.);
#113 = CIRCLE('',#114,3.);
#114 = AXIS2_PLACEMENT_3D('',#115,#116,#117);
#115 = CARTESIAN_POINT('',(83.328211814711,-36.75,0.));
#116 = DIRECTION('',(0.,0.,1.));
#117 = DIRECTION('',(1.,0.,0.));
#118 = CYLINDRICAL_SURFACE('',#119,3.);
#119 = AXIS2_PLACEMENT_3D('',#120,#121,#122);
#120 = CARTESIAN_POINT('',(83.328211814711,-36.75,0.));
#121 = DIRECTION('',(-0.,-0.,-1.));
#122 = DIRECTION('',(1.,0.,0.));
#123 = ADVANCED_FACE('',(#124,#169,#180),#191,.F.);
#124 = FACE_BOUND('',#125,.F.);
#125 = EDGE_LOOP('',(#126,#127,#128,#136,#145,#153,#162,#168));
#126 = ORIENTED_EDGE('',*,*,#47,.T.);
#127 = ORIENTED_EDGE('',*,*,#112,.T.);
#128 = ORIENTED_EDGE('',*,*,#129,.T.);
#129 = EDGE_CURVE('',#105,#130,#132,.T.);
#130 = VERTEX_POINT('',#131);
#131 = CARTESIAN_POINT('',(86.328211814711,116.75,0.));
#132 = LINE('',#133,#134);
#133 = CARTESIAN_POINT('',(86.328211814711,-36.75,0.));
#134 = VECTOR('',#135,1.);
#135 = DIRECTION('',(0.,1.,0.));
#136 = ORIENTED_EDGE('',*,*,#137,.T.);
#137 = EDGE_CURVE('',#130,#138,#140,.T.);
#138 = VERTEX_POINT('',#139);
#139 = CARTESIAN_POINT('',(83.328211814711,119.75,0.));
#140 = CIRCLE('',#141,3.);
#141 = AXIS2_PLACEMENT_3D('',#142,#143,#144);
#142 = CARTESIAN_POINT('',(83.328211814711,116.75,0.));
#143 = DIRECTION('',(0.,0.,1.));
#144 = DIRECTION('',(1.,0.,0.));
#145 = ORIENTED_EDGE('',*,*,#146,.T.);
#146 = EDGE_CURVE('',#138,#147,#149,.T.);
#147 = VERTEX_POINT('',#148);
#148 = CARTESIAN_POINT('',(71.551451953047,119.75,0.));
#149 = LINE('',#150,#151);
#150 = CARTESIAN_POINT('',(83.328211814711,119.75,0.));
#151 = VECTOR('',#152,1.);
#152 = DIRECTION('',(-1.,0.,0.));
#153 = ORIENTED_EDGE('',*,*,#154,.T.);
#154 = EDGE_CURVE('',#147,#155,#157,.T.);
#155 = VERTEX_POINT('',#156);
#156 = CARTESIAN_POINT('',(68.551451953047,116.75,0.));
#157 = CIRCLE('',#158,3.);
#158 = AXIS2_PLACEMENT_3D('',#159,#160,#161);
#159 = CARTESIAN_POINT('',(71.551451953047,116.75,0.));
#160 = DIRECTION('',(0.,0.,1.));
#161 = DIRECTION('',(1.,0.,0.));
#162 = ORIENTED_EDGE('',*,*,#163,.T.);
#163 = EDGE_CURVE('',#155,#62,#164,.T.);
#164 = LINE('',#165,#166);
#165 = CARTESIAN_POINT('',(68.551451953047,116.75,0.));
#166 = VECTOR('',#167,1.);
#167 = DIRECTION('',(0.,-1.,0.));
#168 = ORIENTED_EDGE('',*,*,#79,.T.);
#169 = FACE_BOUND('',#170,.F.);
#170 = EDGE_LOOP('',(#171));
#171 = ORIENTED_EDGE('',*,*,#172,.F.);
#172 = EDGE_CURVE('',#173,#173,#175,.T.);
#173 = VERTEX_POINT('',#174);
#174 = CARTESIAN_POINT('',(79.639831883879,-26.,0.));
#175 = CIRCLE('',#176,2.2);
#176 = AXIS2_PLACEMENT_3D('',#177,#178,#179);
#177 = CARTESIAN_POINT('',(77.439831883879,-26.,0.));
#178 = DIRECTION('',(0.,0.,1.));
#179 = DIRECTION('',(1.,0.,0.));
#180 = FACE_BOUND('',#181,.F.);
#181 = EDGE_LOOP('',(#182));
#182 = ORIENTED_EDGE('',*,*,#183,.F.);
#183 = EDGE_CURVE('',#184,#184,#186,.T.);
#184 = VERTEX_POINT('',#185);
#185 = CARTESIAN_POINT('',(79.639831883879,106.,0.));
#186 = CIRCLE('',#187,2.2);
#187 = AXIS2_PLACEMENT_3D('',#188,#189,#190);
#188 = CARTESIAN_POINT('',(77.439831883879,106.,0.));
#189 = DIRECTION('',(0.,0.,1.));
#190 = DIRECTION('',(1.,0.,0.));
#191 = PLANE('',#192);
#192 = AXIS2_PLACEMENT_3D('',#193,#194,#195);
#193 = CARTESIAN_POINT('',(77.439831883879,40.,0.));
#194 = DIRECTION('',(0.,0.,1.));
#195 = DIRECTION('',(1.,0.,0.));
#196 = ADVANCED_FACE('',(#197,#242,#292),#342,.T.);
#197 = FACE_BOUND('',#198,.T.);
#198 = EDGE_LOOP('',(#199,#200,#201,#209,#218,#226,#235,#241));
#199 = ORIENTED_EDGE('',*,*,#31,.T.);
#200 = ORIENTED_EDGE('',*,*,#95,.T.);
#201 = ORIENTED_EDGE('',*,*,#202,.T.);
#202 = EDGE_CURVE('',#96,#203,#205,.T.);
#203 = VERTEX_POINT('',#204);
#204 = CARTESIAN_POINT('',(86.328211814711,116.75,5.6));
#205 = LINE('',#206,#207);
#206 = CARTESIAN_POINT('',(86.328211814711,-36.75,5.6));
#207 = VECTOR('',#208,1.);
#208 = DIRECTION('',(0.,1.,0.));
#209 = ORIENTED_EDGE('',*,*,#210,.T.);
#210 = EDGE_CURVE('',#203,#211,#213,.T.);
#211 = VERTEX_POINT('',#212);
#212 = CARTESIAN_POINT('',(83.328211814711,119.75,5.6));
#213 = CIRCLE('',#214,3.);
#214 = AXIS2_PLACEMENT_3D('',#215,#216,#217);
#215 = CARTESIAN_POINT('',(83.328211814711,116.75,5.6));
#216 = DIRECTION('',(0.,0.,1.));
#217 = DIRECTION('',(1.,0.,0.));
#218 = ORIENTED_EDGE('',*,*,#219,.T.);
#219 = EDGE_CURVE('',#211,#220,#222,.T.);
#220 = VERTEX_POINT('',#221);
#221 = CARTESIAN_POINT('',(71.551451953047,119.75,5.6));
#222 = LINE('',#223,#224);
#223 = CARTESIAN_POINT('',(83.328211814711,119.75,5.6));
#224 = VECTOR('',#225,1.);
#225 = DIRECTION('',(-1.,0.,0.));
#226 = ORIENTED_EDGE('',*,*,#227,.T.);
#227 = EDGE_CURVE('',#220,#228,#230,.T.);
#228 = VERTEX_POINT('',#229);
#229 = CARTESIAN_POINT('',(68.551451953047,116.75,5.6));
#230 = CIRCLE('',#231,3.);
#231 = AXIS2_PLACEMENT_3D('',#232,#233,#234);
#232 = CARTESIAN_POINT('',(71.551451953047,116.75,5.6));
#233 = DIRECTION('',(0.,0.,1.));
#234 = DIRECTION('',(1.,0.,0.));
#235 = ORIENTED_EDGE('',*,*,#236,.T.);
#236 = EDGE_CURVE('',#228,#64,#237,.T.);
#237 = LINE('',#238,#239);
#238 = CARTESIAN_POINT('',(68.551451953047,116.75,5.6));
#239 = VECTOR('',#240,1.);
#240 = DIRECTION('',(0.,-1.,0.));
#241 = ORIENTED_EDGE('',*,*,#71,.T.);
#242 = FACE_BOUND('',#243,.T.);
#243 = EDGE_LOOP('',(#244,#254,#262,#270,#278,#286));
#244 = ORIENTED_EDGE('',*,*,#245,.F.);
#245 = EDGE_CURVE('',#246,#248,#250,.T.);
#246 = VERTEX_POINT('',#247);
#247 = CARTESIAN_POINT('',(81.089831883879,-23.89267151745,5.6));
#248 = VERTEX_POINT('',#249);
#249 = CARTESIAN_POINT('',(77.439831883879,-21.78534303491,5.6));
#250 = LINE('',#251,#252);
#251 = CARTESIAN_POINT('',(81.089831883879,-23.89267151745,5.6));
#252 = VECTOR('',#253,1.);
#253 = DIRECTION('',(-0.866025403784,0.5,0.));
#254 = ORIENTED_EDGE('',*,*,#255,.F.);
#255 = EDGE_CURVE('',#256,#246,#258,.T.);
#256 = VERTEX_POINT('',#257);
#257 = CARTESIAN_POINT('',(81.089831883879,-28.10732848254,5.6));
#258 = LINE('',#259,#260);
#259 = CARTESIAN_POINT('',(81.089831883879,-28.10732848254,5.6));
#260 = VECTOR('',#261,1.);
#261 = DIRECTION('',(0.,1.,0.));
#262 = ORIENTED_EDGE('',*,*,#263,.F.);
#263 = EDGE_CURVE('',#264,#256,#266,.T.);
#264 = VERTEX_POINT('',#265);
#265 = CARTESIAN_POINT('',(77.439831883879,-30.21465696508,5.6));
#266 = LINE('',#267,#268);
#267 = CARTESIAN_POINT('',(77.439831883879,-30.21465696508,5.6));
#268 = VECTOR('',#269,1.);
#269 = DIRECTION('',(0.866025403784,0.5,0.));
#270 = ORIENTED_EDGE('',*,*,#271,.F.);
#271 = EDGE_CURVE('',#272,#264,#274,.T.);
#272 = VERTEX_POINT('',#273);
#273 = CARTESIAN_POINT('',(73.789831883879,-28.10732848254,5.6));
#274 = LINE('',#275,#276);
#275 = CARTESIAN_POINT('',(73.789831883879,-28.10732848254,5.6));
#276 = VECTOR('',#277,1.);
#277 = DIRECTION('',(0.866025403784,-0.5,0.));
#278 = ORIENTED_EDGE('',*,*,#279,.F.);
#279 = EDGE_CURVE('',#280,#272,#282,.T.);
#280 = VERTEX_POINT('',#281);
#281 = CARTESIAN_POINT('',(73.789831883879,-23.89267151745,5.6));
#282 = LINE('',#283,#284);
#283 = CARTESIAN_POINT('',(73.789831883879,-23.89267151745,5.6));
#284 = VECTOR('',#285,1.);
#285 = DIRECTION('',(1.05367818432E-16,-1.,0.));
#286 = ORIENTED_EDGE('',*,*,#287,.F.);
#287 = EDGE_CURVE('',#248,#280,#288,.T.);
#288 = LINE('',#289,#290);
#289 = CARTESIAN_POINT('',(77.439831883879,-21.78534303491,5.6));
#290 = VECTOR('',#291,1.);
#291 = DIRECTION('',(-0.866025403784,-0.5,0.));
#292 = FACE_BOUND('',#293,.T.);
#293 = EDGE_LOOP('',(#294,#304,#312,#320,#328,#336));
#294 = ORIENTED_EDGE('',*,*,#295,.F.);
#295 = EDGE_CURVE('',#296,#298,#300,.T.);
#296 = VERTEX_POINT('',#297);
#297 = CARTESIAN_POINT('',(81.089831883879,108.10732848254,5.6));
#298 = VERTEX_POINT('',#299);
#299 = CARTESIAN_POINT('',(77.439831883879,110.21465696508,5.6));
#300 = LINE('',#301,#302);
#301 = CARTESIAN_POINT('',(81.089831883879,108.10732848254,5.6));
#302 = VECTOR('',#303,1.);
#303 = DIRECTION('',(-0.866025403784,0.5,0.));
#304 = ORIENTED_EDGE('',*,*,#305,.F.);
#305 = EDGE_CURVE('',#306,#296,#308,.T.);
#306 = VERTEX_POINT('',#307);
#307 = CARTESIAN_POINT('',(81.089831883879,103.89267151745,5.6));
#308 = LINE('',#309,#310);
#309 = CARTESIAN_POINT('',(81.089831883879,103.89267151745,5.6));
#310 = VECTOR('',#311,1.);
#311 = DIRECTION('',(0.,1.,0.));
#312 = ORIENTED_EDGE('',*,*,#313,.F.);
#313 = EDGE_CURVE('',#314,#306,#316,.T.);
#314 = VERTEX_POINT('',#315);
#315 = CARTESIAN_POINT('',(77.439831883879,101.78534303491,5.6));
#316 = LINE('',#317,#318);
#317 = CARTESIAN_POINT('',(77.439831883879,101.78534303491,5.6));
#318 = VECTOR('',#319,1.);
#319 = DIRECTION('',(0.866025403784,0.5,0.));
#320 = ORIENTED_EDGE('',*,*,#321,.F.);
#321 = EDGE_CURVE('',#322,#314,#324,.T.);
#322 = VERTEX_POINT('',#323);
#323 = CARTESIAN_POINT('',(73.789831883879,103.89267151745,5.6));
#324 = LINE('',#325,#326);
#325 = CARTESIAN_POINT('',(73.789831883879,103.89267151745,5.6));
#326 = VECTOR('',#327,1.);
#327 = DIRECTION('',(0.866025403784,-0.5,0.));
#328 = ORIENTED_EDGE('',*,*,#329,.F.);
#329 = EDGE_CURVE('',#330,#322,#332,.T.);
#330 = VERTEX_POINT('',#331);
#331 = CARTESIAN_POINT('',(73.789831883879,108.10732848254,5.6));
#332 = LINE('',#333,#334);
#333 = CARTESIAN_POINT('',(73.789831883879,108.10732848254,5.6));
#334 = VECTOR('',#335,1.);
#335 = DIRECTION('',(1.05367818432E-16,-1.,0.));
#336 = ORIENTED_EDGE('',*,*,#337,.F.);
#337 = EDGE_CURVE('',#298,#330,#338,.T.);
#338 = LINE('',#339,#340);
#339 = CARTESIAN_POINT('',(77.439831883879,110.21465696508,5.6));
#340 = VECTOR('',#341,1.);
#341 = DIRECTION('',(-0.866025403784,-0.5,0.));
#342 = PLANE('',#343);
#343 = AXIS2_PLACEMENT_3D('',#344,#345,#346);
#344 = CARTESIAN_POINT('',(77.439831883879,40.,5.6));
#345 = DIRECTION('',(0.,0.,1.));
#346 = DIRECTION('',(1.,0.,0.));
#347 = ADVANCED_FACE('',(#348),#359,.F.);
#348 = FACE_BOUND('',#349,.F.);
#349 = EDGE_LOOP('',(#350,#356,#357,#358));
#350 = ORIENTED_EDGE('',*,*,#351,.T.);
#351 = EDGE_CURVE('',#155,#228,#352,.T.);
#352 = LINE('',#353,#354);
#353 = CARTESIAN_POINT('',(68.551451953047,116.75,0.));
#354 = VECTOR('',#355,1.);
#355 = DIRECTION('',(0.,0.,1.));
#356 = ORIENTED_EDGE('',*,*,#236,.T.);
#357 = ORIENTED_EDGE('',*,*,#61,.F.);
#358 = ORIENTED_EDGE('',*,*,#163,.F.);
#359 = PLANE('',#360);
#360 = AXIS2_PLACEMENT_3D('',#361,#362,#363);
#361 = CARTESIAN_POINT('',(68.551451953047,116.75,0.));
#362 = DIRECTION('',(1.,0.,0.));
#363 = DIRECTION('',(0.,-1.,0.));
#364 = ADVANCED_FACE('',(#365),#376,.F.);
#365 = FACE_BOUND('',#366,.F.);
#366 = EDGE_LOOP('',(#367,#368,#369,#375));
#367 = ORIENTED_EDGE('',*,*,#104,.T.);
#368 = ORIENTED_EDGE('',*,*,#202,.T.);
#369 = ORIENTED_EDGE('',*,*,#370,.F.);
#370 = EDGE_CURVE('',#130,#203,#371,.T.);
#371 = LINE('',#372,#373);
#372 = CARTESIAN_POINT('',(86.328211814711,116.75,0.));
#373 = VECTOR('',#374,1.);
#374 = DIRECTION('',(0.,0.,1.));
#375 = ORIENTED_EDGE('',*,*,#129,.F.);
#376 = PLANE('',#377);
#377 = AXIS2_PLACEMENT_3D('',#378,#379,#380);
#378 = CARTESIAN_POINT('',(86.328211814711,-36.75,0.));
#379 = DIRECTION('',(-1.,0.,0.));
#380 = DIRECTION('',(0.,1.,0.));
#381 = ADVANCED_FACE('',(#382),#393,.T.);
#382 = FACE_BOUND('',#383,.F.);
#383 = EDGE_LOOP('',(#384,#390,#391,#392));
#384 = ORIENTED_EDGE('',*,*,#385,.T.);
#385 = EDGE_CURVE('',#147,#220,#386,.T.);
#386 = LINE('',#387,#388);
#387 = CARTESIAN_POINT('',(71.551451953047,119.75,0.));
#388 = VECTOR('',#389,1.);
#389 = DIRECTION('',(0.,0.,1.));
#390 = ORIENTED_EDGE('',*,*,#227,.T.);
#391 = ORIENTED_EDGE('',*,*,#351,.F.);
#392 = ORIENTED_EDGE('',*,*,#154,.F.);
#393 = CYLINDRICAL_SURFACE('',#394,3.);
#394 = AXIS2_PLACEMENT_3D('',#395,#396,#397);
#395 = CARTESIAN_POINT('',(71.551451953047,116.75,0.));
#396 = DIRECTION('',(-0.,-0.,-1.));
#397 = DIRECTION('',(1.,0.,0.));
#398 = ADVANCED_FACE('',(#399),#410,.T.);
#399 = FACE_BOUND('',#400,.F.);
#400 = EDGE_LOOP('',(#401,#402,#403,#409));
#401 = ORIENTED_EDGE('',*,*,#370,.T.);
#402 = ORIENTED_EDGE('',*,*,#210,.T.);
#403 = ORIENTED_EDGE('',*,*,#404,.F.);
#404 = EDGE_CURVE('',#138,#211,#405,.T.);
#405 = LINE('',#406,#407);
#406 = CARTESIAN_POINT('',(83.328211814711,119.75,0.));
#407 = VECTOR('',#408,1.);
#408 = DIRECTION('',(0.,0.,1.));
#409 = ORIENTED_EDGE('',*,*,#137,.F.);
#410 = CYLINDRICAL_SURFACE('',#411,3.);
#411 = AXIS2_PLACEMENT_3D('',#412,#413,#414);
#412 = CARTESIAN_POINT('',(83.328211814711,116.75,0.));
#413 = DIRECTION('',(-0.,-0.,-1.));
#414 = DIRECTION('',(1.,0.,0.));
#415 = ADVANCED_FACE('',(#416),#422,.F.);
#416 = FACE_BOUND('',#417,.F.);
#417 = EDGE_LOOP('',(#418,#419,#420,#421));
#418 = ORIENTED_EDGE('',*,*,#404,.T.);
#419 = ORIENTED_EDGE('',*,*,#219,.T.);
#420 = ORIENTED_EDGE('',*,*,#385,.F.);
#421 = ORIENTED_EDGE('',*,*,#146,.F.);
#422 = PLANE('',#423);
#423 = AXIS2_PLACEMENT_3D('',#424,#425,#426);
#424 = CARTESIAN_POINT('',(83.328211814711,119.75,0.));
#425 = DIRECTION('',(0.,-1.,0.));
#426 = DIRECTION('',(-1.,0.,0.));
#427 = ADVANCED_FACE('',(#428),#447,.F.);
#428 = FACE_BOUND('',#429,.F.);
#429 = EDGE_LOOP('',(#430,#439,#445,#446));
#430 = ORIENTED_EDGE('',*,*,#431,.F.);
#431 = EDGE_CURVE('',#432,#432,#434,.T.);
#432 = VERTEX_POINT('',#433);
#433 = CARTESIAN_POINT('',(79.639831883879,-26.,2.1));
#434 = CIRCLE('',#435,2.2);
#435 = AXIS2_PLACEMENT_3D('',#436,#437,#438);
#436 = CARTESIAN_POINT('',(77.439831883879,-26.,2.1));
#437 = DIRECTION('',(0.,0.,1.));
#438 = DIRECTION('',(1.,0.,0.));
#439 = ORIENTED_EDGE('',*,*,#440,.T.);
#440 = EDGE_CURVE('',#432,#173,#441,.T.);
#441 = LINE('',#442,#443);
#442 = CARTESIAN_POINT('',(79.639831883879,-26.,3.));
#443 = VECTOR('',#444,1.);
#444 = DIRECTION('',(-0.,-0.,-1.));
#445 = ORIENTED_EDGE('',*,*,#172,.T.);
#446 = ORIENTED_EDGE('',*,*,#440,.F.);
#447 = CYLINDRICAL_SURFACE('',#448,2.2);
#448 = AXIS2_PLACEMENT_3D('',#449,#450,#451);
#449 = CARTESIAN_POINT('',(77.439831883879,-26.,3.));
#450 = DIRECTION('',(0.,0.,1.));
#451 = DIRECTION('',(1.,0.,0.));
#452 = ADVANCED_FACE('',(#453),#472,.F.);
#453 = FACE_BOUND('',#454,.F.);
#454 = EDGE_LOOP('',(#455,#464,#470,#471));
#455 = ORIENTED_EDGE('',*,*,#456,.F.);
#456 = EDGE_CURVE('',#457,#457,#459,.T.);
#457 = VERTEX_POINT('',#458);
#458 = CARTESIAN_POINT('',(79.639831883879,106.,2.1));
#459 = CIRCLE('',#460,2.2);
#460 = AXIS2_PLACEMENT_3D('',#461,#462,#463);
#461 = CARTESIAN_POINT('',(77.439831883879,106.,2.1));
#462 = DIRECTION('',(0.,0.,1.));
#463 = DIRECTION('',(1.,0.,0.));
#464 = ORIENTED_EDGE('',*,*,#465,.T.);
#465 = EDGE_CURVE('',#457,#184,#466,.T.);
#466 = LINE('',#467,#468);
#467 = CARTESIAN_POINT('',(79.639831883879,106.,3.));
#468 = VECTOR('',#469,1.);
#469 = DIRECTION('',(-0.,-0.,-1.));
#470 = ORIENTED_EDGE('',*,*,#183,.T.);
#471 = ORIENTED_EDGE('',*,*,#465,.F.);
#472 = CYLINDRICAL_SURFACE('',#473,2.2);
#473 = AXIS2_PLACEMENT_3D('',#474,#475,#476);
#474 = CARTESIAN_POINT('',(77.439831883879,106.,3.));
#475 = DIRECTION('',(0.,0.,1.));
#476 = DIRECTION('',(1.,0.,0.));
#477 = ADVANCED_FACE('',(#478),#503,.F.);
#478 = FACE_BOUND('',#479,.F.);
#479 = EDGE_LOOP('',(#480,#488,#496,#502));
#480 = ORIENTED_EDGE('',*,*,#481,.T.);
#481 = EDGE_CURVE('',#246,#482,#484,.T.);
#482 = VERTEX_POINT('',#483);
#483 = CARTESIAN_POINT('',(81.089831883879,-23.89267151745,2.1));
#484 = LINE('',#485,#486);
#485 = CARTESIAN_POINT('',(81.089831883879,-23.89267151745,5.6));
#486 = VECTOR('',#487,1.);
#487 = DIRECTION('',(-0.,-0.,-1.));
#488 = ORIENTED_EDGE('',*,*,#489,.T.);
#489 = EDGE_CURVE('',#482,#490,#492,.T.);
#490 = VERTEX_POINT('',#491);
#491 = CARTESIAN_POINT('',(77.439831883879,-21.78534303491,2.1));
#492 = LINE('',#493,#494);
#493 = CARTESIAN_POINT('',(81.089831883879,-23.89267151745,2.1));
#494 = VECTOR('',#495,1.);
#495 = DIRECTION('',(-0.866025403784,0.5,0.));
#496 = ORIENTED_EDGE('',*,*,#497,.F.);
#497 = EDGE_CURVE('',#248,#490,#498,.T.);
#498 = LINE('',#499,#500);
#499 = CARTESIAN_POINT('',(77.439831883879,-21.78534303491,5.6));
#500 = VECTOR('',#501,1.);
#501 = DIRECTION('',(-0.,-0.,-1.));
#502 = ORIENTED_EDGE('',*,*,#245,.F.);
#503 = PLANE('',#504);
#504 = AXIS2_PLACEMENT_3D('',#505,#506,#507);
#505 = CARTESIAN_POINT('',(81.089831883879,-23.89267151745,5.6));
#506 = DIRECTION('',(0.5,0.866025403784,0.));
#507 = DIRECTION('',(-0.866025403784,0.5,0.));
#508 = ADVANCED_FACE('',(#509),#527,.F.);
#509 = FACE_BOUND('',#510,.F.);
#510 = EDGE_LOOP('',(#511,#512,#520,#526));
#511 = ORIENTED_EDGE('',*,*,#497,.T.);
#512 = ORIENTED_EDGE('',*,*,#513,.T.);
#513 = EDGE_CURVE('',#490,#514,#516,.T.);
#514 = VERTEX_POINT('',#515);
#515 = CARTESIAN_POINT('',(73.789831883879,-23.89267151745,2.1));
#516 = LINE('',#517,#518);
#517 = CARTESIAN_POINT('',(77.439831883879,-21.78534303491,2.1));
#518 = VECTOR('',#519,1.);
#519 = DIRECTION('',(-0.866025403784,-0.5,0.));
#520 = ORIENTED_EDGE('',*,*,#521,.F.);
#521 = EDGE_CURVE('',#280,#514,#522,.T.);
#522 = LINE('',#523,#524);
#523 = CARTESIAN_POINT('',(73.789831883879,-23.89267151745,5.6));
#524 = VECTOR('',#525,1.);
#525 = DIRECTION('',(-0.,-0.,-1.));
#526 = ORIENTED_EDGE('',*,*,#287,.F.);
#527 = PLANE('',#528);
#528 = AXIS2_PLACEMENT_3D('',#529,#530,#531);
#529 = CARTESIAN_POINT('',(77.439831883879,-21.78534303491,5.6));
#530 = DIRECTION('',(-0.5,0.866025403784,0.));
#531 = DIRECTION('',(-0.866025403784,-0.5,0.));
#532 = ADVANCED_FACE('',(#533),#551,.F.);
#533 = FACE_BOUND('',#534,.F.);
#534 = EDGE_LOOP('',(#535,#536,#544,#550));
#535 = ORIENTED_EDGE('',*,*,#521,.T.);
#536 = ORIENTED_EDGE('',*,*,#537,.T.);
#537 = EDGE_CURVE('',#514,#538,#540,.T.);
#538 = VERTEX_POINT('',#539);
#539 = CARTESIAN_POINT('',(73.789831883879,-28.10732848254,2.1));
#540 = LINE('',#541,#542);
#541 = CARTESIAN_POINT('',(73.789831883879,-23.89267151745,2.1));
#542 = VECTOR('',#543,1.);
#543 = DIRECTION('',(1.05367818432E-16,-1.,0.));
#544 = ORIENTED_EDGE('',*,*,#545,.F.);
#545 = EDGE_CURVE('',#272,#538,#546,.T.);
#546 = LINE('',#547,#548);
#547 = CARTESIAN_POINT('',(73.789831883879,-28.10732848254,5.6));
#548 = VECTOR('',#549,1.);
#549 = DIRECTION('',(-0.,-0.,-1.));
#550 = ORIENTED_EDGE('',*,*,#279,.F.);
#551 = PLANE('',#552);
#552 = AXIS2_PLACEMENT_3D('',#553,#554,#555);
#553 = CARTESIAN_POINT('',(73.789831883879,-23.89267151745,5.6));
#554 = DIRECTION('',(-1.,-1.05367818432E-16,0.));
#555 = DIRECTION('',(1.05367818432E-16,-1.,0.));
#556 = ADVANCED_FACE('',(#557),#575,.F.);
#557 = FACE_BOUND('',#558,.F.);
#558 = EDGE_LOOP('',(#559,#560,#568,#574));
#559 = ORIENTED_EDGE('',*,*,#545,.T.);
#560 = ORIENTED_EDGE('',*,*,#561,.T.);
#561 = EDGE_CURVE('',#538,#562,#564,.T.);
#562 = VERTEX_POINT('',#563);
#563 = CARTESIAN_POINT('',(77.439831883879,-30.21465696508,2.1));
#564 = LINE('',#565,#566);
#565 = CARTESIAN_POINT('',(73.789831883879,-28.10732848254,2.1));
#566 = VECTOR('',#567,1.);
#567 = DIRECTION('',(0.866025403784,-0.5,0.));
#568 = ORIENTED_EDGE('',*,*,#569,.F.);
#569 = EDGE_CURVE('',#264,#562,#570,.T.);
#570 = LINE('',#571,#572);
#571 = CARTESIAN_POINT('',(77.439831883879,-30.21465696508,5.6));
#572 = VECTOR('',#573,1.);
#573 = DIRECTION('',(-0.,-0.,-1.));
#574 = ORIENTED_EDGE('',*,*,#271,.F.);
#575 = PLANE('',#576);
#576 = AXIS2_PLACEMENT_3D('',#577,#578,#579);
#577 = CARTESIAN_POINT('',(73.789831883879,-28.10732848254,5.6));
#578 = DIRECTION('',(-0.5,-0.866025403784,0.));
#579 = DIRECTION('',(0.866025403784,-0.5,0.));
#580 = ADVANCED_FACE('',(#581),#599,.F.);
#581 = FACE_BOUND('',#582,.F.);
#582 = EDGE_LOOP('',(#583,#584,#592,#598));
#583 = ORIENTED_EDGE('',*,*,#569,.T.);
#584 = ORIENTED_EDGE('',*,*,#585,.T.);
#585 = EDGE_CURVE('',#562,#586,#588,.T.);
#586 = VERTEX_POINT('',#587);
#587 = CARTESIAN_POINT('',(81.089831883879,-28.10732848254,2.1));
#588 = LINE('',#589,#590);
#589 = CARTESIAN_POINT('',(77.439831883879,-30.21465696508,2.1));
#590 = VECTOR('',#591,1.);
#591 = DIRECTION('',(0.866025403784,0.5,0.));
#592 = ORIENTED_EDGE('',*,*,#593,.F.);
#593 = EDGE_CURVE('',#256,#586,#594,.T.);
#594 = LINE('',#595,#596);
#595 = CARTESIAN_POINT('',(81.089831883879,-28.10732848254,5.6));
#596 = VECTOR('',#597,1.);
#597 = DIRECTION('',(-0.,-0.,-1.));
#598 = ORIENTED_EDGE('',*,*,#263,.F.);
#599 = PLANE('',#600);
#600 = AXIS2_PLACEMENT_3D('',#601,#602,#603);
#601 = CARTESIAN_POINT('',(77.439831883879,-30.21465696508,5.6));
#602 = DIRECTION('',(0.5,-0.866025403784,0.));
#603 = DIRECTION('',(0.866025403784,0.5,0.));
#604 = ADVANCED_FACE('',(#605),#616,.F.);
#605 = FACE_BOUND('',#606,.F.);
#606 = EDGE_LOOP('',(#607,#608,#614,#615));
#607 = ORIENTED_EDGE('',*,*,#593,.T.);
#608 = ORIENTED_EDGE('',*,*,#609,.T.);
#609 = EDGE_CURVE('',#586,#482,#610,.T.);
#610 = LINE('',#611,#612);
#611 = CARTESIAN_POINT('',(81.089831883879,-28.10732848254,2.1));
#612 = VECTOR('',#613,1.);
#613 = DIRECTION('',(0.,1.,0.));
#614 = ORIENTED_EDGE('',*,*,#481,.F.);
#615 = ORIENTED_EDGE('',*,*,#255,.F.);
#616 = PLANE('',#617);
#617 = AXIS2_PLACEMENT_3D('',#618,#619,#620);
#618 = CARTESIAN_POINT('',(81.089831883879,-28.10732848254,5.6));
#619 = DIRECTION('',(1.,0.,0.));
#620 = DIRECTION('',(0.,1.,0.));
#621 = ADVANCED_FACE('',(#622),#647,.F.);
#622 = FACE_BOUND('',#623,.F.);
#623 = EDGE_LOOP('',(#624,#632,#640,#646));
#624 = ORIENTED_EDGE('',*,*,#625,.T.);
#625 = EDGE_CURVE('',#296,#626,#628,.T.);
#626 = VERTEX_POINT('',#627);
#627 = CARTESIAN_POINT('',(81.089831883879,108.10732848254,2.1));
#628 = LINE('',#629,#630);
#629 = CARTESIAN_POINT('',(81.089831883879,108.10732848254,5.6));
#630 = VECTOR('',#631,1.);
#631 = DIRECTION('',(-0.,-0.,-1.));
#632 = ORIENTED_EDGE('',*,*,#633,.T.);
#633 = EDGE_CURVE('',#626,#634,#636,.T.);
#634 = VERTEX_POINT('',#635);
#635 = CARTESIAN_POINT('',(77.439831883879,110.21465696508,2.1));
#636 = LINE('',#637,#638);
#637 = CARTESIAN_POINT('',(81.089831883879,108.10732848254,2.1));
#638 = VECTOR('',#639,1.);
#639 = DIRECTION('',(-0.866025403784,0.5,0.));
#640 = ORIENTED_EDGE('',*,*,#641,.F.);
#641 = EDGE_CURVE('',#298,#634,#642,.T.);
#642 = LINE('',#643,#644);
#643 = CARTESIAN_POINT('',(77.439831883879,110.21465696508,5.6));
#644 = VECTOR('',#645,1.);
#645 = DIRECTION('',(-0.,-0.,-1.));
#646 = ORIENTED_EDGE('',*,*,#295,.F.);
#647 = PLANE('',#648);
#648 = AXIS2_PLACEMENT_3D('',#649,#650,#651);
#649 = CARTESIAN_POINT('',(81.089831883879,108.10732848254,5.6));
#650 = DIRECTION('',(0.5,0.866025403784,0.));
#651 = DIRECTION('',(-0.866025403784,0.5,0.));
#652 = ADVANCED_FACE('',(#653),#671,.F.);
#653 = FACE_BOUND('',#654,.F.);
#654 = EDGE_LOOP('',(#655,#656,#664,#670));
#655 = ORIENTED_EDGE('',*,*,#641,.T.);
#656 = ORIENTED_EDGE('',*,*,#657,.T.);
#657 = EDGE_CURVE('',#634,#658,#660,.T.);
#658 = VERTEX_POINT('',#659);
#659 = CARTESIAN_POINT('',(73.789831883879,108.10732848254,2.1));
#660 = LINE('',#661,#662);
#661 = CARTESIAN_POINT('',(77.439831883879,110.21465696508,2.1));
#662 = VECTOR('',#663,1.);
#663 = DIRECTION('',(-0.866025403784,-0.5,0.));
#664 = ORIENTED_EDGE('',*,*,#665,.F.);
#665 = EDGE_CURVE('',#330,#658,#666,.T.);
#666 = LINE('',#667,#668);
#667 = CARTESIAN_POINT('',(73.789831883879,108.10732848254,5.6));
#668 = VECTOR('',#669,1.);
#669 = DIRECTION('',(-0.,-0.,-1.));
#670 = ORIENTED_EDGE('',*,*,#337,.F.);
#671 = PLANE('',#672);
#672 = AXIS2_PLACEMENT_3D('',#673,#674,#675);
#673 = CARTESIAN_POINT('',(77.439831883879,110.21465696508,5.6));
#674 = DIRECTION('',(-0.5,0.866025403784,0.));
#675 = DIRECTION('',(-0.866025403784,-0.5,0.));
#676 = ADVANCED_FACE('',(#677),#695,.F.);
#677 = FACE_BOUND('',#678,.F.);
#678 = EDGE_LOOP('',(#679,#680,#688,#694));
#679 = ORIENTED_EDGE('',*,*,#665,.T.);
#680 = ORIENTED_EDGE('',*,*,#681,.T.);
#681 = EDGE_CURVE('',#658,#682,#684,.T.);
#682 = VERTEX_POINT('',#683);
#683 = CARTESIAN_POINT('',(73.789831883879,103.89267151745,2.1));
#684 = LINE('',#685,#686);
#685 = CARTESIAN_POINT('',(73.789831883879,108.10732848254,2.1));
#686 = VECTOR('',#687,1.);
#687 = DIRECTION('',(1.05367818432E-16,-1.,0.));
#688 = ORIENTED_EDGE('',*,*,#689,.F.);
#689 = EDGE_CURVE('',#322,#682,#690,.T.);
#690 = LINE('',#691,#692);
#691 = CARTESIAN_POINT('',(73.789831883879,103.89267151745,5.6));
#692 = VECTOR('',#693,1.);
#693 = DIRECTION('',(-0.,-0.,-1.));
#694 = ORIENTED_EDGE('',*,*,#329,.F.);
#695 = PLANE('',#696);
#696 = AXIS2_PLACEMENT_3D('',#697,#698,#699);
#697 = CARTESIAN_POINT('',(73.789831883879,108.10732848254,5.6));
#698 = DIRECTION('',(-1.,-1.05367818432E-16,0.));
#699 = DIRECTION('',(1.05367818432E-16,-1.,0.));
#700 = ADVANCED_FACE('',(#701),#719,.F.);
#701 = FACE_BOUND('',#702,.F.);
#702 = EDGE_LOOP('',(#703,#704,#712,#718));
#703 = ORIENTED_EDGE('',*,*,#689,.T.);
#704 = ORIENTED_EDGE('',*,*,#705,.T.);
#705 = EDGE_CURVE('',#682,#706,#708,.T.);
#706 = VERTEX_POINT('',#707);
#707 = CARTESIAN_POINT('',(77.439831883879,101.78534303491,2.1));
#708 = LINE('',#709,#710);
#709 = CARTESIAN_POINT('',(73.789831883879,103.89267151745,2.1));
#710 = VECTOR('',#711,1.);
#711 = DIRECTION('',(0.866025403784,-0.5,0.));
#712 = ORIENTED_EDGE('',*,*,#713,.F.);
#713 = EDGE_CURVE('',#314,#706,#714,.T.);
#714 = LINE('',#715,#716);
#715 = CARTESIAN_POINT('',(77.439831883879,101.78534303491,5.6));
#716 = VECTOR('',#717,1.);
#717 = DIRECTION('',(-0.,-0.,-1.));
#718 = ORIENTED_EDGE('',*,*,#321,.F.);
#719 = PLANE('',#720);
#720 = AXIS2_PLACEMENT_3D('',#721,#722,#723);
#721 = CARTESIAN_POINT('',(73.789831883879,103.89267151745,5.6));
#722 = DIRECTION('',(-0.5,-0.866025403784,0.));
#723 = DIRECTION('',(0.866025403784,-0.5,0.));
#724 = ADVANCED_FACE('',(#725),#743,.F.);
#725 = FACE_BOUND('',#726,.F.);
#726 = EDGE_LOOP('',(#727,#728,#736,#742));
#727 = ORIENTED_EDGE('',*,*,#713,.T.);
#728 = ORIENTED_EDGE('',*,*,#729,.T.);
#729 = EDGE_CURVE('',#706,#730,#732,.T.);
#730 = VERTEX_POINT('',#731);
#731 = CARTESIAN_POINT('',(81.089831883879,103.89267151745,2.1));
#732 = LINE('',#733,#734);
#733 = CARTESIAN_POINT('',(77.439831883879,101.78534303491,2.1));
#734 = VECTOR('',#735,1.);
#735 = DIRECTION('',(0.866025403784,0.5,0.));
#736 = ORIENTED_EDGE('',*,*,#737,.F.);
#737 = EDGE_CURVE('',#306,#730,#738,.T.);
#738 = LINE('',#739,#740);
#739 = CARTESIAN_POINT('',(81.089831883879,103.89267151745,5.6));
#740 = VECTOR('',#741,1.);
#741 = DIRECTION('',(-0.,-0.,-1.));
#742 = ORIENTED_EDGE('',*,*,#313,.F.);
#743 = PLANE('',#744);
#744 = AXIS2_PLACEMENT_3D('',#745,#746,#747);
#745 = CARTESIAN_POINT('',(77.439831883879,101.78534303491,5.6));
#746 = DIRECTION('',(0.5,-0.866025403784,0.));
#747 = DIRECTION('',(0.866025403784,0.5,0.));
#748 = ADVANCED_FACE('',(#749),#760,.F.);
#749 = FACE_BOUND('',#750,.F.);
#750 = EDGE_LOOP('',(#751,#752,#758,#759));
#751 = ORIENTED_EDGE('',*,*,#737,.T.);
#752 = ORIENTED_EDGE('',*,*,#753,.T.);
#753 = EDGE_CURVE('',#730,#626,#754,.T.);
#754 = LINE('',#755,#756);
#755 = CARTESIAN_POINT('',(81.089831883879,103.89267151745,2.1));
#756 = VECTOR('',#757,1.);
#757 = DIRECTION('',(0.,1.,0.));
#758 = ORIENTED_EDGE('',*,*,#625,.F.);
#759 = ORIENTED_EDGE('',*,*,#305,.F.);
#760 = PLANE('',#761);
#761 = AXIS2_PLACEMENT_3D('',#762,#763,#764);
#762 = CARTESIAN_POINT('',(81.089831883879,103.89267151745,5.6));
#763 = DIRECTION('',(1.,0.,0.));
#764 = DIRECTION('',(0.,1.,0.));
#765 = ADVANCED_FACE('',(#766,#774),#777,.T.);
#766 = FACE_BOUND('',#767,.T.);
#767 = EDGE_LOOP('',(#768,#769,#770,#771,#772,#773));
#768 = ORIENTED_EDGE('',*,*,#489,.T.);
#769 = ORIENTED_EDGE('',*,*,#513,.T.);
#770 = ORIENTED_EDGE('',*,*,#537,.T.);
#771 = ORIENTED_EDGE('',*,*,#561,.T.);
#772 = ORIENTED_EDGE('',*,*,#585,.T.);
#773 = ORIENTED_EDGE('',*,*,#609,.T.);
#774 = FACE_BOUND('',#775,.T.);
#775 = EDGE_LOOP('',(#776));
#776 = ORIENTED_EDGE('',*,*,#431,.F.);
#777 = PLANE('',#778);
#778 = AXIS2_PLACEMENT_3D('',#779,#780,#781);
#779 = CARTESIAN_POINT('',(77.439831883879,40.,2.1));
#780 = DIRECTION('',(0.,0.,1.));
#781 = DIRECTION('',(1.,0.,0.));
#782 = ADVANCED_FACE('',(#783,#791),#794,.T.);
#783 = FACE_BOUND('',#784,.T.);
#784 = EDGE_LOOP('',(#785,#786,#787,#788,#789,#790));
#785 = ORIENTED_EDGE('',*,*,#633,.T.);
#786 = ORIENTED_EDGE('',*,*,#657,.T.);
#787 = ORIENTED_EDGE('',*,*,#681,.T.);
#788 = ORIENTED_EDGE('',*,*,#705,.T.);
#789 = ORIENTED_EDGE('',*,*,#729,.T.);
#790 = ORIENTED_EDGE('',*,*,#753,.T.);
#791 = FACE_BOUND('',#792,.T.);
#792 = EDGE_LOOP('',(#793));
#793 = ORIENTED_EDGE('',*,*,#456,.F.);
#794 = PLANE('',#795);
#795 = AXIS2_PLACEMENT_3D('',#796,#797,#798);
#796 = CARTESIAN_POINT('',(77.439831883879,40.,2.1));
#797 = DIRECTION('',(0.,0.,1.));
#798 = DIRECTION('',(1.,0.,0.));
#799 = ( GEOMETRIC_REPRESENTATION_CONTEXT(3) 
GLOBAL_UNCERTAINTY_ASSIGNED_CONTEXT((#803)) GLOBAL_UNIT_ASSIGNED_CONTEXT
((#800,#801,#802)) REPRESENTATION_CONTEXT('Context #1',
  '3D Context with UNIT and UNCERTAINTY') );
#800 = ( LENGTH_UNIT() NAMED_UNIT(*) SI_UNIT(.MILLI.,.METRE.) );
#801 = ( NAMED_UNIT(*) PLANE_ANGLE_UNIT() SI_UNIT($,.RADIAN.) );
#802 = ( NAMED_UNIT(*) SI_UNIT($,.STERADIAN.) SOLID_ANGLE_UNIT() );
#803 = UNCERTAINTY_MEASURE_WITH_UNIT(LENGTH_MEASURE(1.E-07),#800,
  'distance_accuracy_value','confusion accuracy');
#804 = PRODUCT_RELATED_PRODUCT_CATEGORY('part',$,(#7));
ENDSEC;
END-ISO-10303-21;
