ISO-10303-21;
HEADER;
FILE_DESCRIPTION(('FreeCAD Model'),'2;1');
FILE_NAME('Open CASCADE Shape Model','2026-10-04T00:14:01',('FreeCAD'),(
    'FreeCAD'),'Open CASCADE STEP processor 8.0','FreeCAD','Unknown');
FILE_SCHEMA(('AUTOMOTIVE_DESIGN { 1 0 10303 214 1 1 1 1 }'));
ENDSEC;
DATA;
#1 = APPLICATION_PROTOCOL_DEFINITION('international standard',
  'automotive_design',2000,#2);
#2 = APPLICATION_CONTEXT(
  'core data for automotive mechanical design processes');
#3 = SHAPE_DEFINITION_REPRESENTATION(#4,#10);
#4 = PRODUCT_DEFINITION_SHAPE('','',#5);
#5 = PRODUCT_DEFINITION('design','',#6,#9);
#6 = PRODUCT_DEFINITION_FORMATION('','',#7);
#7 = PRODUCT('Open CASCADE STEP translator 8.0 63',
  'Open CASCADE STEP translator 8.0 63','',(#8));
#8 = PRODUCT_CONTEXT('',#2,'mechanical');
#9 = PRODUCT_DEFINITION_CONTEXT('part definition',#2,'design');
#10 = ADVANCED_BREP_SHAPE_REPRESENTATION('',(#11,#15),#1787);
#11 = AXIS2_PLACEMENT_3D('',#12,#13,#14);
#12 = CARTESIAN_POINT('',(0.,0.,0.));
#13 = DIRECTION('',(0.,0.,1.));
#14 = DIRECTION('',(1.,0.,-0.));
#15 = MANIFOLD_SOLID_BREP('',#16);
#16 = CLOSED_SHELL('',(#17,#57,#90,#123,#240,#591,#608,#625,#642,#659,
    #671,#696,#721,#746,#771,#796,#821,#852,#876,#900,#924,#948,#965,
    #996,#1020,#1044,#1068,#1092,#1109,#1140,#1164,#1188,#1212,#1236,
    #1253,#1284,#1308,#1332,#1356,#1380,#1397,#1428,#1452,#1476,#1500,
    #1524,#1541,#1572,#1596,#1620,#1644,#1668,#1685,#1702,#1719,#1736,
    #1753,#1770));
#17 = ADVANCED_FACE('',(#18),#52,.F.);
#18 = FACE_BOUND('',#19,.F.);
#19 = EDGE_LOOP('',(#20,#30,#38,#46));
#20 = ORIENTED_EDGE('',*,*,#21,.T.);
#21 = EDGE_CURVE('',#22,#24,#26,.T.);
#22 = VERTEX_POINT('',#23);
#23 = CARTESIAN_POINT('',(71.551451953047,-39.75,0.));
#24 = VERTEX_POINT('',#25);
#25 = CARTESIAN_POINT('',(71.551451953047,-39.75,5.6));
#26 = LINE('',#27,#28);
#27 = CARTESIAN_POINT('',(71.551451953047,-39.75,0.));
#28 = VECTOR('',#29,1.);
#29 = DIRECTION('',(0.,0.,1.));
#30 = ORIENTED_EDGE('',*,*,#31,.T.);
#31 = EDGE_CURVE('',#24,#32,#34,.T.);
#32 = VERTEX_POINT('',#33);
#33 = CARTESIAN_POINT('',(83.328211814711,-39.75,5.6));
#34 = LINE('',#35,#36);
#35 = CARTESIAN_POINT('',(71.551451953047,-39.75,5.6));
#36 = VECTOR('',#37,1.);
#37 = DIRECTION('',(1.,0.,0.));
#38 = ORIENTED_EDGE('',*,*,#39,.F.);
#39 = EDGE_CURVE('',#40,#32,#42,.T.);
#40 = VERTEX_POINT('',#41);
#41 = CARTESIAN_POINT('',(83.328211814711,-39.75,0.));
#42 = LINE('',#43,#44);
#43 = CARTESIAN_POINT('',(83.328211814711,-39.75,0.));
#44 = VECTOR('',#45,1.);
#45 = DIRECTION('',(0.,0.,1.));
#46 = ORIENTED_EDGE('',*,*,#47,.F.);
#47 = EDGE_CURVE('',#22,#40,#48,.T.);
#48 = LINE('',#49,#50);
#49 = CARTESIAN_POINT('',(71.551451953047,-39.75,0.));
#50 = VECTOR('',#51,1.);
#51 = DIRECTION('',(1.,0.,0.));
#52 = PLANE('',#53);
#53 = AXIS2_PLACEMENT_3D('',#54,#55,#56);
#54 = CARTESIAN_POINT('',(71.551451953047,-39.75,0.));
#55 = DIRECTION('',(0.,1.,0.));
#56 = DIRECTION('',(1.,0.,0.));
#57 = ADVANCED_FACE('',(#58),#85,.T.);
#58 = FACE_BOUND('',#59,.F.);
#59 = EDGE_LOOP('',(#60,#70,#77,#78));
#60 = ORIENTED_EDGE('',*,*,#61,.T.);
#61 = EDGE_CURVE('',#62,#64,#66,.T.);
#62 = VERTEX_POINT('',#63);
#63 = CARTESIAN_POINT('',(68.551451953047,-36.75,0.));
#64 = VERTEX_POINT('',#65);
#65 = CARTESIAN_POINT('',(68.551451953047,-36.75,5.6));
#66 = LINE('',#67,#68);
#67 = CARTESIAN_POINT('',(68.551451953047,-36.75,0.));
#68 = VECTOR('',#69,1.);
#69 = DIRECTION('',(0.,0.,1.));
#70 = ORIENTED_EDGE('',*,*,#71,.T.);
#71 = EDGE_CURVE('',#64,#24,#72,.T.);
#72 = CIRCLE('',#73,3.);
#73 = AXIS2_PLACEMENT_3D('',#74,#75,#76);
#74 = CARTESIAN_POINT('',(71.551451953047,-36.75,5.6));
#75 = DIRECTION('',(0.,0.,1.));
#76 = DIRECTION('',(1.,0.,0.));
#77 = ORIENTED_EDGE('',*,*,#21,.F.);
#78 = ORIENTED_EDGE('',*,*,#79,.F.);
#79 = EDGE_CURVE('',#62,#22,#80,.T.);
#80 = CIRCLE('',#81,3.);
#81 = AXIS2_PLACEMENT_3D('',#82,#83,#84);
#82 = CARTESIAN_POINT('',(71.551451953047,-36.75,0.));
#83 = DIRECTION('',(0.,0.,1.));
#84 = DIRECTION('',(1.,0.,0.));
#85 = CYLINDRICAL_SURFACE('',#86,3.);
#86 = AXIS2_PLACEMENT_3D('',#87,#88,#89);
#87 = CARTESIAN_POINT('',(71.551451953047,-36.75,0.));
#88 = DIRECTION('',(-0.,-0.,-1.));
#89 = DIRECTION('',(1.,0.,0.));
#90 = ADVANCED_FACE('',(#91),#118,.T.);
#91 = FACE_BOUND('',#92,.F.);
#92 = EDGE_LOOP('',(#93,#94,#103,#111));
#93 = ORIENTED_EDGE('',*,*,#39,.T.);
#94 = ORIENTED_EDGE('',*,*,#95,.T.);
#95 = EDGE_CURVE('',#32,#96,#98,.T.);
#96 = VERTEX_POINT('',#97);
#97 = CARTESIAN_POINT('',(86.328211814711,-36.75,5.6));
#98 = CIRCLE('',#99,3.);
#99 = AXIS2_PLACEMENT_3D('',#100,#101,#102);
#100 = CARTESIAN_POINT('',(83.328211814711,-36.75,5.6));
#101 = DIRECTION('',(0.,0.,1.));
#102 = DIRECTION('',(1.,0.,0.));
#103 = ORIENTED_EDGE('',*,*,#104,.F.);
#104 = EDGE_CURVE('',#105,#96,#107,.T.);
#105 = VERTEX_POINT('',#106);
#106 = CARTESIAN_POINT('',(86.328211814711,-36.75,0.));
#107 = LINE('',#108,#109);
#108 = CARTESIAN_POINT('',(86.328211814711,-36.75,0.));
#109 = VECTOR('',#110,1.);
#110 = DIRECTION('',(0.,0.,1.));
#111 = ORIENTED_EDGE('',*,*,#112,.F.);
#112 = EDGE_CURVE('',#40,#105,#113,.T.);
#113 = CIRCLE('',#114,3.);
#114 = AXIS2_PLACEMENT_3D('',#115,#116,#117);
#115 = CARTESIAN_POINT('',(83.328211814711,-36.75,0.));
#116 = DIRECTION('',(0.,0.,1.));
#117 = DIRECTION('',(1.,0.,0.));
#118 = CYLINDRICAL_SURFACE('',#119,3.);
#119 = AXIS2_PLACEMENT_3D('',#120,#121,#122);
#120 = CARTESIAN_POINT('',(83.328211814711,-36.75,0.));
#121 = DIRECTION('',(-0.,-0.,-1.));
#122 = DIRECTION('',(1.,0.,0.));
#123 = ADVANCED_FACE('',(#124,#169,#180,#191,#202,#213,#224),#235,.F.);
#124 = FACE_BOUND('',#125,.F.);
#125 = EDGE_LOOP('',(#126,#127,#128,#136,#145,#153,#162,#168));
#126 = ORIENTED_EDGE('',*,*,#47,.T.);
#127 = ORIENTED_EDGE('',*,*,#112,.T.);
#128 = ORIENTED_EDGE('',*,*,#129,.T.);
#129 = EDGE_CURVE('',#105,#130,#132,.T.);
#130 = VERTEX_POINT('',#131);
#131 = CARTESIAN_POINT('',(86.328211814711,276.75,0.));
#132 = LINE('',#133,#134);
#133 = CARTESIAN_POINT('',(86.328211814711,-36.75,0.));
#134 = VECTOR('',#135,1.);
#135 = DIRECTION('',(0.,1.,0.));
#136 = ORIENTED_EDGE('',*,*,#137,.T.);
#137 = EDGE_CURVE('',#130,#138,#140,.T.);
#138 = VERTEX_POINT('',#139);
#139 = CARTESIAN_POINT('',(83.328211814711,279.75,0.));
#140 = CIRCLE('',#141,3.);
#141 = AXIS2_PLACEMENT_3D('',#142,#143,#144);
#142 = CARTESIAN_POINT('',(83.328211814711,276.75,0.));
#143 = DIRECTION('',(0.,0.,1.));
#144 = DIRECTION('',(1.,0.,0.));
#145 = ORIENTED_EDGE('',*,*,#146,.T.);
#146 = EDGE_CURVE('',#138,#147,#149,.T.);
#147 = VERTEX_POINT('',#148);
#148 = CARTESIAN_POINT('',(71.551451953047,279.75,0.));
#149 = LINE('',#150,#151);
#150 = CARTESIAN_POINT('',(83.328211814711,279.75,0.));
#151 = VECTOR('',#152,1.);
#152 = DIRECTION('',(-1.,0.,0.));
#153 = ORIENTED_EDGE('',*,*,#154,.T.);
#154 = EDGE_CURVE('',#147,#155,#157,.T.);
#155 = VERTEX_POINT('',#156);
#156 = CARTESIAN_POINT('',(68.551451953047,276.75,0.));
#157 = CIRCLE('',#158,3.);
#158 = AXIS2_PLACEMENT_3D('',#159,#160,#161);
#159 = CARTESIAN_POINT('',(71.551451953047,276.75,0.));
#160 = DIRECTION('',(0.,0.,1.));
#161 = DIRECTION('',(1.,0.,0.));
#162 = ORIENTED_EDGE('',*,*,#163,.T.);
#163 = EDGE_CURVE('',#155,#62,#164,.T.);
#164 = LINE('',#165,#166);
#165 = CARTESIAN_POINT('',(68.551451953047,276.75,0.));
#166 = VECTOR('',#167,1.);
#167 = DIRECTION('',(0.,-1.,0.));
#168 = ORIENTED_EDGE('',*,*,#79,.T.);
#169 = FACE_BOUND('',#170,.F.);
#170 = EDGE_LOOP('',(#171));
#171 = ORIENTED_EDGE('',*,*,#172,.F.);
#172 = EDGE_CURVE('',#173,#173,#175,.T.);
#173 = VERTEX_POINT('',#174);
#174 = CARTESIAN_POINT('',(79.639831883879,-26.,0.));
#175 = CIRCLE('',#176,2.2);
#176 = AXIS2_PLACEMENT_3D('',#177,#178,#179);
#177 = CARTESIAN_POINT('',(77.439831883879,-26.,0.));
#178 = DIRECTION('',(0.,0.,1.));
#179 = DIRECTION('',(1.,0.,0.));
#180 = FACE_BOUND('',#181,.F.);
#181 = EDGE_LOOP('',(#182));
#182 = ORIENTED_EDGE('',*,*,#183,.F.);
#183 = EDGE_CURVE('',#184,#184,#186,.T.);
#184 = VERTEX_POINT('',#185);
#185 = CARTESIAN_POINT('',(79.639831883879,54.,0.));
#186 = CIRCLE('',#187,2.2);
#187 = AXIS2_PLACEMENT_3D('',#188,#189,#190);
#188 = CARTESIAN_POINT('',(77.439831883879,54.,0.));
#189 = DIRECTION('',(0.,0.,1.));
#190 = DIRECTION('',(1.,0.,0.));
#191 = FACE_BOUND('',#192,.F.);
#192 = EDGE_LOOP('',(#193));
#193 = ORIENTED_EDGE('',*,*,#194,.F.);
#194 = EDGE_CURVE('',#195,#195,#197,.T.);
#195 = VERTEX_POINT('',#196);
#196 = CARTESIAN_POINT('',(79.639831883879,106.,0.));
#197 = CIRCLE('',#198,2.2);
#198 = AXIS2_PLACEMENT_3D('',#199,#200,#201);
#199 = CARTESIAN_POINT('',(77.439831883879,106.,0.));
#200 = DIRECTION('',(0.,0.,1.));
#201 = DIRECTION('',(1.,0.,0.));
#202 = FACE_BOUND('',#203,.F.);
#203 = EDGE_LOOP('',(#204));
#204 = ORIENTED_EDGE('',*,*,#205,.F.);
#205 = EDGE_CURVE('',#206,#206,#208,.T.);
#206 = VERTEX_POINT('',#207);
#207 = CARTESIAN_POINT('',(79.639831883879,134.,0.));
#208 = CIRCLE('',#209,2.2);
#209 = AXIS2_PLACEMENT_3D('',#210,#211,#212);
#210 = CARTESIAN_POINT('',(77.439831883879,134.,0.));
#211 = DIRECTION('',(0.,0.,1.));
#212 = DIRECTION('',(1.,0.,0.));
#213 = FACE_BOUND('',#214,.F.);
#214 = EDGE_LOOP('',(#215));
#215 = ORIENTED_EDGE('',*,*,#216,.F.);
#216 = EDGE_CURVE('',#217,#217,#219,.T.);
#217 = VERTEX_POINT('',#218);
#218 = CARTESIAN_POINT('',(79.639831883879,186.,0.));
#219 = CIRCLE('',#220,2.2);
#220 = AXIS2_PLACEMENT_3D('',#221,#222,#223);
#221 = CARTESIAN_POINT('',(77.439831883879,186.,0.));
#222 = DIRECTION('',(0.,0.,1.));
#223 = DIRECTION('',(1.,0.,0.));
#224 = FACE_BOUND('',#225,.F.);
#225 = EDGE_LOOP('',(#226));
#226 = ORIENTED_EDGE('',*,*,#227,.F.);
#227 = EDGE_CURVE('',#228,#228,#230,.T.);
#228 = VERTEX_POINT('',#229);
#229 = CARTESIAN_POINT('',(79.639831883879,266.,0.));
#230 = CIRCLE('',#231,2.2);
#231 = AXIS2_PLACEMENT_3D('',#232,#233,#234);
#232 = CARTESIAN_POINT('',(77.439831883879,266.,0.));
#233 = DIRECTION('',(0.,0.,1.));
#234 = DIRECTION('',(1.,0.,0.));
#235 = PLANE('',#236);
#236 = AXIS2_PLACEMENT_3D('',#237,#238,#239);
#237 = CARTESIAN_POINT('',(77.439831883879,120.,0.));
#238 = DIRECTION('',(0.,0.,1.));
#239 = DIRECTION('',(1.,0.,0.));
#240 = ADVANCED_FACE('',(#241,#286,#336,#386,#436,#486,#536),#586,.T.);
#241 = FACE_BOUND('',#242,.T.);
#242 = EDGE_LOOP('',(#243,#244,#245,#253,#262,#270,#279,#285));
#243 = ORIENTED_EDGE('',*,*,#31,.T.);
#244 = ORIENTED_EDGE('',*,*,#95,.T.);
#245 = ORIENTED_EDGE('',*,*,#246,.T.);
#246 = EDGE_CURVE('',#96,#247,#249,.T.);
#247 = VERTEX_POINT('',#248);
#248 = CARTESIAN_POINT('',(86.328211814711,276.75,5.6));
#249 = LINE('',#250,#251);
#250 = CARTESIAN_POINT('',(86.328211814711,-36.75,5.6));
#251 = VECTOR('',#252,1.);
#252 = DIRECTION('',(0.,1.,0.));
#253 = ORIENTED_EDGE('',*,*,#254,.T.);
#254 = EDGE_CURVE('',#247,#255,#257,.T.);
#255 = VERTEX_POINT('',#256);
#256 = CARTESIAN_POINT('',(83.328211814711,279.75,5.6));
#257 = CIRCLE('',#258,3.);
#258 = AXIS2_PLACEMENT_3D('',#259,#260,#261);
#259 = CARTESIAN_POINT('',(83.328211814711,276.75,5.6));
#260 = DIRECTION('',(0.,0.,1.));
#261 = DIRECTION('',(1.,0.,0.));
#262 = ORIENTED_EDGE('',*,*,#263,.T.);
#263 = EDGE_CURVE('',#255,#264,#266,.T.);
#264 = VERTEX_POINT('',#265);
#265 = CARTESIAN_POINT('',(71.551451953047,279.75,5.6));
#266 = LINE('',#267,#268);
#267 = CARTESIAN_POINT('',(83.328211814711,279.75,5.6));
#268 = VECTOR('',#269,1.);
#269 = DIRECTION('',(-1.,0.,0.));
#270 = ORIENTED_EDGE('',*,*,#271,.T.);
#271 = EDGE_CURVE('',#264,#272,#274,.T.);
#272 = VERTEX_POINT('',#273);
#273 = CARTESIAN_POINT('',(68.551451953047,276.75,5.6));
#274 = CIRCLE('',#275,3.);
#275 = AXIS2_PLACEMENT_3D('',#276,#277,#278);
#276 = CARTESIAN_POINT('',(71.551451953047,276.75,5.6));
#277 = DIRECTION('',(0.,0.,1.));
#278 = DIRECTION('',(1.,0.,0.));
#279 = ORIENTED_EDGE('',*,*,#280,.T.);
#280 = EDGE_CURVE('',#272,#64,#281,.T.);
#281 = LINE('',#282,#283);
#282 = CARTESIAN_POINT('',(68.551451953047,276.75,5.6));
#283 = VECTOR('',#284,1.);
#284 = DIRECTION('',(0.,-1.,0.));
#285 = ORIENTED_EDGE('',*,*,#71,.T.);
#286 = FACE_BOUND('',#287,.T.);
#287 = EDGE_LOOP('',(#288,#298,#306,#314,#322,#330));
#288 = ORIENTED_EDGE('',*,*,#289,.F.);
#289 = EDGE_CURVE('',#290,#292,#294,.T.);
#290 = VERTEX_POINT('',#291);
#291 = CARTESIAN_POINT('',(81.089831883879,-23.89267151745,5.6));
#292 = VERTEX_POINT('',#293);
#293 = CARTESIAN_POINT('',(77.439831883879,-21.78534303491,5.6));
#294 = LINE('',#295,#296);
#295 = CARTESIAN_POINT('',(81.089831883879,-23.89267151745,5.6));
#296 = VECTOR('',#297,1.);
#297 = DIRECTION('',(-0.866025403784,0.5,0.));
#298 = ORIENTED_EDGE('',*,*,#299,.F.);
#299 = EDGE_CURVE('',#300,#290,#302,.T.);
#300 = VERTEX_POINT('',#301);
#301 = CARTESIAN_POINT('',(81.089831883879,-28.10732848254,5.6));
#302 = LINE('',#303,#304);
#303 = CARTESIAN_POINT('',(81.089831883879,-28.10732848254,5.6));
#304 = VECTOR('',#305,1.);
#305 = DIRECTION('',(0.,1.,0.));
#306 = ORIENTED_EDGE('',*,*,#307,.F.);
#307 = EDGE_CURVE('',#308,#300,#310,.T.);
#308 = VERTEX_POINT('',#309);
#309 = CARTESIAN_POINT('',(77.439831883879,-30.21465696508,5.6));
#310 = LINE('',#311,#312);
#311 = CARTESIAN_POINT('',(77.439831883879,-30.21465696508,5.6));
#312 = VECTOR('',#313,1.);
#313 = DIRECTION('',(0.866025403784,0.5,0.));
#314 = ORIENTED_EDGE('',*,*,#315,.F.);
#315 = EDGE_CURVE('',#316,#308,#318,.T.);
#316 = VERTEX_POINT('',#317);
#317 = CARTESIAN_POINT('',(73.789831883879,-28.10732848254,5.6));
#318 = LINE('',#319,#320);
#319 = CARTESIAN_POINT('',(73.789831883879,-28.10732848254,5.6));
#320 = VECTOR('',#321,1.);
#321 = DIRECTION('',(0.866025403784,-0.5,0.));
#322 = ORIENTED_EDGE('',*,*,#323,.F.);
#323 = EDGE_CURVE('',#324,#316,#326,.T.);
#324 = VERTEX_POINT('',#325);
#325 = CARTESIAN_POINT('',(73.789831883879,-23.89267151745,5.6));
#326 = LINE('',#327,#328);
#327 = CARTESIAN_POINT('',(73.789831883879,-23.89267151745,5.6));
#328 = VECTOR('',#329,1.);
#329 = DIRECTION('',(1.05367818432E-16,-1.,0.));
#330 = ORIENTED_EDGE('',*,*,#331,.F.);
#331 = EDGE_CURVE('',#292,#324,#332,.T.);
#332 = LINE('',#333,#334);
#333 = CARTESIAN_POINT('',(77.439831883879,-21.78534303491,5.6));
#334 = VECTOR('',#335,1.);
#335 = DIRECTION('',(-0.866025403784,-0.5,0.));
#336 = FACE_BOUND('',#337,.T.);
#337 = EDGE_LOOP('',(#338,#348,#356,#364,#372,#380));
#338 = ORIENTED_EDGE('',*,*,#339,.F.);
#339 = EDGE_CURVE('',#340,#342,#344,.T.);
#340 = VERTEX_POINT('',#341);
#341 = CARTESIAN_POINT('',(81.089831883879,56.107328482542,5.6));
#342 = VERTEX_POINT('',#343);
#343 = CARTESIAN_POINT('',(77.439831883879,58.214656965084,5.6));
#344 = LINE('',#345,#346);
#345 = CARTESIAN_POINT('',(81.089831883879,56.107328482542,5.6));
#346 = VECTOR('',#347,1.);
#347 = DIRECTION('',(-0.866025403784,0.5,0.));
#348 = ORIENTED_EDGE('',*,*,#349,.F.);
#349 = EDGE_CURVE('',#350,#340,#352,.T.);
#350 = VERTEX_POINT('',#351);
#351 = CARTESIAN_POINT('',(81.089831883879,51.892671517458,5.6));
#352 = LINE('',#353,#354);
#353 = CARTESIAN_POINT('',(81.089831883879,51.892671517458,5.6));
#354 = VECTOR('',#355,1.);
#355 = DIRECTION('',(0.,1.,0.));
#356 = ORIENTED_EDGE('',*,*,#357,.F.);
#357 = EDGE_CURVE('',#358,#350,#360,.T.);
#358 = VERTEX_POINT('',#359);
#359 = CARTESIAN_POINT('',(77.439831883879,49.785343034916,5.6));
#360 = LINE('',#361,#362);
#361 = CARTESIAN_POINT('',(77.439831883879,49.785343034916,5.6));
#362 = VECTOR('',#363,1.);
#363 = DIRECTION('',(0.866025403784,0.5,0.));
#364 = ORIENTED_EDGE('',*,*,#365,.F.);
#365 = EDGE_CURVE('',#366,#358,#368,.T.);
#366 = VERTEX_POINT('',#367);
#367 = CARTESIAN_POINT('',(73.789831883879,51.892671517458,5.6));
#368 = LINE('',#369,#370);
#369 = CARTESIAN_POINT('',(73.789831883879,51.892671517458,5.6));
#370 = VECTOR('',#371,1.);
#371 = DIRECTION('',(0.866025403784,-0.5,0.));
#372 = ORIENTED_EDGE('',*,*,#373,.F.);
#373 = EDGE_CURVE('',#374,#366,#376,.T.);
#374 = VERTEX_POINT('',#375);
#375 = CARTESIAN_POINT('',(73.789831883879,56.107328482542,5.6));
#376 = LINE('',#377,#378);
#377 = CARTESIAN_POINT('',(73.789831883879,56.107328482542,5.6));
#378 = VECTOR('',#379,1.);
#379 = DIRECTION('',(1.05367818432E-16,-1.,0.));
#380 = ORIENTED_EDGE('',*,*,#381,.F.);
#381 = EDGE_CURVE('',#342,#374,#382,.T.);
#382 = LINE('',#383,#384);
#383 = CARTESIAN_POINT('',(77.439831883879,58.214656965084,5.6));
#384 = VECTOR('',#385,1.);
#385 = DIRECTION('',(-0.866025403784,-0.5,0.));
#386 = FACE_BOUND('',#387,.T.);
#387 = EDGE_LOOP('',(#388,#398,#406,#414,#422,#430));
#388 = ORIENTED_EDGE('',*,*,#389,.F.);
#389 = EDGE_CURVE('',#390,#392,#394,.T.);
#390 = VERTEX_POINT('',#391);
#391 = CARTESIAN_POINT('',(81.089831883879,108.10732848254,5.6));
#392 = VERTEX_POINT('',#393);
#393 = CARTESIAN_POINT('',(77.439831883879,110.21465696508,5.6));
#394 = LINE('',#395,#396);
#395 = CARTESIAN_POINT('',(81.089831883879,108.10732848254,5.6));
#396 = VECTOR('',#397,1.);
#397 = DIRECTION('',(-0.866025403784,0.5,0.));
#398 = ORIENTED_EDGE('',*,*,#399,.F.);
#399 = EDGE_CURVE('',#400,#390,#402,.T.);
#400 = VERTEX_POINT('',#401);
#401 = CARTESIAN_POINT('',(81.089831883879,103.89267151745,5.6));
#402 = LINE('',#403,#404);
#403 = CARTESIAN_POINT('',(81.089831883879,103.89267151745,5.6));
#404 = VECTOR('',#405,1.);
#405 = DIRECTION('',(0.,1.,0.));
#406 = ORIENTED_EDGE('',*,*,#407,.F.);
#407 = EDGE_CURVE('',#408,#400,#410,.T.);
#408 = VERTEX_POINT('',#409);
#409 = CARTESIAN_POINT('',(77.439831883879,101.78534303491,5.6));
#410 = LINE('',#411,#412);
#411 = CARTESIAN_POINT('',(77.439831883879,101.78534303491,5.6));
#412 = VECTOR('',#413,1.);
#413 = DIRECTION('',(0.866025403784,0.5,0.));
#414 = ORIENTED_EDGE('',*,*,#415,.F.);
#415 = EDGE_CURVE('',#416,#408,#418,.T.);
#416 = VERTEX_POINT('',#417);
#417 = CARTESIAN_POINT('',(73.789831883879,103.89267151745,5.6));
#418 = LINE('',#419,#420);
#419 = CARTESIAN_POINT('',(73.789831883879,103.89267151745,5.6));
#420 = VECTOR('',#421,1.);
#421 = DIRECTION('',(0.866025403784,-0.5,0.));
#422 = ORIENTED_EDGE('',*,*,#423,.F.);
#423 = EDGE_CURVE('',#424,#416,#426,.T.);
#424 = VERTEX_POINT('',#425);
#425 = CARTESIAN_POINT('',(73.789831883879,108.10732848254,5.6));
#426 = LINE('',#427,#428);
#427 = CARTESIAN_POINT('',(73.789831883879,108.10732848254,5.6));
#428 = VECTOR('',#429,1.);
#429 = DIRECTION('',(1.05367818432E-16,-1.,0.));
#430 = ORIENTED_EDGE('',*,*,#431,.F.);
#431 = EDGE_CURVE('',#392,#424,#432,.T.);
#432 = LINE('',#433,#434);
#433 = CARTESIAN_POINT('',(77.439831883879,110.21465696508,5.6));
#434 = VECTOR('',#435,1.);
#435 = DIRECTION('',(-0.866025403784,-0.5,0.));
#436 = FACE_BOUND('',#437,.T.);
#437 = EDGE_LOOP('',(#438,#448,#456,#464,#472,#480));
#438 = ORIENTED_EDGE('',*,*,#439,.F.);
#439 = EDGE_CURVE('',#440,#442,#444,.T.);
#440 = VERTEX_POINT('',#441);
#441 = CARTESIAN_POINT('',(81.089831883879,136.10732848254,5.6));
#442 = VERTEX_POINT('',#443);
#443 = CARTESIAN_POINT('',(77.439831883879,138.21465696508,5.6));
#444 = LINE('',#445,#446);
#445 = CARTESIAN_POINT('',(81.089831883879,136.10732848254,5.6));
#446 = VECTOR('',#447,1.);
#447 = DIRECTION('',(-0.866025403784,0.5,0.));
#448 = ORIENTED_EDGE('',*,*,#449,.F.);
#449 = EDGE_CURVE('',#450,#440,#452,.T.);
#450 = VERTEX_POINT('',#451);
#451 = CARTESIAN_POINT('',(81.089831883879,131.89267151745,5.6));
#452 = LINE('',#453,#454);
#453 = CARTESIAN_POINT('',(81.089831883879,131.89267151745,5.6));
#454 = VECTOR('',#455,1.);
#455 = DIRECTION('',(4.214712737279E-16,1.,0.));
#456 = ORIENTED_EDGE('',*,*,#457,.F.);
#457 = EDGE_CURVE('',#458,#450,#460,.T.);
#458 = VERTEX_POINT('',#459);
#459 = CARTESIAN_POINT('',(77.439831883879,129.78534303491,5.6));
#460 = LINE('',#461,#462);
#461 = CARTESIAN_POINT('',(77.439831883879,129.78534303491,5.6));
#462 = VECTOR('',#463,1.);
#463 = DIRECTION('',(0.866025403784,0.5,0.));
#464 = ORIENTED_EDGE('',*,*,#465,.F.);
#465 = EDGE_CURVE('',#466,#458,#468,.T.);
#466 = VERTEX_POINT('',#467);
#467 = CARTESIAN_POINT('',(73.789831883879,131.89267151745,5.6));
#468 = LINE('',#469,#470);
#469 = CARTESIAN_POINT('',(73.789831883879,131.89267151745,5.6));
#470 = VECTOR('',#471,1.);
#471 = DIRECTION('',(0.866025403784,-0.5,0.));
#472 = ORIENTED_EDGE('',*,*,#473,.F.);
#473 = EDGE_CURVE('',#474,#466,#476,.T.);
#474 = VERTEX_POINT('',#475);
#475 = CARTESIAN_POINT('',(73.789831883879,136.10732848254,5.6));
#476 = LINE('',#477,#478);
#477 = CARTESIAN_POINT('',(73.789831883879,136.10732848254,5.6));
#478 = VECTOR('',#479,1.);
#479 = DIRECTION('',(1.05367818432E-16,-1.,0.));
#480 = ORIENTED_EDGE('',*,*,#481,.F.);
#481 = EDGE_CURVE('',#442,#474,#482,.T.);
#482 = LINE('',#483,#484);
#483 = CARTESIAN_POINT('',(77.439831883879,138.21465696508,5.6));
#484 = VECTOR('',#485,1.);
#485 = DIRECTION('',(-0.866025403784,-0.5,0.));
#486 = FACE_BOUND('',#487,.T.);
#487 = EDGE_LOOP('',(#488,#498,#506,#514,#522,#530));
#488 = ORIENTED_EDGE('',*,*,#489,.F.);
#489 = EDGE_CURVE('',#490,#492,#494,.T.);
#490 = VERTEX_POINT('',#491);
#491 = CARTESIAN_POINT('',(81.089831883879,188.10732848254,5.6));
#492 = VERTEX_POINT('',#493);
#493 = CARTESIAN_POINT('',(77.439831883879,190.21465696508,5.6));
#494 = LINE('',#495,#496);
#495 = CARTESIAN_POINT('',(81.089831883879,188.10732848254,5.6));
#496 = VECTOR('',#497,1.);
#497 = DIRECTION('',(-0.866025403784,0.5,0.));
#498 = ORIENTED_EDGE('',*,*,#499,.F.);
#499 = EDGE_CURVE('',#500,#490,#502,.T.);
#500 = VERTEX_POINT('',#501);
#501 = CARTESIAN_POINT('',(81.089831883879,183.89267151745,5.6));
#502 = LINE('',#503,#504);
#503 = CARTESIAN_POINT('',(81.089831883879,183.89267151745,5.6));
#504 = VECTOR('',#505,1.);
#505 = DIRECTION('',(4.214712737279E-16,1.,0.));
#506 = ORIENTED_EDGE('',*,*,#507,.F.);
#507 = EDGE_CURVE('',#508,#500,#510,.T.);
#508 = VERTEX_POINT('',#509);
#509 = CARTESIAN_POINT('',(77.439831883879,181.78534303491,5.6));
#510 = LINE('',#511,#512);
#511 = CARTESIAN_POINT('',(77.439831883879,181.78534303491,5.6));
#512 = VECTOR('',#513,1.);
#513 = DIRECTION('',(0.866025403784,0.5,0.));
#514 = ORIENTED_EDGE('',*,*,#515,.F.);
#515 = EDGE_CURVE('',#516,#508,#518,.T.);
#516 = VERTEX_POINT('',#517);
#517 = CARTESIAN_POINT('',(73.789831883879,183.89267151745,5.6));
#518 = LINE('',#519,#520);
#519 = CARTESIAN_POINT('',(73.789831883879,183.89267151745,5.6));
#520 = VECTOR('',#521,1.);
#521 = DIRECTION('',(0.866025403784,-0.5,0.));
#522 = ORIENTED_EDGE('',*,*,#523,.F.);
#523 = EDGE_CURVE('',#524,#516,#526,.T.);
#524 = VERTEX_POINT('',#525);
#525 = CARTESIAN_POINT('',(73.789831883879,188.10732848254,5.6));
#526 = LINE('',#527,#528);
#527 = CARTESIAN_POINT('',(73.789831883879,188.10732848254,5.6));
#528 = VECTOR('',#529,1.);
#529 = DIRECTION('',(1.05367818432E-16,-1.,0.));
#530 = ORIENTED_EDGE('',*,*,#531,.F.);
#531 = EDGE_CURVE('',#492,#524,#532,.T.);
#532 = LINE('',#533,#534);
#533 = CARTESIAN_POINT('',(77.439831883879,190.21465696508,5.6));
#534 = VECTOR('',#535,1.);
#535 = DIRECTION('',(-0.866025403784,-0.5,0.));
#536 = FACE_BOUND('',#537,.T.);
#537 = EDGE_LOOP('',(#538,#548,#556,#564,#572,#580));
#538 = ORIENTED_EDGE('',*,*,#539,.F.);
#539 = EDGE_CURVE('',#540,#542,#544,.T.);
#540 = VERTEX_POINT('',#541);
#541 = CARTESIAN_POINT('',(81.089831883879,268.10732848254,5.6));
#542 = VERTEX_POINT('',#543);
#543 = CARTESIAN_POINT('',(77.439831883879,270.21465696508,5.6));
#544 = LINE('',#545,#546);
#545 = CARTESIAN_POINT('',(81.089831883879,268.10732848254,5.6));
#546 = VECTOR('',#547,1.);
#547 = DIRECTION('',(-0.866025403784,0.5,0.));
#548 = ORIENTED_EDGE('',*,*,#549,.F.);
#549 = EDGE_CURVE('',#550,#540,#552,.T.);
#550 = VERTEX_POINT('',#551);
#551 = CARTESIAN_POINT('',(81.089831883879,263.89267151745,5.6));
#552 = LINE('',#553,#554);
#553 = CARTESIAN_POINT('',(81.089831883879,263.89267151745,5.6));
#554 = VECTOR('',#555,1.);
#555 = DIRECTION('',(4.214712737279E-16,1.,0.));
#556 = ORIENTED_EDGE('',*,*,#557,.F.);
#557 = EDGE_CURVE('',#558,#550,#560,.T.);
#558 = VERTEX_POINT('',#559);
#559 = CARTESIAN_POINT('',(77.439831883879,261.78534303491,5.6));
#560 = LINE('',#561,#562);
#561 = CARTESIAN_POINT('',(77.439831883879,261.78534303491,5.6));
#562 = VECTOR('',#563,1.);
#563 = DIRECTION('',(0.866025403784,0.5,0.));
#564 = ORIENTED_EDGE('',*,*,#565,.F.);
#565 = EDGE_CURVE('',#566,#558,#568,.T.);
#566 = VERTEX_POINT('',#567);
#567 = CARTESIAN_POINT('',(73.789831883879,263.89267151745,5.6));
#568 = LINE('',#569,#570);
#569 = CARTESIAN_POINT('',(73.789831883879,263.89267151745,5.6));
#570 = VECTOR('',#571,1.);
#571 = DIRECTION('',(0.866025403784,-0.5,0.));
#572 = ORIENTED_EDGE('',*,*,#573,.F.);
#573 = EDGE_CURVE('',#574,#566,#576,.T.);
#574 = VERTEX_POINT('',#575);
#575 = CARTESIAN_POINT('',(73.789831883879,268.10732848254,5.6));
#576 = LINE('',#577,#578);
#577 = CARTESIAN_POINT('',(73.789831883879,268.10732848254,5.6));
#578 = VECTOR('',#579,1.);
#579 = DIRECTION('',(1.05367818432E-16,-1.,0.));
#580 = ORIENTED_EDGE('',*,*,#581,.F.);
#581 = EDGE_CURVE('',#542,#574,#582,.T.);
#582 = LINE('',#583,#584);
#583 = CARTESIAN_POINT('',(77.439831883879,270.21465696508,5.6));
#584 = VECTOR('',#585,1.);
#585 = DIRECTION('',(-0.866025403784,-0.5,0.));
#586 = PLANE('',#587);
#587 = AXIS2_PLACEMENT_3D('',#588,#589,#590);
#588 = CARTESIAN_POINT('',(77.439831883879,120.,5.6));
#589 = DIRECTION('',(0.,0.,1.));
#590 = DIRECTION('',(1.,0.,0.));
#591 = ADVANCED_FACE('',(#592),#603,.F.);
#592 = FACE_BOUND('',#593,.F.);
#593 = EDGE_LOOP('',(#594,#600,#601,#602));
#594 = ORIENTED_EDGE('',*,*,#595,.T.);
#595 = EDGE_CURVE('',#155,#272,#596,.T.);
#596 = LINE('',#597,#598);
#597 = CARTESIAN_POINT('',(68.551451953047,276.75,0.));
#598 = VECTOR('',#599,1.);
#599 = DIRECTION('',(0.,0.,1.));
#600 = ORIENTED_EDGE('',*,*,#280,.T.);
#601 = ORIENTED_EDGE('',*,*,#61,.F.);
#602 = ORIENTED_EDGE('',*,*,#163,.F.);
#603 = PLANE('',#604);
#604 = AXIS2_PLACEMENT_3D('',#605,#606,#607);
#605 = CARTESIAN_POINT('',(68.551451953047,276.75,0.));
#606 = DIRECTION('',(1.,0.,0.));
#607 = DIRECTION('',(0.,-1.,0.));
#608 = ADVANCED_FACE('',(#609),#620,.F.);
#609 = FACE_BOUND('',#610,.F.);
#610 = EDGE_LOOP('',(#611,#612,#613,#619));
#611 = ORIENTED_EDGE('',*,*,#104,.T.);
#612 = ORIENTED_EDGE('',*,*,#246,.T.);
#613 = ORIENTED_EDGE('',*,*,#614,.F.);
#614 = EDGE_CURVE('',#130,#247,#615,.T.);
#615 = LINE('',#616,#617);
#616 = CARTESIAN_POINT('',(86.328211814711,276.75,0.));
#617 = VECTOR('',#618,1.);
#618 = DIRECTION('',(0.,0.,1.));
#619 = ORIENTED_EDGE('',*,*,#129,.F.);
#620 = PLANE('',#621);
#621 = AXIS2_PLACEMENT_3D('',#622,#623,#624);
#622 = CARTESIAN_POINT('',(86.328211814711,-36.75,0.));
#623 = DIRECTION('',(-1.,0.,0.));
#624 = DIRECTION('',(0.,1.,0.));
#625 = ADVANCED_FACE('',(#626),#637,.T.);
#626 = FACE_BOUND('',#627,.F.);
#627 = EDGE_LOOP('',(#628,#634,#635,#636));
#628 = ORIENTED_EDGE('',*,*,#629,.T.);
#629 = EDGE_CURVE('',#147,#264,#630,.T.);
#630 = LINE('',#631,#632);
#631 = CARTESIAN_POINT('',(71.551451953047,279.75,0.));
#632 = VECTOR('',#633,1.);
#633 = DIRECTION('',(0.,0.,1.));
#634 = ORIENTED_EDGE('',*,*,#271,.T.);
#635 = ORIENTED_EDGE('',*,*,#595,.F.);
#636 = ORIENTED_EDGE('',*,*,#154,.F.);
#637 = CYLINDRICAL_SURFACE('',#638,3.);
#638 = AXIS2_PLACEMENT_3D('',#639,#640,#641);
#639 = CARTESIAN_POINT('',(71.551451953047,276.75,0.));
#640 = DIRECTION('',(-0.,-0.,-1.));
#641 = DIRECTION('',(1.,0.,0.));
#642 = ADVANCED_FACE('',(#643),#654,.T.);
#643 = FACE_BOUND('',#644,.F.);
#644 = EDGE_LOOP('',(#645,#646,#647,#653));
#645 = ORIENTED_EDGE('',*,*,#614,.T.);
#646 = ORIENTED_EDGE('',*,*,#254,.T.);
#647 = ORIENTED_EDGE('',*,*,#648,.F.);
#648 = EDGE_CURVE('',#138,#255,#649,.T.);
#649 = LINE('',#650,#651);
#650 = CARTESIAN_POINT('',(83.328211814711,279.75,0.));
#651 = VECTOR('',#652,1.);
#652 = DIRECTION('',(0.,0.,1.));
#653 = ORIENTED_EDGE('',*,*,#137,.F.);
#654 = CYLINDRICAL_SURFACE('',#655,3.);
#655 = AXIS2_PLACEMENT_3D('',#656,#657,#658);
#656 = CARTESIAN_POINT('',(83.328211814711,276.75,0.));
#657 = DIRECTION('',(-0.,-0.,-1.));
#658 = DIRECTION('',(1.,0.,0.));
#659 = ADVANCED_FACE('',(#660),#666,.F.);
#660 = FACE_BOUND('',#661,.F.);
#661 = EDGE_LOOP('',(#662,#663,#664,#665));
#662 = ORIENTED_EDGE('',*,*,#648,.T.);
#663 = ORIENTED_EDGE('',*,*,#263,.T.);
#664 = ORIENTED_EDGE('',*,*,#629,.F.);
#665 = ORIENTED_EDGE('',*,*,#146,.F.);
#666 = PLANE('',#667);
#667 = AXIS2_PLACEMENT_3D('',#668,#669,#670);
#668 = CARTESIAN_POINT('',(83.328211814711,279.75,0.));
#669 = DIRECTION('',(0.,-1.,0.));
#670 = DIRECTION('',(-1.,0.,0.));
#671 = ADVANCED_FACE('',(#672),#691,.F.);
#672 = FACE_BOUND('',#673,.F.);
#673 = EDGE_LOOP('',(#674,#683,#689,#690));
#674 = ORIENTED_EDGE('',*,*,#675,.F.);
#675 = EDGE_CURVE('',#676,#676,#678,.T.);
#676 = VERTEX_POINT('',#677);
#677 = CARTESIAN_POINT('',(79.639831883879,-26.,2.1));
#678 = CIRCLE('',#679,2.2);
#679 = AXIS2_PLACEMENT_3D('',#680,#681,#682);
#680 = CARTESIAN_POINT('',(77.439831883879,-26.,2.1));
#681 = DIRECTION('',(0.,0.,1.));
#682 = DIRECTION('',(1.,0.,0.));
#683 = ORIENTED_EDGE('',*,*,#684,.T.);
#684 = EDGE_CURVE('',#676,#173,#685,.T.);
#685 = LINE('',#686,#687);
#686 = CARTESIAN_POINT('',(79.639831883879,-26.,3.));
#687 = VECTOR('',#688,1.);
#688 = DIRECTION('',(-0.,-0.,-1.));
#689 = ORIENTED_EDGE('',*,*,#172,.T.);
#690 = ORIENTED_EDGE('',*,*,#684,.F.);
#691 = CYLINDRICAL_SURFACE('',#692,2.2);
#692 = AXIS2_PLACEMENT_3D('',#693,#694,#695);
#693 = CARTESIAN_POINT('',(77.439831883879,-26.,3.));
#694 = DIRECTION('',(0.,0.,1.));
#695 = DIRECTION('',(1.,0.,0.));
#696 = ADVANCED_FACE('',(#697),#716,.F.);
#697 = FACE_BOUND('',#698,.F.);
#698 = EDGE_LOOP('',(#699,#708,#714,#715));
#699 = ORIENTED_EDGE('',*,*,#700,.F.);
#700 = EDGE_CURVE('',#701,#701,#703,.T.);
#701 = VERTEX_POINT('',#702);
#702 = CARTESIAN_POINT('',(79.639831883879,54.,2.1));
#703 = CIRCLE('',#704,2.2);
#704 = AXIS2_PLACEMENT_3D('',#705,#706,#707);
#705 = CARTESIAN_POINT('',(77.439831883879,54.,2.1));
#706 = DIRECTION('',(0.,0.,1.));
#707 = DIRECTION('',(1.,0.,0.));
#708 = ORIENTED_EDGE('',*,*,#709,.T.);
#709 = EDGE_CURVE('',#701,#184,#710,.T.);
#710 = LINE('',#711,#712);
#711 = CARTESIAN_POINT('',(79.639831883879,54.,3.));
#712 = VECTOR('',#713,1.);
#713 = DIRECTION('',(-0.,-0.,-1.));
#714 = ORIENTED_EDGE('',*,*,#183,.T.);
#715 = ORIENTED_EDGE('',*,*,#709,.F.);
#716 = CYLINDRICAL_SURFACE('',#717,2.2);
#717 = AXIS2_PLACEMENT_3D('',#718,#719,#720);
#718 = CARTESIAN_POINT('',(77.439831883879,54.,3.));
#719 = DIRECTION('',(0.,0.,1.));
#720 = DIRECTION('',(1.,0.,0.));
#721 = ADVANCED_FACE('',(#722),#741,.F.);
#722 = FACE_BOUND('',#723,.F.);
#723 = EDGE_LOOP('',(#724,#733,#739,#740));
#724 = ORIENTED_EDGE('',*,*,#725,.F.);
#725 = EDGE_CURVE('',#726,#726,#728,.T.);
#726 = VERTEX_POINT('',#727);
#727 = CARTESIAN_POINT('',(79.639831883879,106.,2.1));
#728 = CIRCLE('',#729,2.2);
#729 = AXIS2_PLACEMENT_3D('',#730,#731,#732);
#730 = CARTESIAN_POINT('',(77.439831883879,106.,2.1));
#731 = DIRECTION('',(0.,0.,1.));
#732 = DIRECTION('',(1.,0.,0.));
#733 = ORIENTED_EDGE('',*,*,#734,.T.);
#734 = EDGE_CURVE('',#726,#195,#735,.T.);
#735 = LINE('',#736,#737);
#736 = CARTESIAN_POINT('',(79.639831883879,106.,3.));
#737 = VECTOR('',#738,1.);
#738 = DIRECTION('',(-0.,-0.,-1.));
#739 = ORIENTED_EDGE('',*,*,#194,.T.);
#740 = ORIENTED_EDGE('',*,*,#734,.F.);
#741 = CYLINDRICAL_SURFACE('',#742,2.2);
#742 = AXIS2_PLACEMENT_3D('',#743,#744,#745);
#743 = CARTESIAN_POINT('',(77.439831883879,106.,3.));
#744 = DIRECTION('',(0.,0.,1.));
#745 = DIRECTION('',(1.,0.,0.));
#746 = ADVANCED_FACE('',(#747),#766,.F.);
#747 = FACE_BOUND('',#748,.F.);
#748 = EDGE_LOOP('',(#749,#758,#764,#765));
#749 = ORIENTED_EDGE('',*,*,#750,.F.);
#750 = EDGE_CURVE('',#751,#751,#753,.T.);
#751 = VERTEX_POINT('',#752);
#752 = CARTESIAN_POINT('',(79.639831883879,134.,2.1));
#753 = CIRCLE('',#754,2.2);
#754 = AXIS2_PLACEMENT_3D('',#755,#756,#757);
#755 = CARTESIAN_POINT('',(77.439831883879,134.,2.1));
#756 = DIRECTION('',(0.,0.,1.));
#757 = DIRECTION('',(1.,0.,0.));
#758 = ORIENTED_EDGE('',*,*,#759,.T.);
#759 = EDGE_CURVE('',#751,#206,#760,.T.);
#760 = LINE('',#761,#762);
#761 = CARTESIAN_POINT('',(79.639831883879,134.,3.));
#762 = VECTOR('',#763,1.);
#763 = DIRECTION('',(-0.,-0.,-1.));
#764 = ORIENTED_EDGE('',*,*,#205,.T.);
#765 = ORIENTED_EDGE('',*,*,#759,.F.);
#766 = CYLINDRICAL_SURFACE('',#767,2.2);
#767 = AXIS2_PLACEMENT_3D('',#768,#769,#770);
#768 = CARTESIAN_POINT('',(77.439831883879,134.,3.));
#769 = DIRECTION('',(0.,0.,1.));
#770 = DIRECTION('',(1.,0.,0.));
#771 = ADVANCED_FACE('',(#772),#791,.F.);
#772 = FACE_BOUND('',#773,.F.);
#773 = EDGE_LOOP('',(#774,#783,#789,#790));
#774 = ORIENTED_EDGE('',*,*,#775,.F.);
#775 = EDGE_CURVE('',#776,#776,#778,.T.);
#776 = VERTEX_POINT('',#777);
#777 = CARTESIAN_POINT('',(79.639831883879,186.,2.1));
#778 = CIRCLE('',#779,2.2);
#779 = AXIS2_PLACEMENT_3D('',#780,#781,#782);
#780 = CARTESIAN_POINT('',(77.439831883879,186.,2.1));
#781 = DIRECTION('',(0.,0.,1.));
#782 = DIRECTION('',(1.,0.,0.));
#783 = ORIENTED_EDGE('',*,*,#784,.T.);
#784 = EDGE_CURVE('',#776,#217,#785,.T.);
#785 = LINE('',#786,#787);
#786 = CARTESIAN_POINT('',(79.639831883879,186.,3.));
#787 = VECTOR('',#788,1.);
#788 = DIRECTION('',(-0.,-0.,-1.));
#789 = ORIENTED_EDGE('',*,*,#216,.T.);
#790 = ORIENTED_EDGE('',*,*,#784,.F.);
#791 = CYLINDRICAL_SURFACE('',#792,2.2);
#792 = AXIS2_PLACEMENT_3D('',#793,#794,#795);
#793 = CARTESIAN_POINT('',(77.439831883879,186.,3.));
#794 = DIRECTION('',(0.,0.,1.));
#795 = DIRECTION('',(1.,0.,0.));
#796 = ADVANCED_FACE('',(#797),#816,.F.);
#797 = FACE_BOUND('',#798,.F.);
#798 = EDGE_LOOP('',(#799,#808,#814,#815));
#799 = ORIENTED_EDGE('',*,*,#800,.F.);
#800 = EDGE_CURVE('',#801,#801,#803,.T.);
#801 = VERTEX_POINT('',#802);
#802 = CARTESIAN_POINT('',(79.639831883879,266.,2.1));
#803 = CIRCLE('',#804,2.2);
#804 = AXIS2_PLACEMENT_3D('',#805,#806,#807);
#805 = CARTESIAN_POINT('',(77.439831883879,266.,2.1));
#806 = DIRECTION('',(0.,0.,1.));
#807 = DIRECTION('',(1.,0.,0.));
#808 = ORIENTED_EDGE('',*,*,#809,.T.);
#809 = EDGE_CURVE('',#801,#228,#810,.T.);
#810 = LINE('',#811,#812);
#811 = CARTESIAN_POINT('',(79.639831883879,266.,3.));
#812 = VECTOR('',#813,1.);
#813 = DIRECTION('',(-0.,-0.,-1.));
#814 = ORIENTED_EDGE('',*,*,#227,.T.);
#815 = ORIENTED_EDGE('',*,*,#809,.F.);
#816 = CYLINDRICAL_SURFACE('',#817,2.2);
#817 = AXIS2_PLACEMENT_3D('',#818,#819,#820);
#818 = CARTESIAN_POINT('',(77.439831883879,266.,3.));
#819 = DIRECTION('',(0.,0.,1.));
#820 = DIRECTION('',(1.,0.,0.));
#821 = ADVANCED_FACE('',(#822),#847,.F.);
#822 = FACE_BOUND('',#823,.F.);
#823 = EDGE_LOOP('',(#824,#832,#840,#846));
#824 = ORIENTED_EDGE('',*,*,#825,.T.);
#825 = EDGE_CURVE('',#290,#826,#828,.T.);
#826 = VERTEX_POINT('',#827);
#827 = CARTESIAN_POINT('',(81.089831883879,-23.89267151745,2.1));
#828 = LINE('',#829,#830);
#829 = CARTESIAN_POINT('',(81.089831883879,-23.89267151745,5.6));
#830 = VECTOR('',#831,1.);
#831 = DIRECTION('',(-0.,-0.,-1.));
#832 = ORIENTED_EDGE('',*,*,#833,.T.);
#833 = EDGE_CURVE('',#826,#834,#836,.T.);
#834 = VERTEX_POINT('',#835);
#835 = CARTESIAN_POINT('',(77.439831883879,-21.78534303491,2.1));
#836 = LINE('',#837,#838);
#837 = CARTESIAN_POINT('',(81.089831883879,-23.89267151745,2.1));
#838 = VECTOR('',#839,1.);
#839 = DIRECTION('',(-0.866025403784,0.5,0.));
#840 = ORIENTED_EDGE('',*,*,#841,.F.);
#841 = EDGE_CURVE('',#292,#834,#842,.T.);
#842 = LINE('',#843,#844);
#843 = CARTESIAN_POINT('',(77.439831883879,-21.78534303491,5.6));
#844 = VECTOR('',#845,1.);
#845 = DIRECTION('',(-0.,-0.,-1.));
#846 = ORIENTED_EDGE('',*,*,#289,.F.);
#847 = PLANE('',#848);
#848 = AXIS2_PLACEMENT_3D('',#849,#850,#851);
#849 = CARTESIAN_POINT('',(81.089831883879,-23.89267151745,5.6));
#850 = DIRECTION('',(0.5,0.866025403784,0.));
#851 = DIRECTION('',(-0.866025403784,0.5,0.));
#852 = ADVANCED_FACE('',(#853),#871,.F.);
#853 = FACE_BOUND('',#854,.F.);
#854 = EDGE_LOOP('',(#855,#856,#864,#870));
#855 = ORIENTED_EDGE('',*,*,#841,.T.);
#856 = ORIENTED_EDGE('',*,*,#857,.T.);
#857 = EDGE_CURVE('',#834,#858,#860,.T.);
#858 = VERTEX_POINT('',#859);
#859 = CARTESIAN_POINT('',(73.789831883879,-23.89267151745,2.1));
#860 = LINE('',#861,#862);
#861 = CARTESIAN_POINT('',(77.439831883879,-21.78534303491,2.1));
#862 = VECTOR('',#863,1.);
#863 = DIRECTION('',(-0.866025403784,-0.5,0.));
#864 = ORIENTED_EDGE('',*,*,#865,.F.);
#865 = EDGE_CURVE('',#324,#858,#866,.T.);
#866 = LINE('',#867,#868);
#867 = CARTESIAN_POINT('',(73.789831883879,-23.89267151745,5.6));
#868 = VECTOR('',#869,1.);
#869 = DIRECTION('',(-0.,-0.,-1.));
#870 = ORIENTED_EDGE('',*,*,#331,.F.);
#871 = PLANE('',#872);
#872 = AXIS2_PLACEMENT_3D('',#873,#874,#875);
#873 = CARTESIAN_POINT('',(77.439831883879,-21.78534303491,5.6));
#874 = DIRECTION('',(-0.5,0.866025403784,0.));
#875 = DIRECTION('',(-0.866025403784,-0.5,0.));
#876 = ADVANCED_FACE('',(#877),#895,.F.);
#877 = FACE_BOUND('',#878,.F.);
#878 = EDGE_LOOP('',(#879,#880,#888,#894));
#879 = ORIENTED_EDGE('',*,*,#865,.T.);
#880 = ORIENTED_EDGE('',*,*,#881,.T.);
#881 = EDGE_CURVE('',#858,#882,#884,.T.);
#882 = VERTEX_POINT('',#883);
#883 = CARTESIAN_POINT('',(73.789831883879,-28.10732848254,2.1));
#884 = LINE('',#885,#886);
#885 = CARTESIAN_POINT('',(73.789831883879,-23.89267151745,2.1));
#886 = VECTOR('',#887,1.);
#887 = DIRECTION('',(1.05367818432E-16,-1.,0.));
#888 = ORIENTED_EDGE('',*,*,#889,.F.);
#889 = EDGE_CURVE('',#316,#882,#890,.T.);
#890 = LINE('',#891,#892);
#891 = CARTESIAN_POINT('',(73.789831883879,-28.10732848254,5.6));
#892 = VECTOR('',#893,1.);
#893 = DIRECTION('',(-0.,-0.,-1.));
#894 = ORIENTED_EDGE('',*,*,#323,.F.);
#895 = PLANE('',#896);
#896 = AXIS2_PLACEMENT_3D('',#897,#898,#899);
#897 = CARTESIAN_POINT('',(73.789831883879,-23.89267151745,5.6));
#898 = DIRECTION('',(-1.,-1.05367818432E-16,0.));
#899 = DIRECTION('',(1.05367818432E-16,-1.,0.));
#900 = ADVANCED_FACE('',(#901),#919,.F.);
#901 = FACE_BOUND('',#902,.F.);
#902 = EDGE_LOOP('',(#903,#904,#912,#918));
#903 = ORIENTED_EDGE('',*,*,#889,.T.);
#904 = ORIENTED_EDGE('',*,*,#905,.T.);
#905 = EDGE_CURVE('',#882,#906,#908,.T.);
#906 = VERTEX_POINT('',#907);
#907 = CARTESIAN_POINT('',(77.439831883879,-30.21465696508,2.1));
#908 = LINE('',#909,#910);
#909 = CARTESIAN_POINT('',(73.789831883879,-28.10732848254,2.1));
#910 = VECTOR('',#911,1.);
#911 = DIRECTION('',(0.866025403784,-0.5,0.));
#912 = ORIENTED_EDGE('',*,*,#913,.F.);
#913 = EDGE_CURVE('',#308,#906,#914,.T.);
#914 = LINE('',#915,#916);
#915 = CARTESIAN_POINT('',(77.439831883879,-30.21465696508,5.6));
#916 = VECTOR('',#917,1.);
#917 = DIRECTION('',(-0.,-0.,-1.));
#918 = ORIENTED_EDGE('',*,*,#315,.F.);
#919 = PLANE('',#920);
#920 = AXIS2_PLACEMENT_3D('',#921,#922,#923);
#921 = CARTESIAN_POINT('',(73.789831883879,-28.10732848254,5.6));
#922 = DIRECTION('',(-0.5,-0.866025403784,0.));
#923 = DIRECTION('',(0.866025403784,-0.5,0.));
#924 = ADVANCED_FACE('',(#925),#943,.F.);
#925 = FACE_BOUND('',#926,.F.);
#926 = EDGE_LOOP('',(#927,#928,#936,#942));
#927 = ORIENTED_EDGE('',*,*,#913,.T.);
#928 = ORIENTED_EDGE('',*,*,#929,.T.);
#929 = EDGE_CURVE('',#906,#930,#932,.T.);
#930 = VERTEX_POINT('',#931);
#931 = CARTESIAN_POINT('',(81.089831883879,-28.10732848254,2.1));
#932 = LINE('',#933,#934);
#933 = CARTESIAN_POINT('',(77.439831883879,-30.21465696508,2.1));
#934 = VECTOR('',#935,1.);
#935 = DIRECTION('',(0.866025403784,0.5,0.));
#936 = ORIENTED_EDGE('',*,*,#937,.F.);
#937 = EDGE_CURVE('',#300,#930,#938,.T.);
#938 = LINE('',#939,#940);
#939 = CARTESIAN_POINT('',(81.089831883879,-28.10732848254,5.6));
#940 = VECTOR('',#941,1.);
#941 = DIRECTION('',(-0.,-0.,-1.));
#942 = ORIENTED_EDGE('',*,*,#307,.F.);
#943 = PLANE('',#944);
#944 = AXIS2_PLACEMENT_3D('',#945,#946,#947);
#945 = CARTESIAN_POINT('',(77.439831883879,-30.21465696508,5.6));
#946 = DIRECTION('',(0.5,-0.866025403784,0.));
#947 = DIRECTION('',(0.866025403784,0.5,0.));
#948 = ADVANCED_FACE('',(#949),#960,.F.);
#949 = FACE_BOUND('',#950,.F.);
#950 = EDGE_LOOP('',(#951,#952,#958,#959));
#951 = ORIENTED_EDGE('',*,*,#937,.T.);
#952 = ORIENTED_EDGE('',*,*,#953,.T.);
#953 = EDGE_CURVE('',#930,#826,#954,.T.);
#954 = LINE('',#955,#956);
#955 = CARTESIAN_POINT('',(81.089831883879,-28.10732848254,2.1));
#956 = VECTOR('',#957,1.);
#957 = DIRECTION('',(0.,1.,0.));
#958 = ORIENTED_EDGE('',*,*,#825,.F.);
#959 = ORIENTED_EDGE('',*,*,#299,.F.);
#960 = PLANE('',#961);
#961 = AXIS2_PLACEMENT_3D('',#962,#963,#964);
#962 = CARTESIAN_POINT('',(81.089831883879,-28.10732848254,5.6));
#963 = DIRECTION('',(1.,0.,0.));
#964 = DIRECTION('',(0.,1.,0.));
#965 = ADVANCED_FACE('',(#966),#991,.F.);
#966 = FACE_BOUND('',#967,.F.);
#967 = EDGE_LOOP('',(#968,#976,#984,#990));
#968 = ORIENTED_EDGE('',*,*,#969,.T.);
#969 = EDGE_CURVE('',#340,#970,#972,.T.);
#970 = VERTEX_POINT('',#971);
#971 = CARTESIAN_POINT('',(81.089831883879,56.107328482542,2.1));
#972 = LINE('',#973,#974);
#973 = CARTESIAN_POINT('',(81.089831883879,56.107328482542,5.6));
#974 = VECTOR('',#975,1.);
#975 = DIRECTION('',(-0.,-0.,-1.));
#976 = ORIENTED_EDGE('',*,*,#977,.T.);
#977 = EDGE_CURVE('',#970,#978,#980,.T.);
#978 = VERTEX_POINT('',#979);
#979 = CARTESIAN_POINT('',(77.439831883879,58.214656965084,2.1));
#980 = LINE('',#981,#982);
#981 = CARTESIAN_POINT('',(81.089831883879,56.107328482542,2.1));
#982 = VECTOR('',#983,1.);
#983 = DIRECTION('',(-0.866025403784,0.5,0.));
#984 = ORIENTED_EDGE('',*,*,#985,.F.);
#985 = EDGE_CURVE('',#342,#978,#986,.T.);
#986 = LINE('',#987,#988);
#987 = CARTESIAN_POINT('',(77.439831883879,58.214656965084,5.6));
#988 = VECTOR('',#989,1.);
#989 = DIRECTION('',(-0.,-0.,-1.));
#990 = ORIENTED_EDGE('',*,*,#339,.F.);
#991 = PLANE('',#992);
#992 = AXIS2_PLACEMENT_3D('',#993,#994,#995);
#993 = CARTESIAN_POINT('',(81.089831883879,56.107328482542,5.6));
#994 = DIRECTION('',(0.5,0.866025403784,0.));
#995 = DIRECTION('',(-0.866025403784,0.5,0.));
#996 = ADVANCED_FACE('',(#997),#1015,.F.);
#997 = FACE_BOUND('',#998,.F.);
#998 = EDGE_LOOP('',(#999,#1000,#1008,#1014));
#999 = ORIENTED_EDGE('',*,*,#985,.T.);
#1000 = ORIENTED_EDGE('',*,*,#1001,.T.);
#1001 = EDGE_CURVE('',#978,#1002,#1004,.T.);
#1002 = VERTEX_POINT('',#1003);
#1003 = CARTESIAN_POINT('',(73.789831883879,56.107328482542,2.1));
#1004 = LINE('',#1005,#1006);
#1005 = CARTESIAN_POINT('',(77.439831883879,58.214656965084,2.1));
#1006 = VECTOR('',#1007,1.);
#1007 = DIRECTION('',(-0.866025403784,-0.5,0.));
#1008 = ORIENTED_EDGE('',*,*,#1009,.F.);
#1009 = EDGE_CURVE('',#374,#1002,#1010,.T.);
#1010 = LINE('',#1011,#1012);
#1011 = CARTESIAN_POINT('',(73.789831883879,56.107328482542,5.6));
#1012 = VECTOR('',#1013,1.);
#1013 = DIRECTION('',(-0.,-0.,-1.));
#1014 = ORIENTED_EDGE('',*,*,#381,.F.);
#1015 = PLANE('',#1016);
#1016 = AXIS2_PLACEMENT_3D('',#1017,#1018,#1019);
#1017 = CARTESIAN_POINT('',(77.439831883879,58.214656965084,5.6));
#1018 = DIRECTION('',(-0.5,0.866025403784,0.));
#1019 = DIRECTION('',(-0.866025403784,-0.5,0.));
#1020 = ADVANCED_FACE('',(#1021),#1039,.F.);
#1021 = FACE_BOUND('',#1022,.F.);
#1022 = EDGE_LOOP('',(#1023,#1024,#1032,#1038));
#1023 = ORIENTED_EDGE('',*,*,#1009,.T.);
#1024 = ORIENTED_EDGE('',*,*,#1025,.T.);
#1025 = EDGE_CURVE('',#1002,#1026,#1028,.T.);
#1026 = VERTEX_POINT('',#1027);
#1027 = CARTESIAN_POINT('',(73.789831883879,51.892671517458,2.1));
#1028 = LINE('',#1029,#1030);
#1029 = CARTESIAN_POINT('',(73.789831883879,56.107328482542,2.1));
#1030 = VECTOR('',#1031,1.);
#1031 = DIRECTION('',(1.05367818432E-16,-1.,0.));
#1032 = ORIENTED_EDGE('',*,*,#1033,.F.);
#1033 = EDGE_CURVE('',#366,#1026,#1034,.T.);
#1034 = LINE('',#1035,#1036);
#1035 = CARTESIAN_POINT('',(73.789831883879,51.892671517458,5.6));
#1036 = VECTOR('',#1037,1.);
#1037 = DIRECTION('',(-0.,-0.,-1.));
#1038 = ORIENTED_EDGE('',*,*,#373,.F.);
#1039 = PLANE('',#1040);
#1040 = AXIS2_PLACEMENT_3D('',#1041,#1042,#1043);
#1041 = CARTESIAN_POINT('',(73.789831883879,56.107328482542,5.6));
#1042 = DIRECTION('',(-1.,-1.05367818432E-16,0.));
#1043 = DIRECTION('',(1.05367818432E-16,-1.,0.));
#1044 = ADVANCED_FACE('',(#1045),#1063,.F.);
#1045 = FACE_BOUND('',#1046,.F.);
#1046 = EDGE_LOOP('',(#1047,#1048,#1056,#1062));
#1047 = ORIENTED_EDGE('',*,*,#1033,.T.);
#1048 = ORIENTED_EDGE('',*,*,#1049,.T.);
#1049 = EDGE_CURVE('',#1026,#1050,#1052,.T.);
#1050 = VERTEX_POINT('',#1051);
#1051 = CARTESIAN_POINT('',(77.439831883879,49.785343034916,2.1));
#1052 = LINE('',#1053,#1054);
#1053 = CARTESIAN_POINT('',(73.789831883879,51.892671517458,2.1));
#1054 = VECTOR('',#1055,1.);
#1055 = DIRECTION('',(0.866025403784,-0.5,0.));
#1056 = ORIENTED_EDGE('',*,*,#1057,.F.);
#1057 = EDGE_CURVE('',#358,#1050,#1058,.T.);
#1058 = LINE('',#1059,#1060);
#1059 = CARTESIAN_POINT('',(77.439831883879,49.785343034916,5.6));
#1060 = VECTOR('',#1061,1.);
#1061 = DIRECTION('',(-0.,-0.,-1.));
#1062 = ORIENTED_EDGE('',*,*,#365,.F.);
#1063 = PLANE('',#1064);
#1064 = AXIS2_PLACEMENT_3D('',#1065,#1066,#1067);
#1065 = CARTESIAN_POINT('',(73.789831883879,51.892671517458,5.6));
#1066 = DIRECTION('',(-0.5,-0.866025403784,0.));
#1067 = DIRECTION('',(0.866025403784,-0.5,0.));
#1068 = ADVANCED_FACE('',(#1069),#1087,.F.);
#1069 = FACE_BOUND('',#1070,.F.);
#1070 = EDGE_LOOP('',(#1071,#1072,#1080,#1086));
#1071 = ORIENTED_EDGE('',*,*,#1057,.T.);
#1072 = ORIENTED_EDGE('',*,*,#1073,.T.);
#1073 = EDGE_CURVE('',#1050,#1074,#1076,.T.);
#1074 = VERTEX_POINT('',#1075);
#1075 = CARTESIAN_POINT('',(81.089831883879,51.892671517458,2.1));
#1076 = LINE('',#1077,#1078);
#1077 = CARTESIAN_POINT('',(77.439831883879,49.785343034916,2.1));
#1078 = VECTOR('',#1079,1.);
#1079 = DIRECTION('',(0.866025403784,0.5,0.));
#1080 = ORIENTED_EDGE('',*,*,#1081,.F.);
#1081 = EDGE_CURVE('',#350,#1074,#1082,.T.);
#1082 = LINE('',#1083,#1084);
#1083 = CARTESIAN_POINT('',(81.089831883879,51.892671517458,5.6));
#1084 = VECTOR('',#1085,1.);
#1085 = DIRECTION('',(-0.,-0.,-1.));
#1086 = ORIENTED_EDGE('',*,*,#357,.F.);
#1087 = PLANE('',#1088);
#1088 = AXIS2_PLACEMENT_3D('',#1089,#1090,#1091);
#1089 = CARTESIAN_POINT('',(77.439831883879,49.785343034916,5.6));
#1090 = DIRECTION('',(0.5,-0.866025403784,0.));
#1091 = DIRECTION('',(0.866025403784,0.5,0.));
#1092 = ADVANCED_FACE('',(#1093),#1104,.F.);
#1093 = FACE_BOUND('',#1094,.F.);
#1094 = EDGE_LOOP('',(#1095,#1096,#1102,#1103));
#1095 = ORIENTED_EDGE('',*,*,#1081,.T.);
#1096 = ORIENTED_EDGE('',*,*,#1097,.T.);
#1097 = EDGE_CURVE('',#1074,#970,#1098,.T.);
#1098 = LINE('',#1099,#1100);
#1099 = CARTESIAN_POINT('',(81.089831883879,51.892671517458,2.1));
#1100 = VECTOR('',#1101,1.);
#1101 = DIRECTION('',(0.,1.,0.));
#1102 = ORIENTED_EDGE('',*,*,#969,.F.);
#1103 = ORIENTED_EDGE('',*,*,#349,.F.);
#1104 = PLANE('',#1105);
#1105 = AXIS2_PLACEMENT_3D('',#1106,#1107,#1108);
#1106 = CARTESIAN_POINT('',(81.089831883879,51.892671517458,5.6));
#1107 = DIRECTION('',(1.,0.,0.));
#1108 = DIRECTION('',(0.,1.,0.));
#1109 = ADVANCED_FACE('',(#1110),#1135,.F.);
#1110 = FACE_BOUND('',#1111,.F.);
#1111 = EDGE_LOOP('',(#1112,#1120,#1128,#1134));
#1112 = ORIENTED_EDGE('',*,*,#1113,.T.);
#1113 = EDGE_CURVE('',#390,#1114,#1116,.T.);
#1114 = VERTEX_POINT('',#1115);
#1115 = CARTESIAN_POINT('',(81.089831883879,108.10732848254,2.1));
#1116 = LINE('',#1117,#1118);
#1117 = CARTESIAN_POINT('',(81.089831883879,108.10732848254,5.6));
#1118 = VECTOR('',#1119,1.);
#1119 = DIRECTION('',(-0.,-0.,-1.));
#1120 = ORIENTED_EDGE('',*,*,#1121,.T.);
#1121 = EDGE_CURVE('',#1114,#1122,#1124,.T.);
#1122 = VERTEX_POINT('',#1123);
#1123 = CARTESIAN_POINT('',(77.439831883879,110.21465696508,2.1));
#1124 = LINE('',#1125,#1126);
#1125 = CARTESIAN_POINT('',(81.089831883879,108.10732848254,2.1));
#1126 = VECTOR('',#1127,1.);
#1127 = DIRECTION('',(-0.866025403784,0.5,0.));
#1128 = ORIENTED_EDGE('',*,*,#1129,.F.);
#1129 = EDGE_CURVE('',#392,#1122,#1130,.T.);
#1130 = LINE('',#1131,#1132);
#1131 = CARTESIAN_POINT('',(77.439831883879,110.21465696508,5.6));
#1132 = VECTOR('',#1133,1.);
#1133 = DIRECTION('',(-0.,-0.,-1.));
#1134 = ORIENTED_EDGE('',*,*,#389,.F.);
#1135 = PLANE('',#1136);
#1136 = AXIS2_PLACEMENT_3D('',#1137,#1138,#1139);
#1137 = CARTESIAN_POINT('',(81.089831883879,108.10732848254,5.6));
#1138 = DIRECTION('',(0.5,0.866025403784,0.));
#1139 = DIRECTION('',(-0.866025403784,0.5,0.));
#1140 = ADVANCED_FACE('',(#1141),#1159,.F.);
#1141 = FACE_BOUND('',#1142,.F.);
#1142 = EDGE_LOOP('',(#1143,#1144,#1152,#1158));
#1143 = ORIENTED_EDGE('',*,*,#1129,.T.);
#1144 = ORIENTED_EDGE('',*,*,#1145,.T.);
#1145 = EDGE_CURVE('',#1122,#1146,#1148,.T.);
#1146 = VERTEX_POINT('',#1147);
#1147 = CARTESIAN_POINT('',(73.789831883879,108.10732848254,2.1));
#1148 = LINE('',#1149,#1150);
#1149 = CARTESIAN_POINT('',(77.439831883879,110.21465696508,2.1));
#1150 = VECTOR('',#1151,1.);
#1151 = DIRECTION('',(-0.866025403784,-0.5,0.));
#1152 = ORIENTED_EDGE('',*,*,#1153,.F.);
#1153 = EDGE_CURVE('',#424,#1146,#1154,.T.);
#1154 = LINE('',#1155,#1156);
#1155 = CARTESIAN_POINT('',(73.789831883879,108.10732848254,5.6));
#1156 = VECTOR('',#1157,1.);
#1157 = DIRECTION('',(-0.,-0.,-1.));
#1158 = ORIENTED_EDGE('',*,*,#431,.F.);
#1159 = PLANE('',#1160);
#1160 = AXIS2_PLACEMENT_3D('',#1161,#1162,#1163);
#1161 = CARTESIAN_POINT('',(77.439831883879,110.21465696508,5.6));
#1162 = DIRECTION('',(-0.5,0.866025403784,0.));
#1163 = DIRECTION('',(-0.866025403784,-0.5,0.));
#1164 = ADVANCED_FACE('',(#1165),#1183,.F.);
#1165 = FACE_BOUND('',#1166,.F.);
#1166 = EDGE_LOOP('',(#1167,#1168,#1176,#1182));
#1167 = ORIENTED_EDGE('',*,*,#1153,.T.);
#1168 = ORIENTED_EDGE('',*,*,#1169,.T.);
#1169 = EDGE_CURVE('',#1146,#1170,#1172,.T.);
#1170 = VERTEX_POINT('',#1171);
#1171 = CARTESIAN_POINT('',(73.789831883879,103.89267151745,2.1));
#1172 = LINE('',#1173,#1174);
#1173 = CARTESIAN_POINT('',(73.789831883879,108.10732848254,2.1));
#1174 = VECTOR('',#1175,1.);
#1175 = DIRECTION('',(1.05367818432E-16,-1.,0.));
#1176 = ORIENTED_EDGE('',*,*,#1177,.F.);
#1177 = EDGE_CURVE('',#416,#1170,#1178,.T.);
#1178 = LINE('',#1179,#1180);
#1179 = CARTESIAN_POINT('',(73.789831883879,103.89267151745,5.6));
#1180 = VECTOR('',#1181,1.);
#1181 = DIRECTION('',(-0.,-0.,-1.));
#1182 = ORIENTED_EDGE('',*,*,#423,.F.);
#1183 = PLANE('',#1184);
#1184 = AXIS2_PLACEMENT_3D('',#1185,#1186,#1187);
#1185 = CARTESIAN_POINT('',(73.789831883879,108.10732848254,5.6));
#1186 = DIRECTION('',(-1.,-1.05367818432E-16,0.));
#1187 = DIRECTION('',(1.05367818432E-16,-1.,0.));
#1188 = ADVANCED_FACE('',(#1189),#1207,.F.);
#1189 = FACE_BOUND('',#1190,.F.);
#1190 = EDGE_LOOP('',(#1191,#1192,#1200,#1206));
#1191 = ORIENTED_EDGE('',*,*,#1177,.T.);
#1192 = ORIENTED_EDGE('',*,*,#1193,.T.);
#1193 = EDGE_CURVE('',#1170,#1194,#1196,.T.);
#1194 = VERTEX_POINT('',#1195);
#1195 = CARTESIAN_POINT('',(77.439831883879,101.78534303491,2.1));
#1196 = LINE('',#1197,#1198);
#1197 = CARTESIAN_POINT('',(73.789831883879,103.89267151745,2.1));
#1198 = VECTOR('',#1199,1.);
#1199 = DIRECTION('',(0.866025403784,-0.5,0.));
#1200 = ORIENTED_EDGE('',*,*,#1201,.F.);
#1201 = EDGE_CURVE('',#408,#1194,#1202,.T.);
#1202 = LINE('',#1203,#1204);
#1203 = CARTESIAN_POINT('',(77.439831883879,101.78534303491,5.6));
#1204 = VECTOR('',#1205,1.);
#1205 = DIRECTION('',(-0.,-0.,-1.));
#1206 = ORIENTED_EDGE('',*,*,#415,.F.);
#1207 = PLANE('',#1208);
#1208 = AXIS2_PLACEMENT_3D('',#1209,#1210,#1211);
#1209 = CARTESIAN_POINT('',(73.789831883879,103.89267151745,5.6));
#1210 = DIRECTION('',(-0.5,-0.866025403784,0.));
#1211 = DIRECTION('',(0.866025403784,-0.5,0.));
#1212 = ADVANCED_FACE('',(#1213),#1231,.F.);
#1213 = FACE_BOUND('',#1214,.F.);
#1214 = EDGE_LOOP('',(#1215,#1216,#1224,#1230));
#1215 = ORIENTED_EDGE('',*,*,#1201,.T.);
#1216 = ORIENTED_EDGE('',*,*,#1217,.T.);
#1217 = EDGE_CURVE('',#1194,#1218,#1220,.T.);
#1218 = VERTEX_POINT('',#1219);
#1219 = CARTESIAN_POINT('',(81.089831883879,103.89267151745,2.1));
#1220 = LINE('',#1221,#1222);
#1221 = CARTESIAN_POINT('',(77.439831883879,101.78534303491,2.1));
#1222 = VECTOR('',#1223,1.);
#1223 = DIRECTION('',(0.866025403784,0.5,0.));
#1224 = ORIENTED_EDGE('',*,*,#1225,.F.);
#1225 = EDGE_CURVE('',#400,#1218,#1226,.T.);
#1226 = LINE('',#1227,#1228);
#1227 = CARTESIAN_POINT('',(81.089831883879,103.89267151745,5.6));
#1228 = VECTOR('',#1229,1.);
#1229 = DIRECTION('',(-0.,-0.,-1.));
#1230 = ORIENTED_EDGE('',*,*,#407,.F.);
#1231 = PLANE('',#1232);
#1232 = AXIS2_PLACEMENT_3D('',#1233,#1234,#1235);
#1233 = CARTESIAN_POINT('',(77.439831883879,101.78534303491,5.6));
#1234 = DIRECTION('',(0.5,-0.866025403784,0.));
#1235 = DIRECTION('',(0.866025403784,0.5,0.));
#1236 = ADVANCED_FACE('',(#1237),#1248,.F.);
#1237 = FACE_BOUND('',#1238,.F.);
#1238 = EDGE_LOOP('',(#1239,#1240,#1246,#1247));
#1239 = ORIENTED_EDGE('',*,*,#1225,.T.);
#1240 = ORIENTED_EDGE('',*,*,#1241,.T.);
#1241 = EDGE_CURVE('',#1218,#1114,#1242,.T.);
#1242 = LINE('',#1243,#1244);
#1243 = CARTESIAN_POINT('',(81.089831883879,103.89267151745,2.1));
#1244 = VECTOR('',#1245,1.);
#1245 = DIRECTION('',(0.,1.,0.));
#1246 = ORIENTED_EDGE('',*,*,#1113,.F.);
#1247 = ORIENTED_EDGE('',*,*,#399,.F.);
#1248 = PLANE('',#1249);
#1249 = AXIS2_PLACEMENT_3D('',#1250,#1251,#1252);
#1250 = CARTESIAN_POINT('',(81.089831883879,103.89267151745,5.6));
#1251 = DIRECTION('',(1.,0.,0.));
#1252 = DIRECTION('',(0.,1.,0.));
#1253 = ADVANCED_FACE('',(#1254),#1279,.F.);
#1254 = FACE_BOUND('',#1255,.F.);
#1255 = EDGE_LOOP('',(#1256,#1264,#1272,#1278));
#1256 = ORIENTED_EDGE('',*,*,#1257,.T.);
#1257 = EDGE_CURVE('',#440,#1258,#1260,.T.);
#1258 = VERTEX_POINT('',#1259);
#1259 = CARTESIAN_POINT('',(81.089831883879,136.10732848254,2.1));
#1260 = LINE('',#1261,#1262);
#1261 = CARTESIAN_POINT('',(81.089831883879,136.10732848254,5.6));
#1262 = VECTOR('',#1263,1.);
#1263 = DIRECTION('',(-0.,-0.,-1.));
#1264 = ORIENTED_EDGE('',*,*,#1265,.T.);
#1265 = EDGE_CURVE('',#1258,#1266,#1268,.T.);
#1266 = VERTEX_POINT('',#1267);
#1267 = CARTESIAN_POINT('',(77.439831883879,138.21465696508,2.1));
#1268 = LINE('',#1269,#1270);
#1269 = CARTESIAN_POINT('',(81.089831883879,136.10732848254,2.1));
#1270 = VECTOR('',#1271,1.);
#1271 = DIRECTION('',(-0.866025403784,0.5,0.));
#1272 = ORIENTED_EDGE('',*,*,#1273,.F.);
#1273 = EDGE_CURVE('',#442,#1266,#1274,.T.);
#1274 = LINE('',#1275,#1276);
#1275 = CARTESIAN_POINT('',(77.439831883879,138.21465696508,5.6));
#1276 = VECTOR('',#1277,1.);
#1277 = DIRECTION('',(-0.,-0.,-1.));
#1278 = ORIENTED_EDGE('',*,*,#439,.F.);
#1279 = PLANE('',#1280);
#1280 = AXIS2_PLACEMENT_3D('',#1281,#1282,#1283);
#1281 = CARTESIAN_POINT('',(81.089831883879,136.10732848254,5.6));
#1282 = DIRECTION('',(0.5,0.866025403784,0.));
#1283 = DIRECTION('',(-0.866025403784,0.5,0.));
#1284 = ADVANCED_FACE('',(#1285),#1303,.F.);
#1285 = FACE_BOUND('',#1286,.F.);
#1286 = EDGE_LOOP('',(#1287,#1288,#1296,#1302));
#1287 = ORIENTED_EDGE('',*,*,#1273,.T.);
#1288 = ORIENTED_EDGE('',*,*,#1289,.T.);
#1289 = EDGE_CURVE('',#1266,#1290,#1292,.T.);
#1290 = VERTEX_POINT('',#1291);
#1291 = CARTESIAN_POINT('',(73.789831883879,136.10732848254,2.1));
#1292 = LINE('',#1293,#1294);
#1293 = CARTESIAN_POINT('',(77.439831883879,138.21465696508,2.1));
#1294 = VECTOR('',#1295,1.);
#1295 = DIRECTION('',(-0.866025403784,-0.5,0.));
#1296 = ORIENTED_EDGE('',*,*,#1297,.F.);
#1297 = EDGE_CURVE('',#474,#1290,#1298,.T.);
#1298 = LINE('',#1299,#1300);
#1299 = CARTESIAN_POINT('',(73.789831883879,136.10732848254,5.6));
#1300 = VECTOR('',#1301,1.);
#1301 = DIRECTION('',(-0.,-0.,-1.));
#1302 = ORIENTED_EDGE('',*,*,#481,.F.);
#1303 = PLANE('',#1304);
#1304 = AXIS2_PLACEMENT_3D('',#1305,#1306,#1307);
#1305 = CARTESIAN_POINT('',(77.439831883879,138.21465696508,5.6));
#1306 = DIRECTION('',(-0.5,0.866025403784,0.));
#1307 = DIRECTION('',(-0.866025403784,-0.5,0.));
#1308 = ADVANCED_FACE('',(#1309),#1327,.F.);
#1309 = FACE_BOUND('',#1310,.F.);
#1310 = EDGE_LOOP('',(#1311,#1312,#1320,#1326));
#1311 = ORIENTED_EDGE('',*,*,#1297,.T.);
#1312 = ORIENTED_EDGE('',*,*,#1313,.T.);
#1313 = EDGE_CURVE('',#1290,#1314,#1316,.T.);
#1314 = VERTEX_POINT('',#1315);
#1315 = CARTESIAN_POINT('',(73.789831883879,131.89267151745,2.1));
#1316 = LINE('',#1317,#1318);
#1317 = CARTESIAN_POINT('',(73.789831883879,136.10732848254,2.1));
#1318 = VECTOR('',#1319,1.);
#1319 = DIRECTION('',(1.05367818432E-16,-1.,0.));
#1320 = ORIENTED_EDGE('',*,*,#1321,.F.);
#1321 = EDGE_CURVE('',#466,#1314,#1322,.T.);
#1322 = LINE('',#1323,#1324);
#1323 = CARTESIAN_POINT('',(73.789831883879,131.89267151745,5.6));
#1324 = VECTOR('',#1325,1.);
#1325 = DIRECTION('',(-0.,-0.,-1.));
#1326 = ORIENTED_EDGE('',*,*,#473,.F.);
#1327 = PLANE('',#1328);
#1328 = AXIS2_PLACEMENT_3D('',#1329,#1330,#1331);
#1329 = CARTESIAN_POINT('',(73.789831883879,136.10732848254,5.6));
#1330 = DIRECTION('',(-1.,-1.05367818432E-16,0.));
#1331 = DIRECTION('',(1.05367818432E-16,-1.,0.));
#1332 = ADVANCED_FACE('',(#1333),#1351,.F.);
#1333 = FACE_BOUND('',#1334,.F.);
#1334 = EDGE_LOOP('',(#1335,#1336,#1344,#1350));
#1335 = ORIENTED_EDGE('',*,*,#1321,.T.);
#1336 = ORIENTED_EDGE('',*,*,#1337,.T.);
#1337 = EDGE_CURVE('',#1314,#1338,#1340,.T.);
#1338 = VERTEX_POINT('',#1339);
#1339 = CARTESIAN_POINT('',(77.439831883879,129.78534303491,2.1));
#1340 = LINE('',#1341,#1342);
#1341 = CARTESIAN_POINT('',(73.789831883879,131.89267151745,2.1));
#1342 = VECTOR('',#1343,1.);
#1343 = DIRECTION('',(0.866025403784,-0.5,0.));
#1344 = ORIENTED_EDGE('',*,*,#1345,.F.);
#1345 = EDGE_CURVE('',#458,#1338,#1346,.T.);
#1346 = LINE('',#1347,#1348);
#1347 = CARTESIAN_POINT('',(77.439831883879,129.78534303491,5.6));
#1348 = VECTOR('',#1349,1.);
#1349 = DIRECTION('',(-0.,-0.,-1.));
#1350 = ORIENTED_EDGE('',*,*,#465,.F.);
#1351 = PLANE('',#1352);
#1352 = AXIS2_PLACEMENT_3D('',#1353,#1354,#1355);
#1353 = CARTESIAN_POINT('',(73.789831883879,131.89267151745,5.6));
#1354 = DIRECTION('',(-0.5,-0.866025403784,0.));
#1355 = DIRECTION('',(0.866025403784,-0.5,0.));
#1356 = ADVANCED_FACE('',(#1357),#1375,.F.);
#1357 = FACE_BOUND('',#1358,.F.);
#1358 = EDGE_LOOP('',(#1359,#1360,#1368,#1374));
#1359 = ORIENTED_EDGE('',*,*,#1345,.T.);
#1360 = ORIENTED_EDGE('',*,*,#1361,.T.);
#1361 = EDGE_CURVE('',#1338,#1362,#1364,.T.);
#1362 = VERTEX_POINT('',#1363);
#1363 = CARTESIAN_POINT('',(81.089831883879,131.89267151745,2.1));
#1364 = LINE('',#1365,#1366);
#1365 = CARTESIAN_POINT('',(77.439831883879,129.78534303491,2.1));
#1366 = VECTOR('',#1367,1.);
#1367 = DIRECTION('',(0.866025403784,0.5,0.));
#1368 = ORIENTED_EDGE('',*,*,#1369,.F.);
#1369 = EDGE_CURVE('',#450,#1362,#1370,.T.);
#1370 = LINE('',#1371,#1372);
#1371 = CARTESIAN_POINT('',(81.089831883879,131.89267151745,5.6));
#1372 = VECTOR('',#1373,1.);
#1373 = DIRECTION('',(-0.,-0.,-1.));
#1374 = ORIENTED_EDGE('',*,*,#457,.F.);
#1375 = PLANE('',#1376);
#1376 = AXIS2_PLACEMENT_3D('',#1377,#1378,#1379);
#1377 = CARTESIAN_POINT('',(77.439831883879,129.78534303491,5.6));
#1378 = DIRECTION('',(0.5,-0.866025403784,0.));
#1379 = DIRECTION('',(0.866025403784,0.5,0.));
#1380 = ADVANCED_FACE('',(#1381),#1392,.F.);
#1381 = FACE_BOUND('',#1382,.F.);
#1382 = EDGE_LOOP('',(#1383,#1384,#1390,#1391));
#1383 = ORIENTED_EDGE('',*,*,#1369,.T.);
#1384 = ORIENTED_EDGE('',*,*,#1385,.T.);
#1385 = EDGE_CURVE('',#1362,#1258,#1386,.T.);
#1386 = LINE('',#1387,#1388);
#1387 = CARTESIAN_POINT('',(81.089831883879,131.89267151745,2.1));
#1388 = VECTOR('',#1389,1.);
#1389 = DIRECTION('',(4.214712737279E-16,1.,0.));
#1390 = ORIENTED_EDGE('',*,*,#1257,.F.);
#1391 = ORIENTED_EDGE('',*,*,#449,.F.);
#1392 = PLANE('',#1393);
#1393 = AXIS2_PLACEMENT_3D('',#1394,#1395,#1396);
#1394 = CARTESIAN_POINT('',(81.089831883879,131.89267151745,5.6));
#1395 = DIRECTION('',(1.,-4.214712737279E-16,0.));
#1396 = DIRECTION('',(4.214712737279E-16,1.,0.));
#1397 = ADVANCED_FACE('',(#1398),#1423,.F.);
#1398 = FACE_BOUND('',#1399,.F.);
#1399 = EDGE_LOOP('',(#1400,#1408,#1416,#1422));
#1400 = ORIENTED_EDGE('',*,*,#1401,.T.);
#1401 = EDGE_CURVE('',#490,#1402,#1404,.T.);
#1402 = VERTEX_POINT('',#1403);
#1403 = CARTESIAN_POINT('',(81.089831883879,188.10732848254,2.1));
#1404 = LINE('',#1405,#1406);
#1405 = CARTESIAN_POINT('',(81.089831883879,188.10732848254,5.6));
#1406 = VECTOR('',#1407,1.);
#1407 = DIRECTION('',(-0.,-0.,-1.));
#1408 = ORIENTED_EDGE('',*,*,#1409,.T.);
#1409 = EDGE_CURVE('',#1402,#1410,#1412,.T.);
#1410 = VERTEX_POINT('',#1411);
#1411 = CARTESIAN_POINT('',(77.439831883879,190.21465696508,2.1));
#1412 = LINE('',#1413,#1414);
#1413 = CARTESIAN_POINT('',(81.089831883879,188.10732848254,2.1));
#1414 = VECTOR('',#1415,1.);
#1415 = DIRECTION('',(-0.866025403784,0.5,0.));
#1416 = ORIENTED_EDGE('',*,*,#1417,.F.);
#1417 = EDGE_CURVE('',#492,#1410,#1418,.T.);
#1418 = LINE('',#1419,#1420);
#1419 = CARTESIAN_POINT('',(77.439831883879,190.21465696508,5.6));
#1420 = VECTOR('',#1421,1.);
#1421 = DIRECTION('',(-0.,-0.,-1.));
#1422 = ORIENTED_EDGE('',*,*,#489,.F.);
#1423 = PLANE('',#1424);
#1424 = AXIS2_PLACEMENT_3D('',#1425,#1426,#1427);
#1425 = CARTESIAN_POINT('',(81.089831883879,188.10732848254,5.6));
#1426 = DIRECTION('',(0.5,0.866025403784,0.));
#1427 = DIRECTION('',(-0.866025403784,0.5,0.));
#1428 = ADVANCED_FACE('',(#1429),#1447,.F.);
#1429 = FACE_BOUND('',#1430,.F.);
#1430 = EDGE_LOOP('',(#1431,#1432,#1440,#1446));
#1431 = ORIENTED_EDGE('',*,*,#1417,.T.);
#1432 = ORIENTED_EDGE('',*,*,#1433,.T.);
#1433 = EDGE_CURVE('',#1410,#1434,#1436,.T.);
#1434 = VERTEX_POINT('',#1435);
#1435 = CARTESIAN_POINT('',(73.789831883879,188.10732848254,2.1));
#1436 = LINE('',#1437,#1438);
#1437 = CARTESIAN_POINT('',(77.439831883879,190.21465696508,2.1));
#1438 = VECTOR('',#1439,1.);
#1439 = DIRECTION('',(-0.866025403784,-0.5,0.));
#1440 = ORIENTED_EDGE('',*,*,#1441,.F.);
#1441 = EDGE_CURVE('',#524,#1434,#1442,.T.);
#1442 = LINE('',#1443,#1444);
#1443 = CARTESIAN_POINT('',(73.789831883879,188.10732848254,5.6));
#1444 = VECTOR('',#1445,1.);
#1445 = DIRECTION('',(-0.,-0.,-1.));
#1446 = ORIENTED_EDGE('',*,*,#531,.F.);
#1447 = PLANE('',#1448);
#1448 = AXIS2_PLACEMENT_3D('',#1449,#1450,#1451);
#1449 = CARTESIAN_POINT('',(77.439831883879,190.21465696508,5.6));
#1450 = DIRECTION('',(-0.5,0.866025403784,0.));
#1451 = DIRECTION('',(-0.866025403784,-0.5,0.));
#1452 = ADVANCED_FACE('',(#1453),#1471,.F.);
#1453 = FACE_BOUND('',#1454,.F.);
#1454 = EDGE_LOOP('',(#1455,#1456,#1464,#1470));
#1455 = ORIENTED_EDGE('',*,*,#1441,.T.);
#1456 = ORIENTED_EDGE('',*,*,#1457,.T.);
#1457 = EDGE_CURVE('',#1434,#1458,#1460,.T.);
#1458 = VERTEX_POINT('',#1459);
#1459 = CARTESIAN_POINT('',(73.789831883879,183.89267151745,2.1));
#1460 = LINE('',#1461,#1462);
#1461 = CARTESIAN_POINT('',(73.789831883879,188.10732848254,2.1));
#1462 = VECTOR('',#1463,1.);
#1463 = DIRECTION('',(1.05367818432E-16,-1.,0.));
#1464 = ORIENTED_EDGE('',*,*,#1465,.F.);
#1465 = EDGE_CURVE('',#516,#1458,#1466,.T.);
#1466 = LINE('',#1467,#1468);
#1467 = CARTESIAN_POINT('',(73.789831883879,183.89267151745,5.6));
#1468 = VECTOR('',#1469,1.);
#1469 = DIRECTION('',(-0.,-0.,-1.));
#1470 = ORIENTED_EDGE('',*,*,#523,.F.);
#1471 = PLANE('',#1472);
#1472 = AXIS2_PLACEMENT_3D('',#1473,#1474,#1475);
#1473 = CARTESIAN_POINT('',(73.789831883879,188.10732848254,5.6));
#1474 = DIRECTION('',(-1.,-1.05367818432E-16,0.));
#1475 = DIRECTION('',(1.05367818432E-16,-1.,0.));
#1476 = ADVANCED_FACE('',(#1477),#1495,.F.);
#1477 = FACE_BOUND('',#1478,.F.);
#1478 = EDGE_LOOP('',(#1479,#1480,#1488,#1494));
#1479 = ORIENTED_EDGE('',*,*,#1465,.T.);
#1480 = ORIENTED_EDGE('',*,*,#1481,.T.);
#1481 = EDGE_CURVE('',#1458,#1482,#1484,.T.);
#1482 = VERTEX_POINT('',#1483);
#1483 = CARTESIAN_POINT('',(77.439831883879,181.78534303491,2.1));
#1484 = LINE('',#1485,#1486);
#1485 = CARTESIAN_POINT('',(73.789831883879,183.89267151745,2.1));
#1486 = VECTOR('',#1487,1.);
#1487 = DIRECTION('',(0.866025403784,-0.5,0.));
#1488 = ORIENTED_EDGE('',*,*,#1489,.F.);
#1489 = EDGE_CURVE('',#508,#1482,#1490,.T.);
#1490 = LINE('',#1491,#1492);
#1491 = CARTESIAN_POINT('',(77.439831883879,181.78534303491,5.6));
#1492 = VECTOR('',#1493,1.);
#1493 = DIRECTION('',(-0.,-0.,-1.));
#1494 = ORIENTED_EDGE('',*,*,#515,.F.);
#1495 = PLANE('',#1496);
#1496 = AXIS2_PLACEMENT_3D('',#1497,#1498,#1499);
#1497 = CARTESIAN_POINT('',(73.789831883879,183.89267151745,5.6));
#1498 = DIRECTION('',(-0.5,-0.866025403784,0.));
#1499 = DIRECTION('',(0.866025403784,-0.5,0.));
#1500 = ADVANCED_FACE('',(#1501),#1519,.F.);
#1501 = FACE_BOUND('',#1502,.F.);
#1502 = EDGE_LOOP('',(#1503,#1504,#1512,#1518));
#1503 = ORIENTED_EDGE('',*,*,#1489,.T.);
#1504 = ORIENTED_EDGE('',*,*,#1505,.T.);
#1505 = EDGE_CURVE('',#1482,#1506,#1508,.T.);
#1506 = VERTEX_POINT('',#1507);
#1507 = CARTESIAN_POINT('',(81.089831883879,183.89267151745,2.1));
#1508 = LINE('',#1509,#1510);
#1509 = CARTESIAN_POINT('',(77.439831883879,181.78534303491,2.1));
#1510 = VECTOR('',#1511,1.);
#1511 = DIRECTION('',(0.866025403784,0.5,0.));
#1512 = ORIENTED_EDGE('',*,*,#1513,.F.);
#1513 = EDGE_CURVE('',#500,#1506,#1514,.T.);
#1514 = LINE('',#1515,#1516);
#1515 = CARTESIAN_POINT('',(81.089831883879,183.89267151745,5.6));
#1516 = VECTOR('',#1517,1.);
#1517 = DIRECTION('',(-0.,-0.,-1.));
#1518 = ORIENTED_EDGE('',*,*,#507,.F.);
#1519 = PLANE('',#1520);
#1520 = AXIS2_PLACEMENT_3D('',#1521,#1522,#1523);
#1521 = CARTESIAN_POINT('',(77.439831883879,181.78534303491,5.6));
#1522 = DIRECTION('',(0.5,-0.866025403784,0.));
#1523 = DIRECTION('',(0.866025403784,0.5,0.));
#1524 = ADVANCED_FACE('',(#1525),#1536,.F.);
#1525 = FACE_BOUND('',#1526,.F.);
#1526 = EDGE_LOOP('',(#1527,#1528,#1534,#1535));
#1527 = ORIENTED_EDGE('',*,*,#1513,.T.);
#1528 = ORIENTED_EDGE('',*,*,#1529,.T.);
#1529 = EDGE_CURVE('',#1506,#1402,#1530,.T.);
#1530 = LINE('',#1531,#1532);
#1531 = CARTESIAN_POINT('',(81.089831883879,183.89267151745,2.1));
#1532 = VECTOR('',#1533,1.);
#1533 = DIRECTION('',(4.214712737279E-16,1.,0.));
#1534 = ORIENTED_EDGE('',*,*,#1401,.F.);
#1535 = ORIENTED_EDGE('',*,*,#499,.F.);
#1536 = PLANE('',#1537);
#1537 = AXIS2_PLACEMENT_3D('',#1538,#1539,#1540);
#1538 = CARTESIAN_POINT('',(81.089831883879,183.89267151745,5.6));
#1539 = DIRECTION('',(1.,-4.214712737279E-16,0.));
#1540 = DIRECTION('',(4.214712737279E-16,1.,0.));
#1541 = ADVANCED_FACE('',(#1542),#1567,.F.);
#1542 = FACE_BOUND('',#1543,.F.);
#1543 = EDGE_LOOP('',(#1544,#1552,#1560,#1566));
#1544 = ORIENTED_EDGE('',*,*,#1545,.T.);
#1545 = EDGE_CURVE('',#540,#1546,#1548,.T.);
#1546 = VERTEX_POINT('',#1547);
#1547 = CARTESIAN_POINT('',(81.089831883879,268.10732848254,2.1));
#1548 = LINE('',#1549,#1550);
#1549 = CARTESIAN_POINT('',(81.089831883879,268.10732848254,5.6));
#1550 = VECTOR('',#1551,1.);
#1551 = DIRECTION('',(-0.,-0.,-1.));
#1552 = ORIENTED_EDGE('',*,*,#1553,.T.);
#1553 = EDGE_CURVE('',#1546,#1554,#1556,.T.);
#1554 = VERTEX_POINT('',#1555);
#1555 = CARTESIAN_POINT('',(77.439831883879,270.21465696508,2.1));
#1556 = LINE('',#1557,#1558);
#1557 = CARTESIAN_POINT('',(81.089831883879,268.10732848254,2.1));
#1558 = VECTOR('',#1559,1.);
#1559 = DIRECTION('',(-0.866025403784,0.5,0.));
#1560 = ORIENTED_EDGE('',*,*,#1561,.F.);
#1561 = EDGE_CURVE('',#542,#1554,#1562,.T.);
#1562 = LINE('',#1563,#1564);
#1563 = CARTESIAN_POINT('',(77.439831883879,270.21465696508,5.6));
#1564 = VECTOR('',#1565,1.);
#1565 = DIRECTION('',(-0.,-0.,-1.));
#1566 = ORIENTED_EDGE('',*,*,#539,.F.);
#1567 = PLANE('',#1568);
#1568 = AXIS2_PLACEMENT_3D('',#1569,#1570,#1571);
#1569 = CARTESIAN_POINT('',(81.089831883879,268.10732848254,5.6));
#1570 = DIRECTION('',(0.5,0.866025403784,0.));
#1571 = DIRECTION('',(-0.866025403784,0.5,0.));
#1572 = ADVANCED_FACE('',(#1573),#1591,.F.);
#1573 = FACE_BOUND('',#1574,.F.);
#1574 = EDGE_LOOP('',(#1575,#1576,#1584,#1590));
#1575 = ORIENTED_EDGE('',*,*,#1561,.T.);
#1576 = ORIENTED_EDGE('',*,*,#1577,.T.);
#1577 = EDGE_CURVE('',#1554,#1578,#1580,.T.);
#1578 = VERTEX_POINT('',#1579);
#1579 = CARTESIAN_POINT('',(73.789831883879,268.10732848254,2.1));
#1580 = LINE('',#1581,#1582);
#1581 = CARTESIAN_POINT('',(77.439831883879,270.21465696508,2.1));
#1582 = VECTOR('',#1583,1.);
#1583 = DIRECTION('',(-0.866025403784,-0.5,0.));
#1584 = ORIENTED_EDGE('',*,*,#1585,.F.);
#1585 = EDGE_CURVE('',#574,#1578,#1586,.T.);
#1586 = LINE('',#1587,#1588);
#1587 = CARTESIAN_POINT('',(73.789831883879,268.10732848254,5.6));
#1588 = VECTOR('',#1589,1.);
#1589 = DIRECTION('',(-0.,-0.,-1.));
#1590 = ORIENTED_EDGE('',*,*,#581,.F.);
#1591 = PLANE('',#1592);
#1592 = AXIS2_PLACEMENT_3D('',#1593,#1594,#1595);
#1593 = CARTESIAN_POINT('',(77.439831883879,270.21465696508,5.6));
#1594 = DIRECTION('',(-0.5,0.866025403784,0.));
#1595 = DIRECTION('',(-0.866025403784,-0.5,0.));
#1596 = ADVANCED_FACE('',(#1597),#1615,.F.);
#1597 = FACE_BOUND('',#1598,.F.);
#1598 = EDGE_LOOP('',(#1599,#1600,#1608,#1614));
#1599 = ORIENTED_EDGE('',*,*,#1585,.T.);
#1600 = ORIENTED_EDGE('',*,*,#1601,.T.);
#1601 = EDGE_CURVE('',#1578,#1602,#1604,.T.);
#1602 = VERTEX_POINT('',#1603);
#1603 = CARTESIAN_POINT('',(73.789831883879,263.89267151745,2.1));
#1604 = LINE('',#1605,#1606);
#1605 = CARTESIAN_POINT('',(73.789831883879,268.10732848254,2.1));
#1606 = VECTOR('',#1607,1.);
#1607 = DIRECTION('',(1.05367818432E-16,-1.,0.));
#1608 = ORIENTED_EDGE('',*,*,#1609,.F.);
#1609 = EDGE_CURVE('',#566,#1602,#1610,.T.);
#1610 = LINE('',#1611,#1612);
#1611 = CARTESIAN_POINT('',(73.789831883879,263.89267151745,5.6));
#1612 = VECTOR('',#1613,1.);
#1613 = DIRECTION('',(-0.,-0.,-1.));
#1614 = ORIENTED_EDGE('',*,*,#573,.F.);
#1615 = PLANE('',#1616);
#1616 = AXIS2_PLACEMENT_3D('',#1617,#1618,#1619);
#1617 = CARTESIAN_POINT('',(73.789831883879,268.10732848254,5.6));
#1618 = DIRECTION('',(-1.,-1.05367818432E-16,0.));
#1619 = DIRECTION('',(1.05367818432E-16,-1.,0.));
#1620 = ADVANCED_FACE('',(#1621),#1639,.F.);
#1621 = FACE_BOUND('',#1622,.F.);
#1622 = EDGE_LOOP('',(#1623,#1624,#1632,#1638));
#1623 = ORIENTED_EDGE('',*,*,#1609,.T.);
#1624 = ORIENTED_EDGE('',*,*,#1625,.T.);
#1625 = EDGE_CURVE('',#1602,#1626,#1628,.T.);
#1626 = VERTEX_POINT('',#1627);
#1627 = CARTESIAN_POINT('',(77.439831883879,261.78534303491,2.1));
#1628 = LINE('',#1629,#1630);
#1629 = CARTESIAN_POINT('',(73.789831883879,263.89267151745,2.1));
#1630 = VECTOR('',#1631,1.);
#1631 = DIRECTION('',(0.866025403784,-0.5,0.));
#1632 = ORIENTED_EDGE('',*,*,#1633,.F.);
#1633 = EDGE_CURVE('',#558,#1626,#1634,.T.);
#1634 = LINE('',#1635,#1636);
#1635 = CARTESIAN_POINT('',(77.439831883879,261.78534303491,5.6));
#1636 = VECTOR('',#1637,1.);
#1637 = DIRECTION('',(-0.,-0.,-1.));
#1638 = ORIENTED_EDGE('',*,*,#565,.F.);
#1639 = PLANE('',#1640);
#1640 = AXIS2_PLACEMENT_3D('',#1641,#1642,#1643);
#1641 = CARTESIAN_POINT('',(73.789831883879,263.89267151745,5.6));
#1642 = DIRECTION('',(-0.5,-0.866025403784,0.));
#1643 = DIRECTION('',(0.866025403784,-0.5,0.));
#1644 = ADVANCED_FACE('',(#1645),#1663,.F.);
#1645 = FACE_BOUND('',#1646,.F.);
#1646 = EDGE_LOOP('',(#1647,#1648,#1656,#1662));
#1647 = ORIENTED_EDGE('',*,*,#1633,.T.);
#1648 = ORIENTED_EDGE('',*,*,#1649,.T.);
#1649 = EDGE_CURVE('',#1626,#1650,#1652,.T.);
#1650 = VERTEX_POINT('',#1651);
#1651 = CARTESIAN_POINT('',(81.089831883879,263.89267151745,2.1));
#1652 = LINE('',#1653,#1654);
#1653 = CARTESIAN_POINT('',(77.439831883879,261.78534303491,2.1));
#1654 = VECTOR('',#1655,1.);
#1655 = DIRECTION('',(0.866025403784,0.5,0.));
#1656 = ORIENTED_EDGE('',*,*,#1657,.F.);
#1657 = EDGE_CURVE('',#550,#1650,#1658,.T.);
#1658 = LINE('',#1659,#1660);
#1659 = CARTESIAN_POINT('',(81.089831883879,263.89267151745,5.6));
#1660 = VECTOR('',#1661,1.);
#1661 = DIRECTION('',(-0.,-0.,-1.));
#1662 = ORIENTED_EDGE('',*,*,#557,.F.);
#1663 = PLANE('',#1664);
#1664 = AXIS2_PLACEMENT_3D('',#1665,#1666,#1667);
#1665 = CARTESIAN_POINT('',(77.439831883879,261.78534303491,5.6));
#1666 = DIRECTION('',(0.5,-0.866025403784,0.));
#1667 = DIRECTION('',(0.866025403784,0.5,0.));
#1668 = ADVANCED_FACE('',(#1669),#1680,.F.);
#1669 = FACE_BOUND('',#1670,.F.);
#1670 = EDGE_LOOP('',(#1671,#1672,#1678,#1679));
#1671 = ORIENTED_EDGE('',*,*,#1657,.T.);
#1672 = ORIENTED_EDGE('',*,*,#1673,.T.);
#1673 = EDGE_CURVE('',#1650,#1546,#1674,.T.);
#1674 = LINE('',#1675,#1676);
#1675 = CARTESIAN_POINT('',(81.089831883879,263.89267151745,2.1));
#1676 = VECTOR('',#1677,1.);
#1677 = DIRECTION('',(4.214712737279E-16,1.,0.));
#1678 = ORIENTED_EDGE('',*,*,#1545,.F.);
#1679 = ORIENTED_EDGE('',*,*,#549,.F.);
#1680 = PLANE('',#1681);
#1681 = AXIS2_PLACEMENT_3D('',#1682,#1683,#1684);
#1682 = CARTESIAN_POINT('',(81.089831883879,263.89267151745,5.6));
#1683 = DIRECTION('',(1.,-4.214712737279E-16,0.));
#1684 = DIRECTION('',(4.214712737279E-16,1.,0.));
#1685 = ADVANCED_FACE('',(#1686,#1694),#1697,.T.);
#1686 = FACE_BOUND('',#1687,.T.);
#1687 = EDGE_LOOP('',(#1688,#1689,#1690,#1691,#1692,#1693));
#1688 = ORIENTED_EDGE('',*,*,#833,.T.);
#1689 = ORIENTED_EDGE('',*,*,#857,.T.);
#1690 = ORIENTED_EDGE('',*,*,#881,.T.);
#1691 = ORIENTED_EDGE('',*,*,#905,.T.);
#1692 = ORIENTED_EDGE('',*,*,#929,.T.);
#1693 = ORIENTED_EDGE('',*,*,#953,.T.);
#1694 = FACE_BOUND('',#1695,.T.);
#1695 = EDGE_LOOP('',(#1696));
#1696 = ORIENTED_EDGE('',*,*,#675,.F.);
#1697 = PLANE('',#1698);
#1698 = AXIS2_PLACEMENT_3D('',#1699,#1700,#1701);
#1699 = CARTESIAN_POINT('',(77.439831883879,120.,2.1));
#1700 = DIRECTION('',(0.,0.,1.));
#1701 = DIRECTION('',(1.,0.,0.));
#1702 = ADVANCED_FACE('',(#1703,#1711),#1714,.T.);
#1703 = FACE_BOUND('',#1704,.T.);
#1704 = EDGE_LOOP('',(#1705,#1706,#1707,#1708,#1709,#1710));
#1705 = ORIENTED_EDGE('',*,*,#977,.T.);
#1706 = ORIENTED_EDGE('',*,*,#1001,.T.);
#1707 = ORIENTED_EDGE('',*,*,#1025,.T.);
#1708 = ORIENTED_EDGE('',*,*,#1049,.T.);
#1709 = ORIENTED_EDGE('',*,*,#1073,.T.);
#1710 = ORIENTED_EDGE('',*,*,#1097,.T.);
#1711 = FACE_BOUND('',#1712,.T.);
#1712 = EDGE_LOOP('',(#1713));
#1713 = ORIENTED_EDGE('',*,*,#700,.F.);
#1714 = PLANE('',#1715);
#1715 = AXIS2_PLACEMENT_3D('',#1716,#1717,#1718);
#1716 = CARTESIAN_POINT('',(77.439831883879,120.,2.1));
#1717 = DIRECTION('',(0.,0.,1.));
#1718 = DIRECTION('',(1.,0.,0.));
#1719 = ADVANCED_FACE('',(#1720,#1728),#1731,.T.);
#1720 = FACE_BOUND('',#1721,.T.);
#1721 = EDGE_LOOP('',(#1722,#1723,#1724,#1725,#1726,#1727));
#1722 = ORIENTED_EDGE('',*,*,#1121,.T.);
#1723 = ORIENTED_EDGE('',*,*,#1145,.T.);
#1724 = ORIENTED_EDGE('',*,*,#1169,.T.);
#1725 = ORIENTED_EDGE('',*,*,#1193,.T.);
#1726 = ORIENTED_EDGE('',*,*,#1217,.T.);
#1727 = ORIENTED_EDGE('',*,*,#1241,.T.);
#1728 = FACE_BOUND('',#1729,.T.);
#1729 = EDGE_LOOP('',(#1730));
#1730 = ORIENTED_EDGE('',*,*,#725,.F.);
#1731 = PLANE('',#1732);
#1732 = AXIS2_PLACEMENT_3D('',#1733,#1734,#1735);
#1733 = CARTESIAN_POINT('',(77.439831883879,120.,2.1));
#1734 = DIRECTION('',(0.,0.,1.));
#1735 = DIRECTION('',(1.,0.,0.));
#1736 = ADVANCED_FACE('',(#1737,#1745),#1748,.T.);
#1737 = FACE_BOUND('',#1738,.T.);
#1738 = EDGE_LOOP('',(#1739,#1740,#1741,#1742,#1743,#1744));
#1739 = ORIENTED_EDGE('',*,*,#1265,.T.);
#1740 = ORIENTED_EDGE('',*,*,#1289,.T.);
#1741 = ORIENTED_EDGE('',*,*,#1313,.T.);
#1742 = ORIENTED_EDGE('',*,*,#1337,.T.);
#1743 = ORIENTED_EDGE('',*,*,#1361,.T.);
#1744 = ORIENTED_EDGE('',*,*,#1385,.T.);
#1745 = FACE_BOUND('',#1746,.T.);
#1746 = EDGE_LOOP('',(#1747));
#1747 = ORIENTED_EDGE('',*,*,#750,.F.);
#1748 = PLANE('',#1749);
#1749 = AXIS2_PLACEMENT_3D('',#1750,#1751,#1752);
#1750 = CARTESIAN_POINT('',(77.439831883879,120.,2.1));
#1751 = DIRECTION('',(0.,0.,1.));
#1752 = DIRECTION('',(1.,0.,0.));
#1753 = ADVANCED_FACE('',(#1754,#1762),#1765,.T.);
#1754 = FACE_BOUND('',#1755,.T.);
#1755 = EDGE_LOOP('',(#1756,#1757,#1758,#1759,#1760,#1761));
#1756 = ORIENTED_EDGE('',*,*,#1409,.T.);
#1757 = ORIENTED_EDGE('',*,*,#1433,.T.);
#1758 = ORIENTED_EDGE('',*,*,#1457,.T.);
#1759 = ORIENTED_EDGE('',*,*,#1481,.T.);
#1760 = ORIENTED_EDGE('',*,*,#1505,.T.);
#1761 = ORIENTED_EDGE('',*,*,#1529,.T.);
#1762 = FACE_BOUND('',#1763,.T.);
#1763 = EDGE_LOOP('',(#1764));
#1764 = ORIENTED_EDGE('',*,*,#775,.F.);
#1765 = PLANE('',#1766);
#1766 = AXIS2_PLACEMENT_3D('',#1767,#1768,#1769);
#1767 = CARTESIAN_POINT('',(77.439831883879,120.,2.1));
#1768 = DIRECTION('',(0.,0.,1.));
#1769 = DIRECTION('',(1.,0.,0.));
#1770 = ADVANCED_FACE('',(#1771,#1779),#1782,.T.);
#1771 = FACE_BOUND('',#1772,.T.);
#1772 = EDGE_LOOP('',(#1773,#1774,#1775,#1776,#1777,#1778));
#1773 = ORIENTED_EDGE('',*,*,#1553,.T.);
#1774 = ORIENTED_EDGE('',*,*,#1577,.T.);
#1775 = ORIENTED_EDGE('',*,*,#1601,.T.);
#1776 = ORIENTED_EDGE('',*,*,#1625,.T.);
#1777 = ORIENTED_EDGE('',*,*,#1649,.T.);
#1778 = ORIENTED_EDGE('',*,*,#1673,.T.);
#1779 = FACE_BOUND('',#1780,.T.);
#1780 = EDGE_LOOP('',(#1781));
#1781 = ORIENTED_EDGE('',*,*,#800,.F.);
#1782 = PLANE('',#1783);
#1783 = AXIS2_PLACEMENT_3D('',#1784,#1785,#1786);
#1784 = CARTESIAN_POINT('',(77.439831883879,120.,2.1));
#1785 = DIRECTION('',(0.,0.,1.));
#1786 = DIRECTION('',(1.,0.,0.));
#1787 = ( GEOMETRIC_REPRESENTATION_CONTEXT(3) 
GLOBAL_UNCERTAINTY_ASSIGNED_CONTEXT((#1791)) 
GLOBAL_UNIT_ASSIGNED_CONTEXT((#1788,#1789,#1790)) REPRESENTATION_CONTEXT
('Context #1','3D Context with UNIT and UNCERTAINTY') );
#1788 = ( LENGTH_UNIT() NAMED_UNIT(*) SI_UNIT(.MILLI.,.METRE.) );
#1789 = ( NAMED_UNIT(*) PLANE_ANGLE_UNIT() SI_UNIT($,.RADIAN.) );
#1790 = ( NAMED_UNIT(*) SI_UNIT($,.STERADIAN.) SOLID_ANGLE_UNIT() );
#1791 = UNCERTAINTY_MEASURE_WITH_UNIT(LENGTH_MEASURE(1.E-07),#1788,
  'distance_accuracy_value','confusion accuracy');
#1792 = PRODUCT_RELATED_PRODUCT_CATEGORY('part',$,(#7));
ENDSEC;
END-ISO-10303-21;
